<?xml version="1.0" standalone="no"?><!DOCTYPE svg PUBLIC "-//W3C//DTD SVG 1.1//EN" "http://www.w3.org/Graphics/SVG/1.1/DTD/svg11.dtd" ><svg xmlns="http://www.w3.org/2000/svg"><metadata></metadata><defs>
<font id="Akrobat-Black" >
<font-face font-family="Akrobat Black" font-stretch="normal" units-per-em="1000" weight="900" panose-1="0,0,10,0,0,0,0,0,0,0" ascent="1000" descent="-200" x-height="530" underline-thickness="50" underline-position="-75" unicode-range="U+00000032-00009674" bbox="-579,-281,819,999" />
<missing-glyph horiz-adv-x="500" d="M410 800L93 800L93 -200L410 -200ZM333 733L333 700L267 700L267 663L333 663L333 630L167 630L167 663L233 663L233 700L168 700L168 733ZM267 604L267 534L333 534L333 500L167 500L167 604ZM233 570L200 570L200 534L233 534ZM333 473L333 440L267 440L267 370L167 370L167 403L233 403L233 440L167 440L167 473ZM333 413L333 313L167 313L167 347L300 347L300 413ZM333 291L333 178L167 178L167 291L200 291L200 211L300 211L300 258L267 258L267 235L233 235L233 291ZM333 118L333 5L167 5L167 118ZM300 85L200 85L200 38L300 38ZM333 -18L333 -51L301 -51L231 -98L333 -98L333 -131L167 -131L167 -98L237 -51L167 -51L167 -18Z" />
<glyph glyph-name="space" unicode="&#x20;" horiz-adv-x="200" d="" />
<glyph glyph-name="exclam" unicode="&#x21;" horiz-adv-x="280" d="M71 192L208 192L208 700L71 700ZM140 -12C185 -12 215 18 215 63C215 108 185 138 140 138C95 138 65 108 65 63C65 18 95 -12 140 -12Z" />
<glyph glyph-name="quotedbl" unicode="&#x22;" horiz-adv-x="341" d="M43 700L23 437L102 437L170 700ZM203 700L183 437L262 437L330 700Z" />
<glyph glyph-name="numbersign" unicode="&#x23;" horiz-adv-x="671" d="M80 0L204 0L243 169L348 169L309 0L434 0L473 169L585 169L607 268L495 268L530 421L642 421L665 520L553 520L594 700L469 700L428 520L323 520L364 700L240 700L199 520L86 520L63 421L176 421L141 268L28 268L6 169L119 169ZM265 268L300 421L405 421L370 268Z" />
<glyph glyph-name="dollar" unicode="&#x24;" horiz-adv-x="479" d="M456 185C456 408 178 415 178 525C178 557 200 577 237 577C278 577 299 554 299 508L445 508C445 616 391 687 298 708L298 785L178 785L178 708C86 687 34 618 34 529C34 316 308 302 308 186C308 151 285 124 238 124C193 124 165 148 165 204L19 204C19 85 79 11 178 -9L178 -85L298 -85L298 -8C399 14 456 88 456 185Z" />
<glyph glyph-name="percent" unicode="&#x25;" horiz-adv-x="601" d="M111 386C176 386 218 424 218 496L218 601C218 673 176 712 111 712C45 712 3 673 3 601L3 496C3 424 45 386 111 386ZM14 0L104 0L586 700L496 700ZM111 457C92 457 83 466 83 494L83 603C83 632 92 641 111 641C130 641 138 632 138 603L138 494C138 466 130 457 111 457ZM472 -9C537 -9 579 29 579 101L579 206C579 278 537 317 472 317C406 317 364 278 364 206L364 101C364 29 406 -9 472 -9ZM472 62C453 62 444 71 444 99L444 208C444 237 453 246 472 246C491 246 499 237 499 208L499 99C499 71 491 62 472 62Z" />
<glyph glyph-name="ampersand" unicode="&#x26;" horiz-adv-x="605" d="M565 0C532 50 501 95 474 135C504 183 526 238 539 294L416 294C413 281 407 263 399 245C369 289 343 325 322 355C375 408 424 468 424 551C424 632 378 714 262 714C148 714 100 624 100 547C100 497 125 442 167 375C112 320 62 255 62 167C62 46 156 -14 248 -14C305 -14 355 8 398 45L428 0ZM262 599C293 599 303 570 303 548C303 517 282 488 253 457C226 499 219 519 219 543C219 586 242 599 262 599ZM254 111C219 111 193 134 193 176C193 211 211 242 238 272C265 233 296 191 329 145C306 125 281 111 254 111Z" />
<glyph glyph-name="quotesingle" unicode="&#x27;" horiz-adv-x="181" d="M43 700L23 437L102 437L170 700Z" />
<glyph glyph-name="parenleft" unicode="&#x28;" horiz-adv-x="310" d="M272 -124L272 3C222 3 198 28 198 80L198 616C198 668 222 693 272 693L272 820C136 820 62 743 62 607L62 89C62 -47 136 -124 272 -124Z" />
<glyph glyph-name="parenright" unicode="&#x29;" horiz-adv-x="310" d="M38 -124C174 -124 248 -47 248 89L248 607C248 743 174 820 38 820L38 693C88 693 112 668 112 616L112 80C112 28 88 3 38 3Z" />
<glyph glyph-name="asterisk" unicode="&#x2a;" horiz-adv-x="320" d="M117 476L160 535L203 476L273 527L230 587L300 609L273 691L203 668L203 742L117 742L117 668L47 691L20 609L90 586L47 527Z" />
<glyph glyph-name="plus" unicode="&#x2b;" horiz-adv-x="480" d="M440 373L303 373L303 515L177 515L177 373L40 373L40 248L177 248L177 106L303 106L303 248L440 248Z" />
<glyph glyph-name="comma" unicode="&#x2c;" horiz-adv-x="191" d="M42 120L22 -143L101 -143L169 120Z" />
<glyph glyph-name="hyphen" unicode="&#x2d;" horiz-adv-x="310" d="M30 199L280 199L280 315L30 315Z" />
<glyph glyph-name="period" unicode="&#x2e;" horiz-adv-x="206" d="M103 -12C148 -12 178 18 178 63C178 108 148 138 103 138C58 138 28 108 28 63C28 18 58 -12 103 -12Z" />
<glyph glyph-name="slash" unicode="&#x2f;" horiz-adv-x="442" d="M322 817L4 -123L120 -123L438 817Z" />
<glyph glyph-name="zero" unicode="&#x30;" horiz-adv-x="487" d="M243 -10C370 -10 445 68 445 201L445 497C445 631 370 710 243 710C117 710 42 631 42 497L42 201C42 68 117 -10 243 -10ZM243 116C196 116 172 145 172 201L172 497C172 554 196 584 243 584C290 584 315 554 315 497L315 201C315 145 290 116 243 116Z" />
<glyph glyph-name="one" unicode="&#x31;" horiz-adv-x="316" d="M169 700L23 610L23 464L119 519L119 0L254 0L254 700Z" />
<glyph glyph-name="two" unicode="&#x32;" horiz-adv-x="439" d="M23 0L411 0L411 126L166 126C166 232 408 351 408 530C408 618 349 712 216 712C103 712 36 644 30 511L158 511C160 558 182 584 218 584C257 584 273 553 273 523C273 406 23 306 23 84Z" />
<glyph glyph-name="three" unicode="&#x33;" horiz-adv-x="436" d="M276 434L385 611L385 700L35 700L35 577L222 577L127 420L127 332L193 332C240 332 264 316 264 249L264 214C264 149 253 120 204 120C164 120 149 145 145 193L11 193C17 63 82 -12 206 -12C346 -12 400 65 400 211L400 254C400 339 354 421 276 434Z" />
<glyph glyph-name="four" unicode="&#x34;" horiz-adv-x="459" d="M457 282L385 282L385 515L277 515L256 282L151 282L267 700L134 700L6 232L6 160L254 160L254 0L385 0L385 160L457 160Z" />
<glyph glyph-name="five" unicode="&#x35;" horiz-adv-x="460" d="M263 484C237 484 211 476 190 465L190 580L406 580L406 700L54 700L54 298L188 298C195 341 214 355 245 355C274 355 292 338 292 276L292 199C292 138 272 120 238 120C205 120 188 137 185 190L47 190C50 65 123 -12 238 -12C353 -12 430 65 430 201L430 274C430 408 360 484 263 484Z" />
<glyph glyph-name="six" unicode="&#x36;" horiz-adv-x="461" d="M258 458C230 458 199 449 179 433L179 521C179 562 200 580 234 580C268 580 284 557 288 520L424 520C421 638 347 712 234 712C119 712 42 636 42 519L42 181C42 65 120 -12 235 -12C350 -12 428 65 428 181L428 280C428 382 360 458 258 458ZM291 182C291 143 270 120 235 120C200 120 179 143 179 182L179 270C179 310 200 334 236 334C271 334 291 310 291 270Z" />
<glyph glyph-name="seven" unicode="&#x37;" horiz-adv-x="388" d="M-9 700L-9 576L218 576L43 0L184 0L370 599L370 700Z" />
<glyph glyph-name="eight" unicode="&#x38;" horiz-adv-x="468" d="M366 369C400 405 421 451 421 499L421 520C421 635 346 712 234 712C122 712 47 635 47 520L47 499C47 451 68 403 101 368C61 337 35 284 35 226L35 194C35 65 115 -12 234 -12C353 -12 433 65 433 194L433 226C433 285 407 338 366 369ZM180 514C180 562 199 581 234 581C269 581 288 562 288 514L288 495C288 446 269 424 234 424C199 424 180 446 180 495ZM298 195C298 143 276 121 234 121C192 121 170 143 170 195L170 225C170 276 192 298 234 298C276 298 298 276 298 225Z" />
<glyph glyph-name="nine" unicode="&#x39;" horiz-adv-x="461" d="M226 712C111 712 33 635 33 519L33 420C33 318 101 242 203 242C231 242 262 251 282 267L282 179C282 138 261 120 227 120C193 120 177 143 173 180L37 180C40 62 114 -12 227 -12C342 -12 419 64 419 181L419 519C419 635 341 712 226 712ZM225 366C190 366 170 390 170 430L170 518C170 557 191 580 226 580C261 580 282 557 282 518L282 430C282 390 261 366 225 366Z" />
<glyph glyph-name="colon" unicode="&#x3a;" horiz-adv-x="190" d="M103 326C148 326 178 356 178 401C178 446 148 476 103 476C58 476 28 446 28 401C28 356 58 326 103 326ZM103 -12C148 -12 178 18 178 63C178 108 148 138 103 138C58 138 28 108 28 63C28 18 58 -12 103 -12Z" />
<glyph glyph-name="semicolon" unicode="&#x3b;" horiz-adv-x="200" d="M103 328C148 328 178 358 178 403C178 448 148 478 103 478C58 478 28 448 28 403C28 358 58 328 103 328ZM42 120L22 -143L101 -143L169 120Z" />
<glyph glyph-name="less" unicode="&#x3c;" horiz-adv-x="450" d="M410 496L40 360L40 231L410 95L410 221L182 296L410 370Z" />
<glyph glyph-name="equal" unicode="&#x3d;" horiz-adv-x="480" d="M40 350L440 350L440 473L40 473ZM40 138L440 138L440 260L40 260Z" />
<glyph glyph-name="greater" unicode="&#x3e;" horiz-adv-x="450" d="M40 496L40 370L268 296L40 221L40 95L410 231L410 360Z" />
<glyph glyph-name="question" unicode="&#x3f;" horiz-adv-x="412" d="M123 192L257 192L257 221C257 356 389 380 389 526C389 642 308 714 195 714C76 714 9 634 0 507L131 507C134 557 151 589 196 589C243 589 255 555 255 525C255 421 123 412 123 218ZM191 -12C236 -12 266 18 266 63C266 108 236 138 191 138C146 138 116 108 116 63C116 18 146 -12 191 -12Z" />
<glyph glyph-name="at" unicode="&#x40;" horiz-adv-x="836" d="M425 727C184 727 38 601 38 376L38 265C38 14 183 -128 447 -128C554 -128 638 -104 701 -62L648 16C592 -8 519 -25 440 -25C244 -25 145 75 145 265L145 376C145 539 243 624 426 624C601 624 691 546 691 398L691 290C691 222 666 184 618 184C573 184 566 216 566 263L566 503L486 503L479 465C461 498 435 519 389 519C318 519 261 470 261 358L261 237C261 137 313 82 396 82C462 82 494 117 510 150C527 116 554 82 618 82C697 82 798 134 798 290L798 398C798 605 662 727 425 727ZM411 186C385 186 372 206 372 241L372 362C372 396 387 416 413 416C441 416 458 393 458 354L458 249C458 209 439 186 411 186Z" />
<glyph glyph-name="A" unicode="&#x41;" horiz-adv-x="494" d="M344 0L491 0L323 700L171 700L3 0L150 0L173 116L321 116ZM201 251L217 331C227 381 238 466 245 523L249 523C256 466 268 381 277 331L293 251Z" />
<glyph glyph-name="B" unicode="&#x42;" horiz-adv-x="519" d="M406 358C443 392 465 448 465 501C465 620 388 700 280 700L62 700L62 0L283 0C403 0 489 84 489 209C489 272 458 328 406 358ZM255 566C301 566 321 542 321 495C321 446 300 420 260 420L204 420L204 566ZM258 134L204 134L204 287L261 287C314 287 343 261 343 210C343 160 314 134 258 134Z" />
<glyph glyph-name="C" unicode="&#x43;" horiz-adv-x="504" d="M258 -12C400 -12 481 67 484 214L342 214C338 152 313 126 258 126C214 126 190 154 190 214L190 486C190 548 215 576 258 576C312 576 336 550 340 486L482 486C477 634 399 714 259 714C122 714 42 634 42 486L42 214C42 67 122 -12 258 -12Z" />
<glyph glyph-name="D" unicode="&#x44;" horiz-adv-x="520" d="M62 0L256 0C396 0 478 88 478 237L478 468C478 614 395 700 254 700L62 700ZM204 135L204 565L256 565C307 565 334 532 334 468L334 237C334 170 307 135 256 135Z" />
<glyph glyph-name="E" unicode="&#x45;" horiz-adv-x="468" d="M204 135L204 290L403 290L403 420L204 420L204 565L423 565L423 700L62 700L62 0L433 0L433 135Z" />
<glyph glyph-name="F" unicode="&#x46;" horiz-adv-x="431" d="M408 565L408 700L62 700L62 0L204 0L204 290L388 290L388 420L204 420L204 565Z" />
<glyph glyph-name="G" unicode="&#x47;" horiz-adv-x="517" d="M263 -12C400 -12 478 67 482 214L482 390L258 390L258 264L342 264L342 214C342 151 317 125 265 125C215 125 190 151 190 214L190 486C190 549 216 575 264 575C313 575 333 549 336 486L478 486C473 633 399 712 264 712C124 712 42 633 42 486L42 214C42 67 124 -12 263 -12Z" />
<glyph glyph-name="H" unicode="&#x48;" horiz-adv-x="554" d="M349 700L349 420L205 420L205 700L62 700L62 0L205 0L205 285L349 285L349 0L492 0L492 700Z" />
<glyph glyph-name="I" unicode="&#x49;" horiz-adv-x="266" d="M62 700L62 0L204 0L204 700Z" />
<glyph glyph-name="J" unicode="&#x4a;" horiz-adv-x="321" d="M0 -153C174 -153 262 -52 262 106L262 700L120 700L120 107C120 14 77 -12 0 -12Z" />
<glyph glyph-name="K" unicode="&#x4b;" horiz-adv-x="528" d="M368 0L528 0L320 394L498 700L336 700L238 510L202 432L202 700L62 700L62 0L202 0L202 202L241 265Z" />
<glyph glyph-name="L" unicode="&#x4c;" horiz-adv-x="418" d="M204 135L204 700L62 700L62 0L412 0L412 135Z" />
<glyph glyph-name="M" unicode="&#x4d;" horiz-adv-x="726" d="M521 700L411 435C397 400 373 339 365 313L361 313C353 339 329 400 315 435L205 700L62 700L62 0L200 0L200 172C197 257 193 342 190 427L195 429L258 245L293 150L433 150L468 245L531 429L536 427C532 342 529 257 525 172L525 0L664 0L664 700Z" />
<glyph glyph-name="N" unicode="&#x4e;" horiz-adv-x="570" d="M368 700L368 538C368 473 376 353 388 265L385 262C368 306 352 352 335 396L202 700L62 700L62 0L202 0L202 142C202 220 195 351 184 439L187 442L250 271L368 0L508 0L508 700Z" />
<glyph glyph-name="O" unicode="&#x4f;" horiz-adv-x="538" d="M269 -12C411 -12 496 77 496 227L496 473C496 623 411 712 269 712C127 712 42 623 42 473L42 227C42 77 127 -12 269 -12ZM269 126C216 126 189 161 189 227L189 473C189 539 216 574 269 574C322 574 349 539 349 473L349 227C349 161 322 126 269 126Z" />
<glyph glyph-name="P" unicode="&#x50;" horiz-adv-x="524" d="M265 700L62 700L62 0L204 0L204 225L265 225C410 225 496 313 496 462C496 612 410 700 265 700ZM263 360L204 360L204 565L263 565C320 565 350 530 350 462C350 395 320 360 263 360Z" />
<glyph glyph-name="Q" unicode="&#x51;" horiz-adv-x="548" d="M502 473C502 623 417 712 274 712C131 712 46 623 46 473L46 227C46 77 131 -12 274 -12C302 -12 328 -9 351 -2L417 -81L499 -10L445 55C482 96 502 155 502 227ZM194 227L194 473C194 539 221 574 274 574C327 574 354 539 354 473L354 227C354 161 327 126 274 126C221 126 194 161 194 227Z" />
<glyph glyph-name="R" unicode="&#x52;" horiz-adv-x="526" d="M366 0L521 0L389 265C451 302 486 372 486 467C486 614 404 700 265 700L62 700L62 0L204 0L204 235L254 235ZM204 565L263 565C313 565 340 531 340 467C340 404 313 370 263 370L204 370Z" />
<glyph glyph-name="S" unicode="&#x53;" horiz-adv-x="479" d="M236 -14C375 -14 456 70 456 185C456 408 178 415 178 525C178 557 200 577 237 577C278 577 299 554 299 508L445 508C445 637 367 714 238 714C109 714 34 636 34 529C34 316 308 302 308 186C308 151 285 124 238 124C193 124 165 148 165 204L19 204C19 63 103 -14 236 -14Z" />
<glyph glyph-name="T" unicode="&#x54;" horiz-adv-x="450" d="M435 700L15 700L15 565L152 565L152 0L298 0L298 565L435 565Z" />
<glyph glyph-name="U" unicode="&#x55;" horiz-adv-x="546" d="M273 -12C413 -12 496 77 496 225L496 700L348 700L348 225C348 161 323 126 273 126C223 126 198 161 198 225L198 700L50 700L50 225C50 77 133 -12 273 -12Z" />
<glyph glyph-name="V" unicode="&#x56;" horiz-adv-x="488" d="M169 0L319 0L485 700L338 700L275 369C265 318 253 232 246 174L242 174C235 232 223 318 213 369L150 700L3 700Z" />
<glyph glyph-name="W" unicode="&#x57;" horiz-adv-x="792" d="M642 700L587 369C579 318 565 232 558 174L554 174C547 232 533 318 525 369L470 690L322 690L267 369C259 318 245 232 238 174L234 174C227 232 213 318 205 369L150 700L3 700L161 0L311 0L361 234C378 310 390 406 394 463L398 463C402 406 414 310 431 234L481 0L631 0L789 700Z" />
<glyph glyph-name="X" unicode="&#x58;" horiz-adv-x="505" d="M493 0L328 362L483 700L328 700L253 510L177 700L22 700L177 362L12 0L168 0L253 210L337 0Z" />
<glyph glyph-name="Y" unicode="&#x59;" horiz-adv-x="472" d="M165 0L307 0L307 208L472 700L325 700L270 509C262 483 246 428 238 394L234 394C227 428 211 483 204 506L147 700L0 700L165 208Z" />
<glyph glyph-name="Z" unicode="&#x5a;" horiz-adv-x="433" d="M189 135L409 602L409 700L30 700L30 565L235 565L13 95L13 0L414 0L414 135Z" />
<glyph glyph-name="bracketleft" unicode="&#x5b;" horiz-adv-x="322" d="M284 694L284 820L62 820L62 -120L284 -120L284 6L197 6L197 694Z" />
<glyph glyph-name="backslash" unicode="&#x5c;" horiz-adv-x="514" d="M156 817L40 817L358 -123L474 -123Z" />
<glyph glyph-name="bracketright" unicode="&#x5d;" horiz-adv-x="322" d="M38 6L38 -120L260 -120L260 820L38 820L38 694L125 694L125 6Z" />
<glyph glyph-name="asciicircum" unicode="&#x5e;" horiz-adv-x="361" d="M356 472L237 700L124 700L5 472L123 472L181 593L238 472Z" />
<glyph glyph-name="underscore" unicode="&#x5f;" horiz-adv-x="370" d="M15 -10L15 -142L355 -142L355 -10Z" />
<glyph glyph-name="a" unicode="&#x61;" horiz-adv-x="462" d="M230 543C114 543 43 477 38 365L175 365C180 400 204 412 228 412C265 412 275 384 275 337L275 321L226 321C109 321 23 267 23 152C23 56 83 -14 181 -14C241 -14 277 14 296 50L304 0L412 0L412 337C412 472 357 543 230 543ZM275 167C275 126 251 102 214 102C176 102 162 126 162 152C162 188 188 206 229 206L275 206Z" />
<glyph glyph-name="b" unicode="&#x62;" horiz-adv-x="473" d="M263 543C234 543 206 532 183 514L183 725L50 725L50 -1L143 -1L149 46C176 15 220 -12 263 -12C367 -12 435 72 435 197L435 335C435 460 366 543 263 543ZM296 197C296 145 277 118 243 118C204 118 183 145 183 197L183 335C183 387 204 413 243 413C277 413 296 387 296 335Z" />
<glyph glyph-name="c" unicode="&#x63;" horiz-adv-x="442" d="M227 -12C348 -12 421 62 424 187L287 187C284 142 267 118 230 118C195 118 176 142 176 187L176 345C176 390 195 413 230 413C264 413 281 390 283 345L420 345C416 469 352 543 227 543C108 543 38 469 38 345L38 187C38 62 108 -12 227 -12Z" />
<glyph glyph-name="d" unicode="&#x64;" horiz-adv-x="473" d="M290 725L290 514C267 532 239 543 210 543C107 543 38 460 38 335L38 197C38 72 106 -12 210 -12C253 -12 297 15 324 46L330 -1L423 -1L423 725ZM290 197C290 145 269 118 230 118C196 118 177 145 177 197L177 335C177 387 196 413 230 413C269 413 290 387 290 335Z" />
<glyph glyph-name="e" unicode="&#x65;" horiz-adv-x="458" d="M292 169C283 133 271 118 230 118C194 118 175 142 175 197L175 219L423 219L423 338C423 467 351 543 229 543C109 543 38 467 38 338L38 197C38 66 109 -12 228 -12C346 -12 419 55 430 169ZM230 417C268 417 288 394 288 340L288 312L175 312L175 340C175 394 194 417 230 417Z" />
<glyph glyph-name="f" unicode="&#x66;" horiz-adv-x="318" d="M280 616L314 616L314 739L280 739C135 739 81 653 81 543L81 530L7 530L7 405L81 405L81 0L216 0L216 405L305 405L305 530L216 530L216 543C216 595 232 616 280 616Z" />
<glyph glyph-name="g" unicode="&#x67;" horiz-adv-x="477" d="M334 530L325 499C295 528 254 543 208 543C110 543 38 459 38 343L38 225C38 111 110 27 208 27C238 27 265 35 288 49L288 -17C288 -47 271 -67 240 -67C208 -67 193 -47 190 -17L55 -17C58 -124 124 -194 240 -194C358 -194 427 -124 427 -17L427 530ZM230 156C194 156 176 180 176 225L176 343C176 388 194 411 230 411C268 411 288 388 288 343L288 225C288 180 268 156 230 156Z" />
<glyph glyph-name="h" unicode="&#x68;" horiz-adv-x="476" d="M281 543C242 543 210 524 186 493L186 725L50 725L50 0L186 0L186 335C186 387 208 413 243 413C276 413 294 390 294 325L294 0L431 0L431 325C431 469 375 543 281 543Z" />
<glyph glyph-name="i" unicode="&#x69;" horiz-adv-x="237" d="M119 608C161 608 194 643 194 683C194 726 161 758 119 758C75 758 44 726 44 683C44 641 75 608 119 608ZM50 0L187 0L187 530L50 530Z" />
<glyph glyph-name="j" unicode="&#x6a;" horiz-adv-x="260" d="M135 607C177 607 210 642 210 682C210 725 177 757 135 757C91 757 60 725 60 682C60 640 91 607 135 607ZM-9 -194C128 -194 204 -117 204 19L204 530L68 530L68 10C68 -40 42 -64 -9 -64Z" />
<glyph glyph-name="k" unicode="&#x6b;" horiz-adv-x="457" d="M311 0L463 0L300 320L440 530L283 530L185 367L185 725L50 725L50 0L185 0L185 188L210 213Z" />
<glyph glyph-name="l" unicode="&#x6c;" horiz-adv-x="222" d="M43 0L179 0L179 725L43 725Z" />
<glyph glyph-name="m" unicode="&#x6d;" horiz-adv-x="708" d="M511 543C458 543 416 521 390 480C364 522 324 543 272 543C217 543 175 520 148 476L139 530L50 530L50 0L185 0L185 335C185 387 207 413 240 413C272 413 289 390 289 325L289 0L424 0L424 335C424 387 445 413 479 413C511 413 528 390 528 325L528 0L663 0L663 325C663 469 607 543 511 543Z" />
<glyph glyph-name="n" unicode="&#x6e;" horiz-adv-x="476" d="M275 543C220 543 177 520 150 476L140 530L50 530L50 0L186 0L186 335C186 387 208 413 243 413C276 413 294 390 294 325L294 0L431 0L431 325C431 469 373 543 275 543Z" />
<glyph glyph-name="o" unicode="&#x6f;" horiz-adv-x="470" d="M235 -13C359 -13 432 63 432 198L432 333C432 468 359 543 235 543C111 543 38 468 38 333L38 198C38 63 111 -13 235 -13ZM235 119C197 119 177 143 177 198L177 333C177 388 197 411 235 411C273 411 293 388 293 333L293 198C293 143 273 119 235 119Z" />
<glyph glyph-name="p" unicode="&#x70;" horiz-adv-x="473" d="M263 542C220 542 176 515 149 484L143 531L50 531L50 -180L183 -180L183 16C206 -2 234 -13 263 -13C366 -13 435 70 435 195L435 333C435 458 367 542 263 542ZM296 195C296 143 277 117 243 117C204 117 183 143 183 195L183 333C183 385 204 412 243 412C277 412 296 385 296 333Z" />
<glyph glyph-name="q" unicode="&#x71;" horiz-adv-x="473" d="M330 531L324 484C297 515 253 542 210 542C106 542 38 458 38 333L38 195C38 70 107 -13 210 -13C239 -13 267 -2 290 16L290 -180L423 -180L423 531ZM230 117C196 117 177 143 177 195L177 333C177 385 196 412 230 412C269 412 290 385 290 333L290 195C290 143 269 117 230 117Z" />
<glyph glyph-name="r" unicode="&#x72;" horiz-adv-x="349" d="M284 543C224 543 178 519 150 474L140 530L50 530L50 0L186 0L186 333C186 389 221 415 278 415C303 415 323 410 342 401L342 531C328 539 308 543 284 543Z" />
<glyph glyph-name="s" unicode="&#x73;" horiz-adv-x="432" d="M224 -15C343 -15 412 52 412 152C412 344 162 315 162 389C162 409 181 423 210 423C249 423 263 401 266 367L397 367C389 467 337 543 210 543C98 543 27 486 27 389C27 210 276 234 276 151C276 126 255 109 219 109C169 109 156 143 154 169L18 169C21 75 86 -15 224 -15Z" />
<glyph glyph-name="t" unicode="&#x74;" horiz-adv-x="335" d="M271 120C230 120 211 139 211 183L211 407L298 407L298 530L211 530L211 658L76 658L76 530L7 530L7 407L76 407L76 185C76 67 147 -8 261 -8L305 -8L305 120Z" />
<glyph glyph-name="u" unicode="&#x75;" horiz-adv-x="476" d="M290 530L290 195C290 143 268 117 233 117C200 117 182 140 182 205L182 530L45 530L45 205C45 61 103 -13 201 -13C256 -13 299 10 326 54L336 0L426 0L426 530Z" />
<glyph glyph-name="v" unicode="&#x76;" horiz-adv-x="436" d="M291 530L259 365C246 296 229 205 221 158L215 158C208 205 191 295 177 365L145 530L0 530L141 0L295 0L436 530Z" />
<glyph glyph-name="w" unicode="&#x77;" horiz-adv-x="666" d="M525 530L497 345C488 282 474 191 471 147L465 147C459 199 447 271 437 332L405 520L261 520L229 332C219 271 207 199 201 147L195 147C192 191 178 282 169 345L141 530L0 530L121 0L268 0L294 118C312 202 325 291 330 357L336 357C341 291 354 202 372 118L398 0L545 0L666 530Z" />
<glyph glyph-name="x" unicode="&#x78;" horiz-adv-x="436" d="M443 0L306 267L428 530L279 530L218 386L157 530L8 530L133 267L-7 0L146 0L218 154L290 0Z" />
<glyph glyph-name="y" unicode="&#x79;" horiz-adv-x="448" d="M309 530L229 249L142 530L0 530L173 54L160 9C147 -35 135 -57 100 -57L60 -57L60 -188L130 -188C217 -188 261 -112 289 -16L448 530Z" />
<glyph glyph-name="z" unicode="&#x7a;" horiz-adv-x="376" d="M180 125L355 447L355 530L24 530L24 405L181 405L3 83L3 0L365 0L365 125Z" />
<glyph glyph-name="braceleft" unicode="&#x7b;" horiz-adv-x="340" d="M231 498L231 626C231 666 254 690 302 690L302 820C171 820 97 743 97 607L97 479C97 439 79 415 38 415L38 285C79 285 97 261 97 221L97 93C97 -43 171 -120 302 -120L302 10C254 10 231 34 231 74L231 202C231 264 210 314 170 350C210 386 231 436 231 498Z" />
<glyph glyph-name="bar" unicode="&#x7c;" horiz-adv-x="226" d="M43 806L43 -100L183 -100L183 806Z" />
<glyph glyph-name="braceright" unicode="&#x7d;" horiz-adv-x="340" d="M243 479L243 607C243 743 169 820 38 820L38 690C86 690 109 666 109 626L109 498C109 436 130 386 170 350C130 314 109 264 109 202L109 74C109 34 86 10 38 10L38 -120C169 -120 243 -43 243 93L243 221C243 261 261 285 302 285L302 415C261 415 243 439 243 479Z" />
<glyph glyph-name="asciitilde" unicode="&#x7e;" horiz-adv-x="480" d="M384 383C366 356 349 345 325 345C274 345 210 392 141 392C98 392 59 374 26 322L96 239C114 266 131 277 155 277C206 277 269 230 340 230C383 230 422 248 456 300Z" />
<glyph glyph-name="exclamdown" unicode="&#xa1;" horiz-adv-x="280" d="M140 542C95 542 65 512 65 467C65 422 95 392 140 392C185 392 215 422 215 467C215 512 185 542 140 542ZM71 338L71 -180L208 -180L208 338Z" />
<glyph glyph-name="cent" unicode="&#xa2;" horiz-adv-x="442" d="M424 187L287 187C284 142 267 118 230 118C195 118 176 142 176 187L176 345C176 390 195 413 230 413C264 413 281 390 283 345L420 345C417 450 370 520 279 538L279 603L174 603L174 537C87 518 38 449 38 345L38 187C38 82 87 13 174 -6L174 -75L279 -75L279 -7C369 12 421 81 424 187Z" />
<glyph glyph-name="sterling" unicode="&#xa3;" horiz-adv-x="486" d="M206 129C214 146 219 167 219 193L219 280L366 280L366 399L219 399L219 521C219 558 237 574 262 574C292 574 308 552 314 508L452 508C444 638 370 712 263 712C155 712 81 635 81 519L81 399L25 399L25 280L81 280L81 193C81 144 67 118 25 118L25 0L456 0L456 129Z" />
<glyph glyph-name="currency" unicode="&#xa4;" horiz-adv-x="462" d="M107 59L150 120C174 109 201 103 231 103C261 103 289 109 312 109L355 48L433 102L381 176C395 202 402 233 402 268L402 350C402 385 395 415 382 441L433 514L356 569L314 508C290 520 262 526 231 526C200 526 172 520 149 520L106 581L29 526L80 453C67 427 60 396 60 362L60 280C60 245 67 214 81 188L29 114ZM231 224C203 224 186 240 186 281L186 361C186 402 203 418 231 418C259 418 276 402 276 361L276 281C276 240 259 224 231 224Z" />
<glyph glyph-name="yen" unicode="&#xa5;" horiz-adv-x="472" d="M472 700L325 700L270 509C262 483 246 428 238 394L234 394C227 428 211 483 204 506L147 700L0 700L138 289L6 289L6 209L165 209L165 149L6 149L6 69L165 69L165 0L307 0L307 69L466 69L466 149L307 149L307 209L466 209L466 289L334 289Z" />
<glyph glyph-name="brokenbar" unicode="&#xa6;" horiz-adv-x="206" d="M33 482L173 482L173 806L33 806ZM33 -100L173 -100L173 224L33 224Z" />
<glyph glyph-name="section" unicode="&#xa7;" horiz-adv-x="433" d="M362 219C394 247 410 285 410 331C410 534 166 507 166 585C166 604 180 619 210 619C245 619 259 598 262 563L393 563C385 664 333 739 210 739C102 739 33 682 33 587C33 539 50 504 81 477C39 448 19 408 19 357C19 173 273 192 273 112C273 83 254 66 217 66C170 66 159 100 157 126L21 126C24 32 86 -58 222 -58C340 -58 409 9 409 110C409 156 390 192 362 219ZM252 292C193 312 154 327 154 360C154 381 170 398 196 400C240 382 274 362 274 329C274 313 266 299 252 292Z" />
<glyph glyph-name="copyright" unicode="&#xa9;" horiz-adv-x="673" d="M337 -6C522 -6 631 115 631 320L631 392C631 595 522 714 337 714C152 714 42 595 42 392L42 320C42 115 152 -6 337 -6ZM337 77C202 77 132 160 132 320L132 392C132 549 202 631 337 631C471 631 541 549 541 392L541 320C541 160 471 77 337 77ZM335 152C419 152 468 204 470 292L378 292C375 260 363 243 337 243C313 243 299 260 299 292L299 414C299 447 313 463 337 463C361 463 373 447 375 414L467 414C465 502 420 554 335 554C254 554 206 502 206 414L206 292C206 204 254 152 335 152Z" />
<glyph glyph-name="guillemotleft" unicode="&#xab;" horiz-adv-x="505" d="M141 85L274 85L149 257L274 429L141 429L30 279L30 235ZM342 85L475 85L350 257L475 429L342 429L231 279L231 235Z" />
<glyph glyph-name="logicalnot" unicode="&#xac;" horiz-adv-x="480" d="M450 373L40 373L40 248L327 248L327 184L450 184Z" />
<glyph glyph-name="registered" unicode="&#xae;" horiz-adv-x="453" d="M229 714C113 714 45 646 45 521L45 460C45 329 113 258 229 258C345 258 413 329 413 460L413 521C413 646 345 714 229 714ZM365 459C365 351 318 300 229 300C140 300 93 351 93 459L93 520C93 622 140 670 229 670C318 670 365 622 365 520ZM308 528C308 579 280 609 231 609L160 609L160 368L210 368L210 448L227 448L266 368L321 368L275 459C296 472 308 496 308 528ZM210 561L230 561C248 561 257 550 257 528C257 506 248 495 230 495L210 495Z" />
<glyph glyph-name="degree" unicode="&#xb0;" horiz-adv-x="310" d="M18 573C18 489 72 433 155 433C238 433 292 489 292 573C292 656 238 712 155 712C72 712 18 656 18 573ZM107 573C107 605 126 626 155 626C184 626 203 605 203 573C203 541 184 520 155 520C126 520 107 541 107 573Z" />
<glyph glyph-name="plusminus" unicode="&#xb1;" horiz-adv-x="480" d="M303 445L303 569L177 569L177 445L40 445L40 324L177 324L177 200L303 200L303 324L440 324L440 445ZM40 38L440 38L440 153L40 153Z" />
<glyph glyph-name="paragraph" unicode="&#xb6;" horiz-adv-x="629" d="M567 705L205 705C106 705 38 642 38 540C38 438 106 375 205 375L205 -90L343 -90L343 576L429 576L429 -90L567 -90Z" />
<glyph glyph-name="periodcentered" unicode="&#xb7;" horiz-adv-x="206" d="M103 183C148 183 178 213 178 258C178 303 148 333 103 333C58 333 28 303 28 258C28 213 58 183 103 183Z" />
<glyph glyph-name="guillemotright" unicode="&#xbb;" horiz-adv-x="505" d="M163 85L274 235L274 279L163 429L30 429L155 257L30 85ZM364 85L475 235L475 279L364 429L231 429L356 257L231 85Z" />
<glyph glyph-name="questiondown" unicode="&#xbf;" horiz-adv-x="412" d="M211 539C166 539 136 509 136 464C136 419 166 389 211 389C256 389 286 419 286 464C286 509 256 539 211 539ZM279 335L145 335L145 306C145 171 13 147 13 1C13 -115 94 -187 207 -187C326 -187 393 -107 402 20L271 20C268 -30 251 -62 206 -62C159 -62 147 -28 147 2C147 106 279 115 279 309Z" />
<glyph glyph-name="Agrave" unicode="&#xc0;" horiz-adv-x="494" d="M337 767L243 904L130 904L243 767ZM344 0L491 0L323 700L171 700L3 0L150 0L173 116L321 116ZM201 251L217 331C227 381 238 466 245 523L249 523C256 466 268 381 277 331L293 251Z" />
<glyph glyph-name="Aacute" unicode="&#xc1;" horiz-adv-x="494" d="M385 904L272 904L178 767L272 767ZM344 0L491 0L323 700L171 700L3 0L150 0L173 116L321 116ZM201 251L217 331C227 381 238 466 245 523L249 523C256 466 268 381 277 331L293 251Z" />
<glyph glyph-name="Acircumflex" unicode="&#xc2;" horiz-adv-x="494" d="M247 834L290 767L379 767L298 904L195 904L114 767L203 767ZM344 0L491 0L323 700L171 700L3 0L150 0L173 116L321 116ZM201 251L217 331C227 381 238 466 245 523L249 523C256 466 268 381 277 331L293 251Z" />
<glyph glyph-name="Atilde" unicode="&#xc3;" horiz-adv-x="494" d="M224 809C248 809 260 781 302 781C353 781 389 822 393 887L316 887C313 873 303 862 288 862C265 862 253 890 210 890C162 890 123 855 119 784L196 784C199 801 211 809 224 809ZM344 0L491 0L323 700L171 700L3 0L150 0L173 116L321 116ZM201 251L217 331C227 381 238 466 245 523L249 523C256 466 268 381 277 331L293 251Z" />
<glyph glyph-name="Adieresis" unicode="&#xc4;" horiz-adv-x="494" d="M166 775C203 775 227 799 227 836C227 873 203 897 166 897C129 897 105 873 105 836C105 799 129 775 166 775ZM328 775C365 775 389 799 389 836C389 873 365 897 328 897C291 897 267 873 267 836C267 799 291 775 328 775ZM344 0L491 0L323 700L171 700L3 0L150 0L173 116L321 116ZM201 251L217 331C227 381 238 466 245 523L249 523C256 466 268 381 277 331L293 251Z" />
<glyph glyph-name="Aring" unicode="&#xc5;" horiz-adv-x="494" d="M251 763C306 763 343 799 343 853C343 905 306 941 251 941C196 941 159 905 159 853C159 799 196 763 251 763ZM251 885C271 885 284 872 284 852C284 832 271 819 251 819C231 819 218 832 218 852C218 872 231 885 251 885ZM344 0L491 0L323 700L171 700L3 0L150 0L173 116L321 116ZM201 251L217 331C227 381 238 466 245 523L249 523C256 466 268 381 277 331L293 251Z" />
<glyph glyph-name="AE" unicode="&#xc6;" horiz-adv-x="706" d="M467 135L467 290L641 290L641 420L467 420L467 565L661 565L661 700L255 700L0 0L150 0L189 116L325 116L325 0L671 0L671 135ZM234 251L263 336C284 397 307 479 321 543L325 543L325 251Z" />
<glyph glyph-name="Ccedilla" unicode="&#xc7;" horiz-adv-x="504" d="M484 214L342 214C338 152 313 126 258 126C214 126 190 154 190 214L190 486C190 548 215 576 258 576C312 576 336 550 340 486L482 486C477 634 399 714 259 714C122 714 42 634 42 486L42 214C42 75 114 -3 237 -11L218 -78L238 -98C249 -92 263 -90 273 -90C296 -90 306 -102 306 -119C306 -137 296 -153 272 -153C253 -153 241 -143 232 -126L161 -126C167 -180 215 -217 272 -217C338 -217 382 -179 382 -122C382 -77 352 -47 308 -47L299 -47L310 -8C420 9 481 86 484 214Z" />
<glyph glyph-name="Egrave" unicode="&#xc8;" horiz-adv-x="468" d="M326 767L232 904L119 904L232 767ZM204 135L204 290L403 290L403 420L204 420L204 565L423 565L423 700L62 700L62 0L433 0L433 135Z" />
<glyph glyph-name="Eacute" unicode="&#xc9;" horiz-adv-x="468" d="M374 904L261 904L167 767L261 767ZM204 135L204 290L403 290L403 420L204 420L204 565L423 565L423 700L62 700L62 0L433 0L433 135Z" />
<glyph glyph-name="Ecircumflex" unicode="&#xca;" horiz-adv-x="468" d="M236 834L279 767L368 767L287 904L184 904L103 767L192 767ZM204 135L204 290L403 290L403 420L204 420L204 565L423 565L423 700L62 700L62 0L433 0L433 135Z" />
<glyph glyph-name="Edieresis" unicode="&#xcb;" horiz-adv-x="468" d="M155 775C192 775 216 799 216 836C216 873 192 897 155 897C118 897 94 873 94 836C94 799 118 775 155 775ZM317 775C354 775 378 799 378 836C378 873 354 897 317 897C280 897 256 873 256 836C256 799 280 775 317 775ZM204 135L204 290L403 290L403 420L204 420L204 565L423 565L423 700L62 700L62 0L433 0L433 135Z" />
<glyph glyph-name="Igrave" unicode="&#xcc;" horiz-adv-x="266" d="M224 767L130 904L17 904L130 767ZM62 700L62 0L204 0L204 700Z" />
<glyph glyph-name="Iacute" unicode="&#xcd;" horiz-adv-x="266" d="M65 767L159 767L272 904L159 904ZM62 700L62 0L204 0L204 700Z" />
<glyph glyph-name="Icircumflex" unicode="&#xce;" horiz-adv-x="266" d="M134 834L177 767L266 767L185 904L82 904L1 767L90 767ZM62 0L204 0L204 700L62 700Z" />
<glyph glyph-name="Idieresis" unicode="&#xcf;" horiz-adv-x="268" d="M56 775C93 775 117 799 117 836C117 873 93 897 56 897C19 897 -5 873 -5 836C-5 799 19 775 56 775ZM214 775C251 775 275 799 275 836C275 873 251 897 214 897C177 897 153 873 153 836C153 799 177 775 214 775ZM63 700L63 0L205 0L205 700Z" />
<glyph glyph-name="Eth" unicode="&#xd0;" horiz-adv-x="528" d="M252 700L68 700L68 400L5 400L5 317L68 317L68 0L254 0C394 0 486 77 486 217L486 488C486 623 395 700 252 700ZM340 217C340 151 311 135 262 135L210 135L210 317L279 317L279 400L210 400L210 565L262 565C311 565 340 549 340 488Z" />
<glyph glyph-name="Ntilde" unicode="&#xd1;" horiz-adv-x="570" d="M262 809C286 809 298 781 340 781C391 781 427 822 431 887L354 887C351 873 341 862 326 862C303 862 291 890 248 890C200 890 161 855 157 784L234 784C237 801 249 809 262 809ZM368 700L368 538C368 473 376 353 388 265L385 262C368 306 352 352 335 396L202 700L62 700L62 0L202 0L202 142C202 220 195 351 184 439L187 442L250 271L368 0L508 0L508 700Z" />
<glyph glyph-name="Ograve" unicode="&#xd2;" horiz-adv-x="538" d="M358 767L264 904L151 904L264 767ZM269 -12C411 -12 496 77 496 227L496 473C496 623 411 712 269 712C127 712 42 623 42 473L42 227C42 77 127 -12 269 -12ZM269 126C216 126 189 161 189 227L189 473C189 539 216 574 269 574C322 574 349 539 349 473L349 227C349 161 322 126 269 126Z" />
<glyph glyph-name="Oacute" unicode="&#xd3;" horiz-adv-x="538" d="M199 767L293 767L406 904L293 904ZM269 -12C411 -12 496 77 496 227L496 473C496 623 411 712 269 712C127 712 42 623 42 473L42 227C42 77 127 -12 269 -12ZM269 126C216 126 189 161 189 227L189 473C189 539 216 574 269 574C322 574 349 539 349 473L349 227C349 161 322 126 269 126Z" />
<glyph glyph-name="Ocircumflex" unicode="&#xd4;" horiz-adv-x="538" d="M268 834L311 767L400 767L319 904L216 904L135 767L224 767ZM269 712C127 712 42 623 42 473L42 227C42 77 127 -12 269 -12C411 -12 496 77 496 227L496 473C496 623 411 712 269 712ZM349 227C349 161 322 126 269 126C216 126 189 161 189 227L189 473C189 539 216 574 269 574C322 574 349 539 349 473Z" />
<glyph glyph-name="Otilde" unicode="&#xd5;" horiz-adv-x="538" d="M245 809C269 809 281 781 323 781C374 781 410 822 414 887L337 887C334 873 324 862 309 862C286 862 274 890 231 890C183 890 144 855 140 784L217 784C220 801 232 809 245 809ZM269 -12C411 -12 496 77 496 227L496 473C496 623 411 712 269 712C127 712 42 623 42 473L42 227C42 77 127 -12 269 -12ZM269 126C216 126 189 161 189 227L189 473C189 539 216 574 269 574C322 574 349 539 349 473L349 227C349 161 322 126 269 126Z" />
<glyph glyph-name="Odieresis" unicode="&#xd6;" horiz-adv-x="538" d="M187 775C224 775 248 799 248 836C248 873 224 897 187 897C150 897 126 873 126 836C126 799 150 775 187 775ZM349 775C386 775 410 799 410 836C410 873 386 897 349 897C312 897 288 873 288 836C288 799 312 775 349 775ZM269 -12C411 -12 496 77 496 227L496 473C496 623 411 712 269 712C127 712 42 623 42 473L42 227C42 77 127 -12 269 -12ZM269 126C216 126 189 161 189 227L189 473C189 539 216 574 269 574C322 574 349 539 349 473L349 227C349 161 322 126 269 126Z" />
<glyph glyph-name="multiply" unicode="&#xd7;" horiz-adv-x="478" d="M124 94L239 209L354 94L442 183L328 298L442 412L354 501L239 386L124 501L36 412L151 298L36 183Z" />
<glyph glyph-name="Oslash" unicode="&#xd8;" horiz-adv-x="548" d="M422 666L453 769L347 769L328 707C311 710 293 712 274 712C131 712 46 623 46 473L46 227C46 140 75 73 127 32L97 -69L203 -69L221 -8C238 -11 255 -12 274 -12C417 -12 502 77 502 227L502 473C502 559 474 626 422 666ZM354 227C354 161 327 126 274 126C221 126 194 161 194 227L194 473C194 539 221 574 274 574C327 574 354 539 354 473Z" />
<glyph glyph-name="Ugrave" unicode="&#xd9;" horiz-adv-x="546" d="M363 767L269 904L156 904L269 767ZM273 -12C413 -12 496 77 496 225L496 700L348 700L348 225C348 161 323 126 273 126C223 126 198 161 198 225L198 700L50 700L50 225C50 77 133 -12 273 -12Z" />
<glyph glyph-name="Uacute" unicode="&#xda;" horiz-adv-x="546" d="M204 767L298 767L411 904L298 904ZM273 -12C413 -12 496 77 496 225L496 700L348 700L348 225C348 161 323 126 273 126C223 126 198 161 198 225L198 700L50 700L50 225C50 77 133 -12 273 -12Z" />
<glyph glyph-name="Ucircumflex" unicode="&#xdb;" horiz-adv-x="546" d="M273 834L316 767L405 767L324 904L221 904L140 767L229 767ZM348 700L348 225C348 161 323 126 273 126C223 126 198 161 198 225L198 700L50 700L50 225C50 77 133 -12 273 -12C413 -12 496 77 496 225L496 700Z" />
<glyph glyph-name="Udieresis" unicode="&#xdc;" horiz-adv-x="546" d="M192 775C229 775 253 799 253 836C253 873 229 897 192 897C155 897 131 873 131 836C131 799 155 775 192 775ZM354 775C391 775 415 799 415 836C415 873 391 897 354 897C317 897 293 873 293 836C293 799 317 775 354 775ZM273 -12C413 -12 496 77 496 225L496 700L348 700L348 225C348 161 323 126 273 126C223 126 198 161 198 225L198 700L50 700L50 225C50 77 133 -12 273 -12Z" />
<glyph glyph-name="Yacute" unicode="&#xdd;" horiz-adv-x="472" d="M167 767L261 767L374 904L261 904ZM165 0L307 0L307 208L472 700L325 700L270 509C262 483 246 428 238 394L234 394C227 428 211 483 204 506L147 700L0 700L165 208Z" />
<glyph glyph-name="Thorn" unicode="&#xde;" horiz-adv-x="511" d="M265 600L204 600L204 700L62 700L62 0L204 0L204 125L265 125C410 125 496 213 496 362C496 512 410 600 265 600ZM263 260L204 260L204 465L263 465C320 465 350 430 350 362C350 295 320 260 263 260Z" />
<glyph glyph-name="germandbls" unicode="&#xdf;" horiz-adv-x="497" d="M392 363C434 397 461 448 461 498C461 627 379 714 256 714C132 714 50 627 50 499L50 0L192 0L192 499C192 552 216 580 256 580C294 580 317 552 317 499C317 452 293 424 245 424L239 424L239 294L246 294C301 294 331 266 331 212C331 161 301 135 243 135L239 135L239 0L268 0C389 0 477 85 477 212C477 269 443 327 392 363Z" />
<glyph glyph-name="agrave" unicode="&#xe0;" horiz-adv-x="462" d="M317 609L243 746L130 746L223 609ZM230 543C114 543 43 477 38 365L175 365C180 400 204 412 228 412C265 412 275 384 275 337L275 321L226 321C109 321 23 267 23 152C23 56 83 -14 181 -14C241 -14 277 14 296 50L304 0L412 0L412 337C412 472 357 543 230 543ZM275 167C275 126 251 102 214 102C176 102 162 126 162 152C162 188 188 206 229 206L275 206Z" />
<glyph glyph-name="aacute" unicode="&#xe1;" horiz-adv-x="462" d="M354 746L241 746L167 609L261 609ZM230 543C114 543 43 477 38 365L175 365C180 400 204 412 228 412C265 412 275 384 275 337L275 321L226 321C109 321 23 267 23 152C23 56 83 -14 181 -14C241 -14 277 14 296 50L304 0L412 0L412 337C412 472 357 543 230 543ZM275 167C275 126 251 102 214 102C176 102 162 126 162 152C162 188 188 206 229 206L275 206Z" />
<glyph glyph-name="acircumflex" unicode="&#xe2;" horiz-adv-x="462" d="M233 676L276 609L365 609L284 746L181 746L100 609L189 609ZM230 543C114 543 43 477 38 365L175 365C180 400 204 412 228 412C265 412 275 384 275 337L275 321L226 321C109 321 23 267 23 152C23 56 83 -14 181 -14C241 -14 277 14 296 50L304 0L412 0L412 337C412 472 357 543 230 543ZM275 167C275 126 251 102 214 102C176 102 162 126 162 152C162 188 188 206 229 206L275 206Z" />
<glyph glyph-name="atilde" unicode="&#xe3;" horiz-adv-x="462" d="M201 639C225 639 237 611 279 611C330 611 366 652 370 717L293 717C290 703 280 692 265 692C242 692 230 720 187 720C139 720 100 685 96 614L173 614C176 631 188 639 201 639ZM230 543C114 543 43 477 38 365L175 365C180 400 204 412 228 412C265 412 275 384 275 337L275 321L226 321C109 321 23 267 23 152C23 56 83 -14 181 -14C241 -14 277 14 296 50L304 0L412 0L412 337C412 472 357 543 230 543ZM275 167C275 126 251 102 214 102C176 102 162 126 162 152C162 188 188 206 229 206L275 206Z" />
<glyph glyph-name="adieresis" unicode="&#xe4;" horiz-adv-x="462" d="M152 614C189 614 213 638 213 675C213 712 189 736 152 736C115 736 91 712 91 675C91 638 115 614 152 614ZM314 614C351 614 375 638 375 675C375 712 351 736 314 736C277 736 253 712 253 675C253 638 277 614 314 614ZM230 543C114 543 43 477 38 365L175 365C180 400 204 412 228 412C265 412 275 384 275 337L275 321L226 321C109 321 23 267 23 152C23 56 83 -14 181 -14C241 -14 277 14 296 50L304 0L412 0L412 337C412 472 357 543 230 543ZM275 167C275 126 251 102 214 102C176 102 162 126 162 152C162 188 188 206 229 206L275 206Z" />
<glyph glyph-name="aring" unicode="&#xe5;" horiz-adv-x="462" d="M233 606C288 606 325 642 325 696C325 748 288 784 233 784C178 784 141 748 141 696C141 642 178 606 233 606ZM233 728C253 728 266 715 266 695C266 675 253 662 233 662C213 662 200 675 200 695C200 715 213 728 233 728ZM230 543C114 543 43 477 38 365L175 365C180 400 204 412 228 412C265 412 275 384 275 337L275 321L226 321C109 321 23 267 23 152C23 56 83 -14 181 -14C241 -14 277 14 296 50L304 0L412 0L412 337C412 472 357 543 230 543ZM275 167C275 126 251 102 214 102C176 102 162 126 162 152C162 188 188 206 229 206L275 206Z" />
<glyph glyph-name="ae" unicode="&#xe6;" horiz-adv-x="696" d="M530 167C521 133 509 118 468 118C431 118 412 142 412 197L412 218L661 218L661 338C661 467 589 543 467 543C420 543 380 525 350 494C322 527 283 543 232 543C115 543 43 477 38 365L175 365C180 400 205 412 230 412C269 412 279 384 279 337L279 320L228 320C109 320 23 267 23 153C23 56 83 -14 181 -14C268 -14 314 12 339 45C369 13 413 -12 466 -12C584 -12 657 54 668 167ZM412 340C412 394 431 417 468 417C506 417 526 394 526 340L526 311L412 311ZM279 167C279 126 255 102 216 102C177 102 162 126 162 153C162 190 189 209 231 209L279 209Z" />
<glyph glyph-name="ccedilla" unicode="&#xe7;" horiz-adv-x="442" d="M424 187L287 187C284 142 267 118 230 118C195 118 176 142 176 187L176 345C176 390 195 413 230 413C264 413 281 390 283 345L420 345C416 469 352 543 227 543C108 543 38 469 38 345L38 187C38 73 96 2 196 -10L177 -78L197 -98C208 -92 222 -90 232 -90C255 -90 265 -102 265 -119C265 -137 255 -153 231 -153C212 -153 200 -143 191 -126L120 -126C126 -180 174 -217 231 -217C297 -217 341 -179 341 -122C341 -77 311 -47 267 -47L258 -47L269 -9C365 7 421 77 424 187Z" />
<glyph glyph-name="egrave" unicode="&#xe8;" horiz-adv-x="458" d="M314 609L240 746L127 746L220 609ZM292 169C283 133 271 118 230 118C194 118 175 142 175 197L175 219L423 219L423 338C423 467 351 543 229 543C109 543 38 467 38 338L38 197C38 66 109 -12 228 -12C346 -12 419 55 430 169ZM230 417C268 417 288 394 288 340L288 312L175 312L175 340C175 394 194 417 230 417Z" />
<glyph glyph-name="eacute" unicode="&#xe9;" horiz-adv-x="458" d="M351 746L238 746L164 609L258 609ZM292 169C283 133 271 118 230 118C194 118 175 142 175 197L175 219L423 219L423 338C423 467 351 543 229 543C109 543 38 467 38 338L38 197C38 66 109 -12 228 -12C346 -12 419 55 430 169ZM230 417C268 417 288 394 288 340L288 312L175 312L175 340C175 394 194 417 230 417Z" />
<glyph glyph-name="ecircumflex" unicode="&#xea;" horiz-adv-x="458" d="M230 676L273 609L362 609L281 746L178 746L97 609L186 609ZM292 169C283 133 271 118 230 118C194 118 175 142 175 197L175 219L423 219L423 338C423 467 351 543 229 543C109 543 38 467 38 338L38 197C38 66 109 -12 228 -12C346 -12 419 55 430 169ZM230 417C268 417 288 394 288 340L288 312L175 312L175 340C175 394 194 417 230 417Z" />
<glyph glyph-name="edieresis" unicode="&#xeb;" horiz-adv-x="458" d="M149 614C186 614 210 638 210 675C210 712 186 736 149 736C112 736 88 712 88 675C88 638 112 614 149 614ZM311 614C348 614 372 638 372 675C372 712 348 736 311 736C274 736 250 712 250 675C250 638 274 614 311 614ZM292 169C283 133 271 118 230 118C194 118 175 142 175 197L175 219L423 219L423 338C423 467 351 543 229 543C109 543 38 467 38 338L38 197C38 66 109 -12 228 -12C346 -12 419 55 430 169ZM230 417C268 417 288 394 288 340L288 312L175 312L175 340C175 394 194 417 230 417Z" />
<glyph glyph-name="igrave" unicode="&#xec;" horiz-adv-x="237" d="M16 746L109 609L203 609L129 746ZM50 0L187 0L187 530L50 530Z" />
<glyph glyph-name="iacute" unicode="&#xed;" horiz-adv-x="237" d="M240 746L127 746L53 609L147 609ZM50 0L187 0L187 530L50 530Z" />
<glyph glyph-name="icircumflex" unicode="&#xee;" horiz-adv-x="241" d="M121 675L162 609L249 609L170 746L71 746L-8 609L79 609ZM52 0L189 0L189 530L52 530Z" />
<glyph glyph-name="idieresis" unicode="&#xef;" horiz-adv-x="266" d="M58 616C94 616 117 639 117 675C117 711 94 734 58 734C23 734 0 711 0 675C0 639 23 616 58 616ZM208 616C243 616 266 639 266 675C266 711 243 734 208 734C172 734 149 711 149 675C149 639 172 616 208 616ZM64 0L201 0L201 530L64 530Z" />
<glyph glyph-name="eth" unicode="&#xf0;" horiz-adv-x="472" d="M360 623L408 646L389 688L330 659C291 700 243 725 193 740L143 635C167 626 189 614 207 599L154 573L173 531L241 564C257 544 270 519 279 492C262 499 244 503 225 503C107 503 38 428 38 293L38 199C38 64 111 -12 235 -12C359 -12 432 64 432 199L432 357C431 477 403 562 360 623ZM293 199C293 144 273 120 235 120C197 120 177 144 177 199L177 293C177 348 197 371 235 371C273 371 293 348 293 293Z" />
<glyph glyph-name="ntilde" unicode="&#xf1;" horiz-adv-x="476" d="M207 639C231 639 243 611 285 611C336 611 372 652 376 717L299 717C296 703 286 692 271 692C248 692 236 720 193 720C145 720 106 685 102 614L179 614C182 631 194 639 207 639ZM275 543C220 543 177 520 150 476L140 530L50 530L50 0L186 0L186 335C186 387 208 413 243 413C276 413 294 390 294 325L294 0L431 0L431 325C431 469 373 543 275 543Z" />
<glyph glyph-name="ograve" unicode="&#xf2;" horiz-adv-x="470" d="M132 746L225 609L319 609L245 746ZM235 -13C359 -13 432 63 432 198L432 333C432 468 359 543 235 543C111 543 38 468 38 333L38 198C38 63 111 -13 235 -13ZM235 119C197 119 177 143 177 198L177 333C177 388 197 411 235 411C273 411 293 388 293 333L293 198C293 143 273 119 235 119Z" />
<glyph glyph-name="oacute" unicode="&#xf3;" horiz-adv-x="470" d="M356 746L243 746L169 609L263 609ZM235 -13C359 -13 432 63 432 198L432 333C432 468 359 543 235 543C111 543 38 468 38 333L38 198C38 63 111 -13 235 -13ZM235 119C197 119 177 143 177 198L177 333C177 388 197 411 235 411C273 411 293 388 293 333L293 198C293 143 273 119 235 119Z" />
<glyph glyph-name="ocircumflex" unicode="&#xf4;" horiz-adv-x="470" d="M235 676L278 609L367 609L286 746L183 746L102 609L191 609ZM235 543C111 543 38 468 38 333L38 198C38 63 111 -13 235 -13C359 -13 432 63 432 198L432 333C432 468 359 543 235 543ZM293 198C293 143 273 119 235 119C197 119 177 143 177 198L177 333C177 388 197 411 235 411C273 411 293 388 293 333Z" />
<glyph glyph-name="otilde" unicode="&#xf5;" horiz-adv-x="470" d="M203 639C227 639 239 611 281 611C332 611 368 652 372 717L295 717C292 703 282 692 267 692C244 692 232 720 189 720C141 720 102 685 98 614L175 614C178 631 190 639 203 639ZM235 -13C359 -13 432 63 432 198L432 333C432 468 359 543 235 543C111 543 38 468 38 333L38 198C38 63 111 -13 235 -13ZM235 119C197 119 177 143 177 198L177 333C177 388 197 411 235 411C273 411 293 388 293 333L293 198C293 143 273 119 235 119Z" />
<glyph glyph-name="odieresis" unicode="&#xf6;" horiz-adv-x="470" d="M154 614C191 614 215 638 215 675C215 712 191 736 154 736C117 736 93 712 93 675C93 638 117 614 154 614ZM316 614C353 614 377 638 377 675C377 712 353 736 316 736C279 736 255 712 255 675C255 638 279 614 316 614ZM235 -13C359 -13 432 63 432 198L432 333C432 468 359 543 235 543C111 543 38 468 38 333L38 198C38 63 111 -13 235 -13ZM235 119C197 119 177 143 177 198L177 333C177 388 197 411 235 411C273 411 293 388 293 333L293 198C293 143 273 119 235 119Z" />
<glyph glyph-name="divide" unicode="&#xf7;" horiz-adv-x="480" d="M242 393C285 393 313 421 313 464C313 507 285 535 242 535C199 535 171 507 171 464C171 421 199 393 242 393ZM40 244L440 244L440 359L40 359ZM242 63C285 63 313 91 313 134C313 177 285 205 242 205C199 205 171 177 171 134C171 91 199 63 242 63Z" />
<glyph glyph-name="oslash" unicode="&#xf8;" horiz-adv-x="456" d="M362 499L404 608L318 608L290 536C271 541 250 543 228 543C104 543 31 468 31 333L31 199C31 122 54 65 97 29L58 -74L144 -74L170 -6C188 -10 207 -12 228 -12C352 -12 425 64 425 199L425 333C425 407 403 464 362 499ZM286 199C286 144 266 120 228 120C190 120 170 144 170 199L170 333C170 388 190 411 228 411C266 411 286 388 286 333Z" />
<glyph glyph-name="ugrave" unicode="&#xf9;" horiz-adv-x="476" d="M318 609L244 746L131 746L224 609ZM290 530L290 195C290 143 268 117 233 117C200 117 182 140 182 205L182 530L45 530L45 205C45 61 103 -13 201 -13C256 -13 299 10 326 54L336 0L426 0L426 530Z" />
<glyph glyph-name="uacute" unicode="&#xfa;" horiz-adv-x="476" d="M355 746L242 746L168 609L262 609ZM290 530L290 195C290 143 268 117 233 117C200 117 182 140 182 205L182 530L45 530L45 205C45 61 103 -13 201 -13C256 -13 299 10 326 54L336 0L426 0L426 530Z" />
<glyph glyph-name="ucircumflex" unicode="&#xfb;" horiz-adv-x="476" d="M234 676L277 609L366 609L285 746L182 746L101 609L190 609ZM290 530L290 195C290 143 268 117 233 117C200 117 182 140 182 205L182 530L45 530L45 205C45 61 103 -13 201 -13C256 -13 299 10 326 54L336 0L426 0L426 530Z" />
<glyph glyph-name="udieresis" unicode="&#xfc;" horiz-adv-x="476" d="M153 614C190 614 214 638 214 675C214 712 190 736 153 736C116 736 92 712 92 675C92 638 116 614 153 614ZM315 614C352 614 376 638 376 675C376 712 352 736 315 736C278 736 254 712 254 675C254 638 278 614 315 614ZM290 530L290 195C290 143 268 117 233 117C200 117 182 140 182 205L182 530L45 530L45 205C45 61 103 -13 201 -13C256 -13 299 10 326 54L336 0L426 0L426 530Z" />
<glyph glyph-name="yacute" unicode="&#xfd;" horiz-adv-x="448" d="M344 749L231 749L157 612L251 612ZM309 530L229 249L142 530L0 530L173 54L160 9C147 -35 135 -57 100 -57L60 -57L60 -188L130 -188C217 -188 261 -112 289 -16L448 530Z" />
<glyph glyph-name="thorn" unicode="&#xfe;" horiz-adv-x="473" d="M263 558C234 558 206 547 183 529L183 725L50 725L50 -180L183 -180L183 16C206 -2 234 -13 263 -13C366 -13 435 70 435 195L435 350C435 475 366 558 263 558ZM296 195C296 143 277 117 243 117C204 117 183 143 183 195L183 350C183 402 204 428 243 428C277 428 296 402 296 350Z" />
<glyph glyph-name="ydieresis" unicode="&#xff;" horiz-adv-x="448" d="M142 617C179 617 203 641 203 678C203 715 179 739 142 739C105 739 81 715 81 678C81 641 105 617 142 617ZM304 617C341 617 365 641 365 678C365 715 341 739 304 739C267 739 243 715 243 678C243 641 267 617 304 617ZM309 530L229 249L142 530L0 530L173 54L160 9C147 -35 135 -57 100 -57L60 -57L60 -188L130 -188C217 -188 261 -112 289 -16L448 530Z" />
<glyph glyph-name="Amacron" unicode="&#x0100;" horiz-adv-x="494" d="M361 876L141 876L141 789L361 789ZM344 0L491 0L323 700L171 700L3 0L150 0L173 116L321 116ZM201 251L217 331C227 381 238 466 245 523L249 523C256 466 268 381 277 331L293 251Z" />
<glyph glyph-name="amacron" unicode="&#x0101;" horiz-adv-x="462" d="M342 719L122 719L122 632L342 632ZM230 543C114 543 43 477 38 365L175 365C180 400 204 412 228 412C265 412 275 384 275 337L275 321L226 321C109 321 23 267 23 152C23 56 83 -14 181 -14C241 -14 277 14 296 50L304 0L412 0L412 337C412 472 357 543 230 543ZM275 167C275 126 251 102 214 102C176 102 162 126 162 152C162 188 188 206 229 206L275 206Z" />
<glyph glyph-name="Abreve" unicode="&#x0102;" horiz-adv-x="494" d="M251 770C320 770 375 813 378 894L291 894C291 868 271 853 250 853C229 853 209 868 209 894L122 894C125 816 180 770 251 770ZM344 0L491 0L323 700L171 700L3 0L150 0L173 116L321 116ZM201 251L217 331C227 381 238 466 245 523L249 523C256 466 268 381 277 331L293 251Z" />
<glyph glyph-name="abreve" unicode="&#x0103;" horiz-adv-x="462" d="M234 612C303 612 358 655 361 736L274 736C274 710 254 695 233 695C212 695 192 710 192 736L105 736C108 658 163 612 234 612ZM230 543C114 543 43 477 38 365L175 365C180 400 204 412 228 412C265 412 275 384 275 337L275 321L226 321C109 321 23 267 23 152C23 56 83 -14 181 -14C241 -14 277 14 296 50L304 0L412 0L412 337C412 472 357 543 230 543ZM275 167C275 126 251 102 214 102C176 102 162 126 162 152C162 188 188 206 229 206L275 206Z" />
<glyph glyph-name="Aogonek" unicode="&#x0104;" horiz-adv-x="494" d="M444 -93C423 -93 413 -86 413 -68C413 -52 428 -21 459 0L491 0L323 700L171 700L3 0L150 0L173 116L321 116L344 0C311 -29 289 -66 289 -109C289 -162 326 -194 389 -194C417 -194 444 -194 472 -181L471 -90C463 -92 452 -93 444 -93ZM201 251L217 331C227 381 238 466 245 523L249 523C256 466 268 381 277 331L293 251Z" />
<glyph glyph-name="aogonek" unicode="&#x0105;" horiz-adv-x="466" d="M341 -194C357 -194 391 -192 416 -182L416 -90C406 -93 394 -95 384 -95C366 -95 357 -88 357 -73C357 -49 378 -23 415 0L415 337C415 472 360 543 232 543C115 543 43 477 38 365L175 365C180 400 205 412 230 412C268 412 278 384 278 337L278 321L228 321C109 321 23 267 23 152C23 56 83 -14 181 -14C243 -14 280 14 299 50L307 0C265 -31 243 -60 243 -105C243 -157 272 -194 341 -194ZM216 102C177 102 162 126 162 152C162 188 189 206 231 206L278 206L278 167C278 126 254 102 216 102Z" />
<glyph glyph-name="Cacute" unicode="&#x0106;" horiz-adv-x="504" d="M185 767L279 767L392 904L279 904ZM258 -12C400 -12 481 67 484 214L342 214C338 152 313 126 258 126C214 126 190 154 190 214L190 486C190 548 215 576 258 576C312 576 336 550 340 486L482 486C477 634 399 714 259 714C122 714 42 634 42 486L42 214C42 67 122 -12 258 -12Z" />
<glyph glyph-name="cacute" unicode="&#x0107;" horiz-adv-x="442" d="M354 746L241 746L167 609L261 609ZM227 -12C348 -12 421 62 424 187L287 187C284 142 267 118 230 118C195 118 176 142 176 187L176 345C176 390 195 413 230 413C264 413 281 390 283 345L420 345C416 469 352 543 227 543C108 543 38 469 38 345L38 187C38 62 108 -12 227 -12Z" />
<glyph glyph-name="Cdotaccent" unicode="&#x010a;" horiz-adv-x="504" d="M254 762C296 762 329 797 329 837C329 880 296 912 254 912C210 912 179 880 179 837C179 795 210 762 254 762ZM258 -12C400 -12 481 67 484 214L342 214C338 152 313 126 258 126C214 126 190 154 190 214L190 486C190 548 215 576 258 576C312 576 336 550 340 486L482 486C477 634 399 714 259 714C122 714 42 634 42 486L42 214C42 67 122 -12 258 -12Z" />
<glyph glyph-name="cdotaccent" unicode="&#x010b;" horiz-adv-x="442" d="M233 608C275 608 308 643 308 683C308 726 275 758 233 758C189 758 158 726 158 683C158 641 189 608 233 608ZM227 -12C348 -12 421 62 424 187L287 187C284 142 267 118 230 118C195 118 176 142 176 187L176 345C176 390 195 413 230 413C264 413 281 390 283 345L420 345C416 469 352 543 227 543C108 543 38 469 38 345L38 187C38 62 108 -12 227 -12Z" />
<glyph glyph-name="Ccaron" unicode="&#x010c;" horiz-adv-x="504" d="M307 767L388 904L299 904L256 837L212 904L123 904L204 767ZM342 214C338 152 313 126 258 126C214 126 190 154 190 214L190 486C190 548 215 576 258 576C312 576 336 550 340 486L482 486C477 634 399 714 259 714C122 714 42 634 42 486L42 214C42 67 122 -12 258 -12C400 -12 481 67 484 214Z" />
<glyph glyph-name="ccaron" unicode="&#x010d;" horiz-adv-x="442" d="M284 609L365 746L276 746L233 679L189 746L100 746L181 609ZM287 187C284 142 267 118 230 118C195 118 176 142 176 187L176 345C176 390 195 413 230 413C264 413 281 390 283 345L420 345C416 469 352 543 227 543C108 543 38 469 38 345L38 187C38 62 108 -12 227 -12C348 -12 421 62 424 187Z" />
<glyph glyph-name="Dcaron" unicode="&#x010e;" horiz-adv-x="520" d="M306 767L387 904L298 904L255 837L211 904L122 904L203 767ZM254 700L62 700L62 0L256 0C396 0 478 88 478 237L478 468C478 614 395 700 254 700ZM334 237C334 170 307 135 256 135L204 135L204 565L256 565C307 565 334 532 334 468Z" />
<glyph glyph-name="dcaron" unicode="&#x010f;" horiz-adv-x="584" d="M492 780L475 579L554 579L606 780ZM290 514C267 532 239 543 210 543C107 543 38 460 38 335L38 197C38 72 106 -12 210 -12C253 -12 297 15 324 46L330 -1L423 -1L423 725L290 725ZM290 197C290 145 269 118 230 118C196 118 177 145 177 197L177 335C177 387 196 413 230 413C269 413 290 387 290 335Z" />
<glyph glyph-name="Dcroat" unicode="&#x0110;" horiz-adv-x="528" d="M252 700L68 700L68 400L5 400L5 317L68 317L68 0L254 0C394 0 486 77 486 217L486 488C486 623 395 700 252 700ZM340 217C340 151 311 135 262 135L210 135L210 317L279 317L279 400L210 400L210 565L262 565C311 565 340 549 340 488Z" />
<glyph glyph-name="dcroat" unicode="&#x0111;" horiz-adv-x="482" d="M493 652L423 652L423 725L290 725L290 652L189 652L189 586L290 586L290 514C267 532 239 543 210 543C107 543 38 460 38 335L38 197C38 72 106 -12 210 -12C253 -12 297 15 324 46L330 -1L423 -1L423 586L493 586ZM290 197C290 145 269 118 230 118C196 118 177 145 177 197L177 335C177 387 196 413 230 413C269 413 290 387 290 335Z" />
<glyph glyph-name="Emacron" unicode="&#x0112;" horiz-adv-x="468" d="M350 876L130 876L130 789L350 789ZM204 135L204 290L403 290L403 420L204 420L204 565L423 565L423 700L62 700L62 0L433 0L433 135Z" />
<glyph glyph-name="emacron" unicode="&#x0113;" horiz-adv-x="458" d="M339 719L119 719L119 632L339 632ZM292 169C283 133 271 118 230 118C194 118 175 142 175 197L175 219L423 219L423 338C423 467 351 543 229 543C109 543 38 467 38 338L38 197C38 66 109 -12 228 -12C346 -12 419 55 430 169ZM230 417C268 417 288 394 288 340L288 312L175 312L175 340C175 394 194 417 230 417Z" />
<glyph glyph-name="Edotaccent" unicode="&#x0116;" horiz-adv-x="468" d="M236 762C278 762 311 797 311 837C311 880 278 912 236 912C192 912 161 880 161 837C161 795 192 762 236 762ZM204 135L204 290L403 290L403 420L204 420L204 565L423 565L423 700L62 700L62 0L433 0L433 135Z" />
<glyph glyph-name="edotaccent" unicode="&#x0117;" horiz-adv-x="458" d="M230 608C272 608 305 643 305 683C305 726 272 758 230 758C186 758 155 726 155 683C155 641 186 608 230 608ZM292 169C283 133 271 118 230 118C194 118 175 142 175 197L175 219L423 219L423 338C423 467 351 543 229 543C109 543 38 467 38 338L38 197C38 66 109 -12 228 -12C346 -12 419 55 430 169ZM230 417C268 417 288 394 288 340L288 312L175 312L175 340C175 394 194 417 230 417Z" />
<glyph glyph-name="Eogonek" unicode="&#x0118;" horiz-adv-x="469" d="M433 -90C425 -92 414 -93 406 -93C385 -93 375 -86 375 -68C375 -52 394 -21 433 0L433 135L204 135L204 290L403 290L403 420L204 420L204 565L423 565L423 700L62 700L62 0L319 0C278 -29 251 -66 251 -109C251 -162 288 -194 351 -194C379 -194 406 -194 434 -181Z" />
<glyph glyph-name="eogonek" unicode="&#x0119;" horiz-adv-x="458" d="M301 -194C334 -194 360 -190 384 -181L384 -90C376 -92 366 -93 351 -93C328 -93 313 -80 313 -57C313 -36 335 1 369 34C399 63 425 118 430 170L292 170C283 134 271 118 230 118C194 118 175 142 175 197L175 219L423 219L423 338C423 467 351 543 229 543C109 543 38 467 38 338L38 197C38 66 109 -12 228 -12C242 -12 254 -10 261 -8L261 -10C224 -38 201 -70 201 -108C201 -162 238 -194 301 -194ZM175 312L175 340C175 394 194 417 230 417C268 417 288 394 288 340L288 312Z" />
<glyph glyph-name="Ecaron" unicode="&#x011a;" horiz-adv-x="468" d="M289 767L370 904L281 904L238 837L194 904L105 904L186 767ZM204 135L204 290L403 290L403 420L204 420L204 565L423 565L423 700L62 700L62 0L433 0L433 135Z" />
<glyph glyph-name="ecaron" unicode="&#x011b;" horiz-adv-x="458" d="M281 609L362 746L273 746L230 679L186 746L97 746L178 609ZM292 169C283 133 271 118 230 118C194 118 175 142 175 197L175 219L423 219L423 338C423 467 351 543 229 543C109 543 38 467 38 338L38 197C38 66 109 -12 228 -12C346 -12 419 55 430 169ZM230 417C268 417 288 394 288 340L288 312L175 312L175 340C175 394 194 417 230 417Z" />
<glyph glyph-name="Gbreve" unicode="&#x011e;" horiz-adv-x="517" d="M265 770C334 770 389 813 392 894L305 894C305 868 285 853 264 853C243 853 223 868 223 894L136 894C139 816 194 770 265 770ZM263 -12C400 -12 478 67 482 214L482 390L258 390L258 264L342 264L342 214C342 151 317 125 265 125C215 125 190 151 190 214L190 486C190 549 216 575 264 575C313 575 333 549 336 486L478 486C473 633 399 712 264 712C124 712 42 633 42 486L42 214C42 67 124 -12 263 -12Z" />
<glyph glyph-name="gbreve" unicode="&#x011f;" horiz-adv-x="477" d="M235 612C304 612 359 655 362 736L275 736C275 710 255 695 234 695C213 695 193 710 193 736L106 736C109 658 164 612 235 612ZM334 530L325 499C295 528 254 543 208 543C110 543 38 459 38 343L38 225C38 111 110 27 208 27C238 27 265 35 288 49L288 -17C288 -47 271 -67 240 -67C208 -67 193 -47 190 -17L55 -17C58 -124 124 -194 240 -194C358 -194 427 -124 427 -17L427 530ZM230 156C194 156 176 180 176 225L176 343C176 388 194 411 230 411C268 411 288 388 288 343L288 225C288 180 268 156 230 156Z" />
<glyph glyph-name="Gdotaccent" unicode="&#x0120;" horiz-adv-x="517" d="M261 762C303 762 336 797 336 837C336 880 303 912 261 912C217 912 186 880 186 837C186 795 217 762 261 762ZM263 -12C400 -12 478 67 482 214L482 390L258 390L258 264L342 264L342 214C342 151 317 125 265 125C215 125 190 151 190 214L190 486C190 549 216 575 264 575C313 575 333 549 336 486L478 486C473 633 399 712 264 712C124 712 42 633 42 486L42 214C42 67 124 -12 263 -12Z" />
<glyph glyph-name="gdotaccent" unicode="&#x0121;" horiz-adv-x="477" d="M234 608C276 608 309 643 309 683C309 726 276 758 234 758C190 758 159 726 159 683C159 641 190 608 234 608ZM334 530L325 499C295 528 254 543 208 543C110 543 38 459 38 343L38 225C38 111 110 27 208 27C238 27 265 35 288 49L288 -17C288 -47 271 -67 240 -67C208 -67 193 -47 190 -17L55 -17C58 -124 124 -194 240 -194C358 -194 427 -124 427 -17L427 530ZM230 156C194 156 176 180 176 225L176 343C176 388 194 411 230 411C268 411 288 388 288 343L288 225C288 180 268 156 230 156Z" />
<glyph glyph-name="Gcommaaccent" unicode="&#x0122;" horiz-adv-x="517" d="M263 -12C400 -12 478 67 482 214L482 390L258 390L258 264L342 264L342 214C342 151 317 125 265 125C215 125 190 151 190 214L190 486C190 549 216 575 264 575C313 575 333 549 336 486L478 486C473 633 399 712 264 712C124 712 42 633 42 486L42 214C42 67 124 -12 263 -12ZM194 -281L273 -281L324 -72L210 -72Z" />
<glyph glyph-name="gcommaaccent" unicode="&#x0123;" horiz-adv-x="477" d="M286 601L226 817L142 817L159 601ZM334 530L325 499C295 528 254 543 208 543C110 543 38 459 38 343L38 225C38 111 110 27 208 27C238 27 265 35 288 49L288 -17C288 -47 271 -67 240 -67C208 -67 193 -47 190 -17L55 -17C58 -124 124 -194 240 -194C358 -194 427 -124 427 -17L427 530ZM230 156C194 156 176 180 176 225L176 343C176 388 194 411 230 411C268 411 288 388 288 343L288 225C288 180 268 156 230 156Z" />
<glyph glyph-name="Hbar" unicode="&#x0126;" horiz-adv-x="588" d="M574 587L509 587L509 700L366 700L366 587L222 587L222 700L79 700L79 587L14 587L14 521L79 521L79 0L222 0L222 285L366 285L366 0L509 0L509 521L574 521ZM366 420L222 420L222 521L366 521Z" />
<glyph glyph-name="hbar" unicode="&#x0127;" horiz-adv-x="475" d="M280 543C241 543 209 524 185 493L185 599L276 599L276 665L185 665L185 725L49 725L49 665L-14 665L-14 599L49 599L49 0L185 0L185 335C185 387 207 413 242 413C275 413 293 390 293 325L293 0L430 0L430 325C430 469 374 543 280 543Z" />
<glyph glyph-name="Imacron" unicode="&#x012a;" horiz-adv-x="266" d="M28 876L28 789L248 789L248 876ZM62 700L62 0L204 0L204 700Z" />
<glyph glyph-name="imacron" unicode="&#x012b;" horiz-adv-x="233" d="M19 720L19 630L214 630L214 720ZM48 0L185 0L185 530L48 530Z" />
<glyph glyph-name="Iogonek" unicode="&#x012e;" horiz-adv-x="268" d="M190 -92C162 -92 147 -84 147 -66C147 -50 159 -20 181 0L205 0L205 700L63 700L63 0L86 0C50 -24 26 -65 26 -103C26 -161 59 -194 132 -194C155 -194 188 -191 219 -180L219 -89C210 -91 200 -92 190 -92Z" />
<glyph glyph-name="iogonek" unicode="&#x012f;" horiz-adv-x="235" d="M112 608C154 608 187 643 187 683C187 726 154 758 112 758C68 758 37 726 37 683C37 641 68 608 112 608ZM167 -93C139 -93 126 -85 126 -66C126 -50 135 -20 152 0L180 0L180 530L43 530L43 0C19 -29 3 -66 3 -109C3 -162 40 -194 103 -194C134 -194 167 -194 195 -181L195 -90C186 -92 175 -93 167 -93Z" />
<glyph glyph-name="Idotaccent" unicode="&#x0130;" horiz-adv-x="266" d="M134 762C176 762 209 797 209 837C209 880 176 912 134 912C90 912 59 880 59 837C59 795 90 762 134 762ZM62 700L62 0L204 0L204 700Z" />
<glyph glyph-name="dotlessi" unicode="&#x0131;" horiz-adv-x="237" d="M50 0L187 0L187 530L50 530Z" />
<glyph glyph-name="Kcommaaccent" unicode="&#x0136;" horiz-adv-x="528" d="M320 394L498 700L336 700L238 510L202 432L202 700L62 700L62 0L202 0L202 202L241 265L368 0L528 0ZM183 -281L262 -281L313 -72L199 -72Z" />
<glyph glyph-name="kcommaaccent" unicode="&#x0137;" horiz-adv-x="457" d="M300 320L440 530L283 530L185 367L185 725L50 725L50 0L185 0L185 188L210 213L311 0L463 0ZM161 -281L240 -281L291 -72L177 -72Z" />
<glyph glyph-name="Lacute" unicode="&#x0139;" horiz-adv-x="418" d="M284 904L171 904L77 767L171 767ZM204 135L204 700L62 700L62 0L412 0L412 135Z" />
<glyph glyph-name="lacute" unicode="&#x013a;" horiz-adv-x="232" d="M43 767L137 767L250 904L137 904ZM43 0L179 0L179 725L43 725Z" />
<glyph glyph-name="Lcommaaccent" unicode="&#x013b;" horiz-adv-x="418" d="M204 135L204 700L62 700L62 0L412 0L412 135ZM143 -281L222 -281L273 -72L159 -72Z" />
<glyph glyph-name="lcommaaccent" unicode="&#x013c;" horiz-adv-x="222" d="M43 0L179 0L179 725L43 725ZM47 -281L126 -281L177 -72L63 -72Z" />
<glyph glyph-name="Lcaron" unicode="&#x013d;" horiz-adv-x="422" d="M204 700L62 700L62 0L398 0L398 135L204 135ZM416 700L299 700L289 470L368 470Z" />
<glyph glyph-name="lcaron" unicode="&#x013e;" horiz-adv-x="340" d="M231 579L310 579L362 780L248 780ZM43 0L179 0L179 725L43 725Z" />
<glyph glyph-name="Lslash" unicode="&#x0141;" horiz-adv-x="447" d="M233 135L233 334L348 377L348 494L233 451L233 700L91 700L91 397L19 370L19 253L91 280L91 0L441 0L441 135Z" />
<glyph glyph-name="lslash" unicode="&#x0142;" horiz-adv-x="283" d="M272 501L210 480L210 725L74 725L74 435L11 414L11 311L74 332L74 0L210 0L210 377L272 398Z" />
<glyph glyph-name="Nacute" unicode="&#x0143;" horiz-adv-x="570" d="M216 767L310 767L423 904L310 904ZM368 700L368 538C368 473 376 353 388 265L385 262C368 306 352 352 335 396L202 700L62 700L62 0L202 0L202 142C202 220 195 351 184 439L187 442L250 271L368 0L508 0L508 700Z" />
<glyph glyph-name="nacute" unicode="&#x0144;" horiz-adv-x="476" d="M360 746L247 746L173 609L267 609ZM275 543C220 543 177 520 150 476L140 530L50 530L50 0L186 0L186 335C186 387 208 413 243 413C276 413 294 390 294 325L294 0L431 0L431 325C431 469 373 543 275 543Z" />
<glyph glyph-name="Ncommaaccent" unicode="&#x0145;" horiz-adv-x="570" d="M368 700L368 538C368 473 376 353 388 265L385 262C368 306 352 352 335 396L202 700L62 700L62 0L202 0L202 142C202 220 195 351 184 439L187 442L250 271L368 0L508 0L508 700ZM218 -281L297 -281L348 -72L234 -72Z" />
<glyph glyph-name="ncommaaccent" unicode="&#x0146;" horiz-adv-x="476" d="M275 543C220 543 177 520 150 476L140 530L50 530L50 0L186 0L186 335C186 387 208 413 243 413C276 413 294 390 294 325L294 0L431 0L431 325C431 469 373 543 275 543ZM143 -281L222 -281L273 -72L159 -72Z" />
<glyph glyph-name="Ncaron" unicode="&#x0147;" horiz-adv-x="570" d="M338 767L419 904L330 904L287 837L243 904L154 904L235 767ZM368 700L368 538C368 473 376 353 388 265L385 262C368 306 352 352 335 396L202 700L62 700L62 0L202 0L202 142C202 220 195 351 184 439L187 442L250 271L368 0L508 0L508 700Z" />
<glyph glyph-name="ncaron" unicode="&#x0148;" horiz-adv-x="476" d="M290 609L371 746L282 746L239 679L195 746L106 746L187 609ZM275 543C220 543 177 520 150 476L140 530L50 530L50 0L186 0L186 335C186 387 208 413 243 413C276 413 294 390 294 325L294 0L431 0L431 325C431 469 373 543 275 543Z" />
<glyph glyph-name="Eng" unicode="&#x014a;" horiz-adv-x="570" d="M368 700L368 538C368 473 376 353 388 265L385 262C368 306 352 352 335 396L202 700L62 700L62 0L202 0L202 142C202 220 195 351 184 439L187 442L250 271L371 -7C366 -45 341 -64 305 -64L305 -194C426 -194 501 -124 507 0L508 0L508 700Z" />
<glyph glyph-name="eng" unicode="&#x014b;" horiz-adv-x="476" d="M275 543C220 543 177 520 150 476L140 530L50 530L50 0L186 0L186 335C186 387 208 413 243 413C276 413 294 390 294 325L294 10C294 -40 268 -64 227 -64L227 -194C355 -194 431 -117 431 19L431 325C431 469 373 543 275 543Z" />
<glyph glyph-name="Omacron" unicode="&#x014c;" horiz-adv-x="538" d="M162 876L162 789L382 789L382 876ZM269 -12C411 -12 496 77 496 227L496 473C496 623 411 712 269 712C127 712 42 623 42 473L42 227C42 77 127 -12 269 -12ZM269 126C216 126 189 161 189 227L189 473C189 539 216 574 269 574C322 574 349 539 349 473L349 227C349 161 322 126 269 126Z" />
<glyph glyph-name="omacron" unicode="&#x014d;" horiz-adv-x="470" d="M124 719L124 632L344 632L344 719ZM235 -13C359 -13 432 63 432 198L432 333C432 468 359 543 235 543C111 543 38 468 38 333L38 198C38 63 111 -13 235 -13ZM235 119C197 119 177 143 177 198L177 333C177 388 197 411 235 411C273 411 293 388 293 333L293 198C293 143 273 119 235 119Z" />
<glyph glyph-name="Ohungarumlaut" unicode="&#x0150;" horiz-adv-x="538" d="M310 905L208 905L131 768L217 768ZM465 905L363 905L280 768L366 768ZM269 -12C411 -12 496 77 496 227L496 473C496 623 411 712 269 712C127 712 42 623 42 473L42 227C42 77 127 -12 269 -12ZM269 126C216 126 189 161 189 227L189 473C189 539 216 574 269 574C322 574 349 539 349 473L349 227C349 161 322 126 269 126Z" />
<glyph glyph-name="ohungarumlaut" unicode="&#x0151;" horiz-adv-x="470" d="M272 746L170 746L93 609L179 609ZM427 746L325 746L242 609L328 609ZM235 -13C359 -13 432 63 432 198L432 333C432 468 359 543 235 543C111 543 38 468 38 333L38 198C38 63 111 -13 235 -13ZM235 119C197 119 177 143 177 198L177 333C177 388 197 411 235 411C273 411 293 388 293 333L293 198C293 143 273 119 235 119Z" />
<glyph glyph-name="OE" unicode="&#x0152;" horiz-adv-x="755" d="M491 135L491 290L690 290L690 420L491 420L491 565L710 565L710 700L349 700L349 673C320 698 288 712 248 712C121 712 42 623 42 473L42 227C42 77 121 -12 248 -12C288 -12 320 2 349 27L349 0L720 0L720 135ZM261 126C213 126 189 161 189 227L189 473C189 539 213 574 261 574C319 574 349 539 349 473L349 227C349 161 319 126 261 126Z" />
<glyph glyph-name="oe" unicode="&#x0153;" horiz-adv-x="713" d="M548 169C539 133 527 118 485 118C448 118 429 142 429 197L429 219L678 219L678 338C678 467 606 543 484 543C434 543 392 526 361 493C329 526 286 543 235 543C111 543 38 470 38 333L38 199C38 64 111 -12 235 -12C286 -12 329 5 361 39C392 5 434 -12 483 -12C601 -12 674 55 685 169ZM429 340C429 394 448 417 485 417C524 417 544 394 544 340L544 312L429 312ZM294 199C294 144 274 120 235 120C196 120 176 144 176 199L176 333C176 388 196 411 235 411C274 411 294 388 294 333Z" />
<glyph glyph-name="Racute" unicode="&#x0154;" horiz-adv-x="526" d="M410 904L297 904L203 767L297 767ZM366 0L521 0L389 265C451 302 486 372 486 467C486 614 404 700 265 700L62 700L62 0L204 0L204 235L254 235ZM204 565L263 565C313 565 340 531 340 467C340 404 313 370 263 370L204 370Z" />
<glyph glyph-name="racute" unicode="&#x0155;" horiz-adv-x="349" d="M308 746L195 746L121 609L215 609ZM284 543C224 543 178 519 150 474L140 530L50 530L50 0L186 0L186 333C186 389 221 415 278 415C303 415 323 410 342 401L342 531C328 539 308 543 284 543Z" />
<glyph glyph-name="Rcommaaccent" unicode="&#x0156;" horiz-adv-x="526" d="M389 265C451 302 486 372 486 467C486 614 404 700 265 700L62 700L62 0L204 0L204 235L254 235L366 0L521 0ZM204 565L263 565C313 565 340 531 340 467C340 404 313 370 263 370L204 370ZM205 -281L284 -281L335 -72L221 -72Z" />
<glyph glyph-name="rcommaaccent" unicode="&#x0157;" horiz-adv-x="349" d="M284 543C224 543 178 519 150 474L140 530L50 530L50 0L186 0L186 333C186 389 221 415 278 415C303 415 323 410 342 401L342 531C328 539 308 543 284 543ZM62 -281L141 -281L192 -72L78 -72Z" />
<glyph glyph-name="Rcaron" unicode="&#x0158;" horiz-adv-x="526" d="M325 767L406 904L317 904L274 837L230 904L141 904L222 767ZM366 0L521 0L389 265C451 302 486 372 486 467C486 614 404 700 265 700L62 700L62 0L204 0L204 235L254 235ZM204 565L263 565C313 565 340 531 340 467C340 404 313 370 263 370L204 370Z" />
<glyph glyph-name="rcaron" unicode="&#x0159;" horiz-adv-x="349" d="M238 609L319 746L230 746L187 679L143 746L54 746L135 609ZM284 543C224 543 178 519 150 474L140 530L50 530L50 0L186 0L186 333C186 389 221 415 278 415C303 415 323 410 342 401L342 531C328 539 308 543 284 543Z" />
<glyph glyph-name="Sacute" unicode="&#x015a;" horiz-adv-x="479" d="M168 767L262 767L375 904L262 904ZM236 -14C375 -14 456 70 456 185C456 408 178 415 178 525C178 557 200 577 237 577C278 577 299 554 299 508L445 508C445 637 367 714 238 714C109 714 34 636 34 529C34 316 308 302 308 186C308 151 285 124 238 124C193 124 165 148 165 204L19 204C19 63 103 -14 236 -14Z" />
<glyph glyph-name="sacute" unicode="&#x015b;" horiz-adv-x="432" d="M340 749L227 749L153 612L247 612ZM224 -15C343 -15 412 52 412 152C412 344 162 315 162 389C162 409 181 423 210 423C249 423 263 401 266 367L397 367C389 467 337 543 210 543C98 543 27 486 27 389C27 210 276 234 276 151C276 126 255 109 219 109C169 109 156 143 154 169L18 169C21 75 86 -15 224 -15Z" />
<glyph glyph-name="Scedilla" unicode="&#x015e;" horiz-adv-x="479" d="M456 185C456 408 178 415 178 525C178 557 200 577 237 577C278 577 299 554 299 508L445 508C445 637 367 714 238 714C109 714 34 636 34 529C34 316 308 302 308 186C308 151 285 124 238 124C193 124 165 148 165 204L19 204C19 72 93 -4 211 -13L193 -78L213 -98C224 -92 238 -90 248 -90C271 -90 281 -102 281 -119C281 -137 271 -153 247 -153C228 -153 216 -143 207 -126L136 -126C142 -180 190 -217 247 -217C313 -217 357 -179 357 -122C357 -77 327 -47 283 -47L274 -47L284 -10C394 7 456 84 456 185Z" />
<glyph glyph-name="scedilla" unicode="&#x015f;" horiz-adv-x="432" d="M412 152C412 344 162 315 162 389C162 409 181 423 210 423C249 423 263 401 266 367L397 367C389 467 337 543 210 543C98 543 27 486 27 389C27 210 276 234 276 151C276 126 255 109 219 109C169 109 156 143 154 169L18 169C21 85 73 5 182 -12L163 -78L183 -98C194 -92 208 -90 218 -90C241 -90 251 -102 251 -119C251 -137 241 -153 217 -153C198 -153 186 -143 177 -126L106 -126C112 -180 160 -217 217 -217C283 -217 327 -179 327 -122C327 -77 297 -47 253 -47L244 -47L253 -14C354 -3 412 60 412 152Z" />
<glyph glyph-name="Scaron" unicode="&#x0160;" horiz-adv-x="479" d="M290 767L371 904L282 904L239 837L195 904L106 904L187 767ZM178 525C178 557 200 577 237 577C278 577 299 554 299 508L445 508C445 637 367 714 238 714C109 714 34 636 34 529C34 316 308 302 308 186C308 151 285 124 238 124C193 124 165 148 165 204L19 204C19 63 103 -14 236 -14C375 -14 456 70 456 185C456 408 178 415 178 525Z" />
<glyph glyph-name="scaron" unicode="&#x0161;" horiz-adv-x="432" d="M270 612L351 749L262 749L219 682L175 749L86 749L167 612ZM162 389C162 409 181 423 210 423C249 423 263 401 266 367L397 367C389 467 337 543 210 543C98 543 27 486 27 389C27 210 276 234 276 151C276 126 255 109 219 109C169 109 156 143 154 169L18 169C21 75 86 -15 224 -15C343 -15 412 52 412 152C412 344 162 315 162 389Z" />
<glyph glyph-name="uni0162" unicode="&#x0162;" horiz-adv-x="450" d="M435 700L15 700L15 565L152 565L152 0L298 0L298 565L435 565ZM158 -281L237 -281L288 -72L174 -72Z" />
<glyph glyph-name="uni0163" unicode="&#x0163;" horiz-adv-x="316" d="M271 120C230 120 211 139 211 183L211 407L298 407L298 530L211 530L211 658L76 658L76 530L7 530L7 407L76 407L76 185C76 67 147 -8 261 -8L305 -8L305 120ZM117 -281L196 -281L247 -72L133 -72Z" />
<glyph glyph-name="Tcaron" unicode="&#x0164;" horiz-adv-x="450" d="M278 767L359 904L270 904L227 837L183 904L94 904L175 767ZM435 700L15 700L15 565L152 565L152 0L298 0L298 565L435 565Z" />
<glyph glyph-name="tcaron" unicode="&#x0165;" horiz-adv-x="430" d="M290 778L268 592L350 592L400 778ZM211 183L211 407L298 407L298 530L211 530L211 658L76 658L76 530L7 530L7 407L76 407L76 185C76 67 147 -8 261 -8L305 -8L305 120L271 120C230 120 211 139 211 183Z" />
<glyph glyph-name="Tbar" unicode="&#x0166;" horiz-adv-x="450" d="M435 565L435 700L15 700L15 565L152 565L152 388L75 388L75 312L152 312L152 0L298 0L298 312L375 312L375 388L298 388L298 565Z" />
<glyph glyph-name="tbar" unicode="&#x0167;" horiz-adv-x="335" d="M271 120C230 120 211 139 211 183L211 232L271 232L271 318L211 318L211 407L298 407L298 530L211 530L211 658L76 658L76 530L7 530L7 407L76 407L76 318L24 318L24 232L76 232L76 185C76 67 147 -8 261 -8L305 -8L305 120Z" />
<glyph glyph-name="Umacron" unicode="&#x016a;" horiz-adv-x="546" d="M167 876L167 789L387 789L387 876ZM273 -12C413 -12 496 77 496 225L496 700L348 700L348 225C348 161 323 126 273 126C223 126 198 161 198 225L198 700L50 700L50 225C50 77 133 -12 273 -12Z" />
<glyph glyph-name="umacron" unicode="&#x016b;" horiz-adv-x="476" d="M343 719L123 719L123 632L343 632ZM290 530L290 195C290 143 268 117 233 117C200 117 182 140 182 205L182 530L45 530L45 205C45 61 103 -13 201 -13C256 -13 299 10 326 54L336 0L426 0L426 530Z" />
<glyph glyph-name="Uring" unicode="&#x016e;" horiz-adv-x="546" d="M185 853C185 799 222 763 277 763C332 763 369 799 369 853C369 905 332 941 277 941C222 941 185 905 185 853ZM244 852C244 872 257 885 277 885C297 885 310 872 310 852C310 832 297 819 277 819C257 819 244 832 244 852ZM273 -12C413 -12 496 77 496 225L496 700L348 700L348 225C348 161 323 126 273 126C223 126 198 161 198 225L198 700L50 700L50 225C50 77 133 -12 273 -12Z" />
<glyph glyph-name="uring" unicode="&#x016f;" horiz-adv-x="476" d="M234 606C289 606 326 642 326 696C326 748 289 784 234 784C179 784 142 748 142 696C142 642 179 606 234 606ZM234 728C254 728 267 715 267 695C267 675 254 662 234 662C214 662 201 675 201 695C201 715 214 728 234 728ZM290 530L290 195C290 143 268 117 233 117C200 117 182 140 182 205L182 530L45 530L45 205C45 61 103 -13 201 -13C256 -13 299 10 326 54L336 0L426 0L426 530Z" />
<glyph glyph-name="Uhungarumlaut" unicode="&#x0170;" horiz-adv-x="546" d="M315 905L213 905L136 768L222 768ZM470 905L368 905L285 768L371 768ZM273 -12C413 -12 496 77 496 225L496 700L348 700L348 225C348 161 323 126 273 126C223 126 198 161 198 225L198 700L50 700L50 225C50 77 133 -12 273 -12Z" />
<glyph glyph-name="uhungarumlaut" unicode="&#x0171;" horiz-adv-x="476" d="M271 746L169 746L92 609L178 609ZM327 609L426 746L324 746L241 609ZM290 530L290 195C290 143 268 117 233 117C200 117 182 140 182 205L182 530L45 530L45 205C45 61 103 -13 201 -13C256 -13 299 10 326 54L336 0L426 0L426 530Z" />
<glyph glyph-name="Uogonek" unicode="&#x0172;" horiz-adv-x="546" d="M319 -194C347 -194 374 -192 402 -181L402 -90C393 -92 382 -93 374 -93C353 -93 343 -86 343 -67C343 -30 382 4 411 28C463 72 496 128 496 225L496 700L348 700L348 225C348 161 323 126 273 126C223 126 198 161 198 225L198 700L50 700L50 225C50 81 129 -7 263 -12C266 -12 269 -11 271 -10L272 -12C239 -40 219 -72 219 -110C219 -162 256 -194 319 -194Z" />
<glyph glyph-name="uogonek" unicode="&#x0173;" horiz-adv-x="476" d="M426 0L426 530L290 530L290 195C290 143 268 117 233 117C200 117 182 140 182 205L182 530L45 530L45 205C45 61 103 -13 201 -13C256 -13 299 10 326 54L336 0C282 -31 253 -65 253 -110C253 -159 286 -194 343 -194C371 -194 398 -194 426 -181L426 -90C417 -92 406 -93 398 -93C379 -93 367 -86 367 -71C367 -51 386 -22 426 0Z" />
<glyph glyph-name="Wcircumflex" unicode="&#x0174;" horiz-adv-x="792" d="M406 834L449 767L538 767L457 904L354 904L273 767L362 767ZM642 700L587 369C579 318 565 232 558 174L554 174C547 232 533 318 525 369L470 690L322 690L267 369C259 318 245 232 238 174L234 174C227 232 213 318 205 369L150 700L3 700L161 0L311 0L361 234C378 310 390 406 394 463L398 463C402 406 414 310 431 234L481 0L631 0L789 700Z" />
<glyph glyph-name="wcircumflex" unicode="&#x0175;" horiz-adv-x="666" d="M330 676L373 609L462 609L381 746L278 746L197 609L286 609ZM525 530L497 345C488 282 474 191 471 147L465 147C459 199 447 271 437 332L405 520L261 520L229 332C219 271 207 199 201 147L195 147C192 191 178 282 169 345L141 530L0 530L121 0L268 0L294 118C312 202 325 291 330 357L336 357C341 291 354 202 372 118L398 0L545 0L666 530Z" />
<glyph glyph-name="Ycircumflex" unicode="&#x0176;" horiz-adv-x="472" d="M236 834L279 767L368 767L287 904L184 904L103 767L192 767ZM325 700L270 509C262 483 246 428 238 394L234 394C227 428 211 483 204 506L147 700L0 700L165 208L165 0L307 0L307 208L472 700Z" />
<glyph glyph-name="ycircumflex" unicode="&#x0177;" horiz-adv-x="448" d="M223 679L266 612L355 612L274 749L171 749L90 612L179 612ZM309 530L229 249L142 530L0 530L173 54L160 9C147 -35 135 -57 100 -57L60 -57L60 -188L130 -188C217 -188 261 -112 289 -16L448 530Z" />
<glyph glyph-name="Ydieresis" unicode="&#x0178;" horiz-adv-x="472" d="M155 775C192 775 216 799 216 836C216 873 192 897 155 897C118 897 94 873 94 836C94 799 118 775 155 775ZM317 775C354 775 378 799 378 836C378 873 354 897 317 897C280 897 256 873 256 836C256 799 280 775 317 775ZM165 0L307 0L307 208L472 700L325 700L270 509C262 483 246 428 238 394L234 394C227 428 211 483 204 506L147 700L0 700L165 208Z" />
<glyph glyph-name="Zacute" unicode="&#x0179;" horiz-adv-x="433" d="M153 767L247 767L360 904L247 904ZM189 135L409 602L409 700L30 700L30 565L235 565L13 95L13 0L414 0L414 135Z" />
<glyph glyph-name="zacute" unicode="&#x017a;" horiz-adv-x="376" d="M304 746L191 746L117 609L211 609ZM180 125L355 447L355 530L24 530L24 405L181 405L3 83L3 0L365 0L365 125Z" />
<glyph glyph-name="Zdotaccent" unicode="&#x017b;" horiz-adv-x="433" d="M222 778C264 778 297 813 297 853C297 896 264 928 222 928C178 928 147 896 147 853C147 811 178 778 222 778ZM189 135L409 602L409 700L30 700L30 565L235 565L13 95L13 0L414 0L414 135Z" />
<glyph glyph-name="zdotaccent" unicode="&#x017c;" horiz-adv-x="376" d="M183 608C225 608 258 643 258 683C258 726 225 758 183 758C139 758 108 726 108 683C108 641 139 608 183 608ZM180 125L355 447L355 530L24 530L24 405L181 405L3 83L3 0L365 0L365 125Z" />
<glyph glyph-name="Zcaron" unicode="&#x017d;" horiz-adv-x="433" d="M275 767L356 904L267 904L224 837L180 904L91 904L172 767ZM189 135L409 602L409 700L30 700L30 565L235 565L13 95L13 0L414 0L414 135Z" />
<glyph glyph-name="zcaron" unicode="&#x017e;" horiz-adv-x="376" d="M234 609L315 746L226 746L183 679L139 746L50 746L131 609ZM180 125L355 447L355 530L24 530L24 405L181 405L3 83L3 0L365 0L365 125Z" />
<glyph glyph-name="Scommaaccent" unicode="&#x0218;" horiz-adv-x="479" d="M236 -14C375 -14 456 70 456 185C456 408 178 415 178 525C178 557 200 577 237 577C278 577 299 554 299 508L445 508C445 637 367 714 238 714C109 714 34 636 34 529C34 316 308 302 308 186C308 151 285 124 238 124C193 124 165 148 165 204L19 204C19 63 103 -14 236 -14ZM172 -281L251 -281L302 -72L188 -72Z" />
<glyph glyph-name="scommaaccent" unicode="&#x0219;" horiz-adv-x="432" d="M224 -15C343 -15 412 52 412 152C412 344 162 315 162 389C162 409 181 423 210 423C249 423 263 401 266 367L397 367C389 467 337 543 210 543C98 543 27 486 27 389C27 210 276 234 276 151C276 126 255 109 219 109C169 109 156 143 154 169L18 169C21 75 86 -15 224 -15ZM154 -281L233 -281L284 -72L170 -72Z" />
<glyph glyph-name="uni021A" unicode="&#x021a;" horiz-adv-x="450" d="M435 700L15 700L15 565L152 565L152 0L298 0L298 565L435 565ZM158 -281L237 -281L288 -72L174 -72Z" />
<glyph glyph-name="uni021B" unicode="&#x021b;" horiz-adv-x="316" d="M271 120C230 120 211 139 211 183L211 407L298 407L298 530L211 530L211 658L76 658L76 530L7 530L7 407L76 407L76 185C76 67 147 -8 261 -8L305 -8L305 120ZM117 -281L196 -281L247 -72L133 -72Z" />
<glyph glyph-name="gravecomb" unicode="&#x0300;" horiz-adv-x="0" d="M-187 746L-94 609L0 609L-74 746Z" />
<glyph glyph-name="acutecomb" unicode="&#x0301;" horiz-adv-x="0" d="M0 746L-113 746L-187 609L-93 609Z" />
<glyph glyph-name="uni0302" unicode="&#x0302;" horiz-adv-x="0" d="M2 609L-79 746L-182 746L-263 609L-174 609L-130 676L-87 609Z" />
<glyph glyph-name="tildecomb" unicode="&#x0303;" horiz-adv-x="0" d="M-169 649C-145 649 -133 621 -91 621C-40 621 -4 662 0 727L-77 727C-80 713 -90 702 -105 702C-128 702 -140 730 -183 730C-231 730 -270 695 -274 624L-197 624C-194 641 -182 649 -169 649Z" />
<glyph glyph-name="uni0304" unicode="&#x0304;" horiz-adv-x="0" d="M-220 719L-220 632L0 632L0 719Z" />
<glyph glyph-name="uni0306" unicode="&#x0306;" horiz-adv-x="0" d="M-127 612C-58 612 -3 655 0 736L-87 736C-87 710 -107 695 -128 695C-149 695 -169 710 -169 736L-256 736C-253 658 -198 612 -127 612Z" />
<glyph glyph-name="uni0307" unicode="&#x0307;" horiz-adv-x="0" d="M-103 608C-61 608 -28 643 -28 683C-28 726 -61 758 -103 758C-147 758 -178 726 -178 683C-178 641 -147 608 -103 608Z" />
<glyph glyph-name="uni0308" unicode="&#x0308;" horiz-adv-x="0" d="M-223 614C-186 614 -162 638 -162 675C-162 712 -186 736 -223 736C-260 736 -284 712 -284 675C-284 638 -260 614 -223 614ZM-61 614C-24 614 0 638 0 675C0 712 -24 736 -61 736C-98 736 -122 712 -122 675C-122 638 -98 614 -61 614Z" />
<glyph glyph-name="uni030A" unicode="&#x030a;" horiz-adv-x="0" d="M-184 696C-184 642 -147 606 -92 606C-37 606 0 642 0 696C0 748 -37 784 -92 784C-147 784 -184 748 -184 696ZM-125 695C-125 715 -112 728 -92 728C-72 728 -59 715 -59 695C-59 675 -72 662 -92 662C-112 662 -125 675 -125 695Z" />
<glyph glyph-name="uni030B" unicode="&#x030b;" horiz-adv-x="0" d="M-155 746L-257 746L-334 609L-248 609ZM0 746L-102 746L-185 609L-99 609Z" />
<glyph glyph-name="uni030C" unicode="&#x030c;" horiz-adv-x="0" d="M-79 746L-122 679L-166 746L-255 746L-174 609L-71 609L10 746Z" />
<glyph glyph-name="uni0312" unicode="&#x0312;" horiz-adv-x="0" d="M-60 817L-144 817L-127 601L0 601Z" />
<glyph glyph-name="uni0326" unicode="&#x0326;" horiz-adv-x="0" d="M-130 -281L-51 -281L0 -72L-114 -72Z" />
<glyph glyph-name="uni0327" unicode="&#x0327;" horiz-adv-x="0" d="M-110 -217C-44 -217 0 -179 0 -122C0 -77 -30 -47 -74 -47L-83 -47L-70 0L-142 0L-164 -78L-144 -98C-133 -92 -119 -90 -109 -90C-86 -90 -76 -102 -76 -119C-76 -137 -86 -153 -110 -153C-129 -153 -141 -143 -150 -126L-221 -126C-215 -180 -167 -217 -110 -217Z" />
<glyph glyph-name="uni0328" unicode="&#x0328;" horiz-adv-x="0" d="M-10 -181L-10 -90C-19 -92 -30 -93 -38 -93C-59 -93 -69 -86 -69 -68C-69 -52 -52 -21 -18 0L-133 0C-169 -29 -193 -66 -193 -109C-193 -162 -156 -194 -93 -194C-65 -194 -38 -194 -10 -181Z" />
<glyph glyph-name="uni0335" unicode="&#x0335;" horiz-adv-x="0" d="M-210 372L-10 372L-10 438L-210 438Z" />
<glyph glyph-name="uni0336" unicode="&#x0336;" horiz-adv-x="0" d="M-330 438L-330 372L-10 372L-10 438Z" />
<glyph glyph-name="uni0337" unicode="&#x0337;" horiz-adv-x="0" d="M-298 -43L-149 -43L6 554L-143 554Z" />
<glyph glyph-name="uni0338" unicode="&#x0338;" horiz-adv-x="0" d="M-369 -39L-223 -39L-13 739L-159 739Z" />
<glyph glyph-name="uni0401" unicode="&#x0401;" horiz-adv-x="468" d="M173 775C210 775 234 799 234 836C234 873 210 897 173 897C136 897 112 873 112 836C112 799 136 775 173 775ZM335 775C372 775 396 799 396 836C396 873 372 897 335 897C298 897 274 873 274 836C274 799 298 775 335 775ZM204 135L204 290L403 290L403 420L204 420L204 565L423 565L423 700L62 700L62 0L433 0L433 135Z" />
<glyph glyph-name="uni0402" unicode="&#x0402;" horiz-adv-x="580" d="M392 505C354 505 321 486 298 456L298 565L435 565L435 700L15 700L15 565L152 565L152 0L298 0L298 312C298 353 321 375 354 375C387 375 405 352 405 287L405 209C405 152 379 126 338 126L338 -4C464 -4 541 72 542 207L542 287C542 431 486 505 392 505Z" />
<glyph glyph-name="uni0403" unicode="&#x0403;" horiz-adv-x="430" d="M373 904L260 904L166 767L260 767ZM415 700L62 700L62 0L204 0L204 565L415 565Z" />
<glyph glyph-name="uni0404" unicode="&#x0404;" horiz-adv-x="504" d="M342 214C338 152 313 126 258 126C214 126 190 154 190 214L190 297L333 297L333 413L190 413L190 486C190 548 215 576 258 576C312 576 336 550 340 486L482 486C477 634 399 714 259 714C122 714 42 634 42 486L42 214C42 67 122 -12 258 -12C400 -12 481 67 484 214Z" />
<glyph glyph-name="uni0405" unicode="&#x0405;" horiz-adv-x="479" d="M236 -14C375 -14 456 70 456 185C456 408 178 415 178 525C178 557 200 577 237 577C278 577 299 554 299 508L445 508C445 637 367 714 238 714C109 714 34 636 34 529C34 316 308 302 308 186C308 151 285 124 238 124C193 124 165 148 165 204L19 204C19 63 103 -14 236 -14Z" />
<glyph glyph-name="uni0406" unicode="&#x0406;" horiz-adv-x="266" d="M62 700L62 0L204 0L204 700Z" />
<glyph glyph-name="uni0407" unicode="&#x0407;" horiz-adv-x="266" d="M53 775C90 775 114 799 114 836C114 873 90 897 53 897C16 897 -8 873 -8 836C-8 799 16 775 53 775ZM215 775C252 775 276 799 276 836C276 873 252 897 215 897C178 897 154 873 154 836C154 799 178 775 215 775ZM62 700L62 0L204 0L204 700Z" />
<glyph glyph-name="uni0408" unicode="&#x0408;" horiz-adv-x="321" d="M0 -153C174 -153 262 -52 262 106L262 700L120 700L120 107C120 14 77 -12 0 -12Z" />
<glyph glyph-name="uni0409" unicode="&#x0409;" horiz-adv-x="786" d="M0 -12C121 -12 188 16 217 183C231 265 242 416 250 566L363 566L363 0L551 0C700 0 768 67 768 208C768 345 703 434 551 434L510 434L510 700L116 700C104 434 97 290 86 225C73 138 47 118 0 118ZM510 130L510 299L539 299C595 299 620 273 620 214C620 155 595 130 539 130Z" />
<glyph glyph-name="uni040A" unicode="&#x040a;" horiz-adv-x="790" d="M551 428L490 428L490 700L348 700L348 426L204 426L204 700L62 700L62 0L204 0L204 291L348 291L348 0L551 0C706 0 772 66 772 211C772 337 706 428 551 428ZM539 130L490 130L490 293L539 293C598 293 624 268 624 211C624 154 598 130 539 130Z" />
<glyph glyph-name="uni040B" unicode="&#x040b;" horiz-adv-x="587" d="M392 505C354 505 321 486 298 456L298 565L435 565L435 700L15 700L15 565L152 565L152 0L298 0L298 315C303 355 323 375 354 375C387 375 405 352 405 287L405 0L542 0L542 287C542 431 486 505 392 505Z" />
<glyph glyph-name="uni040C" unicode="&#x040c;" horiz-adv-x="528" d="M363 904L250 904L156 767L250 767ZM368 0L528 0L320 394L498 700L336 700L238 510L202 432L202 700L62 700L62 0L202 0L202 202L241 265Z" />
<glyph glyph-name="uni040D" unicode="&#x040d;" horiz-adv-x="570" d="M375 767L281 904L168 904L281 767ZM62 0L201 0L319 271C343 327 362 385 383 442L386 439C376 351 370 220 370 142L370 0L508 0L508 700L369 700L236 396C217 353 202 306 185 262L182 265C193 353 200 473 200 538L200 700L62 700Z" />
<glyph glyph-name="uni040E" unicode="&#x040e;" horiz-adv-x="470" d="M237 770C306 770 361 813 364 894L277 894C277 868 257 853 236 853C215 853 195 868 195 894L108 894C111 816 166 770 237 770ZM321 700L239 414L151 700L2 700L174 191C152 125 131 114 82 114L51 114L51 -12L77 -12C204 -12 259 14 307 171L470 700Z" />
<glyph glyph-name="uni040F" unicode="&#x040f;" horiz-adv-x="552" d="M206 -119L346 -119L346 0L490 0L490 700L348 700L348 135L204 135L204 700L62 700L62 0L206 0Z" />
<glyph glyph-name="uni0410" unicode="&#x0410;" horiz-adv-x="494" d="M344 0L491 0L323 700L171 700L3 0L150 0L173 116L321 116ZM201 251L217 331C227 381 238 466 245 523L249 523C256 466 268 381 277 331L293 251Z" />
<glyph glyph-name="uni0411" unicode="&#x0411;" horiz-adv-x="516" d="M271 433L205 433L205 567L451 567L451 700L62 700L62 0L271 0C420 0 490 68 490 216C490 342 420 433 271 433ZM259 135L205 135L205 300L259 300C313 300 344 274 344 216C344 159 313 135 259 135Z" />
<glyph glyph-name="uni0412" unicode="&#x0412;" horiz-adv-x="519" d="M406 358C443 392 465 448 465 501C465 620 388 700 280 700L62 700L62 0L283 0C403 0 489 84 489 209C489 272 458 328 406 358ZM255 566C301 566 321 542 321 495C321 446 300 420 260 420L204 420L204 566ZM258 134L204 134L204 287L261 287C314 287 343 261 343 210C343 160 314 134 258 134Z" />
<glyph glyph-name="uni0413" unicode="&#x0413;" horiz-adv-x="430" d="M415 700L62 700L62 0L204 0L204 565L415 565Z" />
<glyph glyph-name="uni0414" unicode="&#x0414;" horiz-adv-x="598" d="M523 133L523 700L143 700L132 409C128 313 111 200 49 133L4 133L4 -119L144 -119L144 0L447 0L447 -119L588 -119L588 133ZM383 133L214 133C250 200 265 281 268 367L276 566L383 566Z" />
<glyph glyph-name="uni0415" unicode="&#x0415;" horiz-adv-x="468" d="M204 135L204 290L403 290L403 420L204 420L204 565L423 565L423 700L62 700L62 0L433 0L433 135Z" />
<glyph glyph-name="uni0416" unicode="&#x0416;" horiz-adv-x="758" d="M602 0L758 0L556 386L739 700L579 700L484 510L448 429L448 700L310 700L310 429L274 510L179 700L19 700L202 386L0 0L156 0L277 263L310 210L310 0L448 0L448 210L481 263Z" />
<glyph glyph-name="uni0417" unicode="&#x0417;" horiz-adv-x="491" d="M361 366C429 394 454 439 454 508C454 634 370 715 242 715C99 715 27 618 19 486L159 486C161 536 179 579 243 579C287 579 310 550 310 505C310 450 287 421 223 421L185 421L185 298L233 298C297 298 331 268 331 211C331 154 290 123 241 123C175 123 150 174 149 213L6 213C11 95 93 -14 241 -14C372 -14 476 68 476 202C476 279 449 340 361 366Z" />
<glyph glyph-name="uni0418" unicode="&#x0418;" horiz-adv-x="570" d="M62 0L201 0L319 271C343 327 362 385 383 442L386 439C376 351 370 220 370 142L370 0L508 0L508 700L369 700L236 396C217 353 202 306 185 262L182 265C193 353 200 473 200 538L200 700L62 700Z" />
<glyph glyph-name="uni0419" unicode="&#x0419;" horiz-adv-x="570" d="M290 770C359 770 414 813 417 894L330 894C330 868 310 853 289 853C268 853 248 868 248 894L161 894C164 816 219 770 290 770ZM62 0L201 0L319 271C343 327 362 385 383 442L386 439C376 351 370 220 370 142L370 0L508 0L508 700L369 700L236 396C217 353 202 306 185 262L182 265C193 353 200 473 200 538L200 700L62 700Z" />
<glyph glyph-name="uni041A" unicode="&#x041a;" horiz-adv-x="528" d="M368 0L528 0L320 394L498 700L336 700L238 510L202 432L202 700L62 700L62 0L202 0L202 202L241 265Z" />
<glyph glyph-name="uni041B" unicode="&#x041b;" horiz-adv-x="569" d="M114 700C100 406 94 291 81 220C64 131 42 116 0 116L0 -12C116 -12 190 15 217 183C230 263 240 380 250 566L365 566L365 0L507 0L507 700Z" />
<glyph glyph-name="uni041C" unicode="&#x041c;" horiz-adv-x="726" d="M521 700L411 435C397 400 373 339 365 313L361 313C353 339 329 400 315 435L205 700L62 700L62 0L200 0L200 172C197 257 193 342 190 427L195 429L258 245L293 150L433 150L468 245L531 429L536 427C532 342 529 257 525 172L525 0L664 0L664 700Z" />
<glyph glyph-name="uni041D" unicode="&#x041d;" horiz-adv-x="554" d="M349 700L349 420L205 420L205 700L62 700L62 0L205 0L205 285L349 285L349 0L492 0L492 700Z" />
<glyph glyph-name="uni041E" unicode="&#x041e;" horiz-adv-x="538" d="M269 -12C411 -12 496 77 496 227L496 473C496 623 411 712 269 712C127 712 42 623 42 473L42 227C42 77 127 -12 269 -12ZM269 126C216 126 189 161 189 227L189 473C189 539 216 574 269 574C322 574 349 539 349 473L349 227C349 161 322 126 269 126Z" />
<glyph glyph-name="uni041F" unicode="&#x041f;" horiz-adv-x="552" d="M490 700L62 700L62 0L204 0L204 565L348 565L348 0L490 0Z" />
<glyph glyph-name="uni0420" unicode="&#x0420;" horiz-adv-x="524" d="M265 700L62 700L62 0L204 0L204 225L265 225C410 225 496 313 496 462C496 612 410 700 265 700ZM263 360L204 360L204 565L263 565C320 565 350 530 350 462C350 395 320 360 263 360Z" />
<glyph glyph-name="uni0421" unicode="&#x0421;" horiz-adv-x="504" d="M258 -12C400 -12 481 67 484 214L342 214C338 152 313 126 258 126C214 126 190 154 190 214L190 486C190 548 215 576 258 576C312 576 336 550 340 486L482 486C477 634 399 714 259 714C122 714 42 634 42 486L42 214C42 67 122 -12 258 -12Z" />
<glyph glyph-name="uni0422" unicode="&#x0422;" horiz-adv-x="450" d="M435 700L15 700L15 565L152 565L152 0L298 0L298 565L435 565Z" />
<glyph glyph-name="uni0423" unicode="&#x0423;" horiz-adv-x="470" d="M321 700L239 414L151 700L2 700L174 191C152 125 131 114 82 114L51 114L51 -12L77 -12C204 -12 259 14 307 171L470 700Z" />
<glyph glyph-name="uni0424" unicode="&#x0424;" horiz-adv-x="690" d="M275 -69L415 -69L415 10L428 10C561 10 671 105 671 272L671 420C671 590 561 689 428 689L415 689L415 764L275 764L275 689L262 689C129 689 19 590 19 420L19 272C19 105 129 10 262 10L275 10ZM255 146C205 146 160 180 160 272L160 420C160 517 205 553 255 553L275 553L275 146ZM415 146L415 553L435 553C485 553 530 517 530 420L530 272C530 179 485 146 435 146Z" />
<glyph glyph-name="uni0425" unicode="&#x0425;" horiz-adv-x="505" d="M493 0L328 362L483 700L328 700L253 510L177 700L22 700L177 362L12 0L168 0L253 210L337 0Z" />
<glyph glyph-name="uni0426" unicode="&#x0426;" horiz-adv-x="564" d="M414 -119L554 -119L554 135L489 135L489 700L346 700L346 135L205 135L205 700L62 700L62 0L414 0Z" />
<glyph glyph-name="uni0427" unicode="&#x0427;" horiz-adv-x="528" d="M324 700L324 370C302 364 280 361 259 361C201 361 174 391 174 458L174 700L32 700L32 465C32 316 108 228 236 228C263 228 295 231 324 239L324 -5L466 -5L466 700Z" />
<glyph glyph-name="uni0428" unicode="&#x0428;" horiz-adv-x="820" d="M62 0L758 0L758 700L618 700L618 135L480 135L480 700L340 700L340 135L202 135L202 700L62 700Z" />
<glyph glyph-name="uni0429" unicode="&#x0429;" horiz-adv-x="829" d="M754 135L754 700L614 700L614 135L478 135L478 700L338 700L338 135L202 135L202 700L62 700L62 0L679 0L679 -119L819 -119L819 135Z" />
<glyph glyph-name="uni042A" unicode="&#x042a;" horiz-adv-x="585" d="M150 0L347 0C501 0 567 67 567 214C567 342 501 434 347 434L293 434L293 700L12 700L12 571L150 571ZM293 130L293 299L335 299C394 299 421 273 421 214C421 155 394 130 335 130Z" />
<glyph glyph-name="uni042B" unicode="&#x042b;" horiz-adv-x="737" d="M62 0L250 0C402 0 467 67 467 214C467 342 402 434 250 434L209 434L209 700L62 700ZM533 0L675 0L675 700L533 700ZM209 130L209 299L238 299C294 299 319 273 319 214C319 155 294 130 238 130Z" />
<glyph glyph-name="uni042C" unicode="&#x042c;" horiz-adv-x="499" d="M62 0L259 0C415 0 481 67 481 214C481 342 415 434 259 434L205 434L205 700L62 700ZM205 130L205 299L247 299C306 299 333 273 333 214C333 155 306 130 247 130Z" />
<glyph glyph-name="uni042D" unicode="&#x042d;" horiz-adv-x="504" d="M245 714C105 714 27 634 22 486L164 486C168 550 192 576 246 576C289 576 314 548 314 486L314 413L171 413L171 297L314 297L314 214C314 154 290 126 246 126C191 126 166 152 162 214L20 214C23 67 104 -12 246 -12C382 -12 462 67 462 214L462 486C462 634 382 714 245 714Z" />
<glyph glyph-name="uni042E" unicode="&#x042e;" horiz-adv-x="790" d="M525 712C385 712 302 623 302 473L302 420L203 420L203 700L62 700L62 0L203 0L203 285L302 285L302 227C302 77 385 -12 525 -12C665 -12 748 77 748 227L748 473C748 623 665 712 525 712ZM602 227C602 161 576 126 525 126C474 126 448 161 448 227L448 473C448 539 474 574 525 574C576 574 602 539 602 473Z" />
<glyph glyph-name="uni042F" unicode="&#x042f;" horiz-adv-x="526" d="M5 0L160 0L272 227L322 227L322 0L464 0L464 700L261 700C122 700 40 613 40 463C40 366 75 295 137 258ZM263 362C213 362 186 397 186 463C186 530 213 565 263 565L322 565L322 362Z" />
<glyph glyph-name="uni0430" unicode="&#x0430;" horiz-adv-x="462" d="M230 543C114 543 43 477 38 365L175 365C180 400 204 412 228 412C265 412 275 384 275 337L275 321L226 321C109 321 23 267 23 152C23 56 83 -14 181 -14C241 -14 277 14 296 50L304 0L412 0L412 337C412 472 357 543 230 543ZM275 167C275 126 251 102 214 102C176 102 162 126 162 152C162 188 188 206 229 206L275 206Z" />
<glyph glyph-name="uni0431" unicode="&#x0431;" horiz-adv-x="481" d="M271 480C240 480 210 473 185 459L185 474C185 538 244 558 293 574C346 592 380 616 414 671L320 752C294 715 281 709 219 684C105 638 50 578 50 460L50 198C50 63 123 -13 246 -13C370 -13 443 63 443 198L443 270C443 405 372 480 271 480ZM304 198C304 143 284 119 246 119C208 119 188 143 188 198L188 270C188 325 209 348 247 348C285 348 304 325 304 270Z" />
<glyph glyph-name="uni0432" unicode="&#x0432;" horiz-adv-x="437" d="M346 281C380 304 398 340 398 378C398 475 340 531 229 531L50 531L50 0L229 0C364 0 426 60 426 155C426 207 407 257 346 281ZM181 423L218 423C248 423 265 403 265 373C265 339 248 322 219 322L181 322ZM238 110L181 110L181 214L238 214C275 214 291 198 291 162C291 127 275 110 238 110Z" />
<glyph glyph-name="uni0433" unicode="&#x0433;" horiz-adv-x="351" d="M338 531L50 531L50 0L188 0L188 401L338 401Z" />
<glyph glyph-name="uni0434" unicode="&#x0434;" horiz-adv-x="509" d="M0 -119L130 -119L130 0L371 0L371 -119L501 -119L501 123L439 123L439 530L96 530C94 438 89 345 83 253C80 208 73 155 42 123L0 123ZM199 123C211 157 215 189 217 219C222 281 224 343 225 405L304 405L304 123Z" />
<glyph glyph-name="uni0435" unicode="&#x0435;" horiz-adv-x="458" d="M292 169C283 133 271 118 230 118C194 118 175 142 175 197L175 219L423 219L423 338C423 467 351 543 229 543C109 543 38 467 38 338L38 197C38 66 109 -12 228 -12C346 -12 419 55 430 169ZM230 417C268 417 288 394 288 340L288 312L175 312L175 340C175 394 194 417 230 417Z" />
<glyph glyph-name="uni0436" unicode="&#x0436;" horiz-adv-x="674" d="M531 0L680 0L514 308L657 530L503 530L446 419C432 393 417 363 402 332L402 530L272 530L272 332C257 363 242 393 228 419L171 530L17 530L160 308L-6 0L143 0L247 202L272 176L272 0L402 0L402 176L427 202Z" />
<glyph glyph-name="uni0437" unicode="&#x0437;" horiz-adv-x="434" d="M343 281C368 298 396 329 396 381C396 483 327 543 209 543C97 543 28 476 22 363L152 363C155 401 176 421 213 421C248 421 266 404 266 372C266 338 249 318 217 318L160 318L160 222L218 222C258 222 279 204 279 169C279 130 256 110 213 110C171 110 147 127 143 161L13 161C19 51 93 -14 213 -14C337 -14 411 51 411 162C411 218 378 261 343 281Z" />
<glyph glyph-name="uni0438" unicode="&#x0438;" horiz-adv-x="480" d="M50 0L188 0L225 87C250 142 298 298 302 319L305 318C301 254 300 163 300 117L300 0L430 0L430 530L292 530L258 436C234 369 190 244 182 212L179 213C179 289 180 344 180 390L180 530L50 530Z" />
<glyph glyph-name="uni0439" unicode="&#x0439;" horiz-adv-x="480" d="M242 612C311 612 366 655 369 736L282 736C282 710 262 695 241 695C220 695 200 710 200 736L113 736C116 658 171 612 242 612ZM50 0L188 0L225 87C250 142 298 298 302 319L305 318C301 254 300 163 300 117L300 0L430 0L430 530L292 530L258 436C234 369 190 244 182 212L179 213C179 289 180 344 180 390L180 530L50 530Z" />
</font>
</defs>
</svg>
