<?xml version="1.0" standalone="no"?><!DOCTYPE svg PUBLIC "-//W3C//DTD SVG 1.1//EN" "http://www.w3.org/Graphics/SVG/1.1/DTD/svg11.dtd" ><svg xmlns="http://www.w3.org/2000/svg"><metadata></metadata><defs>
<font id="Akrobat-Bold" >
<font-face font-family="Akrobat Bold" font-stretch="normal" units-per-em="1000" weight="700" panose-1="0,0,8,0,0,0,0,0,0,0" ascent="1000" descent="-200" x-height="527" underline-thickness="50" underline-position="-75" unicode-range="U+00000032-00009674" bbox="-477,-265,810,972" />
<missing-glyph horiz-adv-x="500" d="M410 800L93 800L93 -200L410 -200ZM333 733L333 700L267 700L267 663L333 663L333 630L167 630L167 663L233 663L233 700L168 700L168 733ZM267 604L267 534L333 534L333 500L167 500L167 604ZM233 570L200 570L200 534L233 534ZM333 473L333 440L267 440L267 370L167 370L167 403L233 403L233 440L167 440L167 473ZM333 413L333 313L167 313L167 347L300 347L300 413ZM333 291L333 178L167 178L167 291L200 291L200 211L300 211L300 258L267 258L267 235L233 235L233 291ZM333 118L333 5L167 5L167 118ZM300 85L200 85L200 38L300 38ZM333 -18L333 -51L301 -51L231 -98L333 -98L333 -131L167 -131L167 -98L237 -51L167 -51L167 -18Z" />
<glyph glyph-name="space" unicode="&#x20;" horiz-adv-x="215" d="" />
<glyph glyph-name="exclam" unicode="&#x21;" horiz-adv-x="249" d="M76 167L173 167L173 700L76 700ZM125 -11C161 -11 185 13 185 50C185 86 161 110 125 110C88 110 64 86 64 50C64 13 88 -11 125 -11Z" />
<glyph glyph-name="quotedbl" unicode="&#x22;" horiz-adv-x="282" d="M40 700L19 465L79 465L136 700ZM169 700L149 465L209 465L265 700Z" />
<glyph glyph-name="numbersign" unicode="&#x23;" horiz-adv-x="617" d="M88 0L176 0L217 179L323 179L282 0L371 0L413 179L531 179L548 253L429 253L471 436L590 436L607 510L488 510L531 700L442 700L399 510L292 510L336 700L248 700L204 510L85 510L69 436L187 436L145 253L27 253L10 179L129 179ZM233 253L275 436L382 436L340 253Z" />
<glyph glyph-name="dollar" unicode="&#x24;" horiz-adv-x="465" d="M435 180C435 397 141 397 141 534C141 584 174 616 231 616C285 616 320 584 322 517L425 517C422 622 365 695 269 710L269 785L187 785L187 709C94 693 38 624 38 536C38 328 331 320 331 181C331 125 298 85 231 85C169 85 130 120 129 192L26 192C27 80 88 7 187 -10L187 -85L269 -85L269 -10C376 5 435 87 435 180Z" />
<glyph glyph-name="percent" unicode="&#x25;" horiz-adv-x="583" d="M112 390C171 390 213 428 213 499L213 600C213 671 171 710 112 710C51 710 9 671 9 600L9 499C9 428 51 390 112 390ZM20 0L94 0L562 700L489 700ZM112 448C88 448 73 461 73 498L73 601C73 639 88 652 112 652C135 652 149 639 149 601L149 498C149 461 135 448 112 448ZM464 -9C523 -9 565 29 565 100L565 202C565 273 523 312 464 312C403 312 361 273 361 202L361 100C361 29 403 -9 464 -9ZM464 50C440 50 426 63 426 99L426 203C426 240 440 253 464 253C487 253 501 240 501 203L501 99C501 63 487 50 464 50Z" />
<glyph glyph-name="ampersand" unicode="&#x26;" horiz-adv-x="588" d="M553 0C521 49 490 94 460 136C490 185 511 239 524 287L428 287C423 268 414 244 402 219L301 362C358 416 412 475 413 558C414 636 370 713 263 713C160 713 112 638 112 561C112 508 140 447 184 377C125 321 70 255 70 161C70 48 151 -13 242 -13C308 -13 362 18 406 64C420 43 435 22 449 0ZM202 558C202 602 227 627 263 627C303 627 322 593 322 557C322 514 291 477 250 438C219 489 202 528 202 558ZM248 78C203 78 167 114 167 169C167 219 197 260 236 300C271 250 311 197 352 139C323 104 288 78 248 78Z" />
<glyph glyph-name="quotesingle" unicode="&#x27;" horiz-adv-x="152" d="M40 700L19 465L79 465L136 700Z" />
<glyph glyph-name="parenleft" unicode="&#x28;" horiz-adv-x="292" d="M246 -122L246 -31C196 -28 167 4 167 61L167 638C167 694 196 727 246 729L246 820C136 817 70 746 70 633L70 65C70 -48 136 -119 246 -122Z" />
<glyph glyph-name="parenright" unicode="&#x29;" horiz-adv-x="292" d="M46 -122C156 -119 222 -48 222 65L222 633C222 746 156 817 46 820L46 729C96 727 125 694 125 638L125 61C125 4 96 -28 46 -31Z" />
<glyph glyph-name="asterisk" unicode="&#x2a;" horiz-adv-x="306" d="M105 484L152 550L200 484L253 522L205 589L283 614L263 675L185 650L185 732L120 732L120 650L42 676L23 614L100 589L52 522Z" />
<glyph glyph-name="plus" unicode="&#x2b;" horiz-adv-x="461" d="M417 355L275 355L275 501L185 501L185 355L43 355L43 265L185 265L185 119L275 119L275 265L417 265Z" />
<glyph glyph-name="comma" unicode="&#x2c;" horiz-adv-x="169" d="M47 98L26 -136L86 -136L143 98Z" />
<glyph glyph-name="hyphen" unicode="&#x2d;" horiz-adv-x="321" d="M38 214L283 214L283 300L38 300Z" />
<glyph glyph-name="period" unicode="&#x2e;" horiz-adv-x="194" d="M97 -11C133 -11 158 13 158 50C158 86 133 110 97 110C61 110 36 86 36 50C36 13 61 -11 97 -11Z" />
<glyph glyph-name="slash" unicode="&#x2f;" horiz-adv-x="424" d="M330 813L7 -119L94 -119L416 813Z" />
<glyph glyph-name="zero" unicode="&#x30;" horiz-adv-x="471" d="M235 -10C350 -10 421 65 421 186L421 512C421 634 350 710 235 710C122 710 50 634 50 512L50 186C50 65 122 -10 235 -10ZM235 81C177 81 144 119 144 186L144 512C144 581 177 619 235 619C294 619 327 581 327 512L327 186C327 119 294 81 235 81Z" />
<glyph glyph-name="one" unicode="&#x31;" horiz-adv-x="297" d="M155 700L25 605L25 495L130 569L130 3L227 3L227 700Z" />
<glyph glyph-name="two" unicode="&#x32;" horiz-adv-x="421" d="M28 0L389 0L389 90L128 90C128 246 384 352 384 541C384 629 323 711 207 711C104 711 39 642 33 523L126 523C128 587 159 620 208 620C261 620 288 582 288 538C288 393 28 297 28 67Z" />
<glyph glyph-name="three" unicode="&#x33;" horiz-adv-x="421" d="M229 422L363 635L363 701L39 701L39 612L245 612L122 413L122 345L186 345C247 345 283 318 283 241L283 198C283 118 256 83 196 83C146 83 115 111 111 189L15 189C18 58 88 -11 198 -11C318 -11 380 61 380 197L380 243C380 341 329 417 229 422Z" />
<glyph glyph-name="four" unicode="&#x34;" horiz-adv-x="432" d="M430 263L352 263L352 509L268 509L258 263L116 263L251 700L154 700L9 226L9 174L257 174L257 0L352 0L352 174L430 174Z" />
<glyph glyph-name="five" unicode="&#x35;" horiz-adv-x="429" d="M238 475C203 475 173 464 150 447L150 613L374 613L374 700L53 700L53 316L148 316C158 361 184 383 225 383C275 383 298 353 298 277L298 204C298 113 271 83 223 83C174 83 148 111 145 178L47 178C51 59 117 -11 223 -11C330 -11 396 61 396 205L396 276C396 404 332 475 238 475Z" />
<glyph glyph-name="six" unicode="&#x36;" horiz-adv-x="445" d="M243 459C205 459 171 446 148 424L148 531C148 587 181 617 228 617C272 617 302 586 306 532L404 532C398 641 328 711 228 711C124 711 50 640 50 529L50 173C50 61 126 -11 229 -11C332 -11 408 61 408 173L408 284C408 388 335 459 243 459ZM310 174C310 115 276 83 229 83C182 83 148 115 148 174L148 278C148 336 181 369 227 369C275 369 310 336 310 279Z" />
<glyph glyph-name="seven" unicode="&#x37;" horiz-adv-x="370" d="M-4 701L-4 610L235 610L55 -1L156 -1L345 634L345 701Z" />
<glyph glyph-name="eight" unicode="&#x38;" horiz-adv-x="462" d="M341 365C382 398 407 450 407 509L407 525C407 639 339 711 231 711C123 711 55 639 55 525L55 509C55 450 80 397 120 365C72 335 43 278 43 211L43 187C43 63 116 -11 231 -11C346 -11 419 63 419 187L419 211C419 278 390 335 341 365ZM150 522C150 585 180 617 231 617C282 617 312 585 312 522L312 507C312 441 282 406 231 406C180 406 150 441 150 507ZM323 187C323 119 289 84 231 84C173 84 139 119 139 187L139 211C139 279 173 315 231 315C289 315 323 279 323 211Z" />
<glyph glyph-name="nine" unicode="&#x39;" horiz-adv-x="445" d="M216 711C113 711 37 639 37 527L37 416C37 312 110 241 202 241C240 241 274 254 297 276L297 169C297 113 264 83 217 83C173 83 143 114 139 168L41 168C47 59 117 -11 217 -11C321 -11 395 60 395 171L395 527C395 639 319 711 216 711ZM218 331C170 331 135 364 135 421L135 526C135 585 169 617 216 617C263 617 297 585 297 526L297 422C297 364 264 331 218 331Z" />
<glyph glyph-name="colon" unicode="&#x3a;" horiz-adv-x="182" d="M95 332C131 332 156 356 156 393C156 429 131 453 95 453C59 453 34 429 34 393C34 356 59 332 95 332ZM95 -11C131 -11 156 13 156 50C156 86 131 110 95 110C59 110 34 86 34 50C34 13 59 -11 95 -11Z" />
<glyph glyph-name="semicolon" unicode="&#x3b;" horiz-adv-x="178" d="M92 333C128 333 152 357 152 393C152 430 128 454 92 454C55 454 31 430 31 393C31 357 55 333 92 333ZM47 98L26 -136L86 -136L143 98Z" />
<glyph glyph-name="less" unicode="&#x3c;" horiz-adv-x="431" d="M388 488L44 351L44 254L388 117L388 208L142 303L388 397Z" />
<glyph glyph-name="equal" unicode="&#x3d;" horiz-adv-x="461" d="M43 350L417 350L417 439L43 439ZM43 170L417 170L417 258L43 258Z" />
<glyph glyph-name="greater" unicode="&#x3e;" horiz-adv-x="431" d="M43 488L43 397L289 303L43 208L43 117L387 254L387 351Z" />
<glyph glyph-name="question" unicode="&#x3f;" horiz-adv-x="393" d="M131 167L227 167L227 210C227 355 366 372 366 534C366 640 292 712 187 712C82 712 14 638 8 520L102 520C104 585 136 622 188 622C242 622 270 583 270 533C270 406 131 392 131 212ZM181 -11C217 -11 241 13 241 50C241 86 217 110 181 110C144 110 120 86 120 50C120 13 144 -11 181 -11Z" />
<glyph glyph-name="at" unicode="&#x40;" horiz-adv-x="797" d="M407 730C181 730 46 603 46 383L46 262C46 25 182 -112 415 -112C528 -112 603 -84 656 -47L616 15C567 -15 499 -35 411 -35C229 -35 126 71 126 262L126 383C126 556 227 653 407 653C577 653 672 568 672 400L672 292C672 218 644 179 593 179C550 180 539 206 539 247L539 505L477 505L470 467C451 499 422 517 378 517C306 517 252 468 252 364L252 250C252 151 305 98 382 98C439 98 472 127 490 162C506 129 538 103 593 103C672 103 751 158 751 292L751 400C751 613 625 730 407 730ZM394 176C356 176 334 200 334 252L334 366C334 417 357 440 393 440C437 440 459 404 459 362L459 255C459 202 432 176 394 176Z" />
<glyph glyph-name="A" unicode="&#x41;" horiz-adv-x="476" d="M363 0L468 0L292 700L183 700L7 0L113 0L145 141L330 141ZM167 235L210 423C221 469 231 536 236 573L239 573C244 536 255 469 265 423L309 235Z" />
<glyph glyph-name="B" unicode="&#x42;" horiz-adv-x="506" d="M375 360C418 387 446 442 446 510C446 627 373 700 260 700L70 700L70 0L270 0C392 0 472 75 472 200C472 276 435 335 375 360ZM248 605C313 605 343 573 343 507C343 439 312 404 251 404L171 404L171 605ZM257 95L171 95L171 309L253 309C324 309 369 272 369 200C369 129 331 95 257 95Z" />
<glyph glyph-name="C" unicode="&#x43;" horiz-adv-x="492" d="M253 -12C382 -12 457 64 464 202L364 202C357 122 321 84 253 84C192 84 153 123 153 206L153 494C153 578 192 617 251 617C318 617 354 580 360 498L460 498C454 637 379 713 252 713C129 713 50 636 50 494L50 206C50 65 130 -12 253 -12Z" />
<glyph glyph-name="D" unicode="&#x44;" horiz-adv-x="510" d="M70 0L245 0C380 0 460 81 460 220L460 482C460 620 380 700 244 700L70 700ZM171 96L171 604L245 604C318 604 358 562 358 480L358 222C358 139 317 96 245 96Z" />
<glyph glyph-name="E" unicode="&#x45;" horiz-adv-x="461" d="M171 95L171 309L394 309L394 402L171 402L171 605L413 605L413 700L70 700L70 0L423 0L423 95Z" />
<glyph glyph-name="F" unicode="&#x46;" horiz-adv-x="425" d="M400 605L400 700L70 700L70 0L171 0L171 304L382 304L382 396L171 396L171 605Z" />
<glyph glyph-name="G" unicode="&#x47;" horiz-adv-x="506" d="M257 -11C383 -11 462 66 464 203L464 381L254 381L254 291L365 291L365 203C365 123 325 86 258 86C193 86 153 123 153 208L153 492C153 577 191 614 255 614C319 614 355 579 359 498L459 498C454 636 379 711 255 711C128 711 50 635 50 493L50 208C50 66 131 -11 257 -11Z" />
<glyph glyph-name="H" unicode="&#x48;" horiz-adv-x="540" d="M369 700L369 402L171 402L171 700L70 700L70 0L171 0L171 307L369 307L369 0L470 0L470 700Z" />
<glyph glyph-name="I" unicode="&#x49;" horiz-adv-x="240" d="M70 700L70 0L171 0L171 700Z" />
<glyph glyph-name="J" unicode="&#x4a;" horiz-adv-x="284" d="M0 -116C142 -116 217 -36 217 112L217 700L116 700L116 112C116 13 75 -17 0 -17Z" />
<glyph glyph-name="K" unicode="&#x4b;" horiz-adv-x="503" d="M387 0L503 0L274 395L474 700L356 700L216 478L170 396L170 700L70 700L70 0L170 0L170 237L216 306Z" />
<glyph glyph-name="L" unicode="&#x4c;" horiz-adv-x="410" d="M171 96L171 700L70 700L70 0L403 0L403 96Z" />
<glyph glyph-name="M" unicode="&#x4d;" horiz-adv-x="688" d="M515 700L397 416C381 376 357 309 346 277L342 277C331 309 307 376 291 416L173 700L70 700L70 0L169 0L169 273C167 353 164 426 161 499L165 501C185 445 209 381 233 317L294 158L394 158L455 317C479 381 503 445 523 501L527 499C523 426 521 353 519 273L519 0L618 0L618 700Z" />
<glyph glyph-name="N" unicode="&#x4e;" horiz-adv-x="555" d="M385 700L385 427C385 365 391 260 399 191L396 189C379 231 353 296 332 343L171 700L70 700L70 0L170 0L170 270C170 336 165 441 158 511L161 513C178 468 207 395 228 343L384 0L485 0L485 700Z" />
<glyph glyph-name="O" unicode="&#x4f;" horiz-adv-x="528" d="M264 -13C398 -13 478 76 478 222L478 478C478 624 398 713 264 713C130 713 50 624 50 478L50 222C50 76 130 -13 264 -13ZM264 86C191 86 154 134 154 222L154 478C154 566 191 614 264 614C336 614 374 566 374 478L374 222C374 134 336 86 264 86Z" />
<glyph glyph-name="P" unicode="&#x50;" horiz-adv-x="501" d="M255 700L70 700L70 0L171 0L171 246L255 246C392 246 470 327 470 474C470 617 392 700 255 700ZM254 342L171 342L171 604L254 604C330 604 367 560 367 474C367 384 330 342 254 342Z" />
<glyph glyph-name="Q" unicode="&#x51;" horiz-adv-x="529" d="M479 478C479 624 399 713 264 713C130 713 50 624 50 478L50 222C50 76 130 -13 264 -13C298 -13 328 -8 354 3L416 -71L477 -18L421 49C459 89 479 148 479 222ZM297 197L237 143L284 87C277 86 271 86 264 86C192 86 155 134 155 222L155 478C155 566 192 614 264 614C337 614 374 566 374 478L374 222C374 184 367 153 353 130Z" />
<glyph glyph-name="R" unicode="&#x52;" horiz-adv-x="504" d="M375 0L487 0L335 268C415 297 461 372 461 481C461 620 385 700 251 700L70 700L70 0L171 0L171 254L234 254ZM171 604L250 604C320 604 357 562 357 479C357 396 320 350 249 350L171 350Z" />
<glyph glyph-name="S" unicode="&#x53;" horiz-adv-x="465" d="M231 -13C362 -13 435 76 435 180C435 397 141 397 141 534C141 584 174 616 231 616C285 616 320 584 322 517L425 517C422 636 350 713 230 713C112 713 38 637 38 536C38 328 331 320 331 181C331 125 298 85 231 85C169 85 130 120 129 192L26 192C27 64 107 -13 231 -13Z" />
<glyph glyph-name="T" unicode="&#x54;" horiz-adv-x="427" d="M411 700L17 700L17 604L162 604L162 0L265 0L265 604L411 604Z" />
<glyph glyph-name="U" unicode="&#x55;" horiz-adv-x="530" d="M265 -10C390 -10 471 71 471 216L471 700L367 700L367 216C367 129 328 88 265 88C201 88 162 129 162 216L162 700L58 700L58 216C58 71 139 -10 265 -10Z" />
<glyph glyph-name="V" unicode="&#x56;" horiz-adv-x="469" d="M179 0L289 0L461 700L356 700L271 314C258 252 246 184 236 128L232 128C222 184 211 252 197 314L113 700L7 700Z" />
<glyph glyph-name="W" unicode="&#x57;" horiz-adv-x="751" d="M639 700L567 317C558 266 541 175 535 131L531 131C525 175 510 261 499 322L429 689L322 689L252 322C241 261 226 175 220 131L216 131C210 175 193 266 184 317L112 700L7 700L164 0L272 0L340 309C355 375 369 477 374 534L378 534C382 477 396 375 411 309L479 0L587 0L744 700Z" />
<glyph glyph-name="X" unicode="&#x58;" horiz-adv-x="476" d="M461 0L294 363L451 700L340 700L239 463L137 700L26 700L183 363L16 0L128 0L239 259L349 0Z" />
<glyph glyph-name="Y" unicode="&#x59;" horiz-adv-x="446" d="M173 0L274 0L274 230L444 700L338 700L260 469L224 357L222 357C212 392 197 437 187 467L108 700L3 700L173 230Z" />
<glyph glyph-name="Z" unicode="&#x5a;" horiz-adv-x="421" d="M140 96L391 631L391 700L32 700L32 604L267 604L17 70L17 0L396 0L396 96Z" />
<glyph glyph-name="bracketleft" unicode="&#x5b;" horiz-adv-x="298" d="M252 730L252 820L70 820L70 -120L252 -120L252 -30L166 -30L166 730Z" />
<glyph glyph-name="backslash" unicode="&#x5c;" horiz-adv-x="496" d="M130 813L44 813L366 -119L453 -119Z" />
<glyph glyph-name="bracketright" unicode="&#x5d;" horiz-adv-x="298" d="M46 -30L46 -120L228 -120L228 820L46 820L46 730L132 730L132 -30Z" />
<glyph glyph-name="asciicircum" unicode="&#x5e;" horiz-adv-x="334" d="M324 475L212 700L122 700L10 475L99 475L167 621L235 475Z" />
<glyph glyph-name="underscore" unicode="&#x5f;" horiz-adv-x="388" d="M19 -9L19 -102L369 -102L369 -9Z" />
<glyph glyph-name="a" unicode="&#x61;" horiz-adv-x="454" d="M225 540C119 540 51 478 46 377L143 377C148 424 180 447 223 447C276 447 299 412 299 350L299 313L222 313C106 313 31 258 31 150C31 51 96 -13 193 -13C251 -13 289 14 310 49L317 0L396 0L396 350C396 471 338 540 225 540ZM299 157C299 107 266 73 213 73C160 73 129 102 129 150C129 202 163 229 222 229L299 229Z" />
<glyph glyph-name="b" unicode="&#x62;" horiz-adv-x="467" d="M254 540C216 540 179 524 153 498L153 724L58 724L58 0L128 0L135 48C162 14 207 -12 254 -12C354 -12 422 64 422 193L422 338C422 465 356 540 254 540ZM323 193C323 115 292 80 238 80C188 80 153 116 153 192L153 338C153 406 185 448 238 448C294 448 323 414 323 338Z" />
<glyph glyph-name="c" unicode="&#x63;" horiz-adv-x="437" d="M224 -11C336 -11 406 59 409 182L312 182C309 115 279 82 225 82C174 82 144 115 144 182L144 348C144 415 174 447 225 447C278 447 307 415 309 348L407 348C403 470 338 540 224 540C114 540 46 470 46 348L46 182C46 59 114 -11 224 -11Z" />
<glyph glyph-name="d" unicode="&#x64;" horiz-adv-x="467" d="M315 724L315 497C289 524 251 540 213 540C111 540 46 465 46 338L46 193C46 64 114 -12 213 -12C261 -12 306 15 332 49L339 0L409 0L409 724ZM315 192C315 116 279 80 229 80C176 80 144 115 144 193L144 338C144 414 173 448 229 448C282 448 315 406 315 338Z" />
<glyph glyph-name="e" unicode="&#x65;" horiz-adv-x="454" d="M320 165C311 108 286 82 227 82C174 82 143 115 143 187L143 227L410 227L410 344C410 469 339 540 226 540C115 540 46 469 46 344L46 187C46 61 115 -11 225 -11C339 -11 408 53 417 165ZM227 449C282 449 314 417 314 345L314 300L143 300L143 345C143 417 174 449 227 449Z" />
<glyph glyph-name="f" unicode="&#x66;" horiz-adv-x="304" d="M265 650L296 650L296 738L265 738C143 738 88 665 88 556L88 527L11 527L11 439L88 439L88 0L184 0L184 439L286 439L286 527L184 527L184 556C184 622 210 650 265 650Z" />
<glyph glyph-name="g" unicode="&#x67;" horiz-adv-x="470" d="M341 527L333 485C304 521 263 540 214 540C116 540 46 464 46 340L46 214C46 97 116 21 215 21C254 21 288 33 314 55L314 -27C314 -74 284 -103 235 -103C186 -103 158 -76 154 -29L59 -29C63 -129 129 -193 235 -193C344 -193 412 -127 412 -27L412 527ZM231 113C176 113 144 146 144 214L144 340C144 414 176 447 231 447C279 447 314 414 314 346L314 214C314 146 283 113 231 113Z" />
<glyph glyph-name="h" unicode="&#x68;" horiz-adv-x="469" d="M271 540C220 540 181 515 155 476L155 722L58 722L58 0L155 0L155 326C155 404 190 448 245 448C294 448 319 412 319 318L319 0L416 0L416 321C416 470 363 540 271 540Z" />
<glyph glyph-name="i" unicode="&#x69;" horiz-adv-x="213" d="M106 615C142 615 168 642 168 676C168 712 142 738 106 738C70 738 45 712 45 676C45 641 70 615 106 615ZM58 0L155 0L155 527L58 527Z" />
<glyph glyph-name="j" unicode="&#x6a;" horiz-adv-x="246" d="M127 614C162 614 188 641 188 675C188 711 162 737 127 737C90 737 66 711 66 675C66 640 90 614 127 614ZM-15 -193C112 -192 175 -119 175 4L175 527L79 527L79 0C79 -66 52 -99 -15 -100Z" />
<glyph glyph-name="k" unicode="&#x6b;" horiz-adv-x="441" d="M333 0L444 0L257 316L419 527L304 527L154 321L154 724L58 724L58 0L154 0L154 199L193 241Z" />
<glyph glyph-name="l" unicode="&#x6c;" horiz-adv-x="209" d="M56 0L153 0L153 724L56 724Z" />
<glyph glyph-name="m" unicode="&#x6d;" horiz-adv-x="716" d="M519 540C457 540 412 511 386 460C361 514 319 540 263 540C205 540 163 513 137 468L127 527L58 527L58 0L154 0L154 326C154 404 189 448 241 448C286 448 313 415 313 327L313 0L409 0L409 326C409 404 444 448 497 448C542 448 567 415 567 327L567 0L663 0L663 330C663 471 608 540 519 540Z" />
<glyph glyph-name="n" unicode="&#x6e;" horiz-adv-x="469" d="M268 540C208 540 164 513 137 468L127 527L58 527L58 0L155 0L155 326C155 404 190 448 245 448C296 448 319 412 319 326L319 0L416 0L416 331C416 475 359 540 268 540Z" />
<glyph glyph-name="o" unicode="&#x6f;" horiz-adv-x="463" d="M231 -12C346 -12 417 59 417 188L417 340C417 469 346 540 231 540C117 540 46 469 46 340L46 188C46 59 117 -12 231 -12ZM231 82C177 82 144 114 144 188L144 340C144 414 177 446 231 446C286 446 319 414 319 340L319 188C319 114 286 82 231 82Z" />
<glyph glyph-name="p" unicode="&#x70;" horiz-adv-x="467" d="M254 539C207 539 161 513 135 479L128 528L58 528L58 -180L153 -180L153 30C179 3 216 -12 254 -12C356 -12 422 62 422 190L422 335C422 464 354 539 254 539ZM323 190C323 113 294 79 238 79C185 79 153 121 153 190L153 336C153 411 188 448 238 448C292 448 323 413 323 335Z" />
<glyph glyph-name="q" unicode="&#x71;" horiz-adv-x="467" d="M339 528L332 479C307 513 261 539 213 539C114 539 46 464 46 335L46 190C46 62 111 -12 213 -12C251 -12 289 4 315 30L315 -180L409 -180L409 528ZM229 79C173 79 144 113 144 190L144 335C144 413 176 448 229 448C279 448 315 411 315 336L315 190C315 121 282 79 229 79Z" />
<glyph glyph-name="r" unicode="&#x72;" horiz-adv-x="340" d="M273 539C210 539 165 512 138 466L127 527L58 527L58 0L155 0L155 325C155 404 197 447 263 447C289 447 309 443 328 435L328 531C313 537 295 539 273 539Z" />
<glyph glyph-name="s" unicode="&#x73;" horiz-adv-x="417" d="M214 -13C323 -13 389 49 389 142C389 331 129 292 129 392C129 429 157 452 203 452C256 452 282 422 283 372L378 372C374 470 315 540 203 540C100 540 33 483 33 393C33 213 292 249 292 143C292 102 263 77 212 77C151 77 122 114 121 162L25 162C26 65 94 -13 214 -13Z" />
<glyph glyph-name="t" unicode="&#x74;" horiz-adv-x="316" d="M259 85C207 85 183 112 183 169L183 439L281 439L281 527L183 527L183 652L87 652L87 527L13 527L13 439L87 439L87 170C87 61 149 -6 254 -6L291 -6L291 85Z" />
<glyph glyph-name="u" unicode="&#x75;" horiz-adv-x="469" d="M314 527L314 201C314 123 279 79 224 79C173 79 150 115 150 201L150 527L53 527L53 196C53 52 110 -13 201 -13C261 -13 305 14 332 59L342 0L411 0L411 527Z" />
<glyph glyph-name="v" unicode="&#x76;" horiz-adv-x="406" d="M300 527L242 290C230 234 213 154 206 116L201 116C194 154 177 234 165 290L107 527L4 527L149 0L257 0L402 527Z" />
<glyph glyph-name="w" unicode="&#x77;" horiz-adv-x="636" d="M532 527L485 291C474 232 459 146 455 110L451 110C445 152 430 233 418 295L370 517L267 517L219 295C206 233 192 152 186 110L182 110C177 146 163 232 152 291L105 527L4 527L130 0L235 0L280 191C297 263 312 349 316 399L320 399C325 349 340 263 356 191L402 0L507 0L632 527Z" />
<glyph glyph-name="x" unicode="&#x78;" horiz-adv-x="407" d="M408 0L264 264L397 527L290 527L204 348L117 527L10 527L145 264L-1 0L109 0L204 187L298 0Z" />
<glyph glyph-name="y" unicode="&#x79;" horiz-adv-x="417" d="M313 527L215 193L106 527L4 527L174 55L151 -24C138 -67 125 -96 84 -96L51 -96L51 -190L103 -190C182 -190 219 -127 244 -41L413 527Z" />
<glyph glyph-name="z" unicode="&#x7a;" horiz-adv-x="366" d="M132 89L339 463L339 527L26 527L26 438L217 438L10 65L10 0L348 0L348 89Z" />
<glyph glyph-name="braceleft" unicode="&#x7b;" horiz-adv-x="338" d="M212 491L212 643C212 695 244 728 293 728L293 820C187 820 117 748 117 634L117 482C117 431 88 404 46 399L46 305C88 300 117 273 117 223L117 66C117 -48 187 -120 293 -120L293 -28C244 -28 212 5 212 57L212 213C212 273 188 321 147 352C188 383 212 431 212 491Z" />
<glyph glyph-name="bar" unicode="&#x7c;" horiz-adv-x="210" d="M56 800L56 -92L154 -92L154 800Z" />
<glyph glyph-name="braceright" unicode="&#x7d;" horiz-adv-x="338" d="M221 478L221 635C221 749 151 821 45 821L45 729C94 729 126 696 126 644L126 488C126 428 150 380 191 349C150 318 126 270 126 210L126 58C126 6 94 -27 45 -27L45 -119C151 -119 221 -47 221 67L221 219C221 270 250 297 292 302L292 396C250 401 221 428 221 478Z" />
<glyph glyph-name="asciitilde" unicode="&#x7e;" horiz-adv-x="470" d="M380 363C365 340 345 325 319 325C270 325 205 373 141 373C103 373 69 356 38 312L88 249C104 272 123 286 150 286C199 286 263 239 328 239C367 239 402 256 432 301Z" />
<glyph glyph-name="exclamdown" unicode="&#xa1;" horiz-adv-x="249" d="M125 538C88 538 64 514 64 478C64 441 88 417 125 417C161 417 185 441 185 478C185 514 161 538 125 538ZM76 360L76 -180L173 -180L173 360Z" />
<glyph glyph-name="cent" unicode="&#xa2;" horiz-adv-x="434" d="M406 182L309 182C307 115 277 82 224 82C173 82 144 115 144 182L144 345C144 412 173 444 224 444C276 444 306 412 307 345L404 345C402 453 351 520 261 534L261 599L182 599L182 533C97 518 46 451 46 345L46 182C46 75 97 8 182 -7L182 -74L261 -74L261 -8C350 6 405 74 406 182Z" />
<glyph glyph-name="sterling" unicode="&#xa3;" horiz-adv-x="478" d="M167 94C180 116 189 145 189 182L189 304L357 304L357 390L189 390L189 519C189 582 218 615 263 615C310 615 339 580 344 512L442 512C436 637 366 711 263 711C160 711 91 635 91 518L91 390L28 390L28 304L91 304L91 179C91 126 74 94 29 84L29 0L446 0L446 94Z" />
<glyph glyph-name="currency" unicode="&#xa4;" horiz-adv-x="468" d="M93 85L137 142C162 124 198 113 234 113C270 113 306 124 331 142L376 85L433 128L381 195C394 220 402 254 402 288L402 359C402 393 394 427 381 451L433 518L376 562L332 505C307 523 270 534 234 534C197 534 161 523 136 505L92 562L35 518L87 451C74 427 66 392 66 359L66 288C66 254 74 220 87 196L35 128ZM234 199C186 199 157 230 157 289L157 358C157 417 186 448 234 448C282 448 311 417 311 358L311 289C311 230 282 199 234 199Z" />
<glyph glyph-name="yen" unicode="&#xa5;" horiz-adv-x="446" d="M444 700L338 700L260 469L224 357L222 357C212 392 197 437 187 467L108 700L3 700L150 293L16 293L16 230L173 230L173 169L16 169L16 105L173 105L173 0L274 0L274 105L430 105L430 169L274 169L274 230L430 230L430 293L297 293Z" />
<glyph glyph-name="brokenbar" unicode="&#xa6;" horiz-adv-x="190" d="M46 495L144 495L144 800L46 800ZM46 -82L144 -82L144 223L46 223Z" />
<glyph glyph-name="section" unicode="&#xa7;" horiz-adv-x="422" d="M326 215C369 241 392 283 392 336C392 522 138 497 138 594C138 627 162 650 206 650C255 650 278 621 280 572L374 572C370 670 315 738 206 738C108 738 42 683 42 595C42 543 65 507 101 481C53 456 26 413 26 356C26 179 287 206 287 102C287 60 259 36 210 36C152 36 126 73 125 120L29 120C30 23 95 -54 212 -54C318 -54 384 7 384 101C384 152 360 188 326 215ZM236 270C163 295 122 318 122 359C122 400 157 424 198 424C251 402 295 377 295 331C295 301 274 275 236 270Z" />
<glyph glyph-name="copyright" unicode="&#xa9;" horiz-adv-x="696" d="M349 -9C536 -9 646 110 646 314L646 395C646 596 536 713 349 713C161 713 50 596 50 395L50 314C50 110 161 -9 349 -9ZM349 55C199 55 119 147 119 314L119 395C119 559 199 649 349 649C497 649 577 559 577 395L577 314C577 147 497 55 349 55ZM347 148C428 148 479 200 480 289L409 289C407 242 385 219 348 219C311 219 289 242 289 289L289 414C289 461 311 484 348 484C384 484 405 461 406 414L477 414C476 503 428 554 347 554C267 554 217 503 217 414L217 289C217 200 267 148 347 148Z" />
<glyph glyph-name="guillemotleft" unicode="&#xab;" horiz-adv-x="469" d="M155 87L250 87L121 257L250 427L155 427L38 275L38 239ZM335 87L430 87L301 257L430 427L335 427L218 275L218 239Z" />
<glyph glyph-name="logicalnot" unicode="&#xac;" horiz-adv-x="470" d="M430 354L48 354L48 264L342 264L342 191L430 191Z" />
<glyph glyph-name="registered" unicode="&#xae;" horiz-adv-x="459" d="M233 713C120 713 53 645 53 526L53 468C53 344 120 274 233 274C345 274 411 344 411 468L411 526C411 645 345 713 233 713ZM374 468C374 364 323 309 233 309C142 309 91 364 91 468L91 525C91 625 142 677 233 677C323 677 374 625 374 525ZM312 539C312 589 284 618 235 618L167 618L167 370L207 370L207 460L228 460L277 370L321 370L268 466C296 476 312 502 312 539ZM207 579L235 579C259 579 272 565 272 539C272 512 259 498 235 498L207 498Z" />
<glyph glyph-name="degree" unicode="&#xb0;" horiz-adv-x="313" d="M26 579C26 499 78 446 157 446C235 446 287 499 287 579C287 659 235 712 157 712C78 712 26 659 26 579ZM93 579C93 620 118 647 157 647C195 647 220 620 220 579C220 538 195 511 157 511C118 511 93 538 93 579Z" />
<glyph glyph-name="plusminus" unicode="&#xb1;" horiz-adv-x="470" d="M280 408L280 545L190 545L190 408L48 408L48 320L190 320L190 183L280 183L280 320L422 320L422 408ZM48 53L422 53L422 138L48 138Z" />
<glyph glyph-name="paragraph" unicode="&#xb6;" horiz-adv-x="599" d="M529 702L209 702C112 702 46 641 46 543C46 444 112 383 209 383L209 -92L307 -92L307 610L431 610L431 -92L529 -92Z" />
<glyph glyph-name="periodcentered" unicode="&#xb7;" horiz-adv-x="194" d="M97 197C133 197 158 221 158 258C158 294 133 318 97 318C61 318 36 294 36 258C36 221 61 197 97 197Z" />
<glyph glyph-name="guillemotright" unicode="&#xbb;" horiz-adv-x="469" d="M134 87L251 239L251 275L134 427L39 427L168 257L39 87ZM314 87L431 239L431 275L314 427L219 427L348 257L219 87Z" />
<glyph glyph-name="questiondown" unicode="&#xbf;" horiz-adv-x="393" d="M207 537C171 537 146 513 146 477C146 441 171 416 207 416C243 416 268 441 268 477C268 513 243 537 207 537ZM256 359L160 359L160 316C160 172 21 154 21 -7C21 -114 96 -185 200 -185C306 -185 374 -112 380 7L285 7C284 -59 252 -96 200 -96C146 -96 117 -57 117 -7C117 121 256 134 256 314Z" />
<glyph glyph-name="Agrave" unicode="&#xc0;" horiz-adv-x="476" d="M302 768L209 893L117 893L226 768ZM363 0L468 0L292 700L183 700L7 0L113 0L145 141L330 141ZM167 235L210 423C221 469 231 536 236 573L239 573C244 536 255 469 265 423L309 235Z" />
<glyph glyph-name="Aacute" unicode="&#xc1;" horiz-adv-x="476" d="M364 893L272 893L179 768L255 768ZM363 0L468 0L292 700L183 700L7 0L113 0L145 141L330 141ZM167 235L210 423C221 469 231 536 236 573L239 573C244 536 255 469 265 423L309 235Z" />
<glyph glyph-name="Acircumflex" unicode="&#xc2;" horiz-adv-x="476" d="M238 838L288 768L360 768L279 893L196 893L115 768L187 768ZM363 0L468 0L292 700L183 700L7 0L113 0L145 141L330 141ZM167 235L210 423C221 469 231 536 236 573L239 573C244 536 255 469 265 423L309 235Z" />
<glyph glyph-name="Atilde" unicode="&#xc3;" horiz-adv-x="476" d="M208 818C231 818 245 788 286 788C330 788 360 823 365 880L302 880C299 863 290 853 276 853C254 853 240 883 198 883C154 883 122 850 119 791L184 791C187 809 196 818 208 818ZM363 0L468 0L292 700L183 700L7 0L113 0L145 141L330 141ZM167 235L210 423C221 469 231 536 236 573L239 573C244 536 255 469 265 423L309 235Z" />
<glyph glyph-name="Adieresis" unicode="&#xc4;" horiz-adv-x="476" d="M164 782C194 782 214 801 214 831C214 862 194 881 164 881C134 881 114 862 114 831C114 801 134 782 164 782ZM310 782C340 782 360 801 360 831C360 862 340 881 310 881C279 881 259 862 259 831C259 801 279 782 310 782ZM363 0L468 0L292 700L183 700L7 0L113 0L145 141L330 141ZM167 235L210 423C221 469 231 536 236 573L239 573C244 536 255 469 265 423L309 235Z" />
<glyph glyph-name="Aring" unicode="&#xc5;" horiz-adv-x="476" d="M238 764C287 764 319 796 319 843C319 889 287 920 238 920C190 920 158 889 158 843C158 796 190 764 238 764ZM238 874C257 874 270 861 270 842C270 823 257 810 238 810C219 810 206 823 206 842C206 861 219 874 238 874ZM363 0L468 0L292 700L183 700L7 0L113 0L145 141L330 141ZM167 235L210 423C221 469 231 536 236 573L239 573C244 536 255 469 265 423L309 235Z" />
<glyph glyph-name="AE" unicode="&#xc6;" horiz-adv-x="703" d="M432 95L432 309L636 309L636 402L432 402L432 605L655 605L655 700L283 700L0 0L109 0L168 151L331 151L331 0L665 0L665 95ZM205 245L279 433C296 481 314 539 328 589L331 589L331 245Z" />
<glyph glyph-name="Ccedilla" unicode="&#xc7;" horiz-adv-x="492" d="M464 202L364 202C357 122 321 84 253 84C192 84 153 123 153 206L153 494C153 578 192 617 251 617C318 617 354 580 360 498L460 498C454 637 379 713 252 713C129 713 50 636 50 494L50 206C50 74 120 -2 230 -11L211 -75L230 -93C239 -88 251 -85 263 -85C287 -85 299 -97 299 -117C299 -138 284 -151 260 -151C240 -151 226 -141 220 -124L160 -124C165 -174 208 -206 259 -206C319 -206 360 -172 360 -119C360 -76 328 -48 288 -48C283 -48 279 -48 276 -49L287 -10C395 2 458 77 464 202Z" />
<glyph glyph-name="Egrave" unicode="&#xc8;" horiz-adv-x="461" d="M304 768L211 893L119 893L228 768ZM171 95L171 309L394 309L394 402L171 402L171 605L413 605L413 700L70 700L70 0L423 0L423 95Z" />
<glyph glyph-name="Eacute" unicode="&#xc9;" horiz-adv-x="461" d="M366 893L274 893L181 768L257 768ZM171 95L171 309L394 309L394 402L171 402L171 605L413 605L413 700L70 700L70 0L423 0L423 95Z" />
<glyph glyph-name="Ecircumflex" unicode="&#xca;" horiz-adv-x="461" d="M240 838L290 768L362 768L281 893L198 893L117 768L189 768ZM171 95L171 309L394 309L394 402L171 402L171 605L413 605L413 700L70 700L70 0L423 0L423 95Z" />
<glyph glyph-name="Edieresis" unicode="&#xcb;" horiz-adv-x="461" d="M166 782C196 782 216 801 216 831C216 862 196 881 166 881C136 881 116 862 116 831C116 801 136 782 166 782ZM312 782C342 782 362 801 362 831C362 862 342 881 312 881C281 881 261 862 261 831C261 801 281 782 312 782ZM171 95L171 309L394 309L394 402L171 402L171 605L413 605L413 700L70 700L70 0L423 0L423 95Z" />
<glyph glyph-name="Igrave" unicode="&#xcc;" horiz-adv-x="240" d="M187 768L94 893L2 893L111 768ZM70 700L70 0L171 0L171 700Z" />
<glyph glyph-name="Iacute" unicode="&#xcd;" horiz-adv-x="240" d="M64 768L140 768L249 893L157 893ZM70 700L70 0L171 0L171 700Z" />
<glyph glyph-name="Icircumflex" unicode="&#xce;" horiz-adv-x="240" d="M164 893L81 893L0 768L72 768L123 838L173 768L245 768ZM70 0L171 0L171 700L70 700Z" />
<glyph glyph-name="Idieresis" unicode="&#xcf;" horiz-adv-x="250" d="M58 782C88 782 108 801 108 831C108 862 88 881 58 881C28 881 8 862 8 831C8 801 28 782 58 782ZM192 782C223 782 243 801 243 831C243 862 223 881 192 881C162 881 142 862 142 831C142 801 162 782 192 782ZM73 700L73 0L174 0L174 700Z" />
<glyph glyph-name="Eth" unicode="&#xd0;" horiz-adv-x="521" d="M250 700L80 700L80 391L9 391L9 322L80 322L80 0L251 0C386 0 471 76 471 210L471 492C471 624 387 700 250 700ZM368 212C368 129 326 96 255 96L181 96L181 322L265 322L265 391L181 391L181 604L255 604C327 604 368 571 368 490Z" />
<glyph glyph-name="Ntilde" unicode="&#xd1;" horiz-adv-x="555" d="M248 818C271 818 285 788 326 788C370 788 400 823 405 880L342 880C339 863 330 853 316 853C294 853 280 883 238 883C194 883 162 850 159 791L224 791C227 809 236 818 248 818ZM385 700L385 427C385 365 391 260 399 191L396 189C379 231 353 296 332 343L171 700L70 700L70 0L170 0L170 270C170 336 165 441 158 511L161 513C178 468 207 395 228 343L384 0L485 0L485 700Z" />
<glyph glyph-name="Ograve" unicode="&#xd2;" horiz-adv-x="528" d="M328 768L235 893L143 893L252 768ZM264 -13C398 -13 478 76 478 222L478 478C478 624 398 713 264 713C130 713 50 624 50 478L50 222C50 76 130 -13 264 -13ZM264 86C191 86 154 134 154 222L154 478C154 566 191 614 264 614C336 614 374 566 374 478L374 222C374 134 336 86 264 86Z" />
<glyph glyph-name="Oacute" unicode="&#xd3;" horiz-adv-x="528" d="M205 768L281 768L390 893L298 893ZM264 -13C398 -13 478 76 478 222L478 478C478 624 398 713 264 713C130 713 50 624 50 478L50 222C50 76 130 -13 264 -13ZM264 86C191 86 154 134 154 222L154 478C154 566 191 614 264 614C336 614 374 566 374 478L374 222C374 134 336 86 264 86Z" />
<glyph glyph-name="Ocircumflex" unicode="&#xd4;" horiz-adv-x="528" d="M264 838L314 768L386 768L305 893L222 893L141 768L213 768ZM264 713C130 713 50 624 50 478L50 222C50 76 130 -13 264 -13C398 -13 478 76 478 222L478 478C478 624 398 713 264 713ZM374 222C374 134 336 86 264 86C191 86 154 134 154 222L154 478C154 566 191 614 264 614C336 614 374 566 374 478Z" />
<glyph glyph-name="Otilde" unicode="&#xd5;" horiz-adv-x="528" d="M234 818C257 818 271 788 312 788C356 788 386 823 391 880L328 880C325 863 316 853 302 853C280 853 266 883 224 883C180 883 148 850 145 791L210 791C213 809 222 818 234 818ZM264 -13C398 -13 478 76 478 222L478 478C478 624 398 713 264 713C130 713 50 624 50 478L50 222C50 76 130 -13 264 -13ZM264 86C191 86 154 134 154 222L154 478C154 566 191 614 264 614C336 614 374 566 374 478L374 222C374 134 336 86 264 86Z" />
<glyph glyph-name="Odieresis" unicode="&#xd6;" horiz-adv-x="528" d="M190 782C220 782 240 801 240 831C240 862 220 881 190 881C160 881 140 862 140 831C140 801 160 782 190 782ZM336 782C366 782 386 801 386 831C386 862 366 881 336 881C305 881 285 862 285 831C285 801 305 782 336 782ZM264 -13C398 -13 478 76 478 222L478 478C478 624 398 713 264 713C130 713 50 624 50 478L50 222C50 76 130 -13 264 -13ZM264 86C191 86 154 134 154 222L154 478C154 566 191 614 264 614C336 614 374 566 374 478L374 222C374 134 336 86 264 86Z" />
<glyph glyph-name="multiply" unicode="&#xd7;" horiz-adv-x="463" d="M102 107L232 236L361 107L424 171L296 300L424 428L361 492L232 363L102 492L40 428L168 300L39 171Z" />
<glyph glyph-name="Oslash" unicode="&#xd8;" horiz-adv-x="526" d="M403 665L433 764L351 764L332 703C311 709 288 712 263 712C130 712 50 623 50 478L50 222C50 136 78 70 129 30L100 -64L182 -64L200 -4C219 -9 240 -12 263 -12C396 -12 475 77 475 222L475 478C475 560 449 625 403 665ZM155 222L155 478C155 565 191 614 263 614C278 614 292 612 304 607L165 152C158 171 155 195 155 222ZM371 222C371 135 334 86 263 86C251 86 239 87 229 90L364 536C369 519 371 500 371 478Z" />
<glyph glyph-name="Ugrave" unicode="&#xd9;" horiz-adv-x="530" d="M330 768L237 893L145 893L254 768ZM265 -10C390 -10 471 71 471 216L471 700L367 700L367 216C367 129 328 88 265 88C201 88 162 129 162 216L162 700L58 700L58 216C58 71 139 -10 265 -10Z" />
<glyph glyph-name="Uacute" unicode="&#xda;" horiz-adv-x="530" d="M207 768L283 768L392 893L300 893ZM265 -10C390 -10 471 71 471 216L471 700L367 700L367 216C367 129 328 88 265 88C201 88 162 129 162 216L162 700L58 700L58 216C58 71 139 -10 265 -10Z" />
<glyph glyph-name="Ucircumflex" unicode="&#xdb;" horiz-adv-x="530" d="M266 838L316 768L388 768L307 893L224 893L143 768L215 768ZM367 700L367 216C367 129 328 88 265 88C201 88 162 129 162 216L162 700L58 700L58 216C58 71 139 -10 265 -10C390 -10 471 71 471 216L471 700Z" />
<glyph glyph-name="Udieresis" unicode="&#xdc;" horiz-adv-x="530" d="M192 782C222 782 242 801 242 831C242 862 222 881 192 881C162 881 142 862 142 831C142 801 162 782 192 782ZM338 782C368 782 388 801 388 831C388 862 368 881 338 881C307 881 287 862 287 831C287 801 307 782 338 782ZM265 -10C390 -10 471 71 471 216L471 700L367 700L367 216C367 129 328 88 265 88C201 88 162 129 162 216L162 700L58 700L58 216C58 71 139 -10 265 -10Z" />
<glyph glyph-name="Yacute" unicode="&#xdd;" horiz-adv-x="446" d="M165 768L241 768L350 893L258 893ZM173 0L274 0L274 230L444 700L338 700L260 469L224 357L222 357C212 392 197 437 187 467L108 700L3 700L173 230Z" />
<glyph glyph-name="Thorn" unicode="&#xde;" horiz-adv-x="489" d="M255 589L171 589L171 700L70 700L70 0L171 0L171 134L255 134C392 134 470 216 470 363C470 506 392 589 255 589ZM254 230L171 230L171 493L254 493C330 493 367 449 367 363C367 273 330 230 254 230Z" />
<glyph glyph-name="germandbls" unicode="&#xdf;" horiz-adv-x="479" d="M356 365C400 392 427 445 427 510C427 632 357 713 242 713C127 713 58 633 58 507L58 0L158 0L158 507C158 581 185 618 242 618C298 618 326 580 326 511C326 442 295 407 234 407L207 407L207 314L243 314C311 314 347 278 347 202C347 130 312 96 241 96L207 96L207 0L254 0C372 0 451 76 451 201C451 277 413 337 356 365Z" />
<glyph glyph-name="agrave" unicode="&#xe0;" horiz-adv-x="454" d="M290 610L215 734L125 734L214 610ZM225 540C119 540 51 478 46 377L143 377C148 424 180 447 223 447C276 447 299 412 299 350L299 313L222 313C106 313 31 258 31 150C31 51 96 -13 193 -13C251 -13 289 14 310 49L317 0L396 0L396 350C396 471 338 540 225 540ZM299 157C299 107 266 73 213 73C160 73 129 102 129 150C129 202 163 229 222 229L299 229Z" />
<glyph glyph-name="aacute" unicode="&#xe1;" horiz-adv-x="454" d="M331 734L241 734L166 610L242 610ZM225 540C119 540 51 478 46 377L143 377C148 424 180 447 223 447C276 447 299 412 299 350L299 313L222 313C106 313 31 258 31 150C31 51 96 -13 193 -13C251 -13 289 14 310 49L317 0L396 0L396 350C396 471 338 540 225 540ZM299 157C299 107 266 73 213 73C160 73 129 102 129 150C129 202 163 229 222 229L299 229Z" />
<glyph glyph-name="acircumflex" unicode="&#xe2;" horiz-adv-x="454" d="M225 679L275 609L347 609L266 734L183 734L102 609L174 609ZM225 540C119 540 51 478 46 377L143 377C148 424 180 447 223 447C276 447 299 412 299 350L299 313L222 313C106 313 31 258 31 150C31 51 96 -13 193 -13C251 -13 289 14 310 49L317 0L396 0L396 350C396 471 338 540 225 540ZM299 157C299 107 266 73 213 73C160 73 129 102 129 150C129 202 163 229 222 229L299 229Z" />
<glyph glyph-name="atilde" unicode="&#xe3;" horiz-adv-x="454" d="M191 648C214 648 228 618 269 618C313 618 343 653 348 710L285 710C282 693 273 683 259 683C237 683 223 713 181 713C137 713 105 680 102 621L167 621C170 639 179 648 191 648ZM225 540C119 540 51 478 46 377L143 377C148 424 180 447 223 447C276 447 299 412 299 350L299 313L222 313C106 313 31 258 31 150C31 51 96 -13 193 -13C251 -13 289 14 310 49L317 0L396 0L396 350C396 471 338 540 225 540ZM299 157C299 107 266 73 213 73C160 73 129 102 129 150C129 202 163 229 222 229L299 229Z" />
<glyph glyph-name="adieresis" unicode="&#xe4;" horiz-adv-x="454" d="M155 622C185 622 205 642 205 672C205 702 185 722 155 722C125 722 105 702 105 672C105 642 125 622 155 622ZM295 622C325 622 345 642 345 672C345 702 325 722 295 722C264 722 244 702 244 672C244 642 264 622 295 622ZM225 540C119 540 51 478 46 377L143 377C148 424 180 447 223 447C276 447 299 412 299 350L299 313L222 313C106 313 31 258 31 150C31 51 96 -13 193 -13C251 -13 289 14 310 49L317 0L396 0L396 350C396 471 338 540 225 540ZM299 157C299 107 266 73 213 73C160 73 129 102 129 150C129 202 163 229 222 229L299 229Z" />
<glyph glyph-name="aring" unicode="&#xe5;" horiz-adv-x="454" d="M225 606C274 606 306 638 306 685C306 731 274 762 225 762C177 762 145 731 145 685C145 638 177 606 225 606ZM225 716C244 716 257 703 257 684C257 665 244 652 225 652C206 652 193 665 193 684C193 703 206 716 225 716ZM225 540C119 540 51 478 46 377L143 377C148 424 180 447 223 447C276 447 299 412 299 350L299 313L222 313C106 313 31 258 31 150C31 51 96 -13 193 -13C251 -13 289 14 310 49L317 0L396 0L396 350C396 471 338 540 225 540ZM299 157C299 107 266 73 213 73C160 73 129 102 129 150C129 202 163 229 222 229L299 229Z" />
<glyph glyph-name="ae" unicode="&#xe6;" horiz-adv-x="691" d="M557 169C552 109 526 82 472 82C420 82 391 115 391 187L391 232L650 232L650 344C650 469 581 540 471 540C420 540 376 519 347 480C319 519 278 540 225 540C119 540 51 478 46 377L143 377C148 423 179 446 223 446C273 446 295 412 295 355L295 310L225 310C106 310 31 258 31 151C31 54 94 -11 190 -11C267 -11 315 16 339 53C368 15 414 -11 471 -11C579 -11 649 55 654 169ZM391 345C391 417 420 449 472 449C524 449 554 417 554 345L554 304L391 304ZM295 156C295 106 265 73 214 73C159 73 129 102 129 150C129 203 163 228 225 228L295 228Z" />
<glyph glyph-name="ccedilla" unicode="&#xe7;" horiz-adv-x="437" d="M409 182L312 182C309 115 279 82 225 82C174 82 144 115 144 182L144 348C144 415 174 447 225 447C278 447 307 415 309 348L407 348C403 470 338 540 224 540C114 540 46 470 46 348L46 182C46 70 102 2 195 -9L176 -75L195 -93C204 -88 216 -85 228 -85C252 -85 264 -97 264 -117C264 -138 249 -151 225 -151C205 -151 191 -141 185 -124L125 -124C130 -174 173 -206 224 -206C284 -206 325 -172 325 -119C325 -76 293 -48 253 -48C248 -48 244 -48 241 -49L252 -9C348 2 406 70 409 182Z" />
<glyph glyph-name="egrave" unicode="&#xe8;" horiz-adv-x="454" d="M291 608L216 732L126 732L215 608ZM320 165C311 108 286 82 227 82C174 82 143 115 143 187L143 227L410 227L410 344C410 469 339 540 226 540C115 540 46 469 46 344L46 187C46 61 115 -11 225 -11C339 -11 408 53 417 165ZM227 449C282 449 314 417 314 345L314 300L143 300L143 345C143 417 174 449 227 449Z" />
<glyph glyph-name="eacute" unicode="&#xe9;" horiz-adv-x="454" d="M332 732L242 732L167 608L243 608ZM320 165C311 108 286 82 227 82C174 82 143 115 143 187L143 227L410 227L410 344C410 469 339 540 226 540C115 540 46 469 46 344L46 187C46 61 115 -11 225 -11C339 -11 408 53 417 165ZM227 449C282 449 314 417 314 345L314 300L143 300L143 345C143 417 174 449 227 449Z" />
<glyph glyph-name="ecircumflex" unicode="&#xea;" horiz-adv-x="454" d="M226 677L276 607L348 607L267 732L184 732L103 607L175 607ZM320 165C311 108 286 82 227 82C174 82 143 115 143 187L143 227L410 227L410 344C410 469 339 540 226 540C115 540 46 469 46 344L46 187C46 61 115 -11 225 -11C339 -11 408 53 417 165ZM227 449C282 449 314 417 314 345L314 300L143 300L143 345C143 417 174 449 227 449Z" />
<glyph glyph-name="edieresis" unicode="&#xeb;" horiz-adv-x="454" d="M156 620C186 620 206 640 206 670C206 700 186 720 156 720C126 720 106 700 106 670C106 640 126 620 156 620ZM296 620C326 620 346 640 346 670C346 700 326 720 296 720C265 720 245 700 245 670C245 640 265 620 296 620ZM320 165C311 108 286 82 227 82C174 82 143 115 143 187L143 227L410 227L410 344C410 469 339 540 226 540C115 540 46 469 46 344L46 187C46 61 115 -11 225 -11C339 -11 408 53 417 165ZM227 449C282 449 314 417 314 345L314 300L143 300L143 345C143 417 174 449 227 449Z" />
<glyph glyph-name="igrave" unicode="&#xec;" horiz-adv-x="213" d="M7 734L96 610L172 610L97 734ZM58 0L155 0L155 527L58 527Z" />
<glyph glyph-name="iacute" unicode="&#xed;" horiz-adv-x="213" d="M213 734L123 734L48 610L124 610ZM58 0L155 0L155 527L58 527Z" />
<glyph glyph-name="icircumflex" unicode="&#xee;" horiz-adv-x="234" d="M158 734L77 734L-1 609L69 609L118 678L165 609L236 609ZM68 0L165 0L165 527L68 527Z" />
<glyph glyph-name="idieresis" unicode="&#xef;" horiz-adv-x="232" d="M51 624C80 624 99 643 99 672C99 702 80 721 51 721C22 721 3 702 3 672C3 643 22 624 51 624ZM181 624C210 624 230 643 230 672C230 702 210 721 181 721C152 721 132 702 132 672C132 643 152 624 181 624ZM67 0L164 0L164 527L67 527Z" />
<glyph glyph-name="eth" unicode="&#xf0;" horiz-adv-x="459" d="M343 627L398 655L380 692L314 658C275 696 227 722 176 736L142 657C173 647 202 632 226 613L165 582L182 544L258 583C282 555 300 521 309 479C284 499 253 509 217 509C114 509 46 438 46 309L46 189C46 60 116 -11 228 -11C342 -11 412 60 412 189L412 402C412 498 385 572 343 627ZM314 189C314 116 282 83 228 83C175 83 144 116 144 189L144 309C144 382 174 415 229 415C281 415 314 382 314 309Z" />
<glyph glyph-name="ntilde" unicode="&#xf1;" horiz-adv-x="469" d="M201 646C224 646 238 616 279 616C323 616 353 651 358 708L295 708C292 691 283 681 269 681C247 681 233 711 191 711C147 711 115 678 112 619L177 619C180 637 189 646 201 646ZM268 540C208 540 164 513 137 468L127 527L58 527L58 0L155 0L155 326C155 404 190 448 245 448C296 448 319 412 319 326L319 0L416 0L416 331C416 475 359 540 268 540Z" />
<glyph glyph-name="ograve" unicode="&#xf2;" horiz-adv-x="463" d="M131 734L220 610L296 610L221 734ZM231 -12C346 -12 417 59 417 188L417 340C417 469 346 540 231 540C117 540 46 469 46 340L46 188C46 59 117 -12 231 -12ZM231 82C177 82 144 114 144 188L144 340C144 414 177 446 231 446C286 446 319 414 319 340L319 188C319 114 286 82 231 82Z" />
<glyph glyph-name="oacute" unicode="&#xf3;" horiz-adv-x="463" d="M337 734L247 734L172 610L248 610ZM231 -12C346 -12 417 59 417 188L417 340C417 469 346 540 231 540C117 540 46 469 46 340L46 188C46 59 117 -12 231 -12ZM231 82C177 82 144 114 144 188L144 340C144 414 177 446 231 446C286 446 319 414 319 340L319 188C319 114 286 82 231 82Z" />
<glyph glyph-name="ocircumflex" unicode="&#xf4;" horiz-adv-x="463" d="M231 679L281 609L353 609L272 734L189 734L108 609L180 609ZM231 540C117 540 46 469 46 340L46 188C46 59 117 -12 231 -12C346 -12 417 59 417 188L417 340C417 469 346 540 231 540ZM319 188C319 114 286 82 231 82C177 82 144 114 144 188L144 340C144 414 177 446 231 446C286 446 319 414 319 340Z" />
<glyph glyph-name="otilde" unicode="&#xf5;" horiz-adv-x="463" d="M197 648C220 648 234 618 275 618C319 618 349 653 354 710L291 710C288 693 279 683 265 683C243 683 229 713 187 713C143 713 111 680 108 621L173 621C176 639 185 648 197 648ZM231 -12C346 -12 417 59 417 188L417 340C417 469 346 540 231 540C117 540 46 469 46 340L46 188C46 59 117 -12 231 -12ZM231 82C177 82 144 114 144 188L144 340C144 414 177 446 231 446C286 446 319 414 319 340L319 188C319 114 286 82 231 82Z" />
<glyph glyph-name="odieresis" unicode="&#xf6;" horiz-adv-x="463" d="M161 622C191 622 211 642 211 672C211 702 191 722 161 722C131 722 111 702 111 672C111 642 131 622 161 622ZM301 622C331 622 351 642 351 672C351 702 331 722 301 722C270 722 250 702 250 672C250 642 270 622 301 622ZM231 -12C346 -12 417 59 417 188L417 340C417 469 346 540 231 540C117 540 46 469 46 340L46 188C46 59 117 -12 231 -12ZM231 82C177 82 144 114 144 188L144 340C144 414 177 446 231 446C286 446 319 414 319 340L319 188C319 114 286 82 231 82Z" />
<glyph glyph-name="divide" unicode="&#xf7;" horiz-adv-x="461" d="M231 399C265 399 289 424 289 457C289 492 265 516 231 516C197 516 173 492 173 457C173 424 197 399 231 399ZM43 263L417 263L417 348L43 348ZM231 89C265 89 289 113 289 147C289 181 265 205 231 205C197 205 173 181 173 147C173 113 197 89 231 89Z" />
<glyph glyph-name="oslash" unicode="&#xf8;" horiz-adv-x="463" d="M360 496L399 596L328 596L302 529C281 536 257 540 231 540C117 540 46 469 46 340L46 189C46 118 67 65 106 31L67 -67L138 -67L164 -1C184 -8 207 -11 231 -11C346 -11 417 60 417 189L417 340C417 409 396 462 360 496ZM144 189L144 340C144 414 177 446 231 446C244 446 256 444 267 440L150 143C146 156 144 171 144 189ZM319 189C319 116 286 83 231 83C219 83 209 85 199 88L315 382C318 370 319 356 319 340Z" />
<glyph glyph-name="ugrave" unicode="&#xf9;" horiz-adv-x="469" d="M297 608L222 732L132 732L221 608ZM314 527L314 201C314 123 279 79 224 79C173 79 150 115 150 201L150 527L53 527L53 196C53 52 110 -13 201 -13C261 -13 305 14 332 59L342 0L411 0L411 527Z" />
<glyph glyph-name="uacute" unicode="&#xfa;" horiz-adv-x="469" d="M338 732L248 732L173 608L249 608ZM314 527L314 201C314 123 279 79 224 79C173 79 150 115 150 201L150 527L53 527L53 196C53 52 110 -13 201 -13C261 -13 305 14 332 59L342 0L411 0L411 527Z" />
<glyph glyph-name="ucircumflex" unicode="&#xfb;" horiz-adv-x="469" d="M232 677L282 607L354 607L273 732L190 732L109 607L181 607ZM314 527L314 201C314 123 279 79 224 79C173 79 150 115 150 201L150 527L53 527L53 196C53 52 110 -13 201 -13C261 -13 305 14 332 59L342 0L411 0L411 527Z" />
<glyph glyph-name="udieresis" unicode="&#xfc;" horiz-adv-x="469" d="M162 620C192 620 212 640 212 670C212 700 192 720 162 720C132 720 112 700 112 670C112 640 132 620 162 620ZM302 620C332 620 352 640 352 670C352 700 332 720 302 720C271 720 251 700 251 670C251 640 271 620 302 620ZM314 527L314 201C314 123 279 79 224 79C173 79 150 115 150 201L150 527L53 527L53 196C53 52 110 -13 201 -13C261 -13 305 14 332 59L342 0L411 0L411 527Z" />
<glyph glyph-name="yacute" unicode="&#xfd;" horiz-adv-x="417" d="M312 736L222 736L147 612L223 612ZM313 527L215 193L106 527L4 527L174 55L151 -24C138 -67 125 -96 84 -96L51 -96L51 -190L103 -190C182 -190 219 -127 244 -41L413 527Z" />
<glyph glyph-name="thorn" unicode="&#xfe;" horiz-adv-x="465" d="M254 545C216 545 180 530 153 502L153 722L58 722L58 -180L153 -180L153 40C180 13 216 -2 254 -2C355 -2 419 73 419 200L419 342C419 470 355 545 254 545ZM321 200C321 124 292 89 238 89C185 89 153 132 153 200L153 342C153 411 185 453 238 453C292 453 321 419 321 342Z" />
<glyph glyph-name="ydieresis" unicode="&#xff;" horiz-adv-x="417" d="M136 624C166 624 186 644 186 674C186 704 166 724 136 724C106 724 86 704 86 674C86 644 106 624 136 624ZM276 624C306 624 326 644 326 674C326 704 306 724 276 724C245 724 225 704 225 674C225 644 245 624 276 624ZM313 527L215 193L106 527L4 527L174 55L151 -24C138 -67 125 -96 84 -96L51 -96L51 -190L103 -190C182 -190 219 -127 244 -41L413 527Z" />
<glyph glyph-name="Amacron" unicode="&#x0100;" horiz-adv-x="476" d="M340 862L138 862L138 793L340 793ZM363 0L468 0L292 700L183 700L7 0L113 0L145 141L330 141ZM167 235L210 423C221 469 231 536 236 573L239 573C244 536 255 469 265 423L309 235Z" />
<glyph glyph-name="amacron" unicode="&#x0101;" horiz-adv-x="454" d="M326 704L124 704L124 636L326 636ZM225 540C119 540 51 478 46 377L143 377C148 424 180 447 223 447C276 447 299 412 299 350L299 313L222 313C106 313 31 258 31 150C31 51 96 -13 193 -13C251 -13 289 14 310 49L317 0L396 0L396 350C396 471 338 540 225 540ZM299 157C299 107 266 73 213 73C160 73 129 102 129 150C129 202 163 229 222 229L299 229Z" />
<glyph glyph-name="Abreve" unicode="&#x0102;" horiz-adv-x="476" d="M239 768C308 768 356 811 359 888L290 888C288 853 269 835 238 835C208 835 189 853 187 888L118 888C121 812 169 768 239 768ZM363 0L468 0L292 700L183 700L7 0L113 0L145 141L330 141ZM167 235L210 423C221 469 231 536 236 573L239 573C244 536 255 469 265 423L309 235Z" />
<glyph glyph-name="abreve" unicode="&#x0103;" horiz-adv-x="454" d="M226 609C295 609 343 652 346 729L277 729C275 694 256 676 225 676C195 676 176 694 174 729L105 729C108 653 156 609 226 609ZM225 540C119 540 51 478 46 377L143 377C148 424 180 447 223 447C276 447 299 412 299 350L299 313L222 313C106 313 31 258 31 150C31 51 96 -13 193 -13C251 -13 289 14 310 49L317 0L396 0L396 350C396 471 338 540 225 540ZM299 157C299 107 266 73 213 73C160 73 129 102 129 150C129 202 163 229 222 229L299 229Z" />
<glyph glyph-name="Aogonek" unicode="&#x0104;" horiz-adv-x="476" d="M430 -116C410 -116 395 -108 395 -85C395 -61 416 -25 447 0L468 0L292 700L183 700L7 0L113 0L145 141L330 141L363 0C328 -31 305 -68 305 -110C305 -156 336 -193 398 -193C419 -193 440 -192 460 -184L459 -113C451 -115 440 -116 430 -116ZM167 235L210 423C221 469 231 536 236 573L239 573C244 536 255 469 265 423L309 235Z" />
<glyph glyph-name="aogonek" unicode="&#x0105;" horiz-adv-x="456" d="M340 -193C355 -193 380 -191 398 -184L398 -113C389 -116 378 -117 366 -117C348 -117 333 -109 333 -87C333 -60 360 -26 398 0L398 350C398 471 340 540 226 540C119 540 51 478 46 377L143 377C148 424 181 447 224 447C277 447 301 412 301 350L301 313L223 313C106 313 31 258 31 150C31 51 96 -13 193 -13C252 -13 291 14 312 49L319 0C275 -32 249 -65 249 -108C249 -154 275 -193 340 -193ZM214 73C161 73 129 102 129 150C129 202 163 229 223 229L301 229L301 157C301 107 267 73 214 73Z" />
<glyph glyph-name="Cacute" unicode="&#x0106;" horiz-adv-x="492" d="M189 768L265 768L374 893L282 893ZM253 -12C382 -12 457 64 464 202L364 202C357 122 321 84 253 84C192 84 153 123 153 206L153 494C153 578 192 617 251 617C318 617 354 580 360 498L460 498C454 637 379 713 252 713C129 713 50 636 50 494L50 206C50 65 130 -12 253 -12Z" />
<glyph glyph-name="cacute" unicode="&#x0107;" horiz-adv-x="437" d="M332 734L242 734L167 610L243 610ZM224 -11C336 -11 406 59 409 182L312 182C309 115 279 82 225 82C174 82 144 115 144 182L144 348C144 415 174 447 225 447C278 447 307 415 309 348L407 348C403 470 338 540 224 540C114 540 46 470 46 348L46 182C46 59 114 -11 224 -11Z" />
<glyph glyph-name="Cdotaccent" unicode="&#x010a;" horiz-adv-x="492" d="M247 778C282 778 308 805 308 840C308 875 282 901 247 901C210 901 185 875 185 840C185 804 210 778 247 778ZM253 -12C382 -12 457 64 464 202L364 202C357 122 321 84 253 84C192 84 153 123 153 206L153 494C153 578 192 617 251 617C318 617 354 580 360 498L460 498C454 637 379 713 252 713C129 713 50 636 50 494L50 206C50 65 130 -12 253 -12Z" />
<glyph glyph-name="cdotaccent" unicode="&#x010b;" horiz-adv-x="437" d="M225 615C261 615 287 642 287 676C287 712 261 738 225 738C189 738 164 712 164 676C164 641 189 615 225 615ZM224 -11C336 -11 406 59 409 182L312 182C309 115 279 82 225 82C174 82 144 115 144 182L144 348C144 415 174 447 225 447C278 447 307 415 309 348L407 348C403 470 338 540 224 540C114 540 46 470 46 348L46 182C46 59 114 -11 224 -11Z" />
<glyph glyph-name="Ccaron" unicode="&#x010c;" horiz-adv-x="492" d="M289 768L370 893L298 893L248 823L197 893L125 893L206 768ZM364 202C357 122 321 84 253 84C192 84 153 123 153 206L153 494C153 578 192 617 251 617C318 617 354 580 360 498L460 498C454 637 379 713 252 713C129 713 50 636 50 494L50 206C50 65 130 -12 253 -12C382 -12 457 64 464 202Z" />
<glyph glyph-name="ccaron" unicode="&#x010d;" horiz-adv-x="437" d="M267 609L348 734L276 734L226 664L175 734L103 734L184 609ZM312 182C309 115 279 82 225 82C174 82 144 115 144 182L144 348C144 415 174 447 225 447C278 447 307 415 309 348L407 348C403 470 338 540 224 540C114 540 46 470 46 348L46 182C46 59 114 -11 224 -11C336 -11 406 59 409 182Z" />
<glyph glyph-name="Dcaron" unicode="&#x010e;" horiz-adv-x="510" d="M283 768L364 893L292 893L242 823L191 893L119 893L200 768ZM244 700L70 700L70 0L245 0C380 0 460 81 460 220L460 482C460 620 380 700 244 700ZM358 222C358 139 317 96 245 96L171 96L171 604L245 604C318 604 358 562 358 480Z" />
<glyph glyph-name="dcaron" unicode="&#x010f;" horiz-adv-x="534" d="M472 772L459 587L519 587L560 772ZM315 497C289 524 251 540 213 540C111 540 46 465 46 338L46 193C46 64 114 -12 213 -12C261 -12 306 15 332 49L339 0L409 0L409 724L315 724ZM315 192C315 116 279 80 229 80C176 80 144 115 144 193L144 338C144 414 173 448 229 448C282 448 315 406 315 338Z" />
<glyph glyph-name="Dcroat" unicode="&#x0110;" horiz-adv-x="521" d="M250 700L80 700L80 391L9 391L9 322L80 322L80 0L251 0C386 0 471 76 471 210L471 492C471 624 387 700 250 700ZM368 212C368 129 326 96 255 96L181 96L181 322L265 322L265 391L181 391L181 604L255 604C327 604 368 571 368 490Z" />
<glyph glyph-name="dcroat" unicode="&#x0111;" horiz-adv-x="473" d="M473 657L409 657L409 724L315 724L315 657L217 657L217 601L315 601L315 497C289 524 251 540 213 540C111 540 46 465 46 338L46 193C46 64 114 -12 213 -12C261 -12 306 15 332 49L339 0L409 0L409 601L473 601ZM315 192C315 116 279 80 229 80C176 80 144 115 144 193L144 338C144 414 173 448 229 448C282 448 315 406 315 338Z" />
<glyph glyph-name="Emacron" unicode="&#x0112;" horiz-adv-x="461" d="M342 862L140 862L140 793L342 793ZM171 95L171 309L394 309L394 402L171 402L171 605L413 605L413 700L70 700L70 0L423 0L423 95Z" />
<glyph glyph-name="emacron" unicode="&#x0113;" horiz-adv-x="454" d="M327 702L125 702L125 634L327 634ZM320 165C311 108 286 82 227 82C174 82 143 115 143 187L143 227L410 227L410 344C410 469 339 540 226 540C115 540 46 469 46 344L46 187C46 61 115 -11 225 -11C339 -11 408 53 417 165ZM227 449C282 449 314 417 314 345L314 300L143 300L143 345C143 417 174 449 227 449Z" />
<glyph glyph-name="Edotaccent" unicode="&#x0116;" horiz-adv-x="461" d="M239 778C274 778 300 805 300 840C300 875 274 901 239 901C202 901 177 875 177 840C177 804 202 778 239 778ZM171 95L171 309L394 309L394 402L171 402L171 605L413 605L413 700L70 700L70 0L423 0L423 95Z" />
<glyph glyph-name="edotaccent" unicode="&#x0117;" horiz-adv-x="454" d="M225 613C261 613 287 640 287 674C287 710 261 736 225 736C189 736 164 710 164 674C164 639 189 613 225 613ZM320 165C311 108 286 82 227 82C174 82 143 115 143 187L143 227L410 227L410 344C410 469 339 540 226 540C115 540 46 469 46 344L46 187C46 61 115 -11 225 -11C339 -11 408 53 417 165ZM227 449C282 449 314 417 314 345L314 300L143 300L143 345C143 417 174 449 227 449Z" />
<glyph glyph-name="Eogonek" unicode="&#x0118;" horiz-adv-x="465" d="M427 -113C419 -115 408 -116 398 -116C378 -116 363 -107 363 -83C363 -60 387 -24 423 0L423 95L171 95L171 309L394 309L394 402L171 402L171 605L413 605L413 700L70 700L70 0L340 0C300 -31 274 -67 274 -110C274 -156 304 -193 366 -193C387 -193 409 -192 428 -184Z" />
<glyph glyph-name="eogonek" unicode="&#x0119;" horiz-adv-x="454" d="M305 -193C328 -193 349 -190 367 -184L367 -113C358 -115 348 -116 334 -116C314 -116 296 -106 296 -76C296 -44 323 -4 361 36C390 67 411 105 417 165L320 165C312 110 286 82 228 82C173 82 143 115 143 187L143 227L410 227L410 344C410 469 339 540 226 540C115 540 46 468 46 344L46 187C46 61 114 -11 226 -11C239 -11 254 -9 265 -7L265 -8C232 -39 212 -72 212 -109C212 -157 243 -193 305 -193ZM143 300L143 345C143 417 174 449 227 449C282 449 314 416 314 345L314 300Z" />
<glyph glyph-name="Ecaron" unicode="&#x011a;" horiz-adv-x="461" d="M281 768L362 893L290 893L240 823L189 893L117 893L198 768ZM171 95L171 309L394 309L394 402L171 402L171 605L413 605L413 700L70 700L70 0L423 0L423 95Z" />
<glyph glyph-name="ecaron" unicode="&#x011b;" horiz-adv-x="454" d="M267 607L348 732L276 732L226 662L175 732L103 732L184 607ZM320 165C311 108 286 82 227 82C174 82 143 115 143 187L143 227L410 227L410 344C410 469 339 540 226 540C115 540 46 469 46 344L46 187C46 61 115 -11 225 -11C339 -11 408 53 417 165ZM227 449C282 449 314 417 314 345L314 300L143 300L143 345C143 417 174 449 227 449Z" />
<glyph glyph-name="Gbreve" unicode="&#x011e;" horiz-adv-x="506" d="M252 768C321 768 369 811 372 888L303 888C301 853 282 835 251 835C221 835 202 853 200 888L131 888C134 812 182 768 252 768ZM257 -11C383 -11 462 66 464 203L464 381L254 381L254 291L365 291L365 203C365 123 325 86 258 86C193 86 153 123 153 208L153 492C153 577 191 614 255 614C319 614 355 579 359 498L459 498C454 636 379 711 255 711C128 711 50 635 50 493L50 208C50 66 131 -11 257 -11Z" />
<glyph glyph-name="gbreve" unicode="&#x011f;" horiz-adv-x="470" d="M231 609C300 609 348 652 351 729L282 729C280 694 261 676 230 676C200 676 181 694 179 729L110 729C113 653 161 609 231 609ZM341 527L333 485C304 521 263 540 214 540C116 540 46 464 46 340L46 214C46 97 116 21 215 21C254 21 288 33 314 55L314 -27C314 -74 284 -103 235 -103C186 -103 158 -76 154 -29L59 -29C63 -129 129 -193 235 -193C344 -193 412 -127 412 -27L412 527ZM231 113C176 113 144 146 144 214L144 340C144 414 176 447 231 447C279 447 314 414 314 346L314 214C314 146 283 113 231 113Z" />
<glyph glyph-name="Gdotaccent" unicode="&#x0120;" horiz-adv-x="506" d="M250 778C285 778 311 805 311 840C311 875 285 901 250 901C213 901 188 875 188 840C188 804 213 778 250 778ZM257 -11C383 -11 462 66 464 203L464 381L254 381L254 291L365 291L365 203C365 123 325 86 258 86C193 86 153 123 153 208L153 492C153 577 191 614 255 614C319 614 355 579 359 498L459 498C454 636 379 711 255 711C128 711 50 635 50 493L50 208C50 66 131 -11 257 -11Z" />
<glyph glyph-name="gdotaccent" unicode="&#x0121;" horiz-adv-x="470" d="M229 615C265 615 291 642 291 676C291 712 265 738 229 738C193 738 168 712 168 676C168 641 193 615 229 615ZM341 527L333 485C304 521 263 540 214 540C116 540 46 464 46 340L46 214C46 97 116 21 215 21C254 21 288 33 314 55L314 -27C314 -74 284 -103 235 -103C186 -103 158 -76 154 -29L59 -29C63 -129 129 -193 235 -193C344 -193 412 -127 412 -27L412 527ZM231 113C176 113 144 146 144 214L144 340C144 414 176 447 231 447C279 447 314 414 314 346L314 214C314 146 283 113 231 113Z" />
<glyph glyph-name="Gcommaaccent" unicode="&#x0122;" horiz-adv-x="506" d="M257 -11C383 -11 462 66 464 203L464 381L254 381L254 291L365 291L365 203C365 123 325 86 258 86C193 86 153 123 153 208L153 492C153 577 191 614 255 614C319 614 355 579 359 498L459 498C454 636 379 711 255 711C128 711 50 635 50 493L50 208C50 66 131 -11 257 -11ZM193 -265L255 -265L298 -70L210 -70Z" />
<glyph glyph-name="gcommaaccent" unicode="&#x0123;" horiz-adv-x="470" d="M275 604L224 800L161 800L179 604ZM341 527L333 485C304 521 263 540 214 540C116 540 46 464 46 340L46 214C46 97 116 21 215 21C254 21 288 33 314 55L314 -27C314 -74 284 -103 235 -103C186 -103 158 -76 154 -29L59 -29C63 -129 129 -193 235 -193C344 -193 412 -127 412 -27L412 527ZM231 113C176 113 144 146 144 214L144 340C144 414 176 447 231 447C279 447 314 414 314 346L314 214C314 146 283 113 231 113Z" />
<glyph glyph-name="Hbar" unicode="&#x0126;" horiz-adv-x="570" d="M552 579L485 579L485 700L384 700L384 579L186 579L186 700L85 700L85 579L17 579L17 524L85 524L85 0L186 0L186 307L384 307L384 0L485 0L485 524L552 524ZM384 402L186 402L186 524L384 524Z" />
<glyph glyph-name="hbar" unicode="&#x0127;" horiz-adv-x="467" d="M269 540C218 540 179 515 153 475L153 605L247 605L247 660L153 660L153 724L57 724L57 660L-7 660L-7 605L57 605L57 0L153 0L153 326C153 404 189 448 243 448C293 448 318 412 318 318L318 0L415 0L415 321C415 470 361 540 269 540Z" />
<glyph glyph-name="Imacron" unicode="&#x012a;" horiz-adv-x="240" d="M23 862L23 793L225 793L225 862ZM70 700L70 0L171 0L171 700Z" />
<glyph glyph-name="imacron" unicode="&#x012b;" horiz-adv-x="210" d="M13 704L13 634L198 634L198 704ZM57 0L154 0L154 527L57 527Z" />
<glyph glyph-name="Iogonek" unicode="&#x012e;" horiz-adv-x="239" d="M158 -115C134 -115 116 -107 116 -82C116 -60 133 -24 158 0L170 0L170 700L69 700L69 0L80 0C46 -30 28 -68 28 -105C28 -155 56 -193 125 -193C143 -193 168 -190 188 -183L188 -112C179 -115 169 -115 158 -115Z" />
<glyph glyph-name="iogonek" unicode="&#x012f;" horiz-adv-x="211" d="M103 617C135 617 160 643 160 673C160 706 135 730 103 730C70 730 47 706 47 673C47 642 70 617 103 617ZM140 -116C117 -116 100 -106 100 -80C100 -57 116 -24 137 -1L151 0L151 525L54 525L54 -1C28 -32 11 -69 11 -110C11 -156 42 -193 104 -193C126 -193 151 -192 170 -184L170 -113C161 -115 150 -116 140 -116Z" />
<glyph glyph-name="Idotaccent" unicode="&#x0130;" horiz-adv-x="240" d="M122 778C157 778 183 805 183 840C183 875 157 901 122 901C85 901 60 875 60 840C60 804 85 778 122 778ZM70 700L70 0L171 0L171 700Z" />
<glyph glyph-name="dotlessi" unicode="&#x0131;" horiz-adv-x="213" d="M58 0L155 0L155 527L58 527Z" />
<glyph glyph-name="Kcommaaccent" unicode="&#x0136;" horiz-adv-x="503" d="M274 395L474 700L356 700L216 478L170 396L170 700L70 700L70 0L170 0L170 237L216 306L387 0L503 0ZM194 -265L256 -265L299 -70L211 -70Z" />
<glyph glyph-name="kcommaaccent" unicode="&#x0137;" horiz-adv-x="441" d="M257 316L419 527L304 527L154 321L154 724L58 724L58 0L154 0L154 199L193 241L333 0L444 0ZM171 -265L233 -265L276 -70L188 -70Z" />
<glyph glyph-name="Lacute" unicode="&#x0139;" horiz-adv-x="410" d="M305 893L213 893L120 768L196 768ZM171 96L171 700L70 700L70 0L403 0L403 96Z" />
<glyph glyph-name="lacute" unicode="&#x013a;" horiz-adv-x="214" d="M47 768L123 768L232 893L140 893ZM56 0L153 0L153 724L56 724Z" />
<glyph glyph-name="Lcommaaccent" unicode="&#x013b;" horiz-adv-x="410" d="M171 96L171 700L70 700L70 0L403 0L403 96ZM152 -265L214 -265L257 -70L169 -70Z" />
<glyph glyph-name="lcommaaccent" unicode="&#x013c;" horiz-adv-x="209" d="M56 0L153 0L153 724L56 724ZM55 -265L117 -265L160 -70L72 -70Z" />
<glyph glyph-name="Lcaron" unicode="&#x013d;" horiz-adv-x="404" d="M171 95L171 700L70 700L70 0L388 0L388 95ZM366 700L276 700L266 499L326 499Z" />
<glyph glyph-name="lcaron" unicode="&#x013e;" horiz-adv-x="278" d="M202 584L262 584L304 771L215 771ZM56 0L153 0L153 724L56 724Z" />
<glyph glyph-name="Lslash" unicode="&#x0141;" horiz-adv-x="430" d="M199 95L199 338L322 385L322 472L199 425L199 700L98 700L98 387L22 358L22 271L98 300L98 0L423 0L423 95Z" />
<glyph glyph-name="lslash" unicode="&#x0142;" horiz-adv-x="258" d="M246 484L176 460L176 722L80 722L80 428L12 405L12 326L80 349L80 0L176 0L176 381L246 405Z" />
<glyph glyph-name="Nacute" unicode="&#x0143;" horiz-adv-x="555" d="M219 768L295 768L404 893L312 893ZM385 700L385 427C385 365 391 260 399 191L396 189C379 231 353 296 332 343L171 700L70 700L70 0L170 0L170 270C170 336 165 441 158 511L161 513C178 468 207 395 228 343L384 0L485 0L485 700Z" />
<glyph glyph-name="nacute" unicode="&#x0144;" horiz-adv-x="469" d="M341 732L251 732L176 608L252 608ZM268 540C208 540 164 513 137 468L127 527L58 527L58 0L155 0L155 326C155 404 190 448 245 448C296 448 319 412 319 326L319 0L416 0L416 331C416 475 359 540 268 540Z" />
<glyph glyph-name="Ncommaaccent" unicode="&#x0145;" horiz-adv-x="555" d="M385 700L385 427C385 365 391 260 399 191L396 189C379 231 353 296 332 343L171 700L70 700L70 0L170 0L170 270C170 336 165 441 158 511L161 513C178 468 207 395 228 343L384 0L485 0L485 700ZM220 -265L282 -265L325 -70L237 -70Z" />
<glyph glyph-name="ncommaaccent" unicode="&#x0146;" horiz-adv-x="469" d="M268 540C208 540 164 513 137 468L127 527L58 527L58 0L155 0L155 326C155 404 190 448 245 448C296 448 319 412 319 326L319 0L416 0L416 331C416 475 359 540 268 540ZM170 -265L232 -265L275 -70L187 -70Z" />
<glyph glyph-name="Ncaron" unicode="&#x0147;" horiz-adv-x="555" d="M319 768L400 893L328 893L278 823L227 893L155 893L236 768ZM385 700L385 427C385 365 391 260 399 191L396 189C379 231 353 296 332 343L171 700L70 700L70 0L170 0L170 270C170 336 165 441 158 511L161 513C178 468 207 395 228 343L384 0L485 0L485 700Z" />
<glyph glyph-name="ncaron" unicode="&#x0148;" horiz-adv-x="469" d="M276 607L357 732L285 732L235 662L184 732L112 732L193 607ZM268 540C208 540 164 513 137 468L127 527L58 527L58 0L155 0L155 326C155 404 190 448 245 448C296 448 319 412 319 326L319 0L416 0L416 331C416 475 359 540 268 540Z" />
<glyph glyph-name="Eng" unicode="&#x014a;" horiz-adv-x="555" d="M385 700L385 425C385 361 392 253 400 182L397 181C380 226 356 288 336 339L171 700L70 700L70 0L170 0L170 270C170 336 165 441 158 511L161 513C178 468 204 401 226 347L388 -9L388 -10C388 -69 361 -99 300 -100L300 -193C421 -192 485 -122 485 -6L485 700Z" />
<glyph glyph-name="eng" unicode="&#x014b;" horiz-adv-x="469" d="M268 540C208 540 164 513 137 468L127 527L58 527L58 0L155 0L155 326C155 404 190 448 245 448C296 448 319 412 319 326L319 -17C319 -75 292 -106 231 -107L231 -200C352 -199 416 -129 416 -13L416 331C416 475 362 540 268 540Z" />
<glyph glyph-name="Omacron" unicode="&#x014c;" horiz-adv-x="528" d="M164 862L164 793L366 793L366 862ZM264 -13C398 -13 478 76 478 222L478 478C478 624 398 713 264 713C130 713 50 624 50 478L50 222C50 76 130 -13 264 -13ZM264 86C191 86 154 134 154 222L154 478C154 566 191 614 264 614C336 614 374 566 374 478L374 222C374 134 336 86 264 86Z" />
<glyph glyph-name="omacron" unicode="&#x014d;" horiz-adv-x="463" d="M130 704L130 636L332 636L332 704ZM231 -12C346 -12 417 59 417 188L417 340C417 469 346 540 231 540C117 540 46 469 46 340L46 188C46 59 117 -12 231 -12ZM231 82C177 82 144 114 144 188L144 340C144 414 177 446 231 446C286 446 319 414 319 340L319 188C319 114 286 82 231 82Z" />
<glyph glyph-name="Ohungarumlaut" unicode="&#x0150;" horiz-adv-x="528" d="M304 893L220 893L148 769L217 769ZM432 893L348 893L271 769L340 769ZM264 -13C398 -13 478 76 478 222L478 478C478 624 398 713 264 713C130 713 50 624 50 478L50 222C50 76 130 -13 264 -13ZM264 86C191 86 154 134 154 222L154 478C154 566 191 614 264 614C336 614 374 566 374 478L374 222C374 134 336 86 264 86Z" />
<glyph glyph-name="ohungarumlaut" unicode="&#x0151;" horiz-adv-x="463" d="M268 734L184 734L112 610L181 610ZM396 734L312 734L235 610L304 610ZM231 -12C346 -12 417 59 417 188L417 340C417 469 346 540 231 540C117 540 46 469 46 340L46 188C46 59 117 -12 231 -12ZM231 82C177 82 144 114 144 188L144 340C144 414 177 446 231 446C286 446 319 414 319 340L319 188C319 114 286 82 231 82Z" />
<glyph glyph-name="OE" unicode="&#x0152;" horiz-adv-x="765" d="M475 95L475 309L699 309L699 402L475 402L475 605L717 605L717 700L374 700L374 660C342 694 302 713 254 713C127 713 50 624 50 478L50 222C50 76 127 -13 254 -13C302 -13 342 6 374 40L374 0L728 0L728 95ZM260 86C190 86 154 134 154 222L154 478C154 566 190 614 260 614C335 614 374 566 374 478L374 222C374 134 335 86 260 86Z" />
<glyph glyph-name="oe" unicode="&#x0153;" horiz-adv-x="715" d="M581 170C576 109 550 82 494 82C441 82 411 115 411 187L411 229L674 229L674 342C674 466 605 537 493 537C438 537 392 515 362 472C332 515 285 537 229 537C116 537 46 467 46 338L46 189C46 60 116 -11 229 -11C285 -11 332 12 363 55C392 12 438 -11 493 -11C603 -11 672 55 678 170ZM411 343C411 414 441 446 494 446C548 446 579 414 579 343L579 301L411 301ZM315 189C315 116 283 83 229 83C175 83 144 116 144 189L144 338C144 411 175 443 229 443C283 443 315 411 315 338Z" />
<glyph glyph-name="Racute" unicode="&#x0154;" horiz-adv-x="504" d="M381 893L289 893L196 768L272 768ZM375 0L487 0L335 268C415 297 461 372 461 481C461 620 385 700 251 700L70 700L70 0L171 0L171 254L234 254ZM171 604L250 604C320 604 357 562 357 479C357 396 320 350 249 350L171 350Z" />
<glyph glyph-name="racute" unicode="&#x0155;" horiz-adv-x="340" d="M292 734L202 734L127 610L203 610ZM273 539C210 539 165 512 138 466L127 527L58 527L58 0L155 0L155 325C155 404 197 447 263 447C289 447 309 443 328 435L328 531C313 537 295 539 273 539Z" />
<glyph glyph-name="Rcommaaccent" unicode="&#x0156;" horiz-adv-x="504" d="M335 268C415 297 461 372 461 481C461 620 385 700 251 700L70 700L70 0L171 0L171 254L234 254L375 0L487 0ZM171 604L250 604C320 604 357 562 357 479C357 396 320 350 249 350L171 350ZM197 -265L259 -265L302 -70L214 -70Z" />
<glyph glyph-name="rcommaaccent" unicode="&#x0157;" horiz-adv-x="340" d="M273 539C210 539 165 512 138 466L127 527L58 527L58 0L155 0L155 325C155 404 197 447 263 447C289 447 309 443 328 435L328 531C313 537 295 539 273 539ZM66 -265L128 -265L171 -70L83 -70Z" />
<glyph glyph-name="Rcaron" unicode="&#x0158;" horiz-adv-x="504" d="M296 768L377 893L305 893L255 823L204 893L132 893L213 768ZM375 0L487 0L335 268C415 297 461 372 461 481C461 620 385 700 251 700L70 700L70 0L171 0L171 254L234 254ZM171 604L250 604C320 604 357 562 357 479C357 396 320 350 249 350L171 350Z" />
<glyph glyph-name="rcaron" unicode="&#x0159;" horiz-adv-x="340" d="M227 609L308 734L236 734L186 664L135 734L63 734L144 609ZM273 539C210 539 165 512 138 466L127 527L58 527L58 0L155 0L155 325C155 404 197 447 263 447C289 447 309 443 328 435L328 531C313 537 295 539 273 539Z" />
<glyph glyph-name="Sacute" unicode="&#x015a;" horiz-adv-x="465" d="M174 768L250 768L359 893L267 893ZM231 -13C362 -13 435 76 435 180C435 397 141 397 141 534C141 584 174 616 231 616C285 616 320 584 322 517L425 517C422 636 350 713 230 713C112 713 38 637 38 536C38 328 331 320 331 181C331 125 298 85 231 85C169 85 130 120 129 192L26 192C27 64 107 -13 231 -13Z" />
<glyph glyph-name="sacute" unicode="&#x015b;" horiz-adv-x="417" d="M315 736L225 736L150 612L226 612ZM214 -13C323 -13 389 49 389 142C389 331 129 292 129 392C129 429 157 452 203 452C256 452 282 422 283 372L378 372C374 470 315 540 203 540C100 540 33 483 33 393C33 213 292 249 292 143C292 102 263 77 212 77C151 77 122 114 121 162L25 162C26 65 94 -13 214 -13Z" />
<glyph glyph-name="Scedilla" unicode="&#x015e;" horiz-adv-x="465" d="M435 180C435 397 141 397 141 534C141 584 174 616 231 616C285 616 320 584 322 517L425 517C422 636 350 713 230 713C112 713 38 637 38 536C38 328 331 320 331 181C331 125 298 85 231 85C169 85 130 120 129 192L26 192C27 73 97 -2 206 -12L188 -75L207 -93C216 -88 228 -85 240 -85C264 -85 276 -97 276 -117C276 -138 261 -151 237 -151C217 -151 203 -141 197 -124L137 -124C142 -174 185 -206 236 -206C296 -206 337 -172 337 -119C337 -76 305 -48 265 -48C260 -48 256 -48 253 -49L264 -11C374 3 435 85 435 180Z" />
<glyph glyph-name="scedilla" unicode="&#x015f;" horiz-adv-x="417" d="M389 142C389 331 129 292 129 392C129 429 157 452 203 452C256 452 282 422 283 372L378 372C374 470 315 540 203 540C100 540 33 483 33 393C33 213 292 249 292 143C292 102 263 77 212 77C151 77 122 114 121 162L25 162C26 75 80 4 178 -10L159 -75L178 -93C187 -88 199 -85 211 -85C235 -85 247 -97 247 -117C247 -138 232 -151 208 -151C188 -151 174 -141 168 -124L108 -124C113 -174 156 -206 207 -206C267 -206 308 -172 308 -119C308 -76 276 -48 236 -48C231 -48 227 -48 224 -49L235 -12C331 -5 389 55 389 142Z" />
<glyph glyph-name="Scaron" unicode="&#x0160;" horiz-adv-x="465" d="M274 768L355 893L283 893L233 823L182 893L110 893L191 768ZM141 534C141 584 174 616 231 616C285 616 320 584 322 517L425 517C422 636 350 713 230 713C112 713 38 637 38 536C38 328 331 320 331 181C331 125 298 85 231 85C169 85 130 120 129 192L26 192C27 64 107 -13 231 -13C362 -13 435 76 435 180C435 397 141 397 141 534Z" />
<glyph glyph-name="scaron" unicode="&#x0161;" horiz-adv-x="417" d="M250 611L331 736L259 736L209 666L158 736L86 736L167 611ZM129 392C129 429 157 452 203 452C256 452 282 422 283 372L378 372C374 470 315 540 203 540C100 540 33 483 33 393C33 213 292 249 292 143C292 102 263 77 212 77C151 77 122 114 121 162L25 162C26 65 94 -13 214 -13C323 -13 389 49 389 142C389 331 129 292 129 392Z" />
<glyph glyph-name="uni0162" unicode="&#x0162;" horiz-adv-x="427" d="M411 700L17 700L17 604L162 604L162 0L265 0L265 604L411 604ZM157 -265L219 -265L262 -70L174 -70Z" />
<glyph glyph-name="uni0163" unicode="&#x0163;" horiz-adv-x="306" d="M259 85C207 85 183 112 183 169L183 439L281 439L281 527L183 527L183 652L87 652L87 527L13 527L13 439L87 439L87 170C87 61 149 -6 254 -6L291 -6L291 85ZM121 -265L183 -265L226 -70L138 -70Z" />
<glyph glyph-name="Tcaron" unicode="&#x0164;" horiz-adv-x="427" d="M256 768L337 893L265 893L215 823L164 893L92 893L173 768ZM411 700L17 700L17 604L162 604L162 0L265 0L265 604L411 604Z" />
<glyph glyph-name="tcaron" unicode="&#x0165;" horiz-adv-x="365" d="M253 771L238 591L299 591L340 771ZM183 169L183 439L281 439L281 527L183 527L183 652L87 652L87 527L13 527L13 439L87 439L87 170C87 61 149 -6 254 -6L291 -6L291 85L259 85C207 85 183 112 183 169Z" />
<glyph glyph-name="Tbar" unicode="&#x0166;" horiz-adv-x="427" d="M411 604L411 700L17 700L17 604L162 604L162 385L82 385L82 325L162 325L162 0L265 0L265 325L346 325L346 385L265 385L265 604Z" />
<glyph glyph-name="tbar" unicode="&#x0167;" horiz-adv-x="316" d="M259 85C207 85 183 112 183 169L183 252L255 252L255 318L183 318L183 439L281 439L281 527L183 527L183 652L87 652L87 527L13 527L13 439L87 439L87 318L30 318L30 252L87 252L87 170C87 61 149 -6 254 -6L291 -6L291 85Z" />
<glyph glyph-name="Umacron" unicode="&#x016a;" horiz-adv-x="530" d="M166 862L166 793L368 793L368 862ZM265 -10C390 -10 471 71 471 216L471 700L367 700L367 216C367 129 328 88 265 88C201 88 162 129 162 216L162 700L58 700L58 216C58 71 139 -10 265 -10Z" />
<glyph glyph-name="umacron" unicode="&#x016b;" horiz-adv-x="469" d="M333 702L131 702L131 634L333 634ZM314 527L314 201C314 123 279 79 224 79C173 79 150 115 150 201L150 527L53 527L53 196C53 52 110 -13 201 -13C261 -13 305 14 332 59L342 0L411 0L411 527Z" />
<glyph glyph-name="Uring" unicode="&#x016e;" horiz-adv-x="530" d="M186 843C186 796 218 764 266 764C315 764 347 796 347 843C347 889 315 920 266 920C218 920 186 889 186 843ZM234 842C234 861 247 874 266 874C285 874 298 861 298 842C298 823 285 810 266 810C247 810 234 823 234 842ZM265 -10C390 -10 471 71 471 216L471 700L367 700L367 216C367 129 328 88 265 88C201 88 162 129 162 216L162 700L58 700L58 216C58 71 139 -10 265 -10Z" />
<glyph glyph-name="uring" unicode="&#x016f;" horiz-adv-x="469" d="M232 604C281 604 313 636 313 683C313 729 281 760 232 760C184 760 152 729 152 683C152 636 184 604 232 604ZM232 714C251 714 264 701 264 682C264 663 251 650 232 650C213 650 200 663 200 682C200 701 213 714 232 714ZM314 527L314 201C314 123 279 79 224 79C173 79 150 115 150 201L150 527L53 527L53 196C53 52 110 -13 201 -13C261 -13 305 14 332 59L342 0L411 0L411 527Z" />
<glyph glyph-name="Uhungarumlaut" unicode="&#x0170;" horiz-adv-x="530" d="M306 893L222 893L150 769L219 769ZM434 893L350 893L273 769L342 769ZM265 -10C390 -10 471 71 471 216L471 700L367 700L367 216C367 129 328 88 265 88C201 88 162 129 162 216L162 700L58 700L58 216C58 71 139 -10 265 -10Z" />
<glyph glyph-name="uhungarumlaut" unicode="&#x0171;" horiz-adv-x="469" d="M269 732L185 732L113 608L182 608ZM305 608L397 732L313 732L236 608ZM314 527L314 201C314 123 279 79 224 79C173 79 150 115 150 201L150 527L53 527L53 196C53 52 110 -13 201 -13C261 -13 305 14 332 59L342 0L411 0L411 527Z" />
<glyph glyph-name="Uogonek" unicode="&#x0172;" horiz-adv-x="527" d="M323 -193C344 -193 365 -191 385 -184L385 -113C376 -115 365 -116 355 -116C336 -116 320 -109 320 -83C320 -42 360 -1 398 35C437 70 468 117 468 211L468 700L364 700L364 211C364 129 326 88 263 88C201 88 162 129 162 211L162 700L58 700L58 211C58 73 137 -8 259 -10C271 -10 282 -6 291 0L292 -1C256 -31 230 -68 230 -110C230 -156 261 -193 323 -193Z" />
<glyph glyph-name="uogonek" unicode="&#x0173;" horiz-adv-x="469" d="M411 0L411 527L314 527L314 201C314 124 279 80 224 80C173 80 150 116 150 201L150 527L53 527L53 197C53 52 110 -12 202 -12C261 -12 305 15 332 60L342 0C292 -32 264 -67 264 -111C264 -155 292 -193 350 -193C370 -193 391 -192 410 -184L410 -113C402 -115 391 -116 384 -116C363 -116 349 -108 349 -87C349 -60 373 -25 411 0Z" />
<glyph glyph-name="Wcircumflex" unicode="&#x0174;" horiz-adv-x="751" d="M381 838L431 768L503 768L422 893L339 893L258 768L330 768ZM639 700L567 317C558 266 541 175 535 131L531 131C525 175 510 261 499 322L429 689L322 689L252 322C241 261 226 175 220 131L216 131C210 175 193 266 184 317L112 700L7 700L164 0L272 0L340 309C355 375 369 477 374 534L378 534C382 477 396 375 411 309L479 0L587 0L744 700Z" />
<glyph glyph-name="wcircumflex" unicode="&#x0175;" horiz-adv-x="636" d="M315 677L365 607L437 607L356 732L273 732L192 607L264 607ZM532 527L485 291C474 232 459 146 455 110L451 110C445 152 430 233 418 295L370 517L267 517L219 295C206 233 192 152 186 110L182 110C177 146 163 232 152 291L105 527L4 527L130 0L235 0L280 191C297 263 312 349 316 399L320 399C325 349 340 263 356 191L402 0L507 0L632 527Z" />
<glyph glyph-name="Ycircumflex" unicode="&#x0176;" horiz-adv-x="446" d="M224 838L274 768L346 768L265 893L182 893L101 768L173 768ZM338 700L260 469L224 357L222 357C212 392 197 437 187 467L108 700L3 700L173 230L173 0L274 0L274 230L444 700Z" />
<glyph glyph-name="ycircumflex" unicode="&#x0177;" horiz-adv-x="417" d="M206 681L256 611L328 611L247 736L164 736L83 611L155 611ZM313 527L215 193L106 527L4 527L174 55L151 -24C138 -67 125 -96 84 -96L51 -96L51 -190L103 -190C182 -190 219 -127 244 -41L413 527Z" />
<glyph glyph-name="Ydieresis" unicode="&#x0178;" horiz-adv-x="446" d="M150 782C180 782 200 801 200 831C200 862 180 881 150 881C120 881 100 862 100 831C100 801 120 782 150 782ZM296 782C326 782 346 801 346 831C346 862 326 881 296 881C265 881 245 862 245 831C245 801 265 782 296 782ZM173 0L274 0L274 230L444 700L338 700L260 469L224 357L222 357C212 392 197 437 187 467L108 700L3 700L173 230Z" />
<glyph glyph-name="Zacute" unicode="&#x0179;" horiz-adv-x="421" d="M151 768L227 768L336 893L244 893ZM140 96L391 631L391 700L32 700L32 604L267 604L17 70L17 0L396 0L396 96Z" />
<glyph glyph-name="zacute" unicode="&#x017a;" horiz-adv-x="366" d="M284 734L194 734L119 610L195 610ZM132 89L339 463L339 527L26 527L26 438L217 438L10 65L10 0L348 0L348 89Z" />
<glyph glyph-name="Zdotaccent" unicode="&#x017b;" horiz-adv-x="421" d="M208 788C244 788 270 815 270 849C270 885 244 911 208 911C172 911 147 885 147 849C147 814 172 788 208 788ZM140 96L391 631L391 700L32 700L32 604L267 604L17 70L17 0L396 0L396 96Z" />
<glyph glyph-name="zdotaccent" unicode="&#x017c;" horiz-adv-x="366" d="M177 615C213 615 239 642 239 676C239 712 213 738 177 738C141 738 116 712 116 676C116 641 141 615 177 615ZM132 89L339 463L339 527L26 527L26 438L217 438L10 65L10 0L348 0L348 89Z" />
<glyph glyph-name="Zcaron" unicode="&#x017d;" horiz-adv-x="421" d="M251 768L332 893L260 893L210 823L159 893L87 893L168 768ZM140 96L391 631L391 700L32 700L32 604L267 604L17 70L17 0L396 0L396 96Z" />
<glyph glyph-name="zcaron" unicode="&#x017e;" horiz-adv-x="366" d="M219 609L300 734L228 734L178 664L127 734L55 734L136 609ZM132 89L339 463L339 527L26 527L26 438L217 438L10 65L10 0L348 0L348 89Z" />
<glyph glyph-name="Scommaaccent" unicode="&#x0218;" horiz-adv-x="465" d="M231 -13C362 -13 435 76 435 180C435 397 141 397 141 534C141 584 174 616 231 616C285 616 320 584 322 517L425 517C422 636 350 713 230 713C112 713 38 637 38 536C38 328 331 320 331 181C331 125 298 85 231 85C169 85 130 120 129 192L26 192C27 64 107 -13 231 -13ZM182 -265L244 -265L287 -70L199 -70Z" />
<glyph glyph-name="scommaaccent" unicode="&#x0219;" horiz-adv-x="417" d="M214 -13C323 -13 389 49 389 142C389 331 129 292 129 392C129 429 157 452 203 452C256 452 282 422 283 372L378 372C374 470 315 540 203 540C100 540 33 483 33 393C33 213 292 249 292 143C292 102 263 77 212 77C151 77 122 114 121 162L25 162C26 65 94 -13 214 -13ZM159 -265L221 -265L264 -70L176 -70Z" />
<glyph glyph-name="uni021A" unicode="&#x021a;" horiz-adv-x="427" d="M411 700L17 700L17 604L162 604L162 0L265 0L265 604L411 604ZM157 -265L219 -265L262 -70L174 -70Z" />
<glyph glyph-name="uni021B" unicode="&#x021b;" horiz-adv-x="306" d="M259 85C207 85 183 112 183 169L183 439L281 439L281 527L183 527L183 652L87 652L87 527L13 527L13 439L87 439L87 170C87 61 149 -6 254 -6L291 -6L291 85ZM121 -265L183 -265L226 -70L138 -70Z" />
<glyph glyph-name="gravecomb" unicode="&#x0300;" horiz-adv-x="0" d="M-165 734L-76 610L0 610L-75 734Z" />
<glyph glyph-name="acutecomb" unicode="&#x0301;" horiz-adv-x="0" d="M0 734L-90 734L-165 610L-89 610Z" />
<glyph glyph-name="uni0302" unicode="&#x0302;" horiz-adv-x="0" d="M1 609L-80 734L-163 734L-244 609L-172 609L-121 679L-71 609Z" />
<glyph glyph-name="tildecomb" unicode="&#x0303;" horiz-adv-x="0" d="M-157 653C-134 653 -120 623 -79 623C-35 623 -5 658 0 715L-63 715C-66 698 -75 688 -89 688C-111 688 -125 718 -167 718C-211 718 -243 685 -246 626L-181 626C-178 644 -169 653 -157 653Z" />
<glyph glyph-name="uni0304" unicode="&#x0304;" horiz-adv-x="0" d="M-202 704L-202 636L0 636L0 704Z" />
<glyph glyph-name="uni0306" unicode="&#x0306;" horiz-adv-x="0" d="M-121 609C-52 609 -4 652 -1 729L-70 729C-72 694 -91 676 -122 676C-152 676 -171 694 -173 729L-242 729C-239 653 -191 609 -121 609Z" />
<glyph glyph-name="uni0307" unicode="&#x0307;" horiz-adv-x="0" d="M-98 615C-62 615 -36 642 -36 676C-36 712 -62 738 -98 738C-134 738 -159 712 -159 676C-159 641 -134 615 -98 615Z" />
<glyph glyph-name="uni0308" unicode="&#x0308;" horiz-adv-x="0" d="M-190 620C-160 620 -140 640 -140 670C-140 700 -160 720 -190 720C-220 720 -240 700 -240 670C-240 640 -220 620 -190 620ZM-50 620C-20 620 0 640 0 670C0 700 -20 720 -50 720C-81 720 -101 700 -101 670C-101 640 -81 620 -50 620Z" />
<glyph glyph-name="uni030A" unicode="&#x030a;" horiz-adv-x="0" d="M-169 685C-169 638 -137 606 -89 606C-40 606 -8 638 -8 685C-8 731 -40 762 -89 762C-137 762 -169 731 -169 685ZM-121 684C-121 703 -108 716 -89 716C-70 716 -57 703 -57 684C-57 665 -70 652 -89 652C-108 652 -121 665 -121 684Z" />
<glyph glyph-name="uni030B" unicode="&#x030b;" horiz-adv-x="0" d="M-128 734L-212 734L-284 610L-215 610ZM0 734L-84 734L-161 610L-92 610Z" />
<glyph glyph-name="uni030C" unicode="&#x030c;" horiz-adv-x="0" d="M-67 734L-117 664L-168 734L-240 734L-159 609L-76 609L5 734Z" />
<glyph glyph-name="uni0312" unicode="&#x0312;" horiz-adv-x="0" d="M-51 800L-114 800L-96 604L0 604Z" />
<glyph glyph-name="uni0326" unicode="&#x0326;" horiz-adv-x="0" d="M-106 -265L-44 -265L-1 -70L-89 -70Z" />
<glyph glyph-name="uni0327" unicode="&#x0327;" horiz-adv-x="0" d="M-110 -206C-50 -206 -9 -172 -9 -119C-9 -76 -41 -48 -81 -48C-86 -48 -90 -48 -93 -49L-79 0L-136 0L-158 -75L-139 -93C-130 -88 -118 -85 -106 -85C-82 -85 -70 -97 -70 -117C-70 -138 -85 -151 -109 -151C-129 -151 -143 -141 -149 -124L-209 -124C-204 -174 -161 -206 -110 -206Z" />
<glyph glyph-name="uni0328" unicode="&#x0328;" horiz-adv-x="0" d="M-5 -184L-5 -113C-14 -115 -25 -116 -35 -116C-55 -116 -70 -108 -70 -85C-70 -61 -48 -25 -15 0L-100 0C-136 -31 -160 -68 -160 -110C-160 -156 -129 -193 -67 -193C-46 -193 -25 -192 -5 -184Z" />
<glyph glyph-name="uni0335" unicode="&#x0335;" horiz-adv-x="0" d="M-210 372L-10 372L-10 428L-210 428Z" />
<glyph glyph-name="uni0336" unicode="&#x0336;" horiz-adv-x="0" d="M-330 428L-330 372L-10 372L-10 428Z" />
<glyph glyph-name="uni0337" unicode="&#x0337;" horiz-adv-x="0" d="M-269 -44L-166 -44L-7 552L-110 552Z" />
<glyph glyph-name="uni0338" unicode="&#x0338;" horiz-adv-x="0" d="M-350 -38L-249 -38L-36 738L-137 738Z" />
<glyph glyph-name="uni0401" unicode="&#x0401;" horiz-adv-x="461" d="M176 782C206 782 226 801 226 831C226 862 206 881 176 881C146 881 126 862 126 831C126 801 146 782 176 782ZM322 782C352 782 372 801 372 831C372 862 352 881 322 881C291 881 271 862 271 831C271 801 291 782 322 782ZM171 95L171 309L394 309L394 402L171 402L171 605L413 605L413 700L70 700L70 0L423 0L423 95Z" />
<glyph glyph-name="uni0402" unicode="&#x0402;" horiz-adv-x="566" d="M375 519C323 519 285 494 260 456L260 604L401 604L401 700L17 700L17 604L157 604L157 0L260 0L260 313C260 385 296 427 349 427C399 427 423 391 423 298L423 186C423 119 395 88 334 87L334 -6C455 -6 519 64 520 185L520 300C520 449 468 519 375 519Z" />
<glyph glyph-name="uni0403" unicode="&#x0403;" horiz-adv-x="422" d="M353 893L261 893L168 768L244 768ZM405 700L70 700L70 0L171 0L171 604L405 604Z" />
<glyph glyph-name="uni0404" unicode="&#x0404;" horiz-adv-x="492" d="M364 202C357 122 321 84 253 84C192 84 153 123 153 206L153 312L332 312L332 399L153 399L153 494C153 578 192 617 251 617C318 617 354 580 360 498L460 498C454 637 379 713 252 713C129 713 50 636 50 494L50 206C50 65 130 -12 253 -12C382 -12 457 64 464 202Z" />
<glyph glyph-name="uni0405" unicode="&#x0405;" horiz-adv-x="465" d="M231 -13C362 -13 435 76 435 180C435 397 141 397 141 534C141 584 174 616 231 616C285 616 320 584 322 517L425 517C422 636 350 713 230 713C112 713 38 637 38 536C38 328 331 320 331 181C331 125 298 85 231 85C169 85 130 120 129 192L26 192C27 64 107 -13 231 -13Z" />
<glyph glyph-name="uni0406" unicode="&#x0406;" horiz-adv-x="240" d="M70 700L70 0L171 0L171 700Z" />
<glyph glyph-name="uni0407" unicode="&#x0407;" horiz-adv-x="240" d="M49 782C79 782 99 801 99 831C99 862 79 881 49 881C19 881 -1 862 -1 831C-1 801 19 782 49 782ZM195 782C225 782 245 801 245 831C245 862 225 881 195 881C164 881 144 862 144 831C144 801 164 782 195 782ZM70 700L70 0L171 0L171 700Z" />
<glyph glyph-name="uni0408" unicode="&#x0408;" horiz-adv-x="284" d="M0 -116C142 -116 217 -36 217 112L217 700L116 700L116 112C116 13 75 -17 0 -17Z" />
<glyph glyph-name="uni0409" unicode="&#x0409;" horiz-adv-x="752" d="M0 -10C98 -10 152 31 173 158C186 242 195 419 203 605L345 605L345 0L521 0C657 0 732 72 732 207C732 338 659 420 521 420L448 420L448 700L108 700C97 425 89 254 78 183C68 113 45 83 0 83ZM448 94L448 324L515 324C587 324 628 286 628 210C628 132 587 94 515 94Z" />
<glyph glyph-name="uni040A" unicode="&#x040a;" horiz-adv-x="781" d="M548 414L466 414L466 700L365 700L365 412L171 412L171 700L70 700L70 0L171 0L171 317L365 317L365 0L548 0C688 0 761 72 761 208C761 332 688 414 548 414ZM543 94L466 94L466 318L543 318C615 318 656 281 656 208C656 131 615 94 543 94Z" />
<glyph glyph-name="uni040B" unicode="&#x040b;" horiz-adv-x="573" d="M375 519C323 519 285 494 260 456L260 604L401 604L401 700L17 700L17 604L157 604L157 0L260 0L260 314C263 386 297 427 349 427C399 427 423 391 423 298L423 0L520 0L520 300C520 449 468 519 375 519Z" />
<glyph glyph-name="uni040C" unicode="&#x040c;" horiz-adv-x="503" d="M352 893L260 893L167 768L243 768ZM387 0L503 0L274 395L474 700L356 700L216 478L170 396L170 700L70 700L70 0L170 0L170 237L216 306Z" />
<glyph glyph-name="uni040D" unicode="&#x040d;" horiz-adv-x="554" d="M342 768L249 893L157 893L266 768ZM70 0L172 0L341 383C358 422 378 476 391 512L394 510C389 452 385 358 385 305L385 0L484 0L484 700L381 700L211 314C192 273 174 224 161 190L158 192C165 253 169 344 169 394L169 700L70 700Z" />
<glyph glyph-name="uni040E" unicode="&#x040e;" horiz-adv-x="436" d="M221 768C290 768 338 811 341 888L272 888C270 853 251 835 220 835C190 835 171 853 169 888L100 888C103 812 151 768 221 768ZM327 700L226 359L112 700L5 700L181 205L173 179C152 109 129 81 75 81L47 81L47 -10L72 -10C178 -10 227 31 263 147L433 700Z" />
<glyph glyph-name="uni040F" unicode="&#x040f;" horiz-adv-x="539" d="M220 -117L319 -117L319 0L470 0L470 700L369 700L369 96L171 96L171 700L70 700L70 0L220 0Z" />
<glyph glyph-name="uni0410" unicode="&#x0410;" horiz-adv-x="476" d="M363 0L468 0L292 700L183 700L7 0L113 0L145 141L330 141ZM167 235L210 423C221 469 231 536 236 573L239 573C244 536 255 469 265 423L309 235Z" />
<glyph glyph-name="uni0411" unicode="&#x0411;" horiz-adv-x="502" d="M262 424L171 424L171 605L434 605L434 700L70 700L70 0L262 0C396 0 472 73 472 213C472 341 396 424 262 424ZM256 96L171 96L171 330L256 330C324 330 369 291 369 213C369 134 324 96 256 96Z" />
<glyph glyph-name="uni0412" unicode="&#x0412;" horiz-adv-x="506" d="M375 360C418 387 446 442 446 510C446 627 373 700 260 700L70 700L70 0L270 0C392 0 472 75 472 200C472 276 435 335 375 360ZM248 605C313 605 343 573 343 507C343 439 312 404 251 404L171 404L171 605ZM257 95L171 95L171 309L253 309C324 309 369 272 369 200C369 129 331 95 257 95Z" />
<glyph glyph-name="uni0413" unicode="&#x0413;" horiz-adv-x="422" d="M405 700L70 700L70 0L171 0L171 604L405 604Z" />
<glyph glyph-name="uni0414" unicode="&#x0414;" horiz-adv-x="556" d="M475 95L475 700L138 700L126 362C122 252 98 147 47 95L6 95L6 -117L105 -117L105 0L438 0L438 -117L537 -117L537 95ZM375 95L168 95C201 154 219 235 223 334L233 605L375 605Z" />
<glyph glyph-name="uni0415" unicode="&#x0415;" horiz-adv-x="461" d="M171 95L171 309L394 309L394 402L171 402L171 605L413 605L413 700L70 700L70 0L423 0L423 95Z" />
<glyph glyph-name="uni0416" unicode="&#x0416;" horiz-adv-x="724" d="M610 0L724 0L501 382L707 700L591 700L462 487L411 396L411 700L313 700L313 397L265 484L133 700L17 700L223 382L0 0L114 0L279 297L313 244L313 0L411 0L411 244L445 297Z" />
<glyph glyph-name="uni0417" unicode="&#x0417;" horiz-adv-x="487" d="M335 363C410 391 438 440 438 514C438 639 359 714 239 714C109 714 40 627 33 499L133 499C137 569 166 617 239 617C301 617 336 579 336 515C336 439 293 405 220 405L176 405L176 315L229 315C303 315 354 275 354 199C354 126 305 84 239 84C164 84 127 138 123 200L21 200C27 82 106 -13 240 -13C363 -13 456 64 456 194C456 275 425 338 335 363Z" />
<glyph glyph-name="uni0418" unicode="&#x0418;" horiz-adv-x="554" d="M70 0L172 0L341 383C358 422 378 476 391 512L394 510C389 452 385 358 385 305L385 0L484 0L484 700L381 700L211 314C192 273 174 224 161 190L158 192C165 253 169 344 169 394L169 700L70 700Z" />
<glyph glyph-name="uni0419" unicode="&#x0419;" horiz-adv-x="554" d="M280 768C349 768 397 811 400 888L331 888C329 853 310 835 279 835C249 835 230 853 228 888L159 888C162 812 210 768 280 768ZM70 0L172 0L341 383C358 422 378 476 391 512L394 510C389 452 385 358 385 305L385 0L484 0L484 700L381 700L211 314C192 273 174 224 161 190L158 192C165 253 169 344 169 394L169 700L70 700Z" />
<glyph glyph-name="uni041A" unicode="&#x041a;" horiz-adv-x="503" d="M387 0L503 0L274 395L474 700L356 700L216 478L170 396L170 700L70 700L70 0L170 0L170 237L216 306Z" />
<glyph glyph-name="uni041B" unicode="&#x041b;" horiz-adv-x="525" d="M109 700C97 411 88 254 77 181C66 109 44 82 0 82L0 -10C97 -10 156 31 174 158C187 241 196 401 206 605L354 605L354 0L455 0L455 700Z" />
<glyph glyph-name="uni041C" unicode="&#x041c;" horiz-adv-x="688" d="M515 700L397 416C381 376 357 309 346 277L342 277C331 309 307 376 291 416L173 700L70 700L70 0L169 0L169 273C167 353 164 426 161 499L165 501C185 445 209 381 233 317L294 158L394 158L455 317C479 381 503 445 523 501L527 499C523 426 521 353 519 273L519 0L618 0L618 700Z" />
<glyph glyph-name="uni041D" unicode="&#x041d;" horiz-adv-x="540" d="M369 700L369 402L171 402L171 700L70 700L70 0L171 0L171 307L369 307L369 0L470 0L470 700Z" />
<glyph glyph-name="uni041E" unicode="&#x041e;" horiz-adv-x="528" d="M264 -13C398 -13 478 76 478 222L478 478C478 624 398 713 264 713C130 713 50 624 50 478L50 222C50 76 130 -13 264 -13ZM264 86C191 86 154 134 154 222L154 478C154 566 191 614 264 614C336 614 374 566 374 478L374 222C374 134 336 86 264 86Z" />
<glyph glyph-name="uni041F" unicode="&#x041f;" horiz-adv-x="539" d="M470 700L70 700L70 0L171 0L171 604L369 604L369 0L470 0Z" />
<glyph glyph-name="uni0420" unicode="&#x0420;" horiz-adv-x="501" d="M255 700L70 700L70 0L171 0L171 246L255 246C392 246 470 327 470 474C470 617 392 700 255 700ZM254 342L171 342L171 604L254 604C330 604 367 560 367 474C367 384 330 342 254 342Z" />
<glyph glyph-name="uni0421" unicode="&#x0421;" horiz-adv-x="492" d="M253 -12C382 -12 457 64 464 202L364 202C357 122 321 84 253 84C192 84 153 123 153 206L153 494C153 578 192 617 251 617C318 617 354 580 360 498L460 498C454 637 379 713 252 713C129 713 50 636 50 494L50 206C50 65 130 -12 253 -12Z" />
<glyph glyph-name="uni0422" unicode="&#x0422;" horiz-adv-x="427" d="M411 700L17 700L17 604L162 604L162 0L265 0L265 604L411 604Z" />
<glyph glyph-name="uni0423" unicode="&#x0423;" horiz-adv-x="436" d="M327 700L226 359L112 700L5 700L181 205L173 179C152 109 129 81 75 81L47 81L47 -10L72 -10C178 -10 227 31 263 147L433 700Z" />
<glyph glyph-name="uni0424" unicode="&#x0424;" horiz-adv-x="668" d="M284 -62L384 -62L384 16L400 16C541 16 640 108 640 272L640 425C640 590 541 684 400 684L384 684L384 758L284 758L284 684L268 684C127 684 28 590 28 425L28 272C28 108 127 16 268 16L284 16ZM264 113C181 113 129 162 129 272L129 425C129 538 181 587 264 587L284 587L284 113ZM384 113L384 587L403 587C487 587 539 538 539 425L539 272C539 161 487 113 403 113Z" />
<glyph glyph-name="uni0425" unicode="&#x0425;" horiz-adv-x="476" d="M461 0L294 363L451 700L340 700L239 463L137 700L26 700L183 363L16 0L128 0L239 259L349 0Z" />
<glyph glyph-name="uni0426" unicode="&#x0426;" horiz-adv-x="549" d="M431 -117L530 -117L530 96L466 96L466 700L365 700L365 96L171 96L171 700L70 700L70 0L431 0Z" />
<glyph glyph-name="uni0427" unicode="&#x0427;" horiz-adv-x="509" d="M338 700L338 351C310 340 282 336 254 336C180 336 138 376 138 461L138 700L37 700L37 464C37 322 116 241 243 241C273 241 308 246 338 257L338 -2L439 -2L439 700Z" />
<glyph glyph-name="uni0428" unicode="&#x0428;" horiz-adv-x="805" d="M70 0L735 0L735 700L635 700L635 96L452 96L452 700L352 700L352 96L170 96L170 700L70 700Z" />
<glyph glyph-name="uni0429" unicode="&#x0429;" horiz-adv-x="815" d="M733 96L733 700L633 700L633 96L451 96L451 700L351 700L351 96L170 96L170 700L70 700L70 0L696 0L696 -117L795 -117L795 96Z" />
<glyph glyph-name="uni042A" unicode="&#x042a;" horiz-adv-x="557" d="M143 0L324 0C464 0 537 73 537 211C537 338 464 422 324 422L245 422L245 700L15 700L15 607L143 607ZM245 94L245 326L318 326C392 326 434 288 434 211C434 132 392 94 318 94Z" />
<glyph glyph-name="uni042B" unicode="&#x042b;" horiz-adv-x="709" d="M70 0L244 0C383 0 456 72 456 210C456 337 383 420 244 420L173 420L173 700L70 700ZM539 0L640 0L640 700L539 700ZM173 94L173 324L239 324C310 324 351 286 351 210C351 132 310 94 239 94Z" />
<glyph glyph-name="uni042C" unicode="&#x042c;" horiz-adv-x="487" d="M70 0L257 0C393 0 467 72 467 210C467 337 393 421 257 421L171 421L171 700L70 700ZM171 93L171 325L252 325C321 325 363 287 363 210C363 131 321 93 252 93Z" />
<glyph glyph-name="uni042D" unicode="&#x042d;" horiz-adv-x="492" d="M240 713C113 713 38 637 32 498L132 498C138 580 174 617 241 617C300 617 339 578 339 494L339 399L160 399L160 312L339 312L339 206C339 123 300 84 239 84C171 84 135 122 128 202L28 202C35 64 110 -12 239 -12C362 -12 442 65 442 206L442 494C442 636 363 713 240 713Z" />
<glyph glyph-name="uni042E" unicode="&#x042e;" horiz-adv-x="756" d="M494 710C361 710 283 621 283 471L283 402L170 402L170 700L70 700L70 0L170 0L170 307L283 307L283 229C283 79 361 -10 494 -10C627 -10 705 79 705 229L705 471C705 621 627 710 494 710ZM602 229C602 136 565 88 494 88C423 88 387 136 387 229L387 471C387 564 423 612 494 612C565 612 602 564 602 471Z" />
<glyph glyph-name="uni042F" unicode="&#x042f;" horiz-adv-x="502" d="M17 0L129 0L269 253L331 253L331 0L432 0L432 700L252 700C121 700 43 618 43 475C43 371 88 297 168 270ZM252 348C183 348 146 394 146 477C146 561 183 604 253 604L331 604L331 348Z" />
<glyph glyph-name="uni0430" unicode="&#x0430;" horiz-adv-x="454" d="M225 540C119 540 51 478 46 377L143 377C148 424 180 447 223 447C276 447 299 412 299 350L299 313L222 313C106 313 31 258 31 150C31 51 96 -13 193 -13C251 -13 289 14 310 49L317 0L396 0L396 350C396 471 338 540 225 540ZM299 157C299 107 266 73 213 73C160 73 129 102 129 150C129 202 163 229 222 229L299 229Z" />
<glyph glyph-name="uni0431" unicode="&#x0431;" horiz-adv-x="471" d="M261 490C217 490 180 475 154 446L154 473C154 562 219 583 273 598C324 613 367 635 396 689L326 746C301 707 280 699 229 682C143 652 58 601 58 467L58 188C58 60 129 -11 241 -11C355 -11 426 60 426 188L426 293C426 419 358 490 261 490ZM327 188C327 115 296 83 241 83C188 83 156 115 156 188L156 291C156 368 196 396 243 396C296 396 327 363 327 287Z" />
<glyph glyph-name="uni0432" unicode="&#x0432;" horiz-adv-x="430" d="M323 280C360 304 381 343 381 381C381 472 323 527 216 527L58 527L58 0L224 0C347 0 408 58 408 153C408 205 382 257 323 280ZM152 446L210 446C260 446 286 420 286 379C286 335 260 311 211 311L152 311ZM228 82L152 82L152 229L228 229C285 229 312 204 312 156C312 108 285 82 228 82Z" />
<glyph glyph-name="uni0433" unicode="&#x0433;" horiz-adv-x="346" d="M332 528L58 528L58 0L156 0L156 435L332 435Z" />
<glyph glyph-name="uni0434" unicode="&#x0434;" horiz-adv-x="476" d="M0 -117L93 -117L93 0L371 0L371 -117L464 -117L464 89L404 89L404 527L98 527C96 443 92 358 87 274C82 200 69 131 40 89L0 89ZM150 89C166 131 176 185 181 252C186 314 188 376 189 438L308 438L308 89Z" />
<glyph glyph-name="uni0435" unicode="&#x0435;" horiz-adv-x="454" d="M320 165C311 108 286 82 227 82C174 82 143 115 143 187L143 227L410 227L410 344C410 469 339 540 226 540C115 540 46 469 46 344L46 187C46 61 115 -11 225 -11C339 -11 408 53 417 165ZM227 449C282 449 314 417 314 345L314 300L143 300L143 345C143 417 174 449 227 449Z" />
<glyph glyph-name="uni0436" unicode="&#x0436;" horiz-adv-x="632" d="M526 0L635 0L454 301L617 527L504 527L426 407C406 375 384 340 363 305L363 527L270 527L270 305C249 340 227 375 207 407L129 527L16 527L179 301L-3 0L106 0L239 226L270 191L270 0L363 0L363 192L393 226Z" />
<glyph glyph-name="uni0437" unicode="&#x0437;" horiz-adv-x="419" d="M314 278C345 295 376 329 376 386C376 475 308 537 204 537C96 537 34 475 28 368L122 368C126 423 153 449 206 449C255 449 282 421 282 379C282 333 253 308 205 308L141 308L141 233L208 233C265 233 297 206 297 161C297 107 263 78 207 78C148 78 115 108 111 154L18 154C23 54 92 -12 207 -12C319 -12 392 53 392 156C392 215 355 259 314 278Z" />
<glyph glyph-name="uni0438" unicode="&#x0438;" horiz-adv-x="467" d="M58 0L157 0L258 211C279 256 312 351 317 373L320 372C317 319 315 253 315 202L315 0L409 0L409 527L310 527L208 306C191 263 161 184 153 157L150 159C152 216 152 263 152 305L152 527L58 527Z" />
<glyph glyph-name="uni0439" unicode="&#x0439;" horiz-adv-x="467" d="M235 609C304 609 352 652 355 729L286 729C284 694 265 676 234 676C204 676 185 694 183 729L114 729C117 653 165 609 235 609ZM58 0L157 0L258 211C279 256 312 351 317 373L320 372C317 319 315 253 315 202L315 0L409 0L409 527L310 527L208 306C191 263 161 184 153 157L150 159C152 216 152 263 152 305L152 527L58 527Z" />
</font>
</defs>
</svg>
