<?xml version="1.0" standalone="no"?><!DOCTYPE svg PUBLIC "-//W3C//DTD SVG 1.1//EN" "http://www.w3.org/Graphics/SVG/1.1/DTD/svg11.dtd" ><svg xmlns="http://www.w3.org/2000/svg"><metadata></metadata><defs>
<font id="Akrobat-ExtraBold" >
<font-face font-family="Akrobat ExtraBold" font-stretch="normal" units-per-em="1000" weight="800" panose-1="0,0,9,0,0,0,0,0,0,0" ascent="1000" descent="-200" x-height="529" underline-thickness="50" underline-position="-75" unicode-range="U+00000032-00009674" bbox="-532,-273,815,986" />
<missing-glyph horiz-adv-x="500" d="M410 800L93 800L93 -200L410 -200ZM333 733L333 700L267 700L267 663L333 663L333 630L167 630L167 663L233 663L233 700L168 700L168 733ZM267 604L267 534L333 534L333 500L167 500L167 604ZM233 570L200 570L200 534L233 534ZM333 473L333 440L267 440L267 370L167 370L167 403L233 403L233 440L167 440L167 473ZM333 413L333 313L167 313L167 347L300 347L300 413ZM333 291L333 178L167 178L167 291L200 291L200 211L300 211L300 258L267 258L267 235L233 235L233 291ZM333 118L333 5L167 5L167 118ZM300 85L200 85L200 38L300 38ZM333 -18L333 -51L301 -51L231 -98L333 -98L333 -131L167 -131L167 -98L237 -51L167 -51L167 -18Z" />
<glyph glyph-name="space" unicode="&#x20;" horiz-adv-x="207" d="" />
<glyph glyph-name="exclam" unicode="&#x21;" horiz-adv-x="266" d="M73 181L192 181L192 700L73 700ZM133 -12C174 -12 201 16 201 57C201 98 174 125 133 125C92 125 65 98 65 57C65 16 92 -12 133 -12Z" />
<glyph glyph-name="quotedbl" unicode="&#x22;" horiz-adv-x="313" d="M42 700L21 450L92 450L154 700ZM187 700L167 450L237 450L300 700Z" />
<glyph glyph-name="numbersign" unicode="&#x23;" horiz-adv-x="646" d="M84 0L191 0L231 174L337 174L297 0L405 0L445 174L560 174L580 261L464 261L503 428L618 428L638 515L523 515L565 700L457 700L414 515L309 515L351 700L244 700L201 515L86 515L66 428L181 428L143 261L28 261L8 174L124 174ZM250 261L289 428L394 428L356 261Z" />
<glyph glyph-name="dollar" unicode="&#x24;" horiz-adv-x="472" d="M446 183C446 403 161 407 161 529C161 569 188 595 234 595C281 595 309 568 310 512L436 512C435 619 379 691 284 709L284 785L182 785L182 709C90 690 36 621 36 532C36 321 318 311 318 184C318 139 291 106 235 106C182 106 149 135 148 198L22 198C23 82 83 9 182 -9L182 -85L284 -85L284 -10C388 9 446 87 446 183Z" />
<glyph glyph-name="percent" unicode="&#x25;" horiz-adv-x="593" d="M111 388C174 388 216 426 216 497L216 601C216 672 174 711 111 711C48 711 6 672 6 601L6 497C6 426 48 388 111 388ZM17 0L99 0L575 700L493 700ZM111 453C90 453 78 464 78 496L78 602C78 635 90 646 111 646C132 646 143 635 143 602L143 496C143 464 132 453 111 453ZM468 -9C531 -9 573 29 573 101L573 204C573 276 531 315 468 315C405 315 363 276 363 204L363 101C363 29 405 -9 468 -9ZM468 56C447 56 435 67 435 99L435 206C435 238 447 249 468 249C489 249 500 238 500 206L500 99C500 67 489 56 468 56Z" />
<glyph glyph-name="ampersand" unicode="&#x26;" horiz-adv-x="597" d="M560 0C527 50 496 95 468 136C497 184 519 239 532 291L422 291C418 275 411 255 401 233C366 283 337 324 312 358C367 412 419 471 419 554C419 634 374 714 262 714C153 714 105 630 105 554C105 502 132 444 175 375C119 320 66 255 66 164C66 47 154 -14 245 -14C306 -14 359 12 402 53C414 36 426 18 438 0ZM211 550C211 593 235 612 262 612C298 612 312 580 312 552C312 515 287 482 252 448C224 493 211 523 211 550ZM251 96C211 96 181 125 181 173C181 215 204 250 237 285C268 241 303 194 340 142C314 115 284 96 251 96Z" />
<glyph glyph-name="quotesingle" unicode="&#x27;" horiz-adv-x="168" d="M42 700L21 450L92 450L154 700Z" />
<glyph glyph-name="parenleft" unicode="&#x28;" horiz-adv-x="302" d="M260 -123L260 -13C210 -11 184 17 184 71L184 626C184 680 210 709 260 710L260 820C136 819 66 744 66 619L66 78C66 -47 136 -122 260 -123Z" />
<glyph glyph-name="parenright" unicode="&#x29;" horiz-adv-x="302" d="M42 -123C166 -122 236 -47 236 78L236 619C236 744 166 819 42 820L42 710C92 709 118 680 118 626L118 71C118 17 92 -11 42 -13Z" />
<glyph glyph-name="asterisk" unicode="&#x2a;" horiz-adv-x="313" d="M111 480L156 542L202 480L264 525L218 588L292 611L268 684L195 660L195 737L118 737L118 660L45 684L21 611L95 587L49 525Z" />
<glyph glyph-name="plus" unicode="&#x2b;" horiz-adv-x="471" d="M430 364L290 364L290 508L181 508L181 364L41 364L41 256L181 256L181 112L290 112L290 256L430 256Z" />
<glyph glyph-name="comma" unicode="&#x2c;" horiz-adv-x="181" d="M44 110L24 -140L94 -140L157 110Z" />
<glyph glyph-name="hyphen" unicode="&#x2d;" horiz-adv-x="315" d="M34 206L281 206L281 308L34 308Z" />
<glyph glyph-name="period" unicode="&#x2e;" horiz-adv-x="200" d="M100 -12C141 -12 169 16 169 57C169 98 141 125 100 125C59 125 32 98 32 57C32 16 59 -12 100 -12Z" />
<glyph glyph-name="slash" unicode="&#x2f;" horiz-adv-x="433" d="M326 815L5 -121L108 -121L428 815Z" />
<glyph glyph-name="zero" unicode="&#x30;" horiz-adv-x="480" d="M239 -10C361 -10 434 67 434 194L434 504C434 632 361 710 239 710C119 710 46 632 46 504L46 194C46 67 119 -10 239 -10ZM239 100C187 100 159 133 159 194L159 504C159 566 187 600 239 600C292 600 321 566 321 504L321 194C321 133 292 100 239 100Z" />
<glyph glyph-name="one" unicode="&#x31;" horiz-adv-x="307" d="M162 700L24 608L24 478L124 541L124 1L241 1L241 700Z" />
<glyph glyph-name="two" unicode="&#x32;" horiz-adv-x="430" d="M25 0L401 0L401 109L148 109C148 238 397 351 397 535C397 623 337 712 212 712C103 712 37 643 31 517L143 517C145 571 171 601 213 601C259 601 280 567 280 530C280 400 25 302 25 76Z" />
<glyph glyph-name="three" unicode="&#x33;" horiz-adv-x="429" d="M255 429L375 622L375 700L37 700L37 593L232 593L125 417L125 338L190 338C243 338 273 317 273 245L273 207C273 135 254 103 200 103C156 103 133 129 129 191L13 191C17 61 85 -12 202 -12C333 -12 391 63 391 204L391 249C391 340 342 420 255 429Z" />
<glyph glyph-name="four" unicode="&#x34;" horiz-adv-x="447" d="M445 273L370 273L370 512L273 512L257 273L135 273L260 700L143 700L7 229L7 166L255 166L255 0L370 0L370 166L445 166Z" />
<glyph glyph-name="five" unicode="&#x35;" horiz-adv-x="446" d="M251 480C221 480 193 470 171 456L171 595L391 595L391 700L54 700L54 307L169 307C178 350 200 368 236 368C274 368 295 345 295 276L295 201C295 126 272 103 231 103C191 103 169 125 166 184L47 184C50 62 120 -12 231 -12C342 -12 414 63 414 203L414 275C414 406 347 480 251 480Z" />
<glyph glyph-name="six" unicode="&#x36;" horiz-adv-x="454" d="M251 458C219 458 187 447 165 429L165 526C165 574 191 597 231 597C270 597 293 571 297 526L415 526C411 639 338 712 231 712C121 712 46 638 46 524L46 177C46 63 123 -12 232 -12C342 -12 419 63 419 177L419 282C419 385 349 458 251 458ZM300 178C300 130 273 103 232 103C192 103 165 130 165 178L165 274C165 322 191 350 232 350C273 350 300 322 300 274Z" />
<glyph glyph-name="seven" unicode="&#x37;" horiz-adv-x="379" d="M-7 700L-7 592L226 592L48 0L171 0L359 615L359 700Z" />
<glyph glyph-name="eight" unicode="&#x38;" horiz-adv-x="465" d="M355 367C392 401 415 450 415 504L415 522C415 637 343 712 233 712C122 712 51 637 51 522L51 504C51 451 73 400 110 366C66 336 39 281 39 219L39 191C39 64 115 -12 233 -12C350 -12 427 64 427 191L427 219C427 281 400 336 355 367ZM166 518C166 573 190 598 233 598C275 598 299 573 299 518L299 500C299 444 275 416 233 416C190 416 166 444 166 500ZM309 191C309 132 282 104 233 104C183 104 156 132 156 191L156 218C156 277 183 306 233 306C282 306 309 277 309 218Z" />
<glyph glyph-name="nine" unicode="&#x39;" horiz-adv-x="454" d="M222 712C112 712 35 637 35 523L35 418C35 315 105 242 203 242C235 242 267 253 289 271L289 174C289 126 263 103 223 103C184 103 161 129 157 174L39 174C43 61 116 -12 223 -12C333 -12 408 62 408 176L408 523C408 637 331 712 222 712ZM222 350C181 350 154 378 154 426L154 522C154 570 181 597 222 597C262 597 289 570 289 522L289 426C289 378 263 350 222 350Z" />
<glyph glyph-name="colon" unicode="&#x3a;" horiz-adv-x="186" d="M99 328C140 328 168 356 168 397C168 438 140 465 99 465C58 465 31 438 31 397C31 356 58 328 99 328ZM99 -12C140 -12 168 16 168 57C168 98 140 125 99 125C58 125 31 98 31 57C31 16 58 -12 99 -12Z" />
<glyph glyph-name="semicolon" unicode="&#x3b;" horiz-adv-x="190" d="M98 330C139 330 166 358 166 398C166 439 139 467 98 467C57 467 29 439 29 398C29 358 57 330 98 330ZM44 110L24 -140L94 -140L157 110Z" />
<glyph glyph-name="less" unicode="&#x3c;" horiz-adv-x="441" d="M400 492L41 356L41 242L400 105L400 215L162 299L400 382Z" />
<glyph glyph-name="equal" unicode="&#x3d;" horiz-adv-x="471" d="M41 350L430 350L430 457L41 457ZM41 153L430 153L430 259L41 259Z" />
<glyph glyph-name="greater" unicode="&#x3e;" horiz-adv-x="441" d="M41 492L41 382L279 299L41 215L41 105L400 242L400 356Z" />
<glyph glyph-name="question" unicode="&#x3f;" horiz-adv-x="403" d="M127 181L243 181L243 216C243 356 379 376 379 530C379 641 300 713 191 713C79 713 11 636 4 513L118 513C120 570 144 604 192 604C243 604 262 568 262 529C262 414 127 403 127 215ZM186 -12C227 -12 255 16 255 57C255 98 227 125 186 125C145 125 118 98 118 57C118 16 145 -12 186 -12Z" />
<glyph glyph-name="at" unicode="&#x40;" horiz-adv-x="818" d="M416 728C183 728 42 602 42 379L42 264C42 19 183 -120 432 -120C542 -120 622 -95 680 -55L633 16C580 -11 510 -30 426 -30C237 -30 136 73 136 264L136 379C136 547 235 637 417 637C590 637 682 556 682 399L682 291C682 220 656 182 607 182C562 182 553 211 553 256L553 504L482 504L475 466C456 498 429 518 384 518C313 518 257 469 257 361L257 243C257 143 309 90 390 90C451 90 484 122 501 156C518 122 546 92 607 92C685 92 776 145 776 291L776 399C776 609 645 728 416 728ZM403 181C372 181 354 203 354 246L354 364C354 406 373 427 404 427C439 427 458 398 458 358L458 252C458 206 436 181 403 181Z" />
<glyph glyph-name="A" unicode="&#x41;" horiz-adv-x="485" d="M353 0L481 0L309 700L177 700L5 0L133 0L161 127L325 127ZM186 244L214 374C224 422 235 499 241 546L244 546C251 499 262 422 272 374L300 244Z" />
<glyph glyph-name="B" unicode="&#x42;" horiz-adv-x="513" d="M392 359C432 390 456 445 456 505C456 623 381 700 271 700L66 700L66 0L277 0C398 0 481 80 481 205C481 273 448 331 392 359ZM252 584C306 584 331 556 331 500C331 443 306 412 256 412L189 412L189 584ZM258 116L189 116L189 297L257 297C319 297 355 266 355 205C355 146 322 116 258 116Z" />
<glyph glyph-name="C" unicode="&#x43;" horiz-adv-x="498" d="M256 -12C391 -12 470 66 475 208L352 208C347 138 317 107 256 107C204 107 173 140 173 210L173 490C173 562 204 595 255 595C315 595 345 564 349 492L472 492C466 635 390 714 256 714C125 714 46 635 46 490L46 210C46 66 126 -12 256 -12Z" />
<glyph glyph-name="D" unicode="&#x44;" horiz-adv-x="515" d="M66 0L251 0C388 0 469 85 469 229L469 474C469 617 388 700 249 700L66 700ZM189 117L189 583L251 583C312 583 345 546 345 474L345 230C345 156 312 117 251 117Z" />
<glyph glyph-name="E" unicode="&#x45;" horiz-adv-x="465" d="M189 116L189 299L399 299L399 411L189 411L189 584L418 584L418 700L66 700L66 0L428 0L428 116Z" />
<glyph glyph-name="F" unicode="&#x46;" horiz-adv-x="428" d="M404 584L404 700L66 700L66 0L189 0L189 296L385 296L385 409L189 409L189 584Z" />
<glyph glyph-name="G" unicode="&#x47;" horiz-adv-x="512" d="M260 -12C392 -12 470 67 473 209L473 386L256 386L256 277L353 277L353 209C353 138 321 107 262 107C205 107 173 138 173 211L173 489C173 562 204 593 260 593C316 593 343 563 346 492L469 492C464 634 390 712 260 712C126 712 46 634 46 489L46 211C46 67 127 -12 260 -12Z" />
<glyph glyph-name="H" unicode="&#x48;" horiz-adv-x="548" d="M358 700L358 412L189 412L189 700L66 700L66 0L189 0L189 295L358 295L358 0L482 0L482 700Z" />
<glyph glyph-name="I" unicode="&#x49;" horiz-adv-x="254" d="M66 700L66 0L189 0L189 700Z" />
<glyph glyph-name="J" unicode="&#x4a;" horiz-adv-x="304" d="M0 -136C159 -136 241 -45 241 109L241 700L118 700L118 109C118 14 76 -14 0 -14Z" />
<glyph glyph-name="K" unicode="&#x4b;" horiz-adv-x="517" d="M377 0L517 0L299 395L487 700L345 700L228 495L187 413L187 700L66 700L66 0L187 0L187 218L230 285Z" />
<glyph glyph-name="L" unicode="&#x4c;" horiz-adv-x="414" d="M189 117L189 700L66 700L66 0L408 0L408 117Z" />
<glyph glyph-name="M" unicode="&#x4d;" horiz-adv-x="708" d="M518 700L405 426C390 389 365 325 356 296L352 296C343 325 319 389 304 426L190 700L66 700L66 0L186 0L186 219C183 301 180 381 176 460L181 462C202 404 224 341 246 278L293 154L415 154L462 278C484 341 507 404 527 462L532 460C528 381 525 301 522 219L522 0L643 0L643 700Z" />
<glyph glyph-name="N" unicode="&#x4e;" horiz-adv-x="563" d="M376 700L376 487C376 423 383 310 393 231L390 228C373 271 352 326 334 371L188 700L66 700L66 0L187 0L187 201C187 274 181 393 172 472L175 475C194 423 219 359 240 304L375 0L497 0L497 700Z" />
<glyph glyph-name="O" unicode="&#x4f;" horiz-adv-x="533" d="M267 -12C405 -12 487 77 487 225L487 475C487 623 405 712 267 712C128 712 46 623 46 475L46 225C46 77 128 -12 267 -12ZM267 107C205 107 173 149 173 225L173 475C173 551 205 593 267 593C329 593 360 551 360 475L360 225C360 149 329 107 267 107Z" />
<glyph glyph-name="P" unicode="&#x50;" horiz-adv-x="514" d="M260 700L66 700L66 0L189 0L189 235L260 235C401 235 484 320 484 467C484 614 401 700 260 700ZM259 351L189 351L189 583L259 583C325 583 358 544 358 467C358 390 325 351 259 351Z" />
<glyph glyph-name="Q" unicode="&#x51;" horiz-adv-x="542" d="M493 475C493 623 410 712 271 712C132 712 50 623 50 475L50 225C50 77 132 -12 271 -12C302 -12 330 -8 356 1L419 -76L491 -13L436 53C473 94 493 152 493 225ZM177 225L177 475C177 551 209 593 271 593C333 593 365 551 365 475L365 225C365 149 333 107 271 107C209 107 177 149 177 225Z" />
<glyph glyph-name="R" unicode="&#x52;" horiz-adv-x="516" d="M370 0L505 0L364 266C435 300 474 372 474 474C474 617 395 700 258 700L66 700L66 0L189 0L189 244L245 244ZM189 583L257 583C316 583 348 545 348 473C348 400 316 361 257 361L189 361Z" />
<glyph glyph-name="S" unicode="&#x53;" horiz-adv-x="472" d="M234 -14C369 -14 446 73 446 183C446 403 161 407 161 529C161 569 188 595 234 595C281 595 309 568 310 512L436 512C435 637 359 714 234 714C110 714 36 636 36 532C36 321 318 311 318 184C318 139 291 106 235 106C182 106 149 135 148 198L22 198C23 63 105 -14 234 -14Z" />
<glyph glyph-name="T" unicode="&#x54;" horiz-adv-x="440" d="M424 700L16 700L16 583L157 583L157 0L283 0L283 583L424 583Z" />
<glyph glyph-name="U" unicode="&#x55;" horiz-adv-x="538" d="M269 -11C403 -11 485 74 485 221L485 700L357 700L357 221C357 146 325 108 269 108C213 108 181 146 181 221L181 700L54 700L54 221C54 74 136 -11 269 -11Z" />
<glyph glyph-name="V" unicode="&#x56;" horiz-adv-x="479" d="M174 0L305 0L474 700L346 700L273 344C262 288 250 210 241 153L237 153C229 210 217 288 206 344L133 700L5 700Z" />
<glyph glyph-name="W" unicode="&#x57;" horiz-adv-x="773" d="M641 700L578 345C569 294 554 205 548 154L544 154C537 205 522 292 513 347L451 690L322 690L260 347C251 292 236 205 229 154L225 154C219 205 204 294 195 345L132 700L5 700L162 0L293 0L351 269C367 340 380 439 385 496L389 496C393 439 406 340 422 269L480 0L611 0L768 700Z" />
<glyph glyph-name="X" unicode="&#x58;" horiz-adv-x="492" d="M478 0L312 362L468 700L334 700L246 488L158 700L24 700L180 362L14 0L149 0L246 233L343 0Z" />
<glyph glyph-name="Y" unicode="&#x59;" horiz-adv-x="460" d="M169 0L292 0L292 218L459 700L331 700L265 490C256 462 241 411 232 377L229 377C220 411 205 462 196 488L129 700L1 700L169 218Z" />
<glyph glyph-name="Z" unicode="&#x5a;" horiz-adv-x="427" d="M166 117L400 615L400 700L31 700L31 583L250 583L15 84L15 0L405 0L405 117Z" />
<glyph glyph-name="bracketleft" unicode="&#x5b;" horiz-adv-x="311" d="M269 711L269 820L66 820L66 -120L269 -120L269 -11L183 -11L183 711Z" />
<glyph glyph-name="backslash" unicode="&#x5c;" horiz-adv-x="505" d="M143 815L41 815L361 -121L464 -121Z" />
<glyph glyph-name="bracketright" unicode="&#x5d;" horiz-adv-x="311" d="M42 -11L42 -120L245 -120L245 820L42 820L42 711L128 711L128 -11Z" />
<glyph glyph-name="asciicircum" unicode="&#x5e;" horiz-adv-x="349" d="M341 473L225 700L123 700L7 473L112 473L175 606L237 473Z" />
<glyph glyph-name="underscore" unicode="&#x5f;" horiz-adv-x="379" d="M17 -10L17 -123L362 -123L362 -10Z" />
<glyph glyph-name="a" unicode="&#x61;" horiz-adv-x="458" d="M228 542C116 542 47 477 42 370L160 370C165 411 193 428 226 428C270 428 286 397 286 343L286 317L224 317C108 317 27 263 27 151C27 54 89 -14 186 -14C246 -14 283 14 303 50L310 0L405 0L405 343C405 472 348 542 228 542ZM286 162C286 117 258 89 214 89C169 89 147 115 147 151C147 194 176 217 226 217L286 217Z" />
<glyph glyph-name="b" unicode="&#x62;" horiz-adv-x="470" d="M259 542C225 542 193 528 169 507L169 725L54 725L54 -1L136 -1L143 47C169 15 214 -12 259 -12C361 -12 429 68 429 195L429 336C429 462 361 542 259 542ZM309 195C309 131 284 100 241 100C197 100 169 132 169 195L169 336C169 396 195 429 241 429C285 429 309 400 309 336Z" />
<glyph glyph-name="c" unicode="&#x63;" horiz-adv-x="440" d="M226 -12C343 -12 414 61 417 185L298 185C295 129 273 101 228 101C185 101 161 129 161 185L161 346C161 401 185 429 228 429C270 429 293 401 295 346L414 346C410 469 346 542 226 542C111 542 42 469 42 346L42 185C42 61 111 -12 226 -12Z" />
<glyph glyph-name="d" unicode="&#x64;" horiz-adv-x="470" d="M301 725L301 507C277 528 244 542 211 542C109 542 42 462 42 336L42 195C42 68 110 -12 211 -12C256 -12 302 15 328 48L334 -1L417 -1L417 725ZM301 195C301 132 274 100 230 100C187 100 162 131 162 195L162 336C162 400 186 429 230 429C275 429 301 396 301 336Z" />
<glyph glyph-name="e" unicode="&#x65;" horiz-adv-x="456" d="M305 167C296 121 278 101 229 101C185 101 160 129 160 192L160 223L417 223L417 341C417 468 346 542 228 542C112 542 42 468 42 341L42 192C42 64 112 -12 227 -12C343 -12 414 54 424 167ZM229 432C275 432 300 404 300 342L300 307L160 307L160 342C160 404 185 432 229 432Z" />
<glyph glyph-name="f" unicode="&#x66;" horiz-adv-x="311" d="M273 632L306 632L306 739L273 739C139 739 84 658 84 549L84 529L9 529L9 421L84 421L84 0L201 0L201 421L296 421L296 529L201 529L201 549C201 608 222 632 273 632Z" />
<glyph glyph-name="g" unicode="&#x67;" horiz-adv-x="474" d="M337 529L329 493C299 525 258 542 211 542C113 542 42 461 42 342L42 220C42 104 113 24 211 24C245 24 275 34 300 51L300 -22C300 -60 277 -84 238 -84C198 -84 177 -61 173 -23L57 -23C60 -126 126 -194 238 -194C352 -194 420 -125 420 -22L420 529ZM230 136C185 136 161 164 161 220L161 342C161 400 185 428 230 428C273 428 300 400 300 344L300 220C300 164 275 136 230 136Z" />
<glyph glyph-name="h" unicode="&#x68;" horiz-adv-x="473" d="M276 542C232 542 197 520 172 485L172 724L54 724L54 0L172 0L172 331C172 395 200 429 244 429C285 429 306 400 306 322L306 0L424 0L424 323C424 469 369 542 276 542Z" />
<glyph glyph-name="i" unicode="&#x69;" horiz-adv-x="226" d="M113 611C152 611 182 643 182 680C182 720 152 749 113 749C73 749 45 720 45 680C45 641 73 611 113 611ZM54 0L172 0L172 529L54 529Z" />
<glyph glyph-name="j" unicode="&#x6a;" horiz-adv-x="254" d="M131 610C170 610 200 642 200 679C200 719 170 748 131 748C91 748 63 719 63 679C63 640 91 610 131 610ZM-12 -194C121 -193 191 -118 191 12L191 529L73 529L73 5C73 -52 47 -80 -12 -81Z" />
<glyph glyph-name="k" unicode="&#x6b;" horiz-adv-x="449" d="M321 0L454 0L280 318L430 529L293 529L171 344L171 725L54 725L54 0L171 0L171 193L202 226Z" />
<glyph glyph-name="l" unicode="&#x6c;" horiz-adv-x="216" d="M49 0L167 0L167 725L49 725Z" />
<glyph glyph-name="m" unicode="&#x6d;" horiz-adv-x="712" d="M515 542C458 542 415 517 388 471C363 518 321 542 268 542C212 542 169 517 143 473L133 529L54 529L54 0L171 0L171 331C171 395 199 429 240 429C279 429 300 402 300 326L300 0L417 0L417 331C417 395 445 429 487 429C525 429 546 402 546 326L546 0L663 0L663 327C663 470 607 542 515 542Z" />
<glyph glyph-name="n" unicode="&#x6e;" horiz-adv-x="473" d="M272 542C214 542 171 517 144 472L134 529L54 529L54 0L172 0L172 331C172 395 200 429 244 429C285 429 306 400 306 325L306 0L424 0L424 328C424 472 367 542 272 542Z" />
<glyph glyph-name="o" unicode="&#x6f;" horiz-adv-x="467" d="M233 -13C353 -13 425 61 425 193L425 336C425 468 353 542 233 542C114 542 42 468 42 336L42 193C42 61 114 -13 233 -13ZM233 102C188 102 162 130 162 193L162 336C162 400 188 427 233 427C279 427 305 400 305 336L305 193C305 130 279 102 233 102Z" />
<glyph glyph-name="p" unicode="&#x70;" horiz-adv-x="470" d="M259 541C214 541 169 514 143 481L136 530L54 530L54 -180L169 -180L169 22C193 0 225 -13 259 -13C361 -13 429 66 429 193L429 334C429 461 361 541 259 541ZM309 193C309 129 285 99 241 99C195 99 169 133 169 193L169 334C169 397 197 429 241 429C284 429 309 398 309 334Z" />
<glyph glyph-name="q" unicode="&#x71;" horiz-adv-x="470" d="M334 530L328 481C302 514 256 541 211 541C110 541 42 461 42 334L42 193C42 66 109 -13 211 -13C244 -13 277 0 301 21L301 -180L417 -180L417 530ZM230 99C186 99 162 129 162 193L162 334C162 398 187 429 230 429C274 429 301 397 301 334L301 193C301 133 275 99 230 99Z" />
<glyph glyph-name="r" unicode="&#x72;" horiz-adv-x="345" d="M279 541C218 541 172 516 144 471L134 529L54 529L54 0L172 0L172 329C172 396 210 430 271 430C296 430 317 425 336 417L336 531C321 538 302 541 279 541Z" />
<glyph glyph-name="s" unicode="&#x73;" horiz-adv-x="425" d="M219 -14C334 -14 402 51 402 147C402 338 147 305 147 390C147 418 170 437 207 437C252 437 272 411 274 369L388 369C382 468 327 542 207 542C99 542 30 485 30 391C30 211 284 241 284 147C284 115 259 94 216 94C160 94 140 130 139 166L21 166C23 70 90 -14 219 -14Z" />
<glyph glyph-name="t" unicode="&#x74;" horiz-adv-x="326" d="M265 104C219 104 198 127 198 177L198 422L290 422L290 529L198 529L198 655L81 655L81 529L10 529L10 422L81 422L81 178C81 64 148 -7 258 -7L298 -7L298 104Z" />
<glyph glyph-name="u" unicode="&#x75;" horiz-adv-x="473" d="M301 529L301 198C301 134 273 100 229 100C188 100 167 129 167 204L167 529L49 529L49 201C49 57 106 -13 201 -13C259 -13 302 12 329 57L339 0L419 0L419 529Z" />
<glyph glyph-name="v" unicode="&#x76;" horiz-adv-x="422" d="M295 529L251 330C238 267 222 181 214 139L208 139C201 181 185 267 171 330L127 529L2 529L145 0L277 0L420 529Z" />
<glyph glyph-name="w" unicode="&#x77;" horiz-adv-x="652" d="M528 529L491 320C481 259 467 170 463 130L458 130C452 177 439 253 428 315L389 519L264 519L224 315C213 253 200 177 194 130L189 130C185 170 171 259 161 320L124 529L2 529L125 0L253 0L288 152C305 230 319 318 324 376L329 376C333 318 347 230 365 152L400 0L527 0L650 529Z" />
<glyph glyph-name="x" unicode="&#x78;" horiz-adv-x="423" d="M427 0L287 266L414 529L284 529L211 367L138 529L9 529L138 266L-4 0L129 0L211 169L294 0Z" />
<glyph glyph-name="y" unicode="&#x79;" horiz-adv-x="434" d="M311 529L223 224L125 529L2 529L173 54L156 -6C143 -50 130 -75 93 -75L56 -75L56 -189L117 -189C201 -189 242 -119 268 -27L432 529Z" />
<glyph glyph-name="z" unicode="&#x7a;" horiz-adv-x="371" d="M158 108L347 454L347 529L25 529L25 420L198 420L6 75L6 0L357 0L357 108Z" />
<glyph glyph-name="braceleft" unicode="&#x7b;" horiz-adv-x="339" d="M222 495L222 634C222 679 249 708 298 708L298 820C178 820 106 745 106 620L106 480C106 435 83 410 42 408L42 294C83 292 106 266 106 222L106 80C106 -45 178 -120 298 -120L298 -8C249 -8 222 21 222 66L222 207C222 269 200 317 160 351C200 385 222 433 222 495Z" />
<glyph glyph-name="bar" unicode="&#x7c;" horiz-adv-x="219" d="M49 803L49 -96L169 -96L169 803Z" />
<glyph glyph-name="braceright" unicode="&#x7d;" horiz-adv-x="339" d="M233 478L233 620C233 745 161 820 41 820L41 708C90 708 117 679 117 634L117 493C117 431 139 383 179 349C139 315 117 267 117 205L117 66C117 21 90 -8 41 -8L41 -120C161 -120 233 -45 233 80L233 220C233 265 256 290 297 292L297 406C256 408 233 434 233 478Z" />
<glyph glyph-name="asciitilde" unicode="&#x7e;" horiz-adv-x="475" d="M382 374C366 348 347 336 322 336C272 336 208 383 141 383C100 383 64 366 32 317L92 244C109 269 127 281 153 281C203 281 266 234 335 234C376 234 413 252 445 300Z" />
<glyph glyph-name="exclamdown" unicode="&#xa1;" horiz-adv-x="266" d="M133 540C92 540 65 513 65 472C65 431 92 404 133 404C174 404 201 431 201 472C201 513 174 540 133 540ZM73 348L73 -180L192 -180L192 348Z" />
<glyph glyph-name="cent" unicode="&#xa2;" horiz-adv-x="438" d="M416 185L297 185C295 129 272 101 227 101C185 101 161 129 161 185L161 345C161 400 185 427 227 427C269 427 292 400 294 345L413 345C410 452 361 520 270 536L270 601L178 601L178 535C92 518 42 450 42 345L42 185C42 79 92 10 178 -7L178 -75L270 -75L270 -8C360 9 413 78 416 185Z" />
<glyph glyph-name="sterling" unicode="&#xa3;" horiz-adv-x="482" d="M189 113C199 132 205 157 205 188L205 291L362 291L362 395L205 395L205 520C205 569 228 593 262 593C300 593 322 565 328 510L447 510C440 638 368 712 263 712C157 712 86 635 86 519L86 395L26 395L26 291L86 291L86 187C86 135 70 107 27 102L27 0L451 0L451 113Z" />
<glyph glyph-name="currency" unicode="&#xa4;" horiz-adv-x="465" d="M100 71L144 130C168 116 200 108 232 108C265 108 297 116 321 130L365 71L433 120L381 191C395 216 402 249 402 283L402 360C402 395 395 426 382 452L433 522L365 572L323 513C298 527 266 536 232 536C199 536 167 527 143 513L100 572L32 522L83 452C70 426 63 394 63 360L63 283C63 249 70 216 84 191L32 120ZM232 212C195 212 173 235 173 284L173 359C173 409 195 431 232 431C270 431 292 409 292 359L292 284C292 235 270 212 232 212Z" />
<glyph glyph-name="yen" unicode="&#xa5;" horiz-adv-x="460" d="M459 700L331 700L265 490C256 462 241 411 232 377L229 377C220 411 205 462 196 488L129 700L1 700L144 291L11 291L11 219L169 219L169 158L11 158L11 86L169 86L169 0L292 0L292 86L449 86L449 158L292 158L292 219L449 219L449 291L317 291Z" />
<glyph glyph-name="brokenbar" unicode="&#xa6;" horiz-adv-x="199" d="M39 488L159 488L159 803L39 803ZM39 -92L159 -92L159 224L39 224Z" />
<glyph glyph-name="section" unicode="&#xa7;" horiz-adv-x="428" d="M346 216C383 244 402 284 402 333C402 528 153 502 153 589C153 614 172 633 208 633C250 633 268 609 270 567L384 567C378 667 324 739 208 739C105 739 37 682 37 591C37 541 57 506 89 479C45 452 22 410 22 357C22 176 279 198 279 107C279 73 256 52 214 52C162 52 144 87 142 123L25 123C27 28 90 -56 217 -56C330 -56 397 8 397 106C397 154 376 190 346 216ZM245 282C179 304 139 323 139 360C139 390 164 410 197 411C245 391 284 369 284 330C284 307 270 288 245 282Z" />
<glyph glyph-name="copyright" unicode="&#xa9;" horiz-adv-x="684" d="M342 -7C528 -7 638 113 638 317L638 393C638 595 528 714 342 714C156 714 46 595 46 393L46 317C46 113 156 -7 342 -7ZM342 67C201 67 126 154 126 317L126 393C126 554 201 639 342 639C483 639 558 554 558 393L558 317C558 154 483 67 342 67ZM340 150C423 150 473 202 475 291L392 291C390 252 373 232 342 232C312 232 294 252 294 291L294 414C294 454 312 473 342 473C371 473 388 454 389 414L472 414C470 502 424 554 340 554C260 554 211 502 211 414L211 291C211 202 260 150 340 150Z" />
<glyph glyph-name="guillemotleft" unicode="&#xab;" horiz-adv-x="488" d="M147 86L263 86L136 257L263 428L147 428L34 277L34 237ZM338 86L454 86L327 257L454 428L338 428L225 277L225 237Z" />
<glyph glyph-name="logicalnot" unicode="&#xac;" horiz-adv-x="475" d="M441 364L44 364L44 256L334 256L334 187L441 187Z" />
<glyph glyph-name="registered" unicode="&#xae;" horiz-adv-x="456" d="M231 714C116 714 49 646 49 523L49 464C49 336 116 265 231 265C345 265 412 336 412 464L412 523C412 646 345 714 231 714ZM369 463C369 357 320 304 231 304C141 304 92 357 92 463L92 522C92 623 141 673 231 673C320 673 369 623 369 522ZM310 533C310 584 282 613 233 613L163 613L163 369L209 369L209 453L229 453L271 369L321 369L272 461C296 474 310 499 310 533ZM209 569L232 569C253 569 264 557 264 533C264 509 253 496 232 496L209 496Z" />
<glyph glyph-name="degree" unicode="&#xb0;" horiz-adv-x="311" d="M22 576C22 494 75 439 156 439C237 439 290 494 290 576C290 657 237 712 156 712C75 712 22 657 22 576ZM101 576C101 612 122 636 156 636C189 636 211 612 211 576C211 540 189 516 156 516C122 516 101 540 101 576Z" />
<glyph glyph-name="plusminus" unicode="&#xb1;" horiz-adv-x="475" d="M292 428L292 558L183 558L183 428L44 428L44 322L183 322L183 192L292 192L292 322L432 322L432 428ZM44 45L432 45L432 146L44 146Z" />
<glyph glyph-name="paragraph" unicode="&#xb6;" horiz-adv-x="615" d="M549 704L207 704C109 704 42 642 42 541C42 441 109 379 207 379L207 -91L326 -91L326 592L430 592L430 -91L549 -91Z" />
<glyph glyph-name="periodcentered" unicode="&#xb7;" horiz-adv-x="200" d="M100 189C141 189 169 217 169 258C169 299 141 326 100 326C59 326 32 299 32 258C32 217 59 189 100 189Z" />
<glyph glyph-name="guillemotright" unicode="&#xbb;" horiz-adv-x="488" d="M150 86L263 237L263 277L150 428L34 428L161 257L34 86ZM341 86L454 237L454 277L341 428L225 428L352 257L225 86Z" />
<glyph glyph-name="questiondown" unicode="&#xbf;" horiz-adv-x="403" d="M209 538C168 538 141 511 141 470C141 429 168 402 209 402C250 402 277 429 277 470C277 511 250 538 209 538ZM269 346L152 346L152 311C152 171 17 150 17 -3C17 -115 95 -186 204 -186C317 -186 384 -109 392 14L278 14C275 -43 251 -78 203 -78C153 -78 133 -41 133 -2C133 113 269 124 269 311Z" />
<glyph glyph-name="Agrave" unicode="&#xc0;" horiz-adv-x="485" d="M321 767L227 899L124 899L235 767ZM353 0L481 0L309 700L177 700L5 0L133 0L161 127L325 127ZM186 244L214 374C224 422 235 499 241 546L244 546C251 499 262 422 272 374L300 244Z" />
<glyph glyph-name="Aacute" unicode="&#xc1;" horiz-adv-x="485" d="M375 899L272 899L178 767L264 767ZM353 0L481 0L309 700L177 700L5 0L133 0L161 127L325 127ZM186 244L214 374C224 422 235 499 241 546L244 546C251 499 262 422 272 374L300 244Z" />
<glyph glyph-name="Acircumflex" unicode="&#xc2;" horiz-adv-x="485" d="M242 835L288 767L369 767L288 898L194 898L113 767L195 767ZM353 0L481 0L309 700L177 700L5 0L133 0L161 127L325 127ZM186 244L214 374C224 422 235 499 241 546L244 546C251 499 262 422 272 374L300 244Z" />
<glyph glyph-name="Atilde" unicode="&#xc3;" horiz-adv-x="485" d="M216 813C240 813 253 784 294 784C343 784 376 822 380 883L309 883C307 868 297 857 283 857C260 857 247 886 205 886C158 886 123 852 119 787L191 787C193 804 204 813 216 813ZM353 0L481 0L309 700L177 700L5 0L133 0L161 127L325 127ZM186 244L214 374C224 422 235 499 241 546L244 546C251 499 262 422 272 374L300 244Z" />
<glyph glyph-name="Adieresis" unicode="&#xc4;" horiz-adv-x="485" d="M165 778C198 778 220 800 220 834C220 868 198 890 165 890C131 890 109 868 109 834C109 800 131 778 165 778ZM319 778C353 778 375 800 375 834C375 868 353 890 319 890C285 890 263 868 263 834C263 800 285 778 319 778ZM353 0L481 0L309 700L177 700L5 0L133 0L161 127L325 127ZM186 244L214 374C224 422 235 499 241 546L244 546C251 499 262 422 272 374L300 244Z" />
<glyph glyph-name="Aring" unicode="&#xc5;" horiz-adv-x="485" d="M245 763C297 763 332 797 332 848C332 897 297 931 245 931C193 931 159 897 159 848C159 797 193 763 245 763ZM245 880C265 880 278 867 278 847C278 827 265 814 245 814C226 814 213 827 213 847C213 867 226 880 245 880ZM353 0L481 0L309 700L177 700L5 0L133 0L161 127L325 127ZM186 244L214 374C224 422 235 499 241 546L244 546C251 499 262 422 272 374L300 244Z" />
<glyph glyph-name="AE" unicode="&#xc6;" horiz-adv-x="705" d="M451 116L451 299L639 299L639 411L451 411L451 584L658 584L658 700L268 700L0 0L131 0L179 132L328 132L328 0L668 0L668 116ZM221 248L270 381C290 436 310 507 324 564L328 564L328 248Z" />
<glyph glyph-name="Ccedilla" unicode="&#xc7;" horiz-adv-x="498" d="M475 208L352 208C347 138 317 107 256 107C204 107 173 140 173 210L173 490C173 562 204 595 255 595C315 595 345 564 349 492L472 492C466 635 390 714 256 714C125 714 46 635 46 490L46 210C46 74 117 -3 234 -11L215 -77L234 -96C244 -90 258 -88 268 -88C292 -88 303 -100 303 -118C303 -137 291 -152 267 -152C247 -152 234 -142 227 -125L161 -125C166 -177 212 -212 266 -212C329 -212 372 -176 372 -121C372 -77 341 -47 299 -47C294 -47 291 -47 289 -48L300 -9C408 6 471 82 475 208Z" />
<glyph glyph-name="Egrave" unicode="&#xc8;" horiz-adv-x="465" d="M316 767L222 899L119 899L230 767ZM189 116L189 299L399 299L399 411L189 411L189 584L418 584L418 700L66 700L66 0L428 0L428 116Z" />
<glyph glyph-name="Eacute" unicode="&#xc9;" horiz-adv-x="465" d="M370 899L267 899L173 767L259 767ZM189 116L189 299L399 299L399 411L189 411L189 584L418 584L418 700L66 700L66 0L428 0L428 116Z" />
<glyph glyph-name="Ecircumflex" unicode="&#xca;" horiz-adv-x="465" d="M237 835L283 767L364 767L283 898L189 898L108 767L190 767ZM189 116L189 299L399 299L399 411L189 411L189 584L418 584L418 700L66 700L66 0L428 0L428 116Z" />
<glyph glyph-name="Edieresis" unicode="&#xcb;" horiz-adv-x="465" d="M160 778C193 778 215 800 215 834C215 868 193 890 160 890C126 890 104 868 104 834C104 800 126 778 160 778ZM314 778C348 778 370 800 370 834C370 868 348 890 314 890C280 890 258 868 258 834C258 800 280 778 314 778ZM189 116L189 299L399 299L399 411L189 411L189 584L418 584L418 700L66 700L66 0L428 0L428 116Z" />
<glyph glyph-name="Igrave" unicode="&#xcc;" horiz-adv-x="254" d="M207 767L113 899L10 899L121 767ZM66 700L66 0L189 0L189 700Z" />
<glyph glyph-name="Iacute" unicode="&#xcd;" horiz-adv-x="254" d="M64 767L150 767L261 899L158 899ZM66 700L66 0L189 0L189 700Z" />
<glyph glyph-name="Icircumflex" unicode="&#xce;" horiz-adv-x="254" d="M128 835L174 767L255 767L174 898L80 898L-1 767L81 767ZM66 0L189 0L189 700L66 700Z" />
<glyph glyph-name="Idieresis" unicode="&#xcf;" horiz-adv-x="259" d="M57 778C91 778 113 800 113 834C113 868 91 890 57 890C23 890 1 868 1 834C1 800 23 778 57 778ZM204 778C238 778 260 800 260 834C260 868 238 890 204 890C170 890 148 868 148 834C148 800 170 778 204 778ZM68 700L68 0L191 0L191 700Z" />
<glyph glyph-name="Eth" unicode="&#xd0;" horiz-adv-x="525" d="M251 700L73 700L73 396L7 396L7 319L73 319L73 0L253 0C390 0 479 77 479 214L479 490C479 623 391 700 251 700ZM353 215C353 141 318 117 259 117L196 117L196 319L273 319L273 396L196 396L196 583L259 583C318 583 353 559 353 489Z" />
<glyph glyph-name="Ntilde" unicode="&#xd1;" horiz-adv-x="563" d="M255 813C279 813 292 784 333 784C382 784 415 822 419 883L348 883C346 868 336 857 322 857C299 857 286 886 244 886C197 886 162 852 158 787L230 787C232 804 243 813 255 813ZM376 700L376 487C376 423 383 310 393 231L390 228C373 271 352 326 334 371L188 700L66 700L66 0L187 0L187 201C187 274 181 393 172 472L175 475C194 423 219 359 240 304L375 0L497 0L497 700Z" />
<glyph glyph-name="Ograve" unicode="&#xd2;" horiz-adv-x="533" d="M345 767L251 899L148 899L259 767ZM267 -12C405 -12 487 77 487 225L487 475C487 623 405 712 267 712C128 712 46 623 46 475L46 225C46 77 128 -12 267 -12ZM267 107C205 107 173 149 173 225L173 475C173 551 205 593 267 593C329 593 360 551 360 475L360 225C360 149 329 107 267 107Z" />
<glyph glyph-name="Oacute" unicode="&#xd3;" horiz-adv-x="533" d="M202 767L288 767L399 899L296 899ZM267 -12C405 -12 487 77 487 225L487 475C487 623 405 712 267 712C128 712 46 623 46 475L46 225C46 77 128 -12 267 -12ZM267 107C205 107 173 149 173 225L173 475C173 551 205 593 267 593C329 593 360 551 360 475L360 225C360 149 329 107 267 107Z" />
<glyph glyph-name="Ocircumflex" unicode="&#xd4;" horiz-adv-x="533" d="M266 835L312 767L393 767L312 898L218 898L137 767L219 767ZM267 712C128 712 46 623 46 475L46 225C46 77 128 -12 267 -12C405 -12 487 77 487 225L487 475C487 623 405 712 267 712ZM360 225C360 149 329 107 267 107C205 107 173 149 173 225L173 475C173 551 205 593 267 593C329 593 360 551 360 475Z" />
<glyph glyph-name="Otilde" unicode="&#xd5;" horiz-adv-x="533" d="M240 813C264 813 277 784 318 784C367 784 400 822 404 883L333 883C331 868 321 857 307 857C284 857 271 886 229 886C182 886 147 852 143 787L215 787C217 804 228 813 240 813ZM267 -12C405 -12 487 77 487 225L487 475C487 623 405 712 267 712C128 712 46 623 46 475L46 225C46 77 128 -12 267 -12ZM267 107C205 107 173 149 173 225L173 475C173 551 205 593 267 593C329 593 360 551 360 475L360 225C360 149 329 107 267 107Z" />
<glyph glyph-name="Odieresis" unicode="&#xd6;" horiz-adv-x="533" d="M189 778C222 778 244 800 244 834C244 868 222 890 189 890C155 890 133 868 133 834C133 800 155 778 189 778ZM343 778C377 778 399 800 399 834C399 868 377 890 343 890C309 890 287 868 287 834C287 800 309 778 343 778ZM267 -12C405 -12 487 77 487 225L487 475C487 623 405 712 267 712C128 712 46 623 46 475L46 225C46 77 128 -12 267 -12ZM267 107C205 107 173 149 173 225L173 475C173 551 205 593 267 593C329 593 360 551 360 475L360 225C360 149 329 107 267 107Z" />
<glyph glyph-name="multiply" unicode="&#xd7;" horiz-adv-x="471" d="M114 100L236 222L357 100L434 177L313 299L434 419L357 497L236 375L114 497L38 419L159 299L37 177Z" />
<glyph glyph-name="Oslash" unicode="&#xd8;" horiz-adv-x="541" d="M415 666L445 767L350 767L332 705C313 710 292 712 270 712C132 712 50 623 50 475L50 225C50 138 78 71 130 31L100 -67L195 -67L213 -6C231 -10 250 -12 270 -12C409 -12 491 77 491 225L491 475C491 560 464 625 415 666ZM364 225C364 149 332 107 270 107C209 107 177 149 177 225L177 475C177 551 209 593 270 593C332 593 364 551 364 475Z" />
<glyph glyph-name="Ugrave" unicode="&#xd9;" horiz-adv-x="538" d="M348 767L254 899L151 899L262 767ZM269 -11C403 -11 485 74 485 221L485 700L357 700L357 221C357 146 325 108 269 108C213 108 181 146 181 221L181 700L54 700L54 221C54 74 136 -11 269 -11Z" />
<glyph glyph-name="Uacute" unicode="&#xda;" horiz-adv-x="538" d="M205 767L291 767L402 899L299 899ZM269 -11C403 -11 485 74 485 221L485 700L357 700L357 221C357 146 325 108 269 108C213 108 181 146 181 221L181 700L54 700L54 221C54 74 136 -11 269 -11Z" />
<glyph glyph-name="Ucircumflex" unicode="&#xdb;" horiz-adv-x="538" d="M269 835L315 767L396 767L315 898L221 898L140 767L222 767ZM357 700L357 221C357 146 325 108 269 108C213 108 181 146 181 221L181 700L54 700L54 221C54 74 136 -11 269 -11C403 -11 485 74 485 221L485 700Z" />
<glyph glyph-name="Udieresis" unicode="&#xdc;" horiz-adv-x="538" d="M192 778C225 778 247 800 247 834C247 868 225 890 192 890C158 890 136 868 136 834C136 800 158 778 192 778ZM346 778C380 778 402 800 402 834C402 868 380 890 346 890C312 890 290 868 290 834C290 800 312 778 346 778ZM269 -11C403 -11 485 74 485 221L485 700L357 700L357 221C357 146 325 108 269 108C213 108 181 146 181 221L181 700L54 700L54 221C54 74 136 -11 269 -11Z" />
<glyph glyph-name="Yacute" unicode="&#xdd;" horiz-adv-x="460" d="M166 767L252 767L363 899L260 899ZM169 0L292 0L292 218L459 700L331 700L265 490C256 462 241 411 232 377L229 377C220 411 205 462 196 488L129 700L1 700L169 218Z" />
<glyph glyph-name="Thorn" unicode="&#xde;" horiz-adv-x="501" d="M260 595L189 595L189 700L66 700L66 0L189 0L189 129L260 129C401 129 484 214 484 362C484 509 401 595 260 595ZM259 246L189 246L189 478L259 478C325 478 358 439 358 362C358 285 325 246 259 246Z" />
<glyph glyph-name="germandbls" unicode="&#xdf;" horiz-adv-x="489" d="M376 364C419 395 445 447 445 504C445 629 369 714 250 714C130 714 54 630 54 503L54 0L176 0L176 503C176 565 202 598 249 598C296 598 321 565 321 505C321 447 294 416 240 416L224 416L224 303L245 303C306 303 339 271 339 207C339 147 306 117 242 117L224 117L224 0L261 0C381 0 465 81 465 207C465 272 430 331 376 364Z" />
<glyph glyph-name="agrave" unicode="&#xe0;" horiz-adv-x="458" d="M304 609L230 741L127 741L219 609ZM228 542C116 542 47 477 42 370L160 370C165 411 193 428 226 428C270 428 286 397 286 343L286 317L224 317C108 317 27 263 27 151C27 54 89 -14 186 -14C246 -14 283 14 303 50L310 0L405 0L405 343C405 472 348 542 228 542ZM286 162C286 117 258 89 214 89C169 89 147 115 147 151C147 194 176 217 226 217L286 217Z" />
<glyph glyph-name="aacute" unicode="&#xe1;" horiz-adv-x="458" d="M343 741L240 741L166 609L251 609ZM228 542C116 542 47 477 42 370L160 370C165 411 193 428 226 428C270 428 286 397 286 343L286 317L224 317C108 317 27 263 27 151C27 54 89 -14 186 -14C246 -14 283 14 303 50L310 0L405 0L405 343C405 472 348 542 228 542ZM286 162C286 117 258 89 214 89C169 89 147 115 147 151C147 194 176 217 226 217L286 217Z" />
<glyph glyph-name="acircumflex" unicode="&#xe2;" horiz-adv-x="458" d="M229 677L275 609L356 609L275 740L181 740L100 609L182 609ZM228 542C116 542 47 477 42 370L160 370C165 411 193 428 226 428C270 428 286 397 286 343L286 317L224 317C108 317 27 263 27 151C27 54 89 -14 186 -14C246 -14 283 14 303 50L310 0L405 0L405 343C405 472 348 542 228 542ZM286 162C286 117 258 89 214 89C169 89 147 115 147 151C147 194 176 217 226 217L286 217Z" />
<glyph glyph-name="atilde" unicode="&#xe3;" horiz-adv-x="458" d="M195 644C219 644 232 615 273 615C322 615 355 653 359 714L288 714C286 699 276 688 262 688C239 688 226 717 184 717C137 717 102 683 98 618L170 618C172 635 183 644 195 644ZM228 542C116 542 47 477 42 370L160 370C165 411 193 428 226 428C270 428 286 397 286 343L286 317L224 317C108 317 27 263 27 151C27 54 89 -14 186 -14C246 -14 283 14 303 50L310 0L405 0L405 343C405 472 348 542 228 542ZM286 162C286 117 258 89 214 89C169 89 147 115 147 151C147 194 176 217 226 217L286 217Z" />
<glyph glyph-name="adieresis" unicode="&#xe4;" horiz-adv-x="458" d="M153 618C187 618 209 640 209 674C209 708 187 729 153 729C119 729 97 708 97 674C97 640 119 618 153 618ZM305 618C338 618 361 640 361 674C361 708 338 729 305 729C271 729 248 708 248 674C248 640 271 618 305 618ZM228 542C116 542 47 477 42 370L160 370C165 411 193 428 226 428C270 428 286 397 286 343L286 317L224 317C108 317 27 263 27 151C27 54 89 -14 186 -14C246 -14 283 14 303 50L310 0L405 0L405 343C405 472 348 542 228 542ZM286 162C286 117 258 89 214 89C169 89 147 115 147 151C147 194 176 217 226 217L286 217Z" />
<glyph glyph-name="aring" unicode="&#xe5;" horiz-adv-x="458" d="M229 606C281 606 316 640 316 691C316 740 281 774 229 774C177 774 143 740 143 691C143 640 177 606 229 606ZM229 723C249 723 262 710 262 690C262 670 249 657 229 657C210 657 197 670 197 690C197 710 210 723 229 723ZM228 542C116 542 47 477 42 370L160 370C165 411 193 428 226 428C270 428 286 397 286 343L286 317L224 317C108 317 27 263 27 151C27 54 89 -14 186 -14C246 -14 283 14 303 50L310 0L405 0L405 343C405 472 348 542 228 542ZM286 162C286 117 258 89 214 89C169 89 147 115 147 151C147 194 176 217 226 217L286 217Z" />
<glyph glyph-name="ae" unicode="&#xe6;" horiz-adv-x="694" d="M542 168C535 122 517 101 470 101C426 101 402 129 402 192L402 225L656 225L656 341C656 468 585 542 469 542C420 542 378 523 348 488C321 524 281 542 229 542C117 542 47 477 42 370L160 370C165 411 193 428 227 428C271 428 287 397 287 345L287 315L227 315C108 315 27 263 27 152C27 55 88 -13 185 -13C268 -13 314 14 339 48C368 14 414 -12 468 -12C582 -12 653 54 662 168ZM402 342C402 404 426 432 470 432C514 432 539 404 539 342L539 308L402 308ZM287 162C287 117 260 89 215 89C169 89 147 115 147 152C147 196 177 218 228 218L287 218Z" />
<glyph glyph-name="ccedilla" unicode="&#xe7;" horiz-adv-x="440" d="M417 185L298 185C295 129 273 101 228 101C185 101 161 129 161 185L161 346C161 401 185 429 228 429C270 429 293 401 295 346L414 346C410 469 346 542 226 542C111 542 42 469 42 346L42 185C42 72 99 2 196 -10L177 -77L196 -96C206 -90 220 -88 230 -88C254 -88 265 -100 265 -118C265 -137 253 -152 229 -152C209 -152 196 -142 189 -125L123 -125C128 -177 174 -212 228 -212C291 -212 334 -176 334 -121C334 -77 303 -47 261 -47C256 -47 253 -47 251 -48L261 -10C357 4 414 74 417 185Z" />
<glyph glyph-name="egrave" unicode="&#xe8;" horiz-adv-x="456" d="M303 608L229 740L126 740L218 608ZM305 167C296 121 278 101 229 101C185 101 160 129 160 192L160 223L417 223L417 341C417 468 346 542 228 542C112 542 42 468 42 341L42 192C42 64 112 -12 227 -12C343 -12 414 54 424 167ZM229 432C275 432 300 404 300 342L300 307L160 307L160 342C160 404 185 432 229 432Z" />
<glyph glyph-name="eacute" unicode="&#xe9;" horiz-adv-x="456" d="M342 740L239 740L165 608L250 608ZM305 167C296 121 278 101 229 101C185 101 160 129 160 192L160 223L417 223L417 341C417 468 346 542 228 542C112 542 42 468 42 341L42 192C42 64 112 -12 227 -12C343 -12 414 54 424 167ZM229 432C275 432 300 404 300 342L300 307L160 307L160 342C160 404 185 432 229 432Z" />
<glyph glyph-name="ecircumflex" unicode="&#xea;" horiz-adv-x="456" d="M228 676L274 608L355 608L274 739L180 739L99 608L181 608ZM305 167C296 121 278 101 229 101C185 101 160 129 160 192L160 223L417 223L417 341C417 468 346 542 228 542C112 542 42 468 42 341L42 192C42 64 112 -12 227 -12C343 -12 414 54 424 167ZM229 432C275 432 300 404 300 342L300 307L160 307L160 342C160 404 185 432 229 432Z" />
<glyph glyph-name="edieresis" unicode="&#xeb;" horiz-adv-x="456" d="M152 617C186 617 208 639 208 673C208 707 186 728 152 728C118 728 96 707 96 673C96 639 118 617 152 617ZM304 617C337 617 360 639 360 673C360 707 337 728 304 728C270 728 247 707 247 673C247 639 270 617 304 617ZM305 167C296 121 278 101 229 101C185 101 160 129 160 192L160 223L417 223L417 341C417 468 346 542 228 542C112 542 42 468 42 341L42 192C42 64 112 -12 227 -12C343 -12 414 54 424 167ZM229 432C275 432 300 404 300 342L300 307L160 307L160 342C160 404 185 432 229 432Z" />
<glyph glyph-name="igrave" unicode="&#xec;" horiz-adv-x="226" d="M12 741L104 609L189 609L115 741ZM54 0L172 0L172 529L54 529Z" />
<glyph glyph-name="iacute" unicode="&#xed;" horiz-adv-x="226" d="M228 741L125 741L51 609L136 609ZM54 0L172 0L172 529L54 529Z" />
<glyph glyph-name="icircumflex" unicode="&#xee;" horiz-adv-x="238" d="M119 677L163 609L243 609L164 740L74 740L-5 609L74 609ZM60 0L178 0L178 529L60 529Z" />
<glyph glyph-name="idieresis" unicode="&#xef;" horiz-adv-x="250" d="M55 620C88 620 109 641 109 674C109 707 88 728 55 728C23 728 1 707 1 674C1 641 23 620 55 620ZM196 620C228 620 249 641 249 674C249 707 228 728 196 728C163 728 141 707 141 674C141 641 163 620 196 620ZM65 0L184 0L184 529L65 529Z" />
<glyph glyph-name="eth" unicode="&#xf0;" horiz-adv-x="466" d="M352 625L403 650L385 690L323 659C283 698 235 723 185 738L143 645C170 635 195 622 216 605L159 577L177 537L249 573C268 549 283 521 293 487C271 500 247 506 221 506C110 506 42 433 42 301L42 194C42 62 113 -12 232 -12C351 -12 423 62 423 194L423 378C422 487 395 567 352 625ZM303 194C303 131 277 103 232 103C187 103 162 131 162 194L162 301C162 364 187 391 232 391C277 391 303 364 303 301Z" />
<glyph glyph-name="ntilde" unicode="&#xf1;" horiz-adv-x="473" d="M203 643C227 643 240 614 281 614C330 614 363 652 367 713L296 713C294 698 284 687 270 687C247 687 234 716 192 716C145 716 110 682 106 617L178 617C180 634 191 643 203 643ZM272 542C214 542 171 517 144 472L134 529L54 529L54 0L172 0L172 331C172 395 200 429 244 429C285 429 306 400 306 325L306 0L424 0L424 328C424 472 367 542 272 542Z" />
<glyph glyph-name="ograve" unicode="&#xf2;" horiz-adv-x="467" d="M131 741L223 609L308 609L234 741ZM233 -13C353 -13 425 61 425 193L425 336C425 468 353 542 233 542C114 542 42 468 42 336L42 193C42 61 114 -13 233 -13ZM233 102C188 102 162 130 162 193L162 336C162 400 188 427 233 427C279 427 305 400 305 336L305 193C305 130 279 102 233 102Z" />
<glyph glyph-name="oacute" unicode="&#xf3;" horiz-adv-x="467" d="M347 741L244 741L170 609L255 609ZM233 -13C353 -13 425 61 425 193L425 336C425 468 353 542 233 542C114 542 42 468 42 336L42 193C42 61 114 -13 233 -13ZM233 102C188 102 162 130 162 193L162 336C162 400 188 427 233 427C279 427 305 400 305 336L305 193C305 130 279 102 233 102Z" />
<glyph glyph-name="ocircumflex" unicode="&#xf4;" horiz-adv-x="467" d="M233 677L279 609L360 609L279 740L185 740L104 609L186 609ZM233 542C114 542 42 468 42 336L42 193C42 61 114 -13 233 -13C353 -13 425 61 425 193L425 336C425 468 353 542 233 542ZM305 193C305 130 279 102 233 102C188 102 162 130 162 193L162 336C162 400 188 427 233 427C279 427 305 400 305 336Z" />
<glyph glyph-name="otilde" unicode="&#xf5;" horiz-adv-x="467" d="M199 644C223 644 236 615 277 615C326 615 359 653 363 714L292 714C290 699 280 688 266 688C243 688 230 717 188 717C141 717 106 683 102 618L174 618C176 635 187 644 199 644ZM233 -13C353 -13 425 61 425 193L425 336C425 468 353 542 233 542C114 542 42 468 42 336L42 193C42 61 114 -13 233 -13ZM233 102C188 102 162 130 162 193L162 336C162 400 188 427 233 427C279 427 305 400 305 336L305 193C305 130 279 102 233 102Z" />
<glyph glyph-name="odieresis" unicode="&#xf6;" horiz-adv-x="467" d="M157 618C191 618 213 640 213 674C213 708 191 729 157 729C123 729 101 708 101 674C101 640 123 618 157 618ZM309 618C342 618 365 640 365 674C365 708 342 729 309 729C275 729 252 708 252 674C252 640 275 618 309 618ZM233 -13C353 -13 425 61 425 193L425 336C425 468 353 542 233 542C114 542 42 468 42 336L42 193C42 61 114 -13 233 -13ZM233 102C188 102 162 130 162 193L162 336C162 400 188 427 233 427C279 427 305 400 305 336L305 193C305 130 279 102 233 102Z" />
<glyph glyph-name="divide" unicode="&#xf7;" horiz-adv-x="471" d="M237 396C276 396 302 422 302 461C302 500 276 526 237 526C198 526 172 500 172 461C172 422 198 396 237 396ZM41 253L430 253L430 354L41 354ZM237 75C276 75 302 101 302 140C302 179 276 205 237 205C198 205 172 179 172 140C172 101 198 75 237 75Z" />
<glyph glyph-name="oslash" unicode="&#xf8;" horiz-adv-x="454" d="M359 497L399 603L319 603L293 533C273 539 251 542 227 542C107 542 35 468 35 336L35 194C35 120 57 65 98 30L59 -71L139 -71L165 -4C184 -9 205 -12 227 -12C346 -12 419 62 419 194L419 336C419 408 397 462 359 497ZM298 194C298 131 273 103 227 103C181 103 155 131 155 194L155 336C155 400 181 427 227 427C273 427 298 400 298 336Z" />
<glyph glyph-name="ugrave" unicode="&#xf9;" horiz-adv-x="473" d="M308 608L234 740L131 740L223 608ZM301 529L301 198C301 134 273 100 229 100C188 100 167 129 167 204L167 529L49 529L49 201C49 57 106 -13 201 -13C259 -13 302 12 329 57L339 0L419 0L419 529Z" />
<glyph glyph-name="uacute" unicode="&#xfa;" horiz-adv-x="473" d="M347 740L244 740L170 608L255 608ZM301 529L301 198C301 134 273 100 229 100C188 100 167 129 167 204L167 529L49 529L49 201C49 57 106 -13 201 -13C259 -13 302 12 329 57L339 0L419 0L419 529Z" />
<glyph glyph-name="ucircumflex" unicode="&#xfb;" horiz-adv-x="473" d="M233 676L279 608L360 608L279 739L185 739L104 608L186 608ZM301 529L301 198C301 134 273 100 229 100C188 100 167 129 167 204L167 529L49 529L49 201C49 57 106 -13 201 -13C259 -13 302 12 329 57L339 0L419 0L419 529Z" />
<glyph glyph-name="udieresis" unicode="&#xfc;" horiz-adv-x="473" d="M157 617C191 617 213 639 213 673C213 707 191 728 157 728C123 728 101 707 101 673C101 639 123 617 157 617ZM309 617C342 617 365 639 365 673C365 707 342 728 309 728C275 728 252 707 252 673C252 639 275 617 309 617ZM301 529L301 198C301 134 273 100 229 100C188 100 167 129 167 204L167 529L49 529L49 201C49 57 106 -13 201 -13C259 -13 302 12 329 57L339 0L419 0L419 529Z" />
<glyph glyph-name="yacute" unicode="&#xfd;" horiz-adv-x="434" d="M329 743L226 743L152 611L237 611ZM311 529L223 224L125 529L2 529L173 54L156 -6C143 -50 130 -75 93 -75L56 -75L56 -189L117 -189C201 -189 242 -119 268 -27L432 529Z" />
<glyph glyph-name="thorn" unicode="&#xfe;" horiz-adv-x="469" d="M259 552C226 552 194 539 169 517L169 724L54 724L54 -180L169 -180L169 27C194 5 226 -8 259 -8C361 -8 428 71 428 197L428 346C428 473 361 552 259 552ZM307 197C307 134 284 104 241 104C195 104 169 138 169 197L169 346C169 406 195 440 241 440C284 440 307 410 307 346Z" />
<glyph glyph-name="ydieresis" unicode="&#xff;" horiz-adv-x="434" d="M139 620C173 620 195 642 195 676C195 710 173 731 139 731C105 731 83 710 83 676C83 642 105 620 139 620ZM291 620C324 620 347 642 347 676C347 710 324 731 291 731C257 731 234 710 234 676C234 642 257 620 291 620ZM311 529L223 224L125 529L2 529L173 54L156 -6C143 -50 130 -75 93 -75L56 -75L56 -189L117 -189C201 -189 242 -119 268 -27L432 529Z" />
<glyph glyph-name="Amacron" unicode="&#x0100;" horiz-adv-x="485" d="M350 870L139 870L139 791L350 791ZM353 0L481 0L309 700L177 700L5 0L133 0L161 127L325 127ZM186 244L214 374C224 422 235 499 241 546L244 546C251 499 262 422 272 374L300 244Z" />
<glyph glyph-name="amacron" unicode="&#x0101;" horiz-adv-x="458" d="M334 712L123 712L123 634L334 634ZM228 542C116 542 47 477 42 370L160 370C165 411 193 428 226 428C270 428 286 397 286 343L286 317L224 317C108 317 27 263 27 151C27 54 89 -14 186 -14C246 -14 283 14 303 50L310 0L405 0L405 343C405 472 348 542 228 542ZM286 162C286 117 258 89 214 89C169 89 147 115 147 151C147 194 176 217 226 217L286 217Z" />
<glyph glyph-name="Abreve" unicode="&#x0102;" horiz-adv-x="485" d="M245 769C314 769 365 812 368 891L290 891C289 861 269 844 244 844C218 844 199 861 198 891L119 891C122 814 174 769 245 769ZM353 0L481 0L309 700L177 700L5 0L133 0L161 127L325 127ZM186 244L214 374C224 422 235 499 241 546L244 546C251 499 262 422 272 374L300 244Z" />
<glyph glyph-name="abreve" unicode="&#x0103;" horiz-adv-x="458" d="M230 611C299 611 350 654 353 733L275 733C274 703 254 686 229 686C203 686 184 703 183 733L104 733C107 656 159 611 230 611ZM228 542C116 542 47 477 42 370L160 370C165 411 193 428 226 428C270 428 286 397 286 343L286 317L224 317C108 317 27 263 27 151C27 54 89 -14 186 -14C246 -14 283 14 303 50L310 0L405 0L405 343C405 472 348 542 228 542ZM286 162C286 117 258 89 214 89C169 89 147 115 147 151C147 194 176 217 226 217L286 217Z" />
<glyph glyph-name="Aogonek" unicode="&#x0104;" horiz-adv-x="486" d="M405 -76C405 -56 422 -23 454 0L481 0L309 700L177 700L5 0L133 0L161 127L325 127L353 0C319 -30 297 -67 297 -109C297 -159 331 -194 393 -194C418 -194 442 -193 466 -182L466 -100C457 -103 447 -103 437 -103C417 -103 405 -96 405 -76ZM186 244L214 374C224 422 235 499 241 546L244 546C251 499 262 422 272 374L300 244Z" />
<glyph glyph-name="aogonek" unicode="&#x0105;" horiz-adv-x="461" d="M341 -194C356 -194 386 -192 408 -183L408 -100C398 -103 386 -105 376 -105C358 -105 346 -98 346 -80C346 -54 369 -24 407 0L407 343C407 472 351 542 229 542C117 542 47 477 42 370L160 370C165 411 194 428 227 428C272 428 288 397 288 343L288 317L226 317C108 317 27 263 27 151C27 54 89 -14 186 -14C247 -14 285 14 305 50L312 0C270 -31 246 -62 246 -106C246 -156 273 -194 341 -194ZM215 89C169 89 147 115 147 151C147 194 177 217 227 217L288 217L288 162C288 117 260 89 215 89Z" />
<glyph glyph-name="Cacute" unicode="&#x0106;" horiz-adv-x="498" d="M187 767L273 767L384 899L281 899ZM256 -12C391 -12 470 66 475 208L352 208C347 138 317 107 256 107C204 107 173 140 173 210L173 490C173 562 204 595 255 595C315 595 345 564 349 492L472 492C466 635 390 714 256 714C125 714 46 635 46 490L46 210C46 66 126 -12 256 -12Z" />
<glyph glyph-name="cacute" unicode="&#x0107;" horiz-adv-x="440" d="M344 741L241 741L167 609L252 609ZM226 -12C343 -12 414 61 417 185L298 185C295 129 273 101 228 101C185 101 161 129 161 185L161 346C161 401 185 429 228 429C270 429 293 401 295 346L414 346C410 469 346 542 226 542C111 542 42 469 42 346L42 185C42 61 111 -12 226 -12Z" />
<glyph glyph-name="Cdotaccent" unicode="&#x010a;" horiz-adv-x="498" d="M251 770C290 770 320 801 320 838C320 878 290 907 251 907C211 907 183 878 183 838C183 799 211 770 251 770ZM256 -12C391 -12 470 66 475 208L352 208C347 138 317 107 256 107C204 107 173 140 173 210L173 490C173 562 204 595 255 595C315 595 345 564 349 492L472 492C466 635 390 714 256 714C125 714 46 635 46 490L46 210C46 66 126 -12 256 -12Z" />
<glyph glyph-name="cdotaccent" unicode="&#x010b;" horiz-adv-x="440" d="M229 611C268 611 298 643 298 680C298 720 268 749 229 749C189 749 161 720 161 680C161 641 189 611 229 611ZM226 -12C343 -12 414 61 417 185L298 185C295 129 273 101 228 101C185 101 161 129 161 185L161 346C161 401 185 429 228 429C270 429 293 401 295 346L414 346C410 469 346 542 226 542C111 542 42 469 42 346L42 185C42 61 111 -12 226 -12Z" />
<glyph glyph-name="Ccaron" unicode="&#x010c;" horiz-adv-x="498" d="M298 768L379 899L298 899L252 831L205 899L123 899L204 768ZM352 208C347 138 317 107 256 107C204 107 173 140 173 210L173 490C173 562 204 595 255 595C315 595 345 564 349 492L472 492C466 635 390 714 256 714C125 714 46 635 46 490L46 210C46 66 126 -12 256 -12C391 -12 470 66 475 208Z" />
<glyph glyph-name="ccaron" unicode="&#x010d;" horiz-adv-x="440" d="M276 610L357 741L276 741L230 673L183 741L101 741L182 610ZM298 185C295 129 273 101 228 101C185 101 161 129 161 185L161 346C161 401 185 429 228 429C270 429 293 401 295 346L414 346C410 469 346 542 226 542C111 542 42 469 42 346L42 185C42 61 111 -12 226 -12C343 -12 414 61 417 185Z" />
<glyph glyph-name="Dcaron" unicode="&#x010e;" horiz-adv-x="515" d="M295 768L376 899L295 899L249 831L202 899L120 899L201 768ZM249 700L66 700L66 0L251 0C388 0 469 85 469 229L469 474C469 617 388 700 249 700ZM345 230C345 156 312 117 251 117L189 117L189 583L251 583C312 583 345 546 345 474Z" />
<glyph glyph-name="dcaron" unicode="&#x010f;" horiz-adv-x="561" d="M483 776L467 583L538 583L585 776ZM301 507C277 528 244 542 211 542C109 542 42 462 42 336L42 195C42 68 110 -12 211 -12C256 -12 302 15 328 48L334 -1L417 -1L417 725L301 725ZM301 195C301 132 274 100 230 100C187 100 162 131 162 195L162 336C162 400 186 429 230 429C275 429 301 396 301 336Z" />
<glyph glyph-name="Dcroat" unicode="&#x0110;" horiz-adv-x="525" d="M251 700L73 700L73 396L7 396L7 319L73 319L73 0L253 0C390 0 479 77 479 214L479 490C479 623 391 700 251 700ZM353 215C353 141 318 117 259 117L196 117L196 319L273 319L273 396L196 396L196 583L259 583C318 583 353 559 353 489Z" />
<glyph glyph-name="dcroat" unicode="&#x0111;" horiz-adv-x="478" d="M484 654L417 654L417 725L301 725L301 654L202 654L202 593L301 593L301 507C277 528 244 542 211 542C109 542 42 462 42 336L42 195C42 68 110 -12 211 -12C256 -12 302 15 328 48L334 -1L417 -1L417 593L484 593ZM301 195C301 132 274 100 230 100C187 100 162 131 162 195L162 336C162 400 186 429 230 429C275 429 301 396 301 336Z" />
<glyph glyph-name="Emacron" unicode="&#x0112;" horiz-adv-x="465" d="M345 870L134 870L134 791L345 791ZM189 116L189 299L399 299L399 411L189 411L189 584L418 584L418 700L66 700L66 0L428 0L428 116Z" />
<glyph glyph-name="emacron" unicode="&#x0113;" horiz-adv-x="456" d="M333 711L122 711L122 633L333 633ZM305 167C296 121 278 101 229 101C185 101 160 129 160 192L160 223L417 223L417 341C417 468 346 542 228 542C112 542 42 468 42 341L42 192C42 64 112 -12 227 -12C343 -12 414 54 424 167ZM229 432C275 432 300 404 300 342L300 307L160 307L160 342C160 404 185 432 229 432Z" />
<glyph glyph-name="Edotaccent" unicode="&#x0116;" horiz-adv-x="465" d="M237 770C276 770 306 801 306 838C306 878 276 907 237 907C197 907 169 878 169 838C169 799 197 770 237 770ZM189 116L189 299L399 299L399 411L189 411L189 584L418 584L418 700L66 700L66 0L428 0L428 116Z" />
<glyph glyph-name="edotaccent" unicode="&#x0117;" horiz-adv-x="456" d="M227 610C266 610 296 642 296 679C296 719 266 748 227 748C187 748 159 719 159 679C159 640 187 610 227 610ZM305 167C296 121 278 101 229 101C185 101 160 129 160 192L160 223L417 223L417 341C417 468 346 542 228 542C112 542 42 468 42 341L42 192C42 64 112 -12 227 -12C343 -12 414 54 424 167ZM229 432C275 432 300 404 300 342L300 307L160 307L160 342C160 404 185 432 229 432Z" />
<glyph glyph-name="Eogonek" unicode="&#x0118;" horiz-adv-x="467" d="M430 -100C422 -103 411 -103 402 -103C382 -103 370 -96 370 -75C370 -56 391 -22 428 0L428 116L189 116L189 299L399 299L399 411L189 411L189 584L418 584L418 700L66 700L66 0L329 0C288 -30 261 -66 261 -109C261 -159 295 -194 358 -194C383 -194 407 -193 431 -182Z" />
<glyph glyph-name="eogonek" unicode="&#x0119;" horiz-adv-x="456" d="M303 -194C331 -194 355 -190 376 -182L376 -100C368 -103 358 -103 343 -103C321 -103 305 -92 305 -66C305 -40 330 -1 365 35C395 65 419 112 424 168L305 168C296 123 278 101 229 101C184 101 160 129 160 192L160 223L417 223L417 341C417 468 345 542 228 542C112 542 42 467 42 341L42 192C42 64 111 -12 227 -12C241 -12 254 -10 263 -8L263 -9C228 -38 206 -71 206 -108C206 -160 240 -194 303 -194ZM160 307L160 342C160 405 185 432 229 432C275 432 300 404 300 342L300 307Z" />
<glyph glyph-name="Ecaron" unicode="&#x011a;" horiz-adv-x="465" d="M284 768L365 899L284 899L238 831L191 899L109 899L190 768ZM189 116L189 299L399 299L399 411L189 411L189 584L418 584L418 700L66 700L66 0L428 0L428 116Z" />
<glyph glyph-name="ecaron" unicode="&#x011b;" horiz-adv-x="456" d="M274 609L355 740L274 740L228 672L181 740L99 740L180 609ZM305 167C296 121 278 101 229 101C185 101 160 129 160 192L160 223L417 223L417 341C417 468 346 542 228 542C112 542 42 468 42 341L42 192C42 64 112 -12 227 -12C343 -12 414 54 424 167ZM229 432C275 432 300 404 300 342L300 307L160 307L160 342C160 404 185 432 229 432Z" />
<glyph glyph-name="Gbreve" unicode="&#x011e;" horiz-adv-x="512" d="M259 769C328 769 379 812 382 891L304 891C303 861 283 844 258 844C232 844 213 861 212 891L133 891C136 814 188 769 259 769ZM260 -12C392 -12 470 67 473 209L473 386L256 386L256 277L353 277L353 209C353 138 321 107 262 107C205 107 173 138 173 211L173 489C173 562 204 593 260 593C316 593 343 563 346 492L469 492C464 634 390 712 260 712C126 712 46 634 46 489L46 211C46 67 127 -12 260 -12Z" />
<glyph glyph-name="gbreve" unicode="&#x011f;" horiz-adv-x="474" d="M233 611C302 611 353 654 356 733L278 733C277 703 257 686 232 686C206 686 187 703 186 733L107 733C110 656 162 611 233 611ZM337 529L329 493C299 525 258 542 211 542C113 542 42 461 42 342L42 220C42 104 113 24 211 24C245 24 275 34 300 51L300 -22C300 -60 277 -84 238 -84C198 -84 177 -61 173 -23L57 -23C60 -126 126 -194 238 -194C352 -194 420 -125 420 -22L420 529ZM230 136C185 136 161 164 161 220L161 342C161 400 185 428 230 428C273 428 300 400 300 344L300 220C300 164 275 136 230 136Z" />
<glyph glyph-name="Gdotaccent" unicode="&#x0120;" horiz-adv-x="512" d="M256 770C295 770 325 801 325 838C325 878 295 907 256 907C216 907 188 878 188 838C188 799 216 770 256 770ZM260 -12C392 -12 470 67 473 209L473 386L256 386L256 277L353 277L353 209C353 138 321 107 262 107C205 107 173 138 173 211L173 489C173 562 204 593 260 593C316 593 343 563 346 492L469 492C464 634 390 712 260 712C126 712 46 634 46 489L46 211C46 67 127 -12 260 -12Z" />
<glyph glyph-name="gdotaccent" unicode="&#x0121;" horiz-adv-x="474" d="M231 611C270 611 300 643 300 680C300 720 270 749 231 749C191 749 163 720 163 680C163 641 191 611 231 611ZM337 529L329 493C299 525 258 542 211 542C113 542 42 461 42 342L42 220C42 104 113 24 211 24C245 24 275 34 300 51L300 -22C300 -60 277 -84 238 -84C198 -84 177 -61 173 -23L57 -23C60 -126 126 -194 238 -194C352 -194 420 -125 420 -22L420 529ZM230 136C185 136 161 164 161 220L161 342C161 400 185 428 230 428C273 428 300 400 300 344L300 220C300 164 275 136 230 136Z" />
<glyph glyph-name="Gcommaaccent" unicode="&#x0122;" horiz-adv-x="512" d="M260 -12C392 -12 470 67 473 209L473 386L256 386L256 277L353 277L353 209C353 138 321 107 262 107C205 107 173 138 173 211L173 489C173 562 204 593 260 593C316 593 343 563 346 492L469 492C464 634 390 712 260 712C126 712 46 634 46 489L46 211C46 67 127 -12 260 -12ZM194 -273L265 -273L313 -71L210 -71Z" />
<glyph glyph-name="gcommaaccent" unicode="&#x0123;" horiz-adv-x="474" d="M281 602L226 809L151 809L169 602ZM337 529L329 493C299 525 258 542 211 542C113 542 42 461 42 342L42 220C42 104 113 24 211 24C245 24 275 34 300 51L300 -22C300 -60 277 -84 238 -84C198 -84 177 -61 173 -23L57 -23C60 -126 126 -194 238 -194C352 -194 420 -125 420 -22L420 529ZM230 136C185 136 161 164 161 220L161 342C161 400 185 428 230 428C273 428 300 400 300 344L300 220C300 164 275 136 230 136Z" />
<glyph glyph-name="Hbar" unicode="&#x0126;" horiz-adv-x="579" d="M564 583L498 583L498 700L374 700L374 583L205 583L205 700L82 700L82 583L15 583L15 522L82 522L82 0L205 0L205 295L374 295L374 0L498 0L498 522L564 522ZM374 412L205 412L205 522L374 522Z" />
<glyph glyph-name="hbar" unicode="&#x0127;" horiz-adv-x="471" d="M275 542C231 542 195 520 170 484L170 602L263 602L263 663L170 663L170 725L53 725L53 663L-11 663L-11 602L53 602L53 0L170 0L170 331C170 395 198 429 242 429C283 429 304 400 304 322L304 0L423 0L423 323C423 469 368 542 275 542Z" />
<glyph glyph-name="Imacron" unicode="&#x012a;" horiz-adv-x="254" d="M25 870L25 791L236 791L236 870ZM66 700L66 0L189 0L189 700Z" />
<glyph glyph-name="imacron" unicode="&#x012b;" horiz-adv-x="223" d="M16 713L16 632L207 632L207 713ZM52 0L171 0L171 529L52 529Z" />
<glyph glyph-name="Iogonek" unicode="&#x012e;" horiz-adv-x="255" d="M175 -103C149 -103 133 -94 133 -73C133 -55 147 -22 171 0L189 0L189 700L66 700L66 0L83 0C48 -27 27 -66 27 -104C27 -158 58 -194 129 -194C150 -194 179 -191 205 -181L205 -100C196 -102 186 -103 175 -103Z" />
<glyph glyph-name="iogonek" unicode="&#x012f;" horiz-adv-x="224" d="M108 612C145 612 174 643 174 678C174 717 145 745 108 745C69 745 42 717 42 678C42 641 69 612 108 612ZM154 -103C129 -103 114 -95 114 -72C114 -53 126 -21 145 0L167 0L167 528L48 528L48 -1C23 -31 7 -68 7 -109C7 -159 41 -194 103 -194C130 -194 159 -193 183 -182L183 -100C174 -103 164 -103 154 -103Z" />
<glyph glyph-name="Idotaccent" unicode="&#x0130;" horiz-adv-x="254" d="M128 770C167 770 197 801 197 838C197 878 167 907 128 907C88 907 60 878 60 838C60 799 88 770 128 770ZM66 700L66 0L189 0L189 700Z" />
<glyph glyph-name="dotlessi" unicode="&#x0131;" horiz-adv-x="226" d="M54 0L172 0L172 529L54 529Z" />
<glyph glyph-name="Kcommaaccent" unicode="&#x0136;" horiz-adv-x="517" d="M299 395L487 700L345 700L228 495L187 413L187 700L66 700L66 0L187 0L187 218L230 285L377 0L517 0ZM188 -273L259 -273L307 -71L204 -71Z" />
<glyph glyph-name="kcommaaccent" unicode="&#x0137;" horiz-adv-x="449" d="M280 318L430 529L293 529L171 344L171 725L54 725L54 0L171 0L171 193L202 226L321 0L454 0ZM166 -273L237 -273L285 -71L182 -71Z" />
<glyph glyph-name="Lacute" unicode="&#x0139;" horiz-adv-x="414" d="M294 899L191 899L97 767L183 767ZM189 117L189 700L66 700L66 0L408 0L408 117Z" />
<glyph glyph-name="lacute" unicode="&#x013a;" horiz-adv-x="224" d="M45 767L131 767L242 899L139 899ZM49 0L167 0L167 725L49 725Z" />
<glyph glyph-name="Lcommaaccent" unicode="&#x013b;" horiz-adv-x="414" d="M189 117L189 700L66 700L66 0L408 0L408 117ZM148 -273L219 -273L267 -71L164 -71Z" />
<glyph glyph-name="lcommaaccent" unicode="&#x013c;" horiz-adv-x="216" d="M49 0L167 0L167 725L49 725ZM51 -273L122 -273L170 -71L67 -71Z" />
<glyph glyph-name="Lcaron" unicode="&#x013d;" horiz-adv-x="413" d="M189 700L66 700L66 0L393 0L393 116L189 116ZM393 700L288 700L279 483L349 483Z" />
<glyph glyph-name="lcaron" unicode="&#x013e;" horiz-adv-x="311" d="M218 581L288 581L335 776L233 776ZM49 0L167 0L167 725L49 725Z" />
<glyph glyph-name="Lslash" unicode="&#x0141;" horiz-adv-x="439" d="M217 116L217 336L336 381L336 484L217 439L217 700L94 700L94 393L20 365L20 261L94 289L94 0L433 0L433 116Z" />
<glyph glyph-name="lslash" unicode="&#x0142;" horiz-adv-x="271" d="M260 493L194 471L194 724L77 724L77 432L11 410L11 318L77 340L77 0L194 0L194 379L260 401Z" />
<glyph glyph-name="Nacute" unicode="&#x0143;" horiz-adv-x="563" d="M217 767L303 767L414 899L311 899ZM376 700L376 487C376 423 383 310 393 231L390 228C373 271 352 326 334 371L188 700L66 700L66 0L187 0L187 201C187 274 181 393 172 472L175 475C194 423 219 359 240 304L375 0L497 0L497 700Z" />
<glyph glyph-name="nacute" unicode="&#x0144;" horiz-adv-x="473" d="M351 740L248 740L174 608L259 608ZM272 542C214 542 171 517 144 472L134 529L54 529L54 0L172 0L172 331C172 395 200 429 244 429C285 429 306 400 306 325L306 0L424 0L424 328C424 472 367 542 272 542Z" />
<glyph glyph-name="Ncommaaccent" unicode="&#x0145;" horiz-adv-x="563" d="M376 700L376 487C376 423 383 310 393 231L390 228C373 271 352 326 334 371L188 700L66 700L66 0L187 0L187 201C187 274 181 393 172 472L175 475C194 423 219 359 240 304L375 0L497 0L497 700ZM219 -273L290 -273L338 -71L235 -71Z" />
<glyph glyph-name="ncommaaccent" unicode="&#x0146;" horiz-adv-x="473" d="M272 542C214 542 171 517 144 472L134 529L54 529L54 0L172 0L172 331C172 395 200 429 244 429C285 429 306 400 306 325L306 0L424 0L424 328C424 472 367 542 272 542ZM156 -273L227 -273L275 -71L172 -71Z" />
<glyph glyph-name="Ncaron" unicode="&#x0147;" horiz-adv-x="563" d="M328 768L409 899L328 899L282 831L235 899L153 899L234 768ZM376 700L376 487C376 423 383 310 393 231L390 228C373 271 352 326 334 371L188 700L66 700L66 0L187 0L187 201C187 274 181 393 172 472L175 475C194 423 219 359 240 304L375 0L497 0L497 700Z" />
<glyph glyph-name="ncaron" unicode="&#x0148;" horiz-adv-x="473" d="M283 609L364 740L283 740L237 672L190 740L108 740L189 609ZM272 542C214 542 171 517 144 472L134 529L54 529L54 0L172 0L172 331C172 395 200 429 244 429C285 429 306 400 306 325L306 0L424 0L424 328C424 472 367 542 272 542Z" />
<glyph glyph-name="Eng" unicode="&#x014a;" horiz-adv-x="563" d="M376 700L376 486C376 421 383 307 394 227L391 224C374 269 354 323 335 369L188 700L66 700L66 0L187 0L187 201C187 274 181 393 172 472L175 475C194 423 217 362 239 306L380 -9C377 -56 350 -80 303 -81L303 -194C425 -193 494 -122 497 0L497 700Z" />
<glyph glyph-name="eng" unicode="&#x014b;" horiz-adv-x="473" d="M272 542C215 542 171 517 144 472L134 529L54 529L54 0L172 0L172 331C172 395 200 429 244 429C285 429 306 400 306 325L306 -3C306 -56 279 -83 229 -84L229 -197C354 -196 424 -122 424 4L424 328C424 472 368 542 272 542Z" />
<glyph glyph-name="Omacron" unicode="&#x014c;" horiz-adv-x="533" d="M163 870L163 791L374 791L374 870ZM267 -12C405 -12 487 77 487 225L487 475C487 623 405 712 267 712C128 712 46 623 46 475L46 225C46 77 128 -12 267 -12ZM267 107C205 107 173 149 173 225L173 475C173 551 205 593 267 593C329 593 360 551 360 475L360 225C360 149 329 107 267 107Z" />
<glyph glyph-name="omacron" unicode="&#x014d;" horiz-adv-x="467" d="M127 712L127 634L338 634L338 712ZM233 -13C353 -13 425 61 425 193L425 336C425 468 353 542 233 542C114 542 42 468 42 336L42 193C42 61 114 -13 233 -13ZM233 102C188 102 162 130 162 193L162 336C162 400 188 427 233 427C279 427 305 400 305 336L305 193C305 130 279 102 233 102Z" />
<glyph glyph-name="Ohungarumlaut" unicode="&#x0150;" horiz-adv-x="533" d="M308 900L214 900L139 768L217 768ZM450 900L356 900L276 768L354 768ZM267 -12C405 -12 487 77 487 225L487 475C487 623 405 712 267 712C128 712 46 623 46 475L46 225C46 77 128 -12 267 -12ZM267 107C205 107 173 149 173 225L173 475C173 551 205 593 267 593C329 593 360 551 360 475L360 225C360 149 329 107 267 107Z" />
<glyph glyph-name="ohungarumlaut" unicode="&#x0151;" horiz-adv-x="467" d="M271 741L177 741L102 609L180 609ZM413 741L319 741L239 609L317 609ZM233 -13C353 -13 425 61 425 193L425 336C425 468 353 542 233 542C114 542 42 468 42 336L42 193C42 61 114 -13 233 -13ZM233 102C188 102 162 130 162 193L162 336C162 400 188 427 233 427C279 427 305 400 305 336L305 193C305 130 279 102 233 102Z" />
<glyph glyph-name="OE" unicode="&#x0152;" horiz-adv-x="760" d="M484 116L484 299L694 299L694 411L484 411L484 584L713 584L713 700L361 700L361 667C331 696 295 712 251 712C124 712 46 623 46 475L46 225C46 77 124 -12 251 -12C295 -12 331 4 361 33L361 0L724 0L724 116ZM360 225C360 149 326 107 261 107C202 107 173 149 173 225L173 475C173 551 202 593 261 593C326 593 360 551 360 475Z" />
<glyph glyph-name="oe" unicode="&#x0153;" horiz-adv-x="714" d="M563 169C556 122 537 101 489 101C445 101 421 129 421 192L421 224L676 224L676 340C676 467 606 540 488 540C436 540 392 521 362 484C330 521 286 540 232 540C113 540 42 469 42 335L42 194C42 62 113 -12 232 -12C286 -12 330 7 362 46C392 8 436 -12 488 -12C602 -12 673 55 682 169ZM421 341C421 403 445 431 489 431C535 431 560 403 560 341L560 307L421 307ZM304 194C304 131 278 103 232 103C186 103 161 131 161 194L161 335C161 399 186 426 232 426C278 426 304 399 304 335Z" />
<glyph glyph-name="Racute" unicode="&#x0154;" horiz-adv-x="516" d="M397 899L294 899L200 767L286 767ZM370 0L505 0L364 266C435 300 474 372 474 474C474 617 395 700 258 700L66 700L66 0L189 0L189 244L245 244ZM189 583L257 583C316 583 348 545 348 473C348 400 316 361 257 361L189 361Z" />
<glyph glyph-name="racute" unicode="&#x0155;" horiz-adv-x="345" d="M301 741L198 741L124 609L209 609ZM279 541C218 541 172 516 144 471L134 529L54 529L54 0L172 0L172 329C172 396 210 430 271 430C296 430 317 425 336 417L336 531C321 538 302 541 279 541Z" />
<glyph glyph-name="Rcommaaccent" unicode="&#x0156;" horiz-adv-x="516" d="M364 266C435 300 474 372 474 474C474 617 395 700 258 700L66 700L66 0L189 0L189 244L245 244L370 0L505 0ZM189 583L257 583C316 583 348 545 348 473C348 400 316 361 257 361L189 361ZM202 -273L273 -273L321 -71L218 -71Z" />
<glyph glyph-name="rcommaaccent" unicode="&#x0157;" horiz-adv-x="345" d="M279 541C218 541 172 516 144 471L134 529L54 529L54 0L172 0L172 329C172 396 210 430 271 430C296 430 317 425 336 417L336 531C321 538 302 541 279 541ZM64 -273L135 -273L183 -71L80 -71Z" />
<glyph glyph-name="Rcaron" unicode="&#x0158;" horiz-adv-x="516" d="M311 768L392 899L311 899L265 831L218 899L136 899L217 768ZM370 0L505 0L364 266C435 300 474 372 474 474C474 617 395 700 258 700L66 700L66 0L189 0L189 244L245 244ZM189 583L257 583C316 583 348 545 348 473C348 400 316 361 257 361L189 361Z" />
<glyph glyph-name="rcaron" unicode="&#x0159;" horiz-adv-x="345" d="M233 610L314 741L233 741L187 673L140 741L58 741L139 610ZM279 541C218 541 172 516 144 471L134 529L54 529L54 0L172 0L172 329C172 396 210 430 271 430C296 430 317 425 336 417L336 531C321 538 302 541 279 541Z" />
<glyph glyph-name="Sacute" unicode="&#x015a;" horiz-adv-x="472" d="M171 767L257 767L368 899L265 899ZM234 -14C369 -14 446 73 446 183C446 403 161 407 161 529C161 569 188 595 234 595C281 595 309 568 310 512L436 512C435 637 359 714 234 714C110 714 36 636 36 532C36 321 318 311 318 184C318 139 291 106 235 106C182 106 149 135 148 198L22 198C23 63 105 -14 234 -14Z" />
<glyph glyph-name="sacute" unicode="&#x015b;" horiz-adv-x="425" d="M328 743L225 743L151 611L236 611ZM219 -14C334 -14 402 51 402 147C402 338 147 305 147 390C147 418 170 437 207 437C252 437 272 411 274 369L388 369C382 468 327 542 207 542C99 542 30 485 30 391C30 211 284 241 284 147C284 115 259 94 216 94C160 94 140 130 139 166L21 166C23 70 90 -14 219 -14Z" />
<glyph glyph-name="Scedilla" unicode="&#x015e;" horiz-adv-x="472" d="M446 183C446 403 161 407 161 529C161 569 188 595 234 595C281 595 309 568 310 512L436 512C435 637 359 714 234 714C110 714 36 636 36 532C36 321 318 311 318 184C318 139 291 106 235 106C182 106 149 135 148 198L22 198C23 72 95 -4 209 -13L191 -77L210 -96C220 -90 234 -88 244 -88C268 -88 279 -100 279 -118C279 -137 267 -152 243 -152C223 -152 210 -142 203 -125L137 -125C142 -177 188 -212 242 -212C305 -212 348 -176 348 -121C348 -77 317 -47 275 -47C270 -47 267 -47 265 -48L275 -11C384 5 446 85 446 183Z" />
<glyph glyph-name="scedilla" unicode="&#x015f;" horiz-adv-x="425" d="M402 147C402 338 147 305 147 390C147 418 170 437 207 437C252 437 272 411 274 369L388 369C382 468 327 542 207 542C99 542 30 485 30 391C30 211 284 241 284 147C284 115 259 94 216 94C160 94 140 130 139 166L21 166C23 80 76 4 180 -11L161 -77L180 -96C190 -90 204 -88 214 -88C238 -88 249 -100 249 -118C249 -137 237 -152 213 -152C193 -152 180 -142 173 -125L107 -125C112 -177 158 -212 212 -212C275 -212 318 -176 318 -121C318 -77 287 -47 245 -47C240 -47 237 -47 235 -48L245 -13C344 -4 402 58 402 147Z" />
<glyph glyph-name="Scaron" unicode="&#x0160;" horiz-adv-x="472" d="M282 768L363 899L282 899L236 831L189 899L107 899L188 768ZM161 529C161 569 188 595 234 595C281 595 309 568 310 512L436 512C435 637 359 714 234 714C110 714 36 636 36 532C36 321 318 311 318 184C318 139 291 106 235 106C182 106 149 135 148 198L22 198C23 63 105 -14 234 -14C369 -14 446 73 446 183C446 403 161 407 161 529Z" />
<glyph glyph-name="scaron" unicode="&#x0161;" horiz-adv-x="425" d="M260 612L341 743L260 743L214 675L167 743L85 743L166 612ZM147 390C147 418 170 437 207 437C252 437 272 411 274 369L388 369C382 468 327 542 207 542C99 542 30 485 30 391C30 211 284 241 284 147C284 115 259 94 216 94C160 94 140 130 139 166L21 166C23 70 90 -14 219 -14C334 -14 402 51 402 147C402 338 147 305 147 390Z" />
<glyph glyph-name="uni0162" unicode="&#x0162;" horiz-adv-x="440" d="M424 700L16 700L16 583L157 583L157 0L283 0L283 583L424 583ZM158 -273L229 -273L277 -71L174 -71Z" />
<glyph glyph-name="uni0163" unicode="&#x0163;" horiz-adv-x="311" d="M265 104C219 104 198 127 198 177L198 422L290 422L290 529L198 529L198 655L81 655L81 529L10 529L10 422L81 422L81 178C81 64 148 -7 258 -7L298 -7L298 104ZM119 -273L190 -273L238 -71L135 -71Z" />
<glyph glyph-name="Tcaron" unicode="&#x0164;" horiz-adv-x="440" d="M267 768L348 899L267 899L221 831L174 899L92 899L173 768ZM424 700L16 700L16 583L157 583L157 0L283 0L283 583L424 583Z" />
<glyph glyph-name="tcaron" unicode="&#x0165;" horiz-adv-x="400" d="M273 775L254 592L326 592L372 775ZM198 177L198 422L290 422L290 529L198 529L198 655L81 655L81 529L10 529L10 422L81 422L81 178C81 64 148 -7 258 -7L298 -7L298 104L265 104C219 104 198 127 198 177Z" />
<glyph glyph-name="Tbar" unicode="&#x0166;" horiz-adv-x="440" d="M424 583L424 700L16 700L16 583L157 583L157 387L78 387L78 318L157 318L157 0L283 0L283 318L361 318L361 387L283 387L283 583Z" />
<glyph glyph-name="tbar" unicode="&#x0167;" horiz-adv-x="326" d="M265 104C219 104 198 127 198 177L198 242L264 242L264 318L198 318L198 422L290 422L290 529L198 529L198 655L81 655L81 529L10 529L10 422L81 422L81 318L27 318L27 242L81 242L81 178C81 64 148 -7 258 -7L298 -7L298 104Z" />
<glyph glyph-name="Umacron" unicode="&#x016a;" horiz-adv-x="538" d="M166 870L166 791L377 791L377 870ZM269 -11C403 -11 485 74 485 221L485 700L357 700L357 221C357 146 325 108 269 108C213 108 181 146 181 221L181 700L54 700L54 221C54 74 136 -11 269 -11Z" />
<glyph glyph-name="umacron" unicode="&#x016b;" horiz-adv-x="473" d="M338 711L127 711L127 633L338 633ZM301 529L301 198C301 134 273 100 229 100C188 100 167 129 167 204L167 529L49 529L49 201C49 57 106 -13 201 -13C259 -13 302 12 329 57L339 0L419 0L419 529Z" />
<glyph glyph-name="Uring" unicode="&#x016e;" horiz-adv-x="538" d="M186 848C186 797 220 763 272 763C324 763 359 797 359 848C359 897 324 931 272 931C220 931 186 897 186 848ZM240 847C240 867 253 880 272 880C292 880 305 867 305 847C305 827 292 814 272 814C253 814 240 827 240 847ZM269 -11C403 -11 485 74 485 221L485 700L357 700L357 221C357 146 325 108 269 108C213 108 181 146 181 221L181 700L54 700L54 221C54 74 136 -11 269 -11Z" />
<glyph glyph-name="uring" unicode="&#x016f;" horiz-adv-x="473" d="M233 605C285 605 320 639 320 690C320 739 285 773 233 773C181 773 147 739 147 690C147 639 181 605 233 605ZM233 722C253 722 266 709 266 689C266 669 253 656 233 656C214 656 201 669 201 689C201 709 214 722 233 722ZM301 529L301 198C301 134 273 100 229 100C188 100 167 129 167 204L167 529L49 529L49 201C49 57 106 -13 201 -13C259 -13 302 12 329 57L339 0L419 0L419 529Z" />
<glyph glyph-name="Uhungarumlaut" unicode="&#x0170;" horiz-adv-x="538" d="M311 900L217 900L142 768L220 768ZM453 900L359 900L279 768L357 768ZM269 -11C403 -11 485 74 485 221L485 700L357 700L357 221C357 146 325 108 269 108C213 108 181 146 181 221L181 700L54 700L54 221C54 74 136 -11 269 -11Z" />
<glyph glyph-name="uhungarumlaut" unicode="&#x0171;" horiz-adv-x="473" d="M271 740L177 740L102 608L180 608ZM317 608L413 740L319 740L239 608ZM301 529L301 198C301 134 273 100 229 100C188 100 167 129 167 204L167 529L49 529L49 201C49 57 106 -13 201 -13C259 -13 302 12 329 57L339 0L419 0L419 529Z" />
<glyph glyph-name="Uogonek" unicode="&#x0172;" horiz-adv-x="537" d="M321 -194C346 -194 370 -192 394 -182L394 -100C385 -103 374 -103 365 -103C345 -103 332 -96 332 -74C332 -36 372 2 405 31C451 71 483 123 483 218L483 700L356 700L356 218C356 146 324 108 268 108C213 108 181 146 181 218L181 700L54 700L54 218C54 77 133 -7 261 -11C268 -11 275 -9 280 -5L281 -7C247 -36 224 -70 224 -110C224 -159 258 -194 321 -194Z" />
<glyph glyph-name="uogonek" unicode="&#x0173;" horiz-adv-x="473" d="M419 0L419 529L301 529L301 198C301 134 273 100 229 100C187 100 167 129 167 203L167 529L49 529L49 201C49 57 106 -13 201 -13C259 -13 302 12 329 57L339 0C287 -31 258 -66 258 -110C258 -157 289 -194 346 -194C371 -194 395 -193 419 -182L419 -100C410 -102 399 -103 391 -103C372 -103 358 -96 358 -78C358 -55 380 -23 419 0Z" />
<glyph glyph-name="Wcircumflex" unicode="&#x0174;" horiz-adv-x="773" d="M394 835L440 767L521 767L440 898L346 898L265 767L347 767ZM641 700L578 345C569 294 554 205 548 154L544 154C537 205 522 292 513 347L451 690L322 690L260 347C251 292 236 205 229 154L225 154C219 205 204 294 195 345L132 700L5 700L162 0L293 0L351 269C367 340 380 439 385 496L389 496C393 439 406 340 422 269L480 0L611 0L768 700Z" />
<glyph glyph-name="wcircumflex" unicode="&#x0175;" horiz-adv-x="652" d="M323 676L369 608L450 608L369 739L275 739L194 608L276 608ZM528 529L491 320C481 259 467 170 463 130L458 130C452 177 439 253 428 315L389 519L264 519L224 315C213 253 200 177 194 130L189 130C185 170 171 259 161 320L124 529L2 529L125 0L253 0L288 152C305 230 319 318 324 376L329 376C333 318 347 230 365 152L400 0L527 0L650 529Z" />
<glyph glyph-name="Ycircumflex" unicode="&#x0176;" horiz-adv-x="460" d="M230 835L276 767L357 767L276 898L182 898L101 767L183 767ZM331 700L265 490C256 462 241 411 232 377L229 377C220 411 205 462 196 488L129 700L1 700L169 218L169 0L292 0L292 218L459 700Z" />
<glyph glyph-name="ycircumflex" unicode="&#x0177;" horiz-adv-x="434" d="M215 679L261 611L342 611L261 742L167 742L86 611L168 611ZM311 529L223 224L125 529L2 529L173 54L156 -6C143 -50 130 -75 93 -75L56 -75L56 -189L117 -189C201 -189 242 -119 268 -27L432 529Z" />
<glyph glyph-name="Ydieresis" unicode="&#x0178;" horiz-adv-x="460" d="M153 778C186 778 208 800 208 834C208 868 186 890 153 890C119 890 97 868 97 834C97 800 119 778 153 778ZM307 778C341 778 363 800 363 834C363 868 341 890 307 890C273 890 251 868 251 834C251 800 273 778 307 778ZM169 0L292 0L292 218L459 700L331 700L265 490C256 462 241 411 232 377L229 377C220 411 205 462 196 488L129 700L1 700L169 218Z" />
<glyph glyph-name="Zacute" unicode="&#x0179;" horiz-adv-x="427" d="M152 767L238 767L349 899L246 899ZM166 117L400 615L400 700L31 700L31 583L250 583L15 84L15 0L405 0L405 117Z" />
<glyph glyph-name="zacute" unicode="&#x017a;" horiz-adv-x="371" d="M295 741L192 741L118 609L203 609ZM158 108L347 454L347 529L25 529L25 420L198 420L6 75L6 0L357 0L357 108Z" />
<glyph glyph-name="Zdotaccent" unicode="&#x017b;" horiz-adv-x="427" d="M215 782C254 782 284 814 284 851C284 891 254 920 215 920C175 920 147 891 147 851C147 812 175 782 215 782ZM166 117L400 615L400 700L31 700L31 583L250 583L15 84L15 0L405 0L405 117Z" />
<glyph glyph-name="zdotaccent" unicode="&#x017c;" horiz-adv-x="371" d="M180 611C219 611 249 643 249 680C249 720 219 749 180 749C140 749 112 720 112 680C112 641 140 611 180 611ZM158 108L347 454L347 529L25 529L25 420L198 420L6 75L6 0L357 0L357 108Z" />
<glyph glyph-name="Zcaron" unicode="&#x017d;" horiz-adv-x="427" d="M263 768L344 899L263 899L217 831L170 899L88 899L169 768ZM166 117L400 615L400 700L31 700L31 583L250 583L15 84L15 0L405 0L405 117Z" />
<glyph glyph-name="zcaron" unicode="&#x017e;" horiz-adv-x="371" d="M227 610L308 741L227 741L181 673L134 741L52 741L133 610ZM158 108L347 454L347 529L25 529L25 420L198 420L6 75L6 0L357 0L357 108Z" />
<glyph glyph-name="Scommaaccent" unicode="&#x0218;" horiz-adv-x="472" d="M234 -14C369 -14 446 73 446 183C446 403 161 407 161 529C161 569 188 595 234 595C281 595 309 568 310 512L436 512C435 637 359 714 234 714C110 714 36 636 36 532C36 321 318 311 318 184C318 139 291 106 235 106C182 106 149 135 148 198L22 198C23 63 105 -14 234 -14ZM177 -273L248 -273L296 -71L193 -71Z" />
<glyph glyph-name="scommaaccent" unicode="&#x0219;" horiz-adv-x="425" d="M219 -14C334 -14 402 51 402 147C402 338 147 305 147 390C147 418 170 437 207 437C252 437 272 411 274 369L388 369C382 468 327 542 207 542C99 542 30 485 30 391C30 211 284 241 284 147C284 115 259 94 216 94C160 94 140 130 139 166L21 166C23 70 90 -14 219 -14ZM156 -273L227 -273L275 -71L172 -71Z" />
<glyph glyph-name="uni021A" unicode="&#x021a;" horiz-adv-x="440" d="M424 700L16 700L16 583L157 583L157 0L283 0L283 583L424 583ZM158 -273L229 -273L277 -71L174 -71Z" />
<glyph glyph-name="uni021B" unicode="&#x021b;" horiz-adv-x="311" d="M265 104C219 104 198 127 198 177L198 422L290 422L290 529L198 529L198 655L81 655L81 529L10 529L10 422L81 422L81 178C81 64 148 -7 258 -7L298 -7L298 104ZM119 -273L190 -273L238 -71L135 -71Z" />
<glyph glyph-name="gravecomb" unicode="&#x0300;" horiz-adv-x="0" d="M-177 741L-85 609L0 609L-74 741Z" />
<glyph glyph-name="acutecomb" unicode="&#x0301;" horiz-adv-x="0" d="M0 741L-103 741L-177 609L-92 609Z" />
<glyph glyph-name="uni0302" unicode="&#x0302;" horiz-adv-x="0" d="M1 609L-80 740L-174 740L-255 609L-173 609L-126 677L-80 609Z" />
<glyph glyph-name="tildecomb" unicode="&#x0303;" horiz-adv-x="0" d="M-164 651C-140 651 -127 622 -86 622C-37 622 -4 660 0 721L-71 721C-73 706 -83 695 -97 695C-120 695 -133 724 -175 724C-222 724 -257 690 -261 625L-189 625C-187 642 -176 651 -164 651Z" />
<glyph glyph-name="uni0304" unicode="&#x0304;" horiz-adv-x="0" d="M-211 712L-211 634L0 634L0 712Z" />
<glyph glyph-name="uni0306" unicode="&#x0306;" horiz-adv-x="0" d="M-124 611C-55 611 -4 654 -1 733L-79 733C-80 703 -100 686 -125 686C-151 686 -170 703 -171 733L-250 733C-247 656 -195 611 -124 611Z" />
<glyph glyph-name="uni0307" unicode="&#x0307;" horiz-adv-x="0" d="M-101 611C-62 611 -32 643 -32 680C-32 720 -62 749 -101 749C-141 749 -169 720 -169 680C-169 641 -141 611 -101 611Z" />
<glyph glyph-name="uni0308" unicode="&#x0308;" horiz-adv-x="0" d="M-208 617C-174 617 -152 639 -152 673C-152 707 -174 728 -208 728C-242 728 -264 707 -264 673C-264 639 -242 617 -208 617ZM-56 617C-23 617 0 639 0 673C0 707 -23 728 -56 728C-90 728 -113 707 -113 673C-113 639 -90 617 -56 617Z" />
<glyph glyph-name="uni030A" unicode="&#x030a;" horiz-adv-x="0" d="M-177 691C-177 640 -143 606 -91 606C-39 606 -4 640 -4 691C-4 740 -39 774 -91 774C-143 774 -177 740 -177 691ZM-123 690C-123 710 -110 723 -91 723C-71 723 -58 710 -58 690C-58 670 -71 657 -91 657C-110 657 -123 670 -123 690Z" />
<glyph glyph-name="uni030B" unicode="&#x030b;" horiz-adv-x="0" d="M-142 741L-236 741L-311 609L-233 609ZM0 741L-94 741L-174 609L-96 609Z" />
<glyph glyph-name="uni030C" unicode="&#x030c;" horiz-adv-x="0" d="M-74 741L-120 673L-167 741L-249 741L-168 610L-74 610L7 741Z" />
<glyph glyph-name="uni0312" unicode="&#x0312;" horiz-adv-x="0" d="M-55 809L-130 809L-112 602L0 602Z" />
<glyph glyph-name="uni0326" unicode="&#x0326;" horiz-adv-x="0" d="M-119 -273L-48 -273L0 -71L-103 -71Z" />
<glyph glyph-name="uni0327" unicode="&#x0327;" horiz-adv-x="0" d="M-110 -212C-47 -212 -4 -176 -4 -121C-4 -77 -35 -47 -77 -47C-82 -47 -85 -47 -87 -48L-74 0L-139 0L-161 -77L-142 -96C-132 -90 -118 -88 -108 -88C-84 -88 -73 -100 -73 -118C-73 -137 -85 -152 -109 -152C-129 -152 -142 -142 -149 -125L-215 -125C-210 -177 -164 -212 -110 -212Z" />
<glyph glyph-name="uni0328" unicode="&#x0328;" horiz-adv-x="0" d="M-8 -182L-8 -100C-17 -103 -28 -103 -37 -103C-57 -103 -70 -96 -70 -76C-70 -56 -50 -23 -17 0L-118 0C-154 -30 -178 -67 -178 -109C-178 -159 -144 -194 -81 -194C-56 -194 -32 -193 -8 -182Z" />
<glyph glyph-name="uni0335" unicode="&#x0335;" horiz-adv-x="0" d="M-210 372L-10 372L-10 433L-210 433Z" />
<glyph glyph-name="uni0336" unicode="&#x0336;" horiz-adv-x="0" d="M-330 433L-330 372L-10 372L-10 433Z" />
<glyph glyph-name="uni0337" unicode="&#x0337;" horiz-adv-x="0" d="M-284 -43L-157 -43L0 553L-128 553Z" />
<glyph glyph-name="uni0338" unicode="&#x0338;" horiz-adv-x="0" d="M-360 -39L-235 -39L-24 739L-149 739Z" />
<glyph glyph-name="uni0401" unicode="&#x0401;" horiz-adv-x="465" d="M175 778C208 778 230 800 230 834C230 868 208 890 175 890C141 890 119 868 119 834C119 800 141 778 175 778ZM329 778C363 778 385 800 385 834C385 868 363 890 329 890C295 890 273 868 273 834C273 800 295 778 329 778ZM189 116L189 299L399 299L399 411L189 411L189 584L418 584L418 700L66 700L66 0L428 0L428 116Z" />
<glyph glyph-name="uni0402" unicode="&#x0402;" horiz-adv-x="573" d="M384 511C340 511 304 490 280 456L280 583L419 583L419 700L16 700L16 583L154 583L154 0L280 0L280 312C280 368 309 399 352 399C392 399 413 370 413 292L413 198C413 137 387 108 336 108L336 -5C460 -5 531 68 532 197L532 293C532 439 478 511 384 511Z" />
<glyph glyph-name="uni0403" unicode="&#x0403;" horiz-adv-x="426" d="M364 899L261 899L167 767L253 767ZM410 700L66 700L66 0L189 0L189 583L410 583Z" />
<glyph glyph-name="uni0404" unicode="&#x0404;" horiz-adv-x="498" d="M352 208C347 138 317 107 256 107C204 107 173 140 173 210L173 304L333 304L333 406L173 406L173 490C173 562 204 595 255 595C315 595 345 564 349 492L472 492C466 635 390 714 256 714C125 714 46 635 46 490L46 210C46 66 126 -12 256 -12C391 -12 470 66 475 208Z" />
<glyph glyph-name="uni0405" unicode="&#x0405;" horiz-adv-x="472" d="M234 -14C369 -14 446 73 446 183C446 403 161 407 161 529C161 569 188 595 234 595C281 595 309 568 310 512L436 512C435 637 359 714 234 714C110 714 36 636 36 532C36 321 318 311 318 184C318 139 291 106 235 106C182 106 149 135 148 198L22 198C23 63 105 -14 234 -14Z" />
<glyph glyph-name="uni0406" unicode="&#x0406;" horiz-adv-x="254" d="M66 700L66 0L189 0L189 700Z" />
<glyph glyph-name="uni0407" unicode="&#x0407;" horiz-adv-x="254" d="M51 778C84 778 106 800 106 834C106 868 84 890 51 890C17 890 -5 868 -5 834C-5 800 17 778 51 778ZM205 778C239 778 261 800 261 834C261 868 239 890 205 890C171 890 149 868 149 834C149 800 171 778 205 778ZM66 700L66 0L189 0L189 700Z" />
<glyph glyph-name="uni0408" unicode="&#x0408;" horiz-adv-x="304" d="M0 -136C159 -136 241 -45 241 109L241 700L118 700L118 109C118 14 76 -14 0 -14Z" />
<glyph glyph-name="uni0409" unicode="&#x0409;" horiz-adv-x="770" d="M0 -11C110 -11 171 23 197 172C210 255 220 417 228 584L354 584L354 0L537 0C680 0 751 69 751 208C751 342 683 428 537 428L481 428L481 700L112 700C101 430 93 273 82 206C71 126 46 102 0 102ZM481 113L481 311L528 311C591 311 624 279 624 212C624 144 591 113 528 113Z" />
<glyph glyph-name="uni040A" unicode="&#x040a;" horiz-adv-x="786" d="M550 421L479 421L479 700L356 700L356 420L189 420L189 700L66 700L66 0L189 0L189 303L356 303L356 0L550 0C697 0 767 69 767 210C767 335 697 421 550 421ZM541 113L479 113L479 304L541 304C606 304 639 274 639 210C639 144 606 113 541 113Z" />
<glyph glyph-name="uni040B" unicode="&#x040b;" horiz-adv-x="580" d="M384 511C340 511 304 490 280 456L280 583L419 583L419 700L16 700L16 583L154 583L154 0L280 0L280 315C284 369 311 399 352 399C392 399 413 370 413 292L413 0L532 0L532 293C532 439 478 511 384 511Z" />
<glyph glyph-name="uni040C" unicode="&#x040c;" horiz-adv-x="517" d="M358 899L255 899L161 767L247 767ZM377 0L517 0L299 395L487 700L345 700L228 495L187 413L187 700L66 700L66 0L187 0L187 218L230 285Z" />
<glyph glyph-name="uni040D" unicode="&#x040d;" horiz-adv-x="563" d="M360 767L266 899L163 899L274 767ZM66 0L188 0L329 323C350 371 369 427 387 475L390 472C382 398 377 284 377 218L377 0L497 0L497 700L374 700L225 358C206 316 189 268 174 229L171 231C180 307 186 413 186 471L186 700L66 700Z" />
<glyph glyph-name="uni040E" unicode="&#x040e;" horiz-adv-x="454" d="M230 769C299 769 350 812 353 891L275 891C274 861 254 844 229 844C203 844 184 861 183 891L104 891C107 814 159 769 230 769ZM324 700L233 387L133 700L3 700L178 197C155 119 133 99 79 99L49 99L49 -11L75 -11C192 -11 244 22 287 160L453 700Z" />
<glyph glyph-name="uni040F" unicode="&#x040f;" horiz-adv-x="546" d="M213 -118L334 -118L334 0L481 0L481 700L358 700L358 117L189 117L189 700L66 700L66 0L213 0Z" />
<glyph glyph-name="uni0410" unicode="&#x0410;" horiz-adv-x="485" d="M353 0L481 0L309 700L177 700L5 0L133 0L161 127L325 127ZM186 244L214 374C224 422 235 499 241 546L244 546C251 499 262 422 272 374L300 244Z" />
<glyph glyph-name="uni0411" unicode="&#x0411;" horiz-adv-x="510" d="M267 429L189 429L189 585L443 585L443 700L66 700L66 0L267 0C409 0 482 70 482 215C482 342 409 429 267 429ZM258 117L189 117L189 314L258 314C318 314 355 282 355 215C355 147 318 117 258 117Z" />
<glyph glyph-name="uni0412" unicode="&#x0412;" horiz-adv-x="513" d="M392 359C432 390 456 445 456 505C456 623 381 700 271 700L66 700L66 0L277 0C398 0 481 80 481 205C481 273 448 331 392 359ZM252 584C306 584 331 556 331 500C331 443 306 412 256 412L189 412L189 584ZM258 116L189 116L189 297L257 297C319 297 355 266 355 205C355 146 322 116 258 116Z" />
<glyph glyph-name="uni0413" unicode="&#x0413;" horiz-adv-x="426" d="M410 700L66 700L66 0L189 0L189 583L410 583Z" />
<glyph glyph-name="uni0414" unicode="&#x0414;" horiz-adv-x="579" d="M501 115L501 700L141 700L129 387C125 285 105 176 48 115L5 115L5 -118L126 -118L126 0L443 0L443 -118L564 -118L564 115ZM379 115L192 115C227 178 244 260 247 352L256 584L379 584Z" />
<glyph glyph-name="uni0415" unicode="&#x0415;" horiz-adv-x="465" d="M189 116L189 299L399 299L399 411L189 411L189 584L418 584L418 700L66 700L66 0L428 0L428 116Z" />
<glyph glyph-name="uni0416" unicode="&#x0416;" horiz-adv-x="742" d="M606 0L742 0L530 383L724 700L585 700L474 500L431 413L431 700L311 700L311 414L270 498L158 700L18 700L212 384L0 0L137 0L277 280L311 227L311 0L431 0L431 226L465 279Z" />
<glyph glyph-name="uni0417" unicode="&#x0417;" horiz-adv-x="489" d="M350 364C419 393 446 440 446 511C446 636 365 715 241 715C104 715 33 622 25 492L147 492C150 551 173 597 241 597C294 597 322 563 322 510C322 445 290 413 222 413L181 413L181 306L231 306C300 306 341 271 341 205C341 141 297 105 240 105C170 105 139 157 137 207L13 207C18 89 99 -14 241 -14C368 -14 467 66 467 198C467 277 438 339 350 364Z" />
<glyph glyph-name="uni0418" unicode="&#x0418;" horiz-adv-x="563" d="M66 0L188 0L329 323C350 371 369 427 387 475L390 472C382 398 377 284 377 218L377 0L497 0L497 700L374 700L225 358C206 316 189 268 174 229L171 231C180 307 186 413 186 471L186 700L66 700Z" />
<glyph glyph-name="uni0419" unicode="&#x0419;" horiz-adv-x="563" d="M285 769C354 769 405 812 408 891L330 891C329 861 309 844 284 844C258 844 239 861 238 891L159 891C162 814 214 769 285 769ZM66 0L188 0L329 323C350 371 369 427 387 475L390 472C382 398 377 284 377 218L377 0L497 0L497 700L374 700L225 358C206 316 189 268 174 229L171 231C180 307 186 413 186 471L186 700L66 700Z" />
<glyph glyph-name="uni041A" unicode="&#x041a;" horiz-adv-x="517" d="M377 0L517 0L299 395L487 700L345 700L228 495L187 413L187 700L66 700L66 0L187 0L187 218L230 285Z" />
<glyph glyph-name="uni041B" unicode="&#x041b;" horiz-adv-x="549" d="M112 700C99 408 91 274 79 202C65 121 43 100 0 100L0 -11C107 -11 174 22 197 172C210 253 220 390 230 584L360 584L360 0L483 0L483 700Z" />
<glyph glyph-name="uni041C" unicode="&#x041c;" horiz-adv-x="708" d="M518 700L405 426C390 389 365 325 356 296L352 296C343 325 319 389 304 426L190 700L66 700L66 0L186 0L186 219C183 301 180 381 176 460L181 462C202 404 224 341 246 278L293 154L415 154L462 278C484 341 507 404 527 462L532 460C528 381 525 301 522 219L522 0L643 0L643 700Z" />
<glyph glyph-name="uni041D" unicode="&#x041d;" horiz-adv-x="548" d="M358 700L358 412L189 412L189 700L66 700L66 0L189 0L189 295L358 295L358 0L482 0L482 700Z" />
<glyph glyph-name="uni041E" unicode="&#x041e;" horiz-adv-x="533" d="M267 -12C405 -12 487 77 487 225L487 475C487 623 405 712 267 712C128 712 46 623 46 475L46 225C46 77 128 -12 267 -12ZM267 107C205 107 173 149 173 225L173 475C173 551 205 593 267 593C329 593 360 551 360 475L360 225C360 149 329 107 267 107Z" />
<glyph glyph-name="uni041F" unicode="&#x041f;" horiz-adv-x="546" d="M481 700L66 700L66 0L189 0L189 583L358 583L358 0L481 0Z" />
<glyph glyph-name="uni0420" unicode="&#x0420;" horiz-adv-x="514" d="M260 700L66 700L66 0L189 0L189 235L260 235C401 235 484 320 484 467C484 614 401 700 260 700ZM259 351L189 351L189 583L259 583C325 583 358 544 358 467C358 390 325 351 259 351Z" />
<glyph glyph-name="uni0421" unicode="&#x0421;" horiz-adv-x="498" d="M256 -12C391 -12 470 66 475 208L352 208C347 138 317 107 256 107C204 107 173 140 173 210L173 490C173 562 204 595 255 595C315 595 345 564 349 492L472 492C466 635 390 714 256 714C125 714 46 635 46 490L46 210C46 66 126 -12 256 -12Z" />
<glyph glyph-name="uni0422" unicode="&#x0422;" horiz-adv-x="440" d="M424 700L16 700L16 583L157 583L157 0L283 0L283 583L424 583Z" />
<glyph glyph-name="uni0423" unicode="&#x0423;" horiz-adv-x="454" d="M324 700L233 387L133 700L3 700L178 197C155 119 133 99 79 99L49 99L49 -11L75 -11C192 -11 244 22 287 160L453 700Z" />
<glyph glyph-name="uni0424" unicode="&#x0424;" horiz-adv-x="680" d="M279 -66L401 -66L401 13L415 13C552 13 657 106 657 272L657 422C657 590 552 687 415 687L401 687L401 761L279 761L279 687L265 687C128 687 23 590 23 422L23 272C23 106 128 13 265 13L279 13ZM259 131C194 131 146 171 146 272L146 422C146 527 194 569 259 569L279 569L279 131ZM401 131L401 569L420 569C486 569 534 527 534 422L534 272C534 171 486 131 420 131Z" />
<glyph glyph-name="uni0425" unicode="&#x0425;" horiz-adv-x="492" d="M478 0L312 362L468 700L334 700L246 488L158 700L24 700L180 362L14 0L149 0L246 233L343 0Z" />
<glyph glyph-name="uni0426" unicode="&#x0426;" horiz-adv-x="557" d="M422 -118L543 -118L543 117L479 117L479 700L355 700L355 117L189 117L189 700L66 700L66 0L422 0Z" />
<glyph glyph-name="uni0427" unicode="&#x0427;" horiz-adv-x="519" d="M331 700L331 361C307 353 281 349 257 349C191 349 157 384 157 459L157 700L34 700L34 465C34 319 112 234 239 234C267 234 301 238 331 247L331 -4L454 -4L454 700Z" />
<glyph glyph-name="uni0428" unicode="&#x0428;" horiz-adv-x="813" d="M66 0L747 0L747 700L626 700L626 117L467 117L467 700L346 700L346 117L187 117L187 700L66 700Z" />
<glyph glyph-name="uni0429" unicode="&#x0429;" horiz-adv-x="822" d="M744 117L744 700L623 700L623 117L466 117L466 700L344 700L344 117L187 117L187 700L66 700L66 0L687 0L687 -118L808 -118L808 117Z" />
<glyph glyph-name="uni042A" unicode="&#x042a;" horiz-adv-x="572" d="M147 0L336 0C484 0 553 70 553 213C553 340 484 429 336 429L271 429L271 700L13 700L13 588L147 588ZM271 113L271 312L327 312C393 312 427 280 427 213C427 145 393 113 327 113Z" />
<glyph glyph-name="uni042B" unicode="&#x042b;" horiz-adv-x="724" d="M66 0L247 0C393 0 462 69 462 212C462 340 393 428 247 428L192 428L192 700L66 700ZM536 0L659 0L659 700L536 700ZM192 113L192 311L238 311C302 311 334 279 334 212C334 144 302 113 238 113Z" />
<glyph glyph-name="uni042C" unicode="&#x042c;" horiz-adv-x="494" d="M66 0L258 0C405 0 475 69 475 212C475 340 405 428 258 428L189 428L189 700L66 700ZM189 113L189 311L249 311C313 311 347 280 347 212C347 144 313 113 249 113Z" />
<glyph glyph-name="uni042D" unicode="&#x042d;" horiz-adv-x="498" d="M242 714C108 714 32 635 26 492L149 492C153 564 183 595 243 595C294 595 325 562 325 490L325 406L165 406L165 304L325 304L325 210C325 140 294 107 242 107C181 107 151 138 146 208L23 208C28 66 107 -12 242 -12C372 -12 452 66 452 210L452 490C452 635 373 714 242 714Z" />
<glyph glyph-name="uni042E" unicode="&#x042e;" horiz-adv-x="774" d="M511 711C374 711 293 622 293 472L293 412L188 412L188 700L66 700L66 0L188 0L188 295L293 295L293 228C293 78 374 -11 511 -11C647 -11 728 78 728 228L728 472C728 622 647 711 511 711ZM602 228C602 150 571 108 511 108C450 108 420 150 420 228L420 472C420 550 450 592 511 592C571 592 602 550 602 472Z" />
<glyph glyph-name="uni042F" unicode="&#x042f;" horiz-adv-x="515" d="M10 0L146 0L271 239L326 239L326 0L449 0L449 700L257 700C122 700 41 615 41 469C41 368 81 296 151 263ZM258 356C199 356 167 396 167 469C167 544 199 583 258 583L326 583L326 356Z" />
<glyph glyph-name="uni0430" unicode="&#x0430;" horiz-adv-x="458" d="M228 542C116 542 47 477 42 370L160 370C165 411 193 428 226 428C270 428 286 397 286 343L286 317L224 317C108 317 27 263 27 151C27 54 89 -14 186 -14C246 -14 283 14 303 50L310 0L405 0L405 343C405 472 348 542 228 542ZM286 162C286 117 258 89 214 89C169 89 147 115 147 151C147 194 176 217 226 217L286 217Z" />
<glyph glyph-name="uni0431" unicode="&#x0431;" horiz-adv-x="476" d="M266 485C229 485 196 474 171 453L171 474C171 549 233 569 284 585C336 602 374 625 406 680L323 749C297 711 281 704 224 683C123 645 54 588 54 463L54 193C54 62 126 -12 244 -12C363 -12 435 62 435 193L435 280C435 411 366 485 266 485ZM315 193C315 130 289 102 244 102C199 102 173 130 173 193L173 280C173 345 203 370 245 370C290 370 315 343 315 278Z" />
<glyph glyph-name="uni0432" unicode="&#x0432;" horiz-adv-x="434" d="M336 280C371 304 390 341 390 379C390 474 332 529 223 529L54 529L54 0L227 0C356 0 417 59 417 154C417 207 395 257 336 280ZM167 434L214 434C253 434 275 411 275 376C275 337 253 317 215 317L167 317ZM233 97L167 97L167 221L233 221C280 221 301 201 301 159C301 118 280 97 233 97Z" />
<glyph glyph-name="uni0433" unicode="&#x0433;" horiz-adv-x="349" d="M335 530L54 530L54 0L173 0L173 417L335 417Z" />
<glyph glyph-name="uni0434" unicode="&#x0434;" horiz-adv-x="494" d="M0 -118L113 -118L113 0L371 0L371 -118L484 -118L484 107L423 107L423 529L97 529C95 440 90 351 85 263C81 204 71 144 41 107L0 107ZM176 107C190 145 197 187 200 234C205 296 207 358 208 420L306 420L306 107Z" />
<glyph glyph-name="uni0435" unicode="&#x0435;" horiz-adv-x="456" d="M305 167C296 121 278 101 229 101C185 101 160 129 160 192L160 223L417 223L417 341C417 468 346 542 228 542C112 542 42 468 42 341L42 192C42 64 112 -12 227 -12C343 -12 414 54 424 167ZM229 432C275 432 300 404 300 342L300 307L160 307L160 342C160 404 185 432 229 432Z" />
<glyph glyph-name="uni0436" unicode="&#x0436;" horiz-adv-x="655" d="M529 0L659 0L486 304L638 529L503 529L437 414C420 385 402 352 384 319L384 529L271 529L271 318C253 351 235 384 218 414L152 529L17 529L169 304L-5 0L126 0L243 213L271 183L271 0L384 0L384 183L412 213Z" />
<glyph glyph-name="uni0437" unicode="&#x0437;" horiz-adv-x="427" d="M330 279C357 297 387 329 387 383C387 479 318 540 207 540C97 540 31 476 25 365L138 365C141 411 166 434 210 434C251 434 274 412 274 375C274 336 251 313 212 313L151 313L151 227L213 227C261 227 287 205 287 165C287 120 259 95 210 95C160 95 132 118 128 158L15 158C21 52 93 -13 210 -13C328 -13 402 52 402 159C402 216 367 260 330 279Z" />
<glyph glyph-name="uni0438" unicode="&#x0438;" horiz-adv-x="474" d="M54 0L174 0L240 144C264 195 304 322 309 344L312 343C308 284 307 205 307 156L307 0L420 0L420 529L301 529L235 376C214 320 177 216 168 187L166 188C166 255 167 306 167 351L167 529L54 529Z" />
</font>
</defs>
</svg>
