<?xml version="1.0" standalone="no"?><!DOCTYPE svg PUBLIC "-//W3C//DTD SVG 1.1//EN" "http://www.w3.org/Graphics/SVG/1.1/DTD/svg11.dtd" ><svg xmlns="http://www.w3.org/2000/svg"><metadata></metadata><defs>
<font id="mr_NorwesterG" >
<font-face font-family="mr_NorwesterG" font-stretch="normal" units-per-em="1000" weight="400" panose-1="0,0,5,6,0,0,0,0,0,0" ascent="1000" descent="-200" x-height="500" underline-thickness="50" underline-position="-75" unicode-range="U+00000032-00008722" bbox="0,-154,894,980" />
<missing-glyph horiz-adv-x="500" d="M0 700L500 700L500 0L0 0ZM420 650L80 650L250 395ZM450 95L450 605L280 350ZM420 50L250 305L80 50ZM50 95L220 350L50 605Z" />
<glyph glyph-name="nonmarkingreturn" unicode="&#x20;" horiz-adv-x="250" d="" />
<glyph glyph-name="exclam" unicode="&#x21;" horiz-adv-x="236" d="M170 800Q186 800 186 784L179 239Q179 223 163 223L68 223Q52 223 52 239L45 784Q45 800 61 800ZM50 112Q50 132 70 132L161 132Q181 132 181 112L181 20Q181 0 161 0L70 0Q50 0 50 20Z" />
<glyph glyph-name="quotedbl" unicode="&#x22;" horiz-adv-x="409" d="M50 780Q50 800 70 800L161 800Q181 800 181 780L181 682Q181 668 174 657L120 575Q116 568 108 568L63 568Q50 568 55 580L95 668L70 668Q50 668 50 688ZM228 780Q228 800 248 800L339 800Q359 800 359 780L359 682Q359 668 352 657L298 575Q294 568 286 568L241 568Q228 568 233 580L273 668L248 668Q228 668 228 688Z" />
<glyph glyph-name="numbersign" unicode="&#x23;" horiz-adv-x="936" d="M868 587Q894 587 884 564L859 495Q853 479 836 479L699 479L643 331L794 331Q820 331 810 308L785 239Q779 223 762 223L602 223L523 16Q517 0 500 0L406 -1Q382 -1 390 22L467 223L331 223L252 16Q246 0 229 0L135 -1Q111 -1 119 22L196 223L68 223Q42 223 52 246L77 315Q83 331 100 331L237 331L294 479L142 479Q116 479 126 502L151 571Q157 587 174 587L335 587L410 784Q416 800 433 800L526 800Q550 800 542 777L470 587L606 587L681 784Q687 800 704 800L797 800Q821 800 813 777L741 587ZM428 479L372 331L508 331L565 479Z" />
<glyph glyph-name="dollar" unicode="&#x24;" horiz-adv-x="500" d="M330 534Q314 534 314 550L314 628Q314 668 274 668L226 668Q186 668 186 628L186 490L424 412Q450 401 450 375L450 144Q450 5 314 0L314 -59Q314 -75 298 -75L201 -75Q185 -75 185 -59L185 0Q50 5 50 144L50 249Q50 265 66 265L170 265Q186 265 186 249L186 172Q186 132 226 132L274 132Q314 132 314 172L314 305L77 383Q50 392 50 420L50 656Q50 795 185 800L185 859Q185 875 201 875L298 875Q314 875 314 859L314 800Q450 795 450 656L450 550Q450 534 434 534Z" />
<glyph glyph-name="percent" unicode="&#x25;" horiz-adv-x="869" d="M239 738Q303 738 349 691Q395 644 395 578Q395 514 349 468Q304 422 239 422Q172 422 126 468Q80 513 80 578Q80 644 126 691Q173 738 239 738ZM722 734Q734 734 739 728Q744 721 738 711L278 16Q268 0 255 0L161 0Q149 0 144 6Q139 13 145 23L606 718Q616 734 629 734ZM239 634Q216 634 199 618Q183 601 183 578Q183 556 199 540Q216 524 239 524Q260 524 277 540Q293 556 293 578Q293 601 277 618Q260 634 239 634ZM633 301Q697 301 743 254Q789 207 789 141Q789 77 743 31Q698 -15 633 -15Q566 -15 520 31Q474 76 474 141Q474 207 520 254Q567 301 633 301ZM633 197Q610 197 593 181Q577 164 577 141Q577 119 593 103Q610 87 633 87Q654 87 671 103Q687 119 687 141Q687 164 671 181Q654 197 633 197Z" />
<glyph glyph-name="ampersand" unicode="&#x26;" horiz-adv-x="563" d="M376 800Q396 800 396 780L396 688Q396 668 376 668L223 668Q183 668 183 628L183 515Q183 476 223 476L316 476L316 516Q316 536 336 536L431 536Q451 536 451 516L451 476L493 476Q513 476 513 456L513 364Q513 344 493 344L451 344L451 20Q451 0 431 0L195 0Q50 0 50 144L50 338Q50 365 68 385Q86 404 113 409L113 411Q86 416 68 435Q50 455 50 482L50 656Q50 800 195 800ZM223 344Q183 344 183 304L183 172Q183 132 223 132L316 132L316 344Z" />
<glyph glyph-name="quotesingle" unicode="&#x27;" horiz-adv-x="231" d="M50 780Q50 800 70 800L161 800Q181 800 181 780L181 682Q181 668 174 657L120 575Q116 568 108 568L63 568Q50 568 55 580L95 668L70 668Q50 668 50 688Z" />
<glyph glyph-name="parenleft" unicode="&#x28;" horiz-adv-x="306" d="M238 800Q262 800 254 777Q176 577 176 361Q176 145 254 -55Q262 -78 238 -78L154 -78Q137 -78 131 -62Q50 142 50 361Q50 580 131 784Q137 800 154 800Z" />
<glyph glyph-name="parenright" unicode="&#x29;" horiz-adv-x="306" d="M152 800Q169 800 175 784Q256 580 256 361Q256 142 175 -62Q169 -78 152 -78L68 -78Q44 -78 52 -55Q130 145 130 361Q130 577 52 777Q44 800 68 800Z" />
<glyph glyph-name="plus" unicode="&#x2b;" horiz-adv-x="696" d="M646 344Q646 324 626 324L415 324L415 113Q415 93 395 93L301 93Q281 93 281 113L281 324L70 324Q50 324 50 344L50 438Q50 458 70 458L281 458L281 669Q281 689 301 689L395 689Q415 689 415 669L415 458L626 458Q646 458 646 438Z" />
<glyph glyph-name="comma" unicode="&#x2c;" horiz-adv-x="231" d="M50 112Q50 132 70 132L161 132Q181 132 181 112L181 14Q181 0 174 -11L120 -93Q116 -100 108 -100L63 -100Q50 -100 55 -88L95 0L70 0Q50 0 50 20Z" />
<glyph glyph-name="hyphen" unicode="&#x2d;" horiz-adv-x="298" d="M50 406Q50 426 70 426L228 426Q248 426 248 406L248 314Q248 294 228 294L70 294Q50 294 50 314Z" />
<glyph glyph-name="period" unicode="&#x2e;" horiz-adv-x="231" d="M50 112Q50 132 70 132L161 132Q181 132 181 112L181 20Q181 0 161 0L70 0Q50 0 50 20Z" />
<glyph glyph-name="slash" unicode="&#x2f;" horiz-adv-x="526" d="M469 800Q493 800 485 777L165 -63Q159 -79 142 -79L48 -79Q24 -79 32 -56L353 784Q359 800 376 800Z" />
<glyph glyph-name="zero" unicode="&#x30;" horiz-adv-x="500" d="M50 656Q50 800 194 800L306 800Q450 800 450 656L450 144Q450 0 306 0L194 0Q50 0 50 144ZM281 129Q321 129 321 169L321 631Q321 671 281 671L223 671Q183 671 183 631L183 169Q183 129 223 129Z" />
<glyph glyph-name="one" unicode="&#x31;" horiz-adv-x="329" d="M253 800Q269 800 269 784L269 16Q269 0 253 0L149 0Q133 0 133 16L133 648L71 640Q50 637 50 658L50 754Q50 774 69 775Z" />
<glyph glyph-name="two" unicode="&#x32;" horiz-adv-x="500" d="M200 263Q186 255 186 239L186 152Q186 132 206 132L314 132L314 173Q314 193 334 193L430 193Q450 193 450 173L450 20Q450 0 430 0L70 0Q50 0 50 20L50 315Q50 338 76 352L314 480L314 628Q314 668 274 668L226 668Q186 668 186 628L186 550Q186 534 170 534L66 534Q50 534 50 550L50 656Q50 800 194 800L306 800Q450 800 450 656L450 420Q450 397 423 383Z" />
<glyph glyph-name="three" unicode="&#x33;" horiz-adv-x="501" d="M451 472Q451 445 433 425Q415 406 388 401L388 399Q415 394 433 375Q451 355 451 328L451 144Q451 0 306 0L190 0Q50 0 50 140L50 173Q50 193 70 193L166 193Q186 193 186 173L186 132L298 132Q318 132 318 152L318 294Q318 334 278 334L160 334Q140 334 140 354L140 446Q140 466 160 466L278 466Q318 466 318 505L318 648Q318 668 298 668L186 668L186 627Q186 607 166 607L70 607Q50 607 50 627L50 668Q50 800 190 800L306 800Q451 800 451 656Z" />
<glyph glyph-name="four" unicode="&#x34;" horiz-adv-x="595" d="M525 362Q545 362 545 342L545 256Q545 236 525 236L484 236L484 20Q484 0 464 0L377 0Q357 0 357 20L357 238L70 238Q50 238 50 258L50 347Q50 360 57 371L314 787Q321 800 338 800L443 800Q471 800 456 776L205 360L357 360L357 480Q357 500 377 500L464 500Q484 500 484 480L484 362Z" />
<glyph glyph-name="five" unicode="&#x35;" horiz-adv-x="500" d="M420 800Q440 800 440 780L440 688Q440 668 420 668L195 668L195 511L433 436Q450 430 450 414L450 140Q450 0 310 0L190 0Q50 0 50 140L50 172Q50 192 70 192L166 192Q186 192 186 172L186 132L295 132Q315 132 315 152L315 335L77 410Q60 416 60 432L60 780Q60 800 80 800Z" />
<glyph glyph-name="six" unicode="&#x36;" horiz-adv-x="500" d="M310 491Q450 491 450 351L450 140Q450 0 310 0L190 0Q50 0 50 140L50 397Q50 421 60 447L202 785Q208 800 225 800L329 800Q354 800 344 777L223 491ZM278 132Q318 132 318 172L318 319Q318 359 278 359L222 359Q182 359 182 319L182 172Q182 132 222 132Z" />
<glyph glyph-name="seven" unicode="&#x37;" horiz-adv-x="523" d="M476 800Q500 800 491 776L199 17Q193 1 176 1L72 0Q48 0 56 23L303 667L66 667Q50 667 50 683L50 783Q50 798 66 800Z" />
<glyph glyph-name="eight" unicode="&#x38;" horiz-adv-x="501" d="M451 472Q451 445 433 425Q415 406 388 401L388 399Q415 394 433 375Q451 355 451 328L451 144Q451 0 306 0L195 0Q50 0 50 144L50 328Q50 355 68 375Q86 394 113 399L113 401Q86 406 68 425Q50 445 50 472L50 656Q50 800 195 800L306 800Q451 800 451 656ZM318 628Q318 668 278 668L223 668Q183 668 183 628L183 505Q183 466 223 466L278 466Q318 466 318 505ZM318 294Q318 334 278 334L223 334Q183 334 183 294L183 172Q183 132 223 132L278 132Q318 132 318 172Z" />
<glyph glyph-name="nine" unicode="&#x39;" horiz-adv-x="500" d="M190 309Q50 309 50 449L50 660Q50 800 190 800L310 800Q450 800 450 660L450 403Q450 379 440 353L298 15Q292 0 275 0L171 0Q146 0 156 23L277 309ZM222 668Q182 668 182 628L182 481Q182 441 222 441L278 441Q318 441 318 481L318 628Q318 668 278 668Z" />
<glyph glyph-name="colon" unicode="&#x3a;" horiz-adv-x="231" d="M50 446Q50 466 70 466L161 466Q181 466 181 446L181 354Q181 334 161 334L70 334Q50 334 50 354ZM50 112Q50 132 70 132L161 132Q181 132 181 112L181 20Q181 0 161 0L70 0Q50 0 50 20Z" />
<glyph glyph-name="semicolon" unicode="&#x3b;" horiz-adv-x="231" d="M50 447Q50 467 70 467L161 467Q181 467 181 447L181 355Q181 335 161 335L70 335Q50 335 50 355ZM50 112Q50 132 70 132L161 132Q181 132 181 112L181 14Q181 0 174 -11L120 -93Q116 -100 108 -100L63 -100Q50 -100 55 -88L95 0L70 0Q50 0 50 20Z" />
<glyph glyph-name="equal" unicode="&#x3d;" horiz-adv-x="697" d="M646 445Q646 425 626 425L70 425Q50 425 50 445L50 539Q50 559 70 559L626 559Q646 559 646 539ZM647 228Q647 208 627 208L71 208Q51 208 51 228L51 322Q51 342 71 342L627 342Q647 342 647 322Z" />
<glyph glyph-name="question" unicode="&#x3f;" horiz-adv-x="500" d="M306 800Q450 800 450 656L450 459Q450 444 439 434L312 312Q302 302 302 287L302 243Q302 223 282 223L188 223Q168 223 168 243L168 331Q168 345 178 355L314 490L314 628Q314 668 274 668L226 668Q186 668 186 628L186 550Q186 534 170 534L66 534Q50 534 50 550L50 656Q50 800 194 800ZM168 112Q168 132 188 132L282 132Q302 132 302 112L302 20Q302 0 282 0L188 0Q168 0 168 20Z" />
<glyph glyph-name="at" unicode="&#x40;" horiz-adv-x="740" d="M546 760Q690 760 690 616L690 165Q690 149 674 149L574 149Q558 149 558 165L558 180L377 150Q307 147 270 185Q233 223 233 294L233 430Q233 503 270 542Q308 583 377 575L558 546L558 588Q558 628 518 628L222 628Q182 628 182 587L182 132Q182 92 222 92L430 92Q450 92 450 72L450 -10Q450 -29 430 -31L194 -40Q124 -43 87 -5Q50 33 50 104L50 615Q50 760 194 760ZM355 322Q355 282 395 282L558 304L558 421L395 443Q355 443 355 402Z" />
<glyph glyph-name="A" unicode="&#x41;" horiz-adv-x="586" d="M426 0Q413 0 410 14L382 160L204 160L177 14Q174 0 161 0L54 0Q36 0 41 17L207 786Q210 800 224 800L363 800Q377 800 380 786L546 17Q549 0 532 0ZM293 625L229 276L357 276Z" />
<glyph glyph-name="B" unicode="&#x42;" horiz-adv-x="501" d="M451 472Q451 445 433 425Q415 406 388 401L388 399Q415 394 433 375Q451 355 451 328L451 144Q451 0 306 0L66 0Q50 0 50 16L50 784Q50 800 66 800L306 800Q451 800 451 656ZM318 628Q318 668 278 668L187 668L187 466L278 466Q318 466 318 505ZM318 294Q318 334 278 334L187 334L187 132L278 132Q318 132 318 172Z" />
<glyph glyph-name="C" unicode="&#x43;" horiz-adv-x="501" d="M451 548Q451 532 435 532L335 532Q319 532 319 548L319 628Q319 668 279 668L227 668Q187 668 187 628L187 172Q187 132 227 132L279 132Q319 132 319 172L319 252Q319 268 335 268L435 268Q451 268 451 252L451 144Q451 0 307 0L195 0Q50 0 50 144L50 656Q50 800 195 800L307 800Q451 800 451 656Z" />
<glyph glyph-name="D" unicode="&#x44;" horiz-adv-x="500" d="M50 784Q50 800 66 800L306 800Q450 800 450 655L450 144Q450 0 306 0L66 0Q50 0 50 16ZM278 132Q318 132 318 172L318 627Q318 668 278 668L186 668L186 132Z" />
<glyph glyph-name="E" unicode="&#x45;" horiz-adv-x="499" d="M449 684Q449 667 433 667L183 667L183 467L374 467Q390 467 390 450L390 351Q390 334 374 334L183 334L183 132L433 132Q449 132 449 116L449 16Q449 0 433 0L65 0Q50 0 50 16L50 784Q50 800 65 800L433 800Q449 800 449 784Z" />
<glyph glyph-name="F" unicode="&#x46;" horiz-adv-x="500" d="M450 684Q450 668 434 668L186 668L186 467L374 467Q390 467 390 451L390 351Q390 335 374 335L186 335L186 16Q186 0 170 0L66 0Q50 0 50 16L50 784Q50 800 66 800L434 800Q450 800 450 784Z" />
<glyph glyph-name="G" unicode="&#x47;" horiz-adv-x="520" d="M50 656Q50 800 194 800L326 800Q470 800 470 656L470 552Q470 536 454 536L354 536Q338 536 338 552L338 628Q338 668 298 668L226 668Q186 668 186 628L186 172Q186 132 226 132L298 132Q338 132 338 172L338 306L286 306Q270 306 270 322L270 422Q270 438 286 438L454 438Q470 438 470 422L470 144Q470 0 326 0L194 0Q50 0 50 144Z" />
<glyph glyph-name="H" unicode="&#x48;" horiz-adv-x="500" d="M314 784Q314 800 330 800L433 800Q450 800 450 784L450 16Q450 0 433 0L330 0Q314 0 314 16L314 334L186 334L186 16Q186 0 170 0L67 0Q50 0 50 16L50 784Q50 800 67 800L170 800Q186 800 186 784L186 466L314 466Z" />
<glyph glyph-name="I" unicode="&#x49;" horiz-adv-x="236" d="M170 800Q186 800 186 784L186 16Q186 0 170 0L66 0Q50 0 50 16L50 784Q50 800 66 800Z" />
<glyph glyph-name="J" unicode="&#x4a;" horiz-adv-x="500" d="M314 784Q314 800 330 800L434 800Q450 800 450 784L450 144Q450 0 306 0L194 0Q50 0 50 144L50 248Q50 264 66 264L166 264Q182 264 182 248L182 172Q182 132 222 132L274 132Q314 132 314 172Z" />
<glyph glyph-name="K" unicode="&#x4b;" horiz-adv-x="536" d="M372 0Q355 0 349 15L223 312L186 241L186 20Q186 0 166 0L70 0Q50 0 50 20L50 780Q50 800 70 800L166 800Q186 800 186 780L186 470L340 785Q348 800 363 800L468 800Q494 800 482 776L312 427L493 23Q505 0 478 0Z" />
<glyph glyph-name="L" unicode="&#x4c;" horiz-adv-x="490" d="M186 784Q186 800 170 800L66 800Q50 800 50 784L50 16Q50 0 66 0L424 0Q440 0 440 16L440 116Q440 132 424 132L186 132Z" />
<glyph glyph-name="M" unicode="&#x4d;" horiz-adv-x="670" d="M600 800Q620 800 620 780L620 20Q620 0 600 0L507 0Q487 0 487 20L487 470L480 470L381 18Q377 0 359 0L310 0Q293 0 288 18L189 470L182 470L182 20Q182 0 162 0L70 0Q50 0 50 20L50 780Q50 800 70 800L202 800Q220 800 224 782L335 284L446 782Q451 800 468 800Z" />
<glyph glyph-name="N" unicode="&#x4e;" horiz-adv-x="527" d="M461 800Q477 800 477 784L477 16Q477 0 461 0L362 0Q348 0 344 13L191 440L186 440L186 16Q186 0 170 0L66 0Q50 0 50 16L50 784Q50 800 66 800L165 800Q179 800 183 787L335 362L341 362L341 784Q341 800 357 800Z" />
<glyph glyph-name="O" unicode="&#x4f;" horiz-adv-x="500" d="M50 656Q50 800 194 800L306 800Q450 800 450 656L450 144Q450 0 306 0L194 0Q50 0 50 144ZM281 129Q321 129 321 169L321 631Q321 671 281 671L223 671Q183 671 183 631L183 169Q183 129 223 129Z" />
<glyph glyph-name="P" unicode="&#x50;" horiz-adv-x="500" d="M50 784Q50 800 66 800L306 800Q450 800 450 656L450 412Q450 268 306 268L186 268L186 16Q186 0 170 0L66 0Q50 0 50 16ZM274 400Q314 400 314 440L314 628Q314 668 274 668L186 668L186 400Z" />
<glyph glyph-name="Q" unicode="&#x51;" horiz-adv-x="500" d="M450 144Q450 49 385 16L425 -70Q429 -78 424 -83Q420 -88 411 -88L307 -88Q297 -88 290 -74L256 0L194 0Q50 0 50 144L50 656Q50 800 194 800L306 800Q450 800 450 656ZM186 172Q186 132 226 132L278 132Q318 132 318 172L318 628Q318 668 278 668L226 668Q186 668 186 628Z" />
<glyph glyph-name="R" unicode="&#x52;" horiz-adv-x="511" d="M461 412Q461 312 388 280L457 18Q462 0 443 0L339 0Q325 0 322 14L255 268L186 268L186 16Q186 0 170 0L66 0Q50 0 50 16L50 784Q50 800 66 800L317 800Q461 800 461 656ZM285 400Q325 400 325 440L325 628Q325 668 285 668L186 668L186 400Z" />
<glyph glyph-name="S" unicode="&#x53;" horiz-adv-x="500" d="M306 800Q450 800 450 656L450 550Q450 534 434 534L330 534Q314 534 314 550L314 628Q314 668 274 668L226 668Q186 668 186 628L186 490L424 412Q450 401 450 375L450 144Q450 0 306 0L194 0Q50 0 50 144L50 249Q50 265 66 265L170 265Q186 265 186 249L186 172Q186 132 226 132L274 132Q314 132 314 172L314 305L77 383Q50 392 50 420L50 656Q50 800 194 800Z" />
<glyph glyph-name="T" unicode="&#x54;" horiz-adv-x="460" d="M414 800Q430 800 430 784L430 684Q430 668 414 668L298 668L298 16Q298 0 282 0L178 0Q162 0 162 16L162 668L46 668Q30 668 30 684L30 784Q30 800 46 800Z" />
<glyph glyph-name="U" unicode="&#x55;" horiz-adv-x="500" d="M430 800Q450 800 450 780L450 144Q450 0 306 0L194 0Q50 0 50 144L50 780Q50 800 70 800L166 800Q186 800 186 780L186 172Q186 132 226 132L278 132Q318 132 318 172L318 780Q318 800 338 800Z" />
<glyph glyph-name="V" unicode="&#x56;" horiz-adv-x="543" d="M494 800Q517 800 512 778L343 18Q339 0 321 0L221 0Q204 0 199 18L31 778Q26 800 49 800L144 800Q162 800 166 782L271 246L377 782Q382 800 399 800Z" />
<glyph glyph-name="W" unicode="&#x57;" horiz-adv-x="761" d="M692 800Q713 800 711 779L625 19Q624 0 604 0L506 0Q489 0 484 18L380 470L275 17Q270 0 253 0L153 0Q133 0 132 19L50 779Q48 800 69 800L164 800Q183 800 185 781L224 313L229 313L328 782Q333 800 350 800L410 800Q428 800 432 782L530 313L535 313L576 781Q578 800 597 800Z" />
<glyph glyph-name="X" unicode="&#x58;" horiz-adv-x="538" d="M496 24Q506 0 481 0L378 0Q361 0 355 14L259 256L163 14Q157 0 140 0L37 0Q12 0 22 24L180 408L28 776Q18 800 43 800L143 800Q160 800 166 786L259 549L352 786Q358 800 375 800L475 800Q500 800 490 776L337 408Z" />
<glyph glyph-name="Y" unicode="&#x59;" horiz-adv-x="546" d="M508 800Q534 800 524 777L341 332L341 20Q341 0 321 0L225 0Q205 0 205 20L205 332L22 777Q12 800 38 800L138 800Q155 800 161 784L273 497L385 784Q391 800 408 800Z" />
<glyph glyph-name="Z" unicode="&#x5a;" horiz-adv-x="507" d="M450 800Q474 800 465 776L216 132L436 132Q452 132 452 116L452 17Q452 2 436 0L47 0Q22 0 32 24L281 667L74 667Q58 667 58 683L58 783Q58 798 74 800Z" />
<glyph glyph-name="backslash" unicode="&#x5c;" horiz-adv-x="527" d="M151 800Q168 800 174 784L495 -56Q503 -79 479 -79L385 -79Q368 -79 362 -63L42 777Q34 800 58 800Z" />
<glyph glyph-name="underscore" unicode="&#x5f;" horiz-adv-x="643" d="M0 -42Q0 -22 20 -22L623 -22Q643 -22 643 -42L643 -134Q643 -154 623 -154L20 -154Q0 -154 0 -134Z" />
<glyph glyph-name="a" unicode="&#x61;" horiz-adv-x="567" d="M425 0Q412 0 409 14L377 140L189 140L158 14Q155 0 142 0L44 0Q26 0 31 17L197 686Q200 700 214 700L353 700Q367 700 370 686L536 17Q541 0 522 0ZM283 528L220 256L346 256Z" />
<glyph glyph-name="b" unicode="&#x62;" horiz-adv-x="501" d="M451 421Q451 394 433 374Q415 355 388 350L388 348Q415 343 433 324Q451 304 451 277L451 144Q451 0 306 0L66 0Q50 0 50 16L50 684Q50 700 66 700L306 700Q451 700 451 556ZM324 534Q324 574 284 574L174 574L174 415L284 415Q324 415 324 454ZM324 243Q324 283 284 283L174 283L174 126L284 126Q324 126 324 166Z" />
<glyph glyph-name="c" unicode="&#x63;" horiz-adv-x="501" d="M451 448Q451 432 435 432L341 432Q325 432 325 448L325 530Q325 570 285 570L221 570Q181 570 181 530L181 167Q181 127 221 127L285 127Q325 127 325 167L325 252Q325 268 341 268L435 268Q451 268 451 252L451 144Q451 0 307 0L195 0Q50 0 50 144L50 556Q50 700 195 700L307 700Q451 700 451 556Z" />
<glyph glyph-name="d" unicode="&#x64;" horiz-adv-x="500" d="M50 684Q50 700 66 700L306 700Q450 700 450 555L450 144Q450 0 306 0L66 0Q50 0 50 16ZM278 132Q318 132 318 172L318 527Q318 568 278 568L186 568L186 132Z" />
<glyph glyph-name="e" unicode="&#x65;" horiz-adv-x="499" d="M449 584Q449 567 433 567L186 567L186 413L374 413Q390 413 390 396L390 297Q390 280 374 280L186 280L186 132L433 132Q449 132 449 116L449 16Q449 0 433 0L65 0Q50 0 50 16L50 684Q50 700 65 700L433 700Q449 700 449 684Z" />
<glyph glyph-name="f" unicode="&#x66;" horiz-adv-x="500" d="M450 584Q450 568 434 568L186 568L186 397L374 397Q390 397 390 381L390 281Q390 265 374 265L186 265L186 16Q186 0 170 0L66 0Q50 0 50 16L50 684Q50 700 66 700L434 700Q450 700 450 684Z" />
<glyph glyph-name="g" unicode="&#x67;" horiz-adv-x="500" d="M50 556Q50 700 194 700L306 700Q450 700 450 556L450 482Q450 466 434 466L340 466Q324 466 324 482L324 531Q324 571 284 571L220 571Q180 571 180 531L180 169Q180 129 220 129L284 129Q324 129 324 169L324 256L272 256Q256 256 256 272L256 372Q256 388 272 388L434 388Q450 388 450 372L450 144Q450 0 306 0L194 0Q50 0 50 144Z" />
<glyph glyph-name="h" unicode="&#x68;" horiz-adv-x="500" d="M314 684Q314 700 330 700L433 700Q450 700 450 684L450 16Q450 0 433 0L330 0Q314 0 314 16L314 282L186 282L186 16Q186 0 170 0L67 0Q50 0 50 16L50 684Q50 700 67 700L170 700Q186 700 186 684L186 414L314 414Z" />
<glyph glyph-name="i" unicode="&#x69;" horiz-adv-x="236" d="M170 0Q186 0 186 16L186 684Q186 700 170 700L66 700Q50 700 50 684L50 16Q50 0 66 0Z" />
<glyph glyph-name="j" unicode="&#x6a;" horiz-adv-x="500" d="M314 684Q314 700 330 700L434 700Q450 700 450 684L450 144Q450 0 306 0L194 0Q50 0 50 144L50 248Q50 264 66 264L166 264Q182 264 182 248L182 172Q182 132 222 132L274 132Q314 132 314 172Z" />
<glyph glyph-name="k" unicode="&#x6b;" horiz-adv-x="536" d="M372 0Q357 0 349 15L223 262L186 191L186 20Q186 0 166 0L70 0Q50 0 50 20L50 680Q50 700 70 700L166 700Q186 700 186 680L186 420L340 685Q348 700 363 700L468 700Q479 700 484 693Q488 686 482 676L312 377L493 23Q505 0 478 0Z" />
<glyph glyph-name="l" unicode="&#x6c;" horiz-adv-x="450" d="M186 684Q186 700 170 700L66 700Q50 700 50 684L50 16Q50 0 66 0L384 0Q400 0 400 16L400 116Q400 132 384 132L186 132Z" />
<glyph glyph-name="m" unicode="&#x6d;" horiz-adv-x="670" d="M600 700Q620 700 620 680L620 20Q620 0 600 0L507 0Q487 0 487 20L487 413L480 413L386 17Q381 0 364 0L305 0Q288 0 283 17L189 413L182 413L182 20Q182 0 162 0L70 0Q50 0 50 20L50 680Q50 700 70 700L202 700Q219 700 224 683L335 237L446 683Q451 700 468 700Z" />
<glyph glyph-name="n" unicode="&#x6e;" horiz-adv-x="527" d="M461 700Q477 700 477 684L477 16Q477 0 461 0L382 0Q370 0 364 13L176 395L176 16Q176 0 160 0L66 0Q50 0 50 16L50 684Q50 700 66 700L145 700Q157 700 163 687L351 305L351 684Q351 700 367 700Z" />
<glyph glyph-name="o" unicode="&#x6f;" horiz-adv-x="500" d="M50 556Q50 700 194 700L306 700Q450 700 450 556L450 144Q450 0 306 0L194 0Q50 0 50 144ZM284 129Q324 129 324 169L324 531Q324 571 284 571L220 571Q180 571 180 531L180 169Q180 129 220 129Z" />
<glyph glyph-name="p" unicode="&#x70;" horiz-adv-x="500" d="M50 684Q50 700 66 700L306 700Q450 700 450 556L450 360Q450 218 306 216L180 215L180 15Q180 -1 164 -1L66 0Q50 0 50 16ZM280 345Q320 345 320 385L320 531Q320 571 280 571L180 570L180 344Z" />
<glyph glyph-name="q" unicode="&#x71;" horiz-adv-x="500" d="M450 144Q450 49 385 16L425 -70Q429 -78 424 -83Q420 -88 411 -88L307 -88Q297 -88 290 -74L256 0L194 0Q50 0 50 144L50 556Q50 700 194 700L306 700Q450 700 450 556ZM180 169Q180 129 220 129L284 129Q324 129 324 169L324 531Q324 571 284 571L220 571Q180 571 180 531Z" />
<glyph glyph-name="r" unicode="&#x72;" horiz-adv-x="500" d="M450 355Q450 268 394 233L446 18Q451 0 432 0L334 0Q320 0 317 14L269 211L180 211L180 16Q180 0 164 0L66 0Q50 0 50 16L50 684Q50 700 66 700L306 700Q450 700 450 556ZM280 340Q320 340 320 380L320 531Q320 571 280 571L180 571L180 340Z" />
<glyph glyph-name="s" unicode="&#x73;" horiz-adv-x="500" d="M306 700Q450 700 450 556L450 490Q450 474 434 474L333 474Q317 474 317 490L317 532Q317 572 277 572L222 572Q182 572 182 532L182 447L424 369Q450 360 450 332L450 144Q450 0 306 0L194 0Q50 0 50 144L50 209Q50 225 66 225L167 225Q183 225 183 209L183 167Q183 127 223 127L277 127Q317 127 317 167L317 268L77 346Q50 355 50 383L50 556Q50 700 194 700Z" />
<glyph glyph-name="t" unicode="&#x74;" horiz-adv-x="460" d="M46 700Q30 700 30 684L30 584Q30 568 46 568L162 568L162 16Q162 0 178 0L282 0Q298 0 298 16L298 568L414 568Q430 568 430 584L430 684Q430 700 414 700Z" />
<glyph glyph-name="u" unicode="&#x75;" horiz-adv-x="500" d="M430 700Q450 700 450 680L450 144Q450 0 306 0L194 0Q50 0 50 144L50 680Q50 700 70 700L166 700Q186 700 186 680L186 172Q186 132 226 132L278 132Q318 132 318 172L318 680Q318 700 338 700Z" />
<glyph glyph-name="v" unicode="&#x76;" horiz-adv-x="523" d="M474 700Q497 700 492 678L333 18Q329 0 311 0L211 0Q194 0 189 18L31 678Q26 700 49 700L140 700Q158 700 162 682L261 230L361 682Q366 700 383 700Z" />
<glyph glyph-name="w" unicode="&#x77;" horiz-adv-x="767" d="M710 700Q732 700 729 679L633 18Q630 0 611 0L503 0Q486 0 481 18L389 428L296 18Q292 0 274 0L164 0Q145 0 142 19L50 679Q47 700 69 700L163 700Q181 700 184 681L233 263L238 263L336 683Q341 700 358 700L419 700Q436 700 441 683L539 263L544 263L595 681Q598 700 616 700Z" />
<glyph glyph-name="x" unicode="&#x78;" horiz-adv-x="570" d="M527 24Q539 0 512 0L409 0Q393 0 386 14L280 231L174 14Q167 0 151 0L48 0Q21 0 33 24L202 358L43 676Q30 700 58 700L161 700Q177 700 184 686L280 484L376 686Q383 700 399 700L502 700Q530 700 517 676L359 358Z" />
<glyph glyph-name="y" unicode="&#x79;" horiz-adv-x="526" d="M498 700Q525 700 514 677L331 262L331 20Q331 0 311 0L215 0Q195 0 195 20L195 262L12 677Q1 700 28 700L128 700Q145 700 151 684L263 427L375 684Q381 700 398 700Z" />
<glyph glyph-name="z" unicode="&#x7a;" horiz-adv-x="508" d="M461 700Q488 700 476 676L221 123L440 123Q456 123 456 107L456 17Q456 2 440 0L48 0Q21 0 33 24L288 568L82 568Q66 568 66 584L66 683Q66 698 82 700Z" />
<glyph glyph-name="sterling" unicode="&#xa3;" horiz-adv-x="551" d="M385 532Q369 532 369 548L369 628Q369 668 329 668L277 668Q237 668 237 628L237 409L431 409Q451 409 451 389L451 297Q451 277 431 277L237 277L237 132L481 132Q501 132 501 112L501 20Q501 0 481 0L70 0Q50 0 50 20L50 95Q50 112 66 118L85 126Q100 132 100 149L100 277L70 277Q50 277 50 297L50 389Q50 409 70 409L100 409L100 656Q100 800 245 800L357 800Q501 800 501 656L501 548Q501 532 485 532Z" />
<glyph glyph-name="degree" unicode="&#xb0;" horiz-adv-x="319" d="M160 806Q213 806 251 768Q289 729 289 675Q289 622 251 584Q213 546 160 546Q106 546 68 584Q30 622 30 675Q30 729 68 768Q106 806 160 806ZM160 721Q141 721 128 707Q114 694 114 675Q114 657 128 644Q141 630 160 630Q178 630 192 644Q205 657 205 675Q205 694 192 707Q178 721 160 721Z" />
<glyph glyph-name="multiply" unicode="&#xd7;" horiz-adv-x="602" d="M545 568Q559 554 545 540L396 391L545 242Q559 228 545 214L478 147Q464 133 450 147L301 296L152 147Q138 133 124 147L57 214Q43 228 57 242L206 391L57 540Q43 554 57 568L124 635Q138 649 152 635L301 486L450 635Q464 649 478 635Z" />
<glyph glyph-name="divide" unicode="&#xf7;" horiz-adv-x="696" d="M283 670Q283 690 303 690L394 690Q414 690 414 670L414 578Q414 558 394 558L303 558Q283 558 283 578ZM646 344Q646 324 626 324L70 324Q50 324 50 344L50 438Q50 458 70 458L626 458Q646 458 646 438ZM283 206Q283 226 303 226L394 226Q414 226 414 206L414 114Q414 94 394 94L303 94Q283 94 283 114Z" />
<glyph glyph-name="uni0401" unicode="&#x0401;" horiz-adv-x="499" d="M449 684Q449 667 433 667L183 667L183 467L374 467Q390 467 390 450L390 351Q390 334 374 334L183 334L183 132L433 132Q449 132 449 116L449 16Q449 0 433 0L65 0Q50 0 50 16L50 784Q50 800 65 800L433 800Q449 800 449 784ZM82 867Q82 847 102 847L193 847Q213 847 213 867L213 959Q213 979 193 979L102 979Q82 979 82 959ZM282 867Q282 847 302 847L393 847Q413 847 413 867L413 959Q413 979 393 979L302 979Q282 979 282 959Z" />
<glyph glyph-name="uni0410" unicode="&#x0410;" horiz-adv-x="586" d="M426 0Q413 0 410 14L382 160L204 160L177 14Q174 0 161 0L54 0Q36 0 41 17L207 786Q210 800 224 800L363 800Q377 800 380 786L546 17Q549 0 532 0ZM293 625L229 276L357 276Z" />
<glyph glyph-name="uni0411" unicode="&#x0411;" horiz-adv-x="501" d="M274 334Q314 334 314 294L314 172Q314 132 274 132L186 132L186 334ZM186 668L394 668Q410 668 410 684L410 784Q410 800 394 800L66 800Q50 800 50 784L50 16Q50 0 66 0L306 0Q450 0 450 144L450 322Q450 466 306 466L186 466Z" />
<glyph glyph-name="uni0412" unicode="&#x0412;" horiz-adv-x="501" d="M451 472Q451 445 433 425Q415 406 388 401L388 399Q415 394 433 375Q451 355 451 328L451 144Q451 0 306 0L66 0Q50 0 50 16L50 784Q50 800 66 800L306 800Q451 800 451 656ZM318 628Q318 668 278 668L187 668L187 466L278 466Q318 466 318 505ZM318 294Q318 334 278 334L187 334L187 132L278 132Q318 132 318 172Z" />
<glyph glyph-name="uni0413" unicode="&#x0413;" horiz-adv-x="480" d="M450 684Q450 668 434 668L186 668L186 16Q186 0 170 0L66 0Q50 0 50 16L50 784Q50 800 66 800L434 800Q450 800 450 784Z" />
<glyph glyph-name="uni0414" unicode="&#x0414;" horiz-adv-x="661" d="M103 132L244 786Q247 800 261 800L400 800Q414 800 417 786L558 132L617 132Q634 132 634 116L634 -84Q634 -100 617 -100L514 -100Q498 -100 498 -84L498 0L163 0L163 -84Q163 -100 147 -100L44 -100Q27 -100 27 -84L27 116Q27 132 44 132ZM424 132L419 160L394 276L330 625L266 276L241 160L236 132Z" />
<glyph glyph-name="uni0415" unicode="&#x0415;" horiz-adv-x="499" d="M449 684Q449 667 433 667L183 667L183 467L374 467Q390 467 390 450L390 351Q390 334 374 334L183 334L183 132L433 132Q449 132 449 116L449 16Q449 0 433 0L65 0Q50 0 50 16L50 784Q50 800 65 800L433 800Q449 800 449 784Z" />
<glyph glyph-name="uni0416" unicode="&#x0416;" horiz-adv-x="836" d="M486 470L640 785Q648 800 663 800L768 800Q794 800 782 776L612 427L793 23Q805 0 778 0L672 0Q655 0 649 15L523 312L486 241L486 20Q486 0 466 0L370 0Q350 0 350 20L350 241L313 312L187 15Q181 0 164 0L58 0Q31 0 43 23L224 427L54 776Q42 800 68 800L173 800Q188 800 196 785L350 470L350 780Q350 800 370 800L466 800Q486 800 486 780Z" />
<glyph glyph-name="uni0417" unicode="&#x0417;" horiz-adv-x="501" d="M194 0Q50 0 50 144L50 190Q50 206 66 206L170 206Q186 206 186 190L186 172Q186 132 226 132L298 132Q318 132 318 152L318 294Q318 334 278 334L160 334Q140 334 140 354L140 446Q140 466 160 466L278 466Q318 466 318 505L318 648Q318 668 298 668L226 668Q186 668 186 628L186 610Q186 594 170 594L66 594Q50 594 50 610L50 656Q50 800 194 800L306 800Q451 800 451 656L451 472Q451 445 433 425Q415 406 388 401L388 399Q415 394 433 375Q451 355 451 328L451 144Q451 0 306 0Z" />
<glyph glyph-name="uni0418" unicode="&#x0418;" horiz-adv-x="527" d="M170 800Q186 800 186 784L186 362L192 362L344 787Q348 800 362 800L461 800Q477 800 477 784L477 16Q477 0 461 0L357 0Q341 0 341 16L341 440L336 440L183 13Q179 0 165 0L66 0Q50 0 50 16L50 784Q50 800 66 800Z" />
<glyph glyph-name="uni0419" unicode="&#x0419;" horiz-adv-x="527" d="M170 800Q186 800 186 784L186 362L192 362L344 787Q348 800 362 800L461 800Q477 800 477 784L477 16Q477 0 461 0L357 0Q341 0 341 16L341 440L336 440L183 13Q179 0 165 0L66 0Q50 0 50 16L50 784Q50 800 66 800ZM153 867Q153 848 164 848L364 848Q375 848 375 867L375 961Q375 980 364 980L164 980Q153 980 153 961Z" />
<glyph glyph-name="uni041A" unicode="&#x041a;" horiz-adv-x="536" d="M372 0Q355 0 349 15L223 312L186 241L186 20Q186 0 166 0L70 0Q50 0 50 20L50 780Q50 800 70 800L166 800Q186 800 186 780L186 470L340 785Q348 800 363 800L468 800Q494 800 482 776L312 427L493 23Q505 0 478 0Z" />
<glyph glyph-name="uni041B" unicode="&#x041b;" horiz-adv-x="543" d="M399 0Q382 0 377 18L271 554L166 18Q162 0 144 0L49 0Q26 0 31 22L199 782Q204 800 221 800L321 800Q339 800 343 782L512 22Q517 0 494 0Z" />
<glyph glyph-name="uni041C" unicode="&#x041c;" horiz-adv-x="670" d="M600 800Q620 800 620 780L620 20Q620 0 600 0L507 0Q487 0 487 20L487 470L480 470L381 18Q377 0 359 0L310 0Q293 0 288 18L189 470L182 470L182 20Q182 0 162 0L70 0Q50 0 50 20L50 780Q50 800 70 800L202 800Q220 800 224 782L335 284L446 782Q451 800 468 800Z" />
<glyph glyph-name="uni041D" unicode="&#x041d;" horiz-adv-x="500" d="M314 784Q314 800 330 800L433 800Q450 800 450 784L450 16Q450 0 433 0L330 0Q314 0 314 16L314 334L186 334L186 16Q186 0 170 0L67 0Q50 0 50 16L50 784Q50 800 67 800L170 800Q186 800 186 784L186 466L314 466Z" />
<glyph glyph-name="uni041E" unicode="&#x041e;" horiz-adv-x="500" d="M50 656Q50 800 194 800L306 800Q450 800 450 656L450 144Q450 0 306 0L194 0Q50 0 50 144ZM281 129Q321 129 321 169L321 631Q321 671 281 671L223 671Q183 671 183 631L183 169Q183 129 223 129Z" />
<glyph glyph-name="uni041F" unicode="&#x041f;" horiz-adv-x="500" d="M433 800Q450 800 450 784L450 16Q450 0 433 0L330 0Q314 0 314 16L314 668L186 668L186 16Q186 0 170 0L67 0Q50 0 50 16L50 784Q50 800 67 800Z" />
<glyph glyph-name="uni0420" unicode="&#x0420;" horiz-adv-x="500" d="M50 784Q50 800 66 800L306 800Q450 800 450 656L450 412Q450 268 306 268L186 268L186 16Q186 0 170 0L66 0Q50 0 50 16ZM274 400Q314 400 314 440L314 628Q314 668 274 668L186 668L186 400Z" />
<glyph glyph-name="uni0421" unicode="&#x0421;" horiz-adv-x="501" d="M451 548Q451 532 435 532L335 532Q319 532 319 548L319 628Q319 668 279 668L227 668Q187 668 187 628L187 172Q187 132 227 132L279 132Q319 132 319 172L319 252Q319 268 335 268L435 268Q451 268 451 252L451 144Q451 0 307 0L195 0Q50 0 50 144L50 656Q50 800 195 800L307 800Q451 800 451 656Z" />
<glyph glyph-name="uni0422" unicode="&#x0422;" horiz-adv-x="460" d="M414 800Q430 800 430 784L430 684Q430 668 414 668L298 668L298 16Q298 0 282 0L178 0Q162 0 162 16L162 668L46 668Q30 668 30 684L30 784Q30 800 46 800Z" />
<glyph glyph-name="uni0423" unicode="&#x0423;" horiz-adv-x="546" d="M508 800Q534 800 524 777L213 20Q207 0 191 0L95 0Q75 0 75 20L205 332L22 777Q12 800 38 800L138 800Q155 800 161 784L273 497L385 784Q391 800 408 800Z" />
<glyph glyph-name="uni0424" unicode="&#x0424;" horiz-adv-x="764" d="M538 232Q578 232 578 272L578 528Q578 568 538 568L450 568L450 232ZM226 568Q186 568 186 528L186 272Q186 232 226 232L314 232L314 568ZM450 700L570 700Q714 700 714 556L714 244Q714 100 570 100L450 100L450 16Q450 0 434 0L330 0Q314 0 314 16L314 100L194 100Q50 100 50 244L50 556Q50 700 194 700L314 700L314 784Q314 800 330 800L434 800Q450 800 450 784Z" />
<glyph glyph-name="uni0425" unicode="&#x0425;" horiz-adv-x="538" d="M496 24Q506 0 481 0L378 0Q361 0 355 14L259 256L163 14Q157 0 140 0L37 0Q12 0 22 24L180 408L28 776Q18 800 43 800L143 800Q160 800 166 786L259 549L352 786Q358 800 375 800L475 800Q500 800 490 776L337 408Z" />
<glyph glyph-name="uni0426" unicode="&#x0426;" horiz-adv-x="535" d="M67 0Q50 0 50 16L50 784Q50 800 67 800L170 800Q186 800 186 784L186 132L314 132L314 784Q314 800 330 800L433 800Q450 800 450 784L450 132L493 132Q510 132 510 116L510 -84Q510 -100 493 -100L390 -100Q374 -100 374 -84L374 0Z" />
<glyph glyph-name="uni0427" unicode="&#x0427;" horiz-adv-x="504" d="M318 784Q318 800 334 800L438 800Q454 800 454 784L454 16Q454 0 438 0L334 0Q318 0 318 16L318 334L194 334Q50 334 50 478L50 780Q50 800 70 800L166 800Q186 800 186 780L186 506Q186 466 226 466L318 466Z" />
<glyph glyph-name="uni0428" unicode="&#x0428;" horiz-adv-x="764" d="M67 0Q50 0 50 16L50 784Q50 800 67 800L170 800Q186 800 186 784L186 132L314 132L314 784Q314 800 330 800L433 800Q450 800 450 784L450 132L578 132L578 784Q578 800 594 800L697 800Q714 800 714 784L714 16Q714 0 697 0Z" />
<glyph glyph-name="uni0429" unicode="&#x0429;" horiz-adv-x="799" d="M67 0Q50 0 50 16L50 784Q50 800 67 800L170 800Q186 800 186 784L186 132L314 132L314 784Q314 800 330 800L433 800Q450 800 450 784L450 132L578 132L578 784Q578 800 594 800L697 800Q714 800 714 784L714 132L757 132Q774 132 774 116L774 -84Q774 -100 757 -100L654 -100Q638 -100 638 -84L638 0Z" />
<glyph glyph-name="uni042A" unicode="&#x042a;" horiz-adv-x="607" d="M381 334Q421 334 421 294L421 172Q421 132 381 132L293 132L293 334ZM41 800Q25 800 25 784L25 684Q25 668 41 668L157 668L157 16Q157 0 173 0L413 0Q557 0 557 144L557 322Q557 466 413 466L293 466L293 784Q293 800 277 800Z" />
<glyph glyph-name="uni042B" unicode="&#x042b;" horiz-adv-x="766" d="M274 334Q314 334 314 294L314 172Q314 132 274 132L186 132L186 334ZM186 784Q186 800 170 800L66 800Q50 800 50 784L50 16Q50 0 66 0L306 0Q450 0 450 144L450 322Q450 466 306 466L186 466ZM596 800Q580 800 580 784L580 16Q580 0 596 0L700 0Q716 0 716 16L716 784Q716 800 700 800Z" />
<glyph glyph-name="uni042C" unicode="&#x042c;" horiz-adv-x="501" d="M274 334Q314 334 314 294L314 172Q314 132 274 132L186 132L186 334ZM186 784Q186 800 170 800L66 800Q50 800 50 784L50 16Q50 0 66 0L306 0Q450 0 450 144L450 322Q450 466 306 466L186 466Z" />
<glyph glyph-name="uni042D" unicode="&#x042d;" horiz-adv-x="501" d="M314 628Q314 668 274 668L222 668Q182 668 182 628L182 548Q182 532 166 532L66 532Q50 532 50 548L50 656Q50 800 194 800L306 800Q451 800 451 656L451 144Q451 0 306 0L194 0Q50 0 50 144L50 252Q50 268 66 268L166 268Q182 268 182 252L182 172Q182 132 222 132L274 132Q314 132 314 172L314 334L214 334Q198 334 198 351L198 450Q198 467 214 467L314 467Z" />
<glyph glyph-name="uni042E" unicode="&#x042e;" horiz-adv-x="765" d="M488 129Q448 129 448 169L448 631Q448 671 488 671L546 671Q586 671 586 631L586 169Q586 129 546 129ZM315 144Q315 0 459 0L571 0Q715 0 715 144L715 656Q715 800 571 800L459 800Q315 800 315 656L315 466L186 466L186 784Q186 800 170 800L67 800Q50 800 50 784L50 16Q50 0 67 0L170 0Q186 0 186 16L186 334L315 334Z" />
<glyph glyph-name="uni042F" unicode="&#x042f;" horiz-adv-x="511" d="M50 656Q50 800 194 800L445 800Q461 800 461 784L461 16Q461 0 445 0L341 0Q325 0 325 16L325 268L256 268L189 14Q186 0 172 0L68 0Q50 0 54 18L123 280Q50 312 50 412ZM325 400L325 668L226 668Q186 668 186 628L186 440Q186 400 226 400Z" />
<glyph glyph-name="uni0430" unicode="&#x0430;" horiz-adv-x="567" d="M425 0Q412 0 409 14L377 140L189 140L158 14Q155 0 142 0L44 0Q26 0 31 17L197 686Q200 700 214 700L353 700Q367 700 370 686L536 17Q541 0 522 0ZM283 528L220 256L346 256Z" />
<glyph glyph-name="uni0431" unicode="&#x0431;" horiz-adv-x="500" d="M180 283L180 128L280 128Q320 128 320 168L320 243Q320 283 280 283ZM186 412L306 412Q450 410 450 268L450 143Q450 -1 306 -1L66 -1Q50 -1 50 15L50 684Q50 700 66 700L384 700Q400 700 400 684L400 584Q400 568 384 568L186 568Z" />
<glyph glyph-name="uni0432" unicode="&#x0432;" horiz-adv-x="501" d="M451 421Q451 394 433 374Q415 355 388 350L388 348Q415 343 433 324Q451 304 451 277L451 144Q451 0 306 0L66 0Q50 0 50 16L50 684Q50 700 66 700L306 700Q451 700 451 556ZM324 534Q324 574 284 574L174 574L174 415L284 415Q324 415 324 454ZM324 243Q324 283 284 283L174 283L174 126L284 126Q324 126 324 166Z" />
<glyph glyph-name="uni0433" unicode="&#x0433;" horiz-adv-x="500" d="M450 584Q450 568 434 568L186 568L186 16Q186 0 170 0L66 0Q50 0 50 16L50 684Q50 700 66 700L434 700Q450 700 450 684Z" />
<glyph glyph-name="uni0434" unicode="&#x0434;" horiz-adv-x="617" d="M85 132L222 686Q225 700 239 700L378 700Q392 700 395 686L532 132L575 132Q592 132 592 116L592 -84Q592 -100 575 -100L472 -100Q456 -100 456 -84L456 0L161 0L161 -84Q161 -100 145 -100L42 -100Q25 -100 25 -84L25 116Q25 132 42 132ZM404 132L402 140L371 256L308 528L245 256L214 140L212 132Z" />
<glyph glyph-name="uni0435" unicode="&#x0435;" horiz-adv-x="499" d="M449 584Q449 567 433 567L186 567L186 415L374 415Q390 415 390 398L390 299Q390 282 374 282L186 282L186 132L433 132Q449 132 449 116L449 16Q449 0 433 0L65 0Q50 0 50 16L50 684Q50 700 65 700L433 700Q449 700 449 684Z" />
<glyph glyph-name="uni0436" unicode="&#x0436;" horiz-adv-x="826" d="M481 420L635 685Q643 700 658 700L763 700Q774 700 779 693Q783 686 777 676L607 377L788 23Q800 0 773 0L667 0Q652 0 644 15L518 262L481 191L481 20Q481 0 461 0L365 0Q345 0 345 20L345 191L308 262L182 15Q174 0 159 0L53 0Q26 0 38 23L219 377L49 676Q43 686 47 693Q52 700 63 700L168 700Q183 700 191 685L345 420L345 680Q345 700 365 700L461 700Q481 700 481 680Z" />
<glyph glyph-name="uni0437" unicode="&#x0437;" horiz-adv-x="501" d="M188 0Q50 3 50 144L50 201Q50 217 66 217L160 217Q176 217 176 201L176 166Q176 126 216 126L284 126Q324 126 324 166L324 243Q324 283 284 283L165 283Q149 283 149 299L149 399Q149 415 165 415L284 415Q324 415 324 454L324 534Q324 574 284 574L216 574Q176 574 176 534L176 502Q176 486 160 486L66 486Q50 486 50 502L50 556Q50 697 188 700L306 700Q451 700 451 556L451 421Q451 394 433 374Q415 355 388 350L388 348Q415 343 433 324Q451 304 451 277L451 144Q451 0 306 0Z" />
<glyph glyph-name="uni0438" unicode="&#x0438;" horiz-adv-x="527" d="M160 700Q176 700 176 684L176 305L364 687Q370 700 382 700L461 700Q477 700 477 684L477 16Q477 0 461 0L367 0Q351 0 351 16L351 395L163 13Q157 0 145 0L66 0Q50 0 50 16L50 684Q50 700 66 700Z" />
<glyph glyph-name="uni0439" unicode="&#x0439;" horiz-adv-x="527" d="M160 700Q176 700 176 684L176 305L364 687Q370 700 382 700L461 700Q477 700 477 684L477 16Q477 0 461 0L367 0Q351 0 351 16L351 395L163 13Q157 0 145 0L66 0Q50 0 50 16L50 684Q50 700 66 700ZM358 888Q374 888 374 872L374 772Q374 756 358 756L180 756Q164 756 164 772L164 872Q164 888 180 888Z" />
<glyph glyph-name="uni043A" unicode="&#x043a;" horiz-adv-x="536" d="M372 0Q357 0 349 15L223 262L186 191L186 20Q186 0 166 0L70 0Q50 0 50 20L50 680Q50 700 70 700L166 700Q186 700 186 680L186 420L340 685Q348 700 363 700L468 700Q479 700 484 693Q488 686 482 676L312 377L493 23Q505 0 478 0Z" />
<glyph glyph-name="uni043B" unicode="&#x043b;" horiz-adv-x="523" d="M383 0Q366 0 361 18L261 470L162 18Q158 0 140 0L49 0Q26 0 31 22L189 682Q194 700 211 700L311 700Q329 700 333 682L492 22Q497 0 474 0Z" />
<glyph glyph-name="uni043C" unicode="&#x043c;" horiz-adv-x="670" d="M600 700Q620 700 620 680L620 20Q620 0 600 0L507 0Q487 0 487 20L487 413L480 413L386 17Q381 0 364 0L305 0Q288 0 283 17L189 413L182 413L182 20Q182 0 162 0L70 0Q50 0 50 20L50 680Q50 700 70 700L202 700Q219 700 224 683L335 237L446 683Q451 700 468 700Z" />
<glyph glyph-name="uni043D" unicode="&#x043d;" horiz-adv-x="500" d="M314 684Q314 700 330 700L433 700Q450 700 450 684L450 16Q450 0 433 0L330 0Q314 0 314 16L314 282L186 282L186 16Q186 0 170 0L67 0Q50 0 50 16L50 684Q50 700 67 700L170 700Q186 700 186 684L186 414L314 414Z" />
<glyph glyph-name="uni043E" unicode="&#x043e;" horiz-adv-x="500" d="M50 556Q50 700 194 700L306 700Q450 700 450 556L450 144Q450 0 306 0L194 0Q50 0 50 144ZM284 129Q324 129 324 169L324 531Q324 571 284 571L220 571Q180 571 180 531L180 169Q180 129 220 129Z" />
<glyph glyph-name="uni043F" unicode="&#x043f;" horiz-adv-x="500" d="M433 700Q450 700 450 684L450 16Q450 0 433 0L330 0Q314 0 314 16L314 568L186 568L186 16Q186 0 170 0L67 0Q50 0 50 16L50 684Q50 700 67 700Z" />
<glyph glyph-name="uni0440" unicode="&#x0440;" horiz-adv-x="500" d="M50 684Q50 700 66 700L306 700Q450 700 450 556L450 360Q450 218 306 216L180 215L180 15Q180 -1 164 -1L66 0Q50 0 50 16ZM280 345Q320 345 320 385L320 531Q320 571 280 571L180 570L180 344Z" />
<glyph glyph-name="uni0441" unicode="&#x0441;" horiz-adv-x="501" d="M451 448Q451 432 435 432L341 432Q325 432 325 448L325 530Q325 570 285 570L221 570Q181 570 181 530L181 167Q181 127 221 127L285 127Q325 127 325 167L325 252Q325 268 341 268L435 268Q451 268 451 252L451 144Q451 0 307 0L195 0Q50 0 50 144L50 556Q50 700 195 700L307 700Q451 700 451 556Z" />
<glyph glyph-name="uni0442" unicode="&#x0442;" horiz-adv-x="460" d="M46 700Q30 700 30 684L30 584Q30 568 46 568L162 568L162 16Q162 0 178 0L282 0Q298 0 298 16L298 568L414 568Q430 568 430 584L430 684Q430 700 414 700Z" />
<glyph glyph-name="uni0443" unicode="&#x0443;" horiz-adv-x="526" d="M498 700Q525 700 514 677L231 20Q231 0 211 0L115 0Q95 0 95 20L195 262L12 677Q1 700 28 700L128 700Q145 700 151 684L263 427L375 684Q381 700 398 700Z" />
<glyph glyph-name="uni0444" unicode="&#x0444;" horiz-adv-x="770" d="M550 229Q590 229 590 269L590 431Q590 471 550 471L450 471L450 229ZM320 228L320 470L220 470Q180 470 180 430L180 268Q180 228 220 228ZM450 600L576 600Q720 600 720 456L720 244Q720 102 576 100L450 100L450 15Q450 -1 434 -1L336 0Q320 0 320 16L320 99L194 99Q50 99 50 243L50 455Q50 597 194 599L320 599L320 684Q320 700 336 700L434 700Q450 700 450 684Z" />
<glyph glyph-name="uni0445" unicode="&#x0445;" horiz-adv-x="570" d="M527 24Q539 0 512 0L409 0Q393 0 386 14L280 231L174 14Q167 0 151 0L48 0Q21 0 33 24L202 358L43 676Q30 700 58 700L161 700Q177 700 184 686L280 484L376 686Q383 700 399 700L502 700Q530 700 517 676L359 358Z" />
<glyph glyph-name="uni0446" unicode="&#x0446;" horiz-adv-x="526" d="M67 0Q50 0 50 16L50 684Q50 700 67 700L170 700Q186 700 186 684L186 132L314 132L314 684Q314 700 330 700L433 700Q450 700 450 684L450 132L483 132Q500 132 500 116L500 -84Q500 -100 483 -100L380 -100Q364 -100 364 -84L364 0Z" />
<glyph glyph-name="uni0447" unicode="&#x0447;" horiz-adv-x="504" d="M226 414Q186 414 186 454L186 680Q186 700 166 700L70 700Q50 700 50 680L50 426Q50 282 194 282L318 282L318 16Q318 0 334 0L438 0Q454 0 454 16L454 684Q454 700 438 700L334 700Q318 700 318 684L318 414Z" />
<glyph glyph-name="uni0448" unicode="&#x0448;" horiz-adv-x="764" d="M67 0Q50 0 50 16L50 684Q50 700 67 700L170 700Q186 700 186 684L186 132L314 132L314 684Q314 700 330 700L433 700Q450 700 450 684L450 132L578 132L578 684Q578 700 594 700L697 700Q714 700 714 684L714 16Q714 0 697 0Z" />
<glyph glyph-name="uni0449" unicode="&#x0449;" horiz-adv-x="790" d="M67 0Q50 0 50 16L50 684Q50 700 67 700L170 700Q186 700 186 684L186 132L314 132L314 684Q314 700 330 700L433 700Q450 700 450 684L450 132L578 132L578 684Q578 700 594 700L697 700Q714 700 714 684L714 132L747 132Q764 132 764 116L764 -84Q764 -100 747 -100L644 -100Q628 -100 628 -84L628 0Z" />
<glyph glyph-name="uni044A" unicode="&#x044a;" horiz-adv-x="608" d="M293 283L293 128L388 128Q428 128 428 168L428 243Q428 283 388 283ZM278 700Q294 700 294 684L294 412L414 412Q558 410 558 268L558 143Q558 -1 414 -1L174 -1Q158 -1 158 15L158 568L42 568Q26 568 26 584L26 684Q26 700 42 700Z" />
<glyph glyph-name="uni044B" unicode="&#x044b;" horiz-adv-x="738" d="M185 283L185 128L280 128Q320 128 320 168L320 243Q320 283 280 283ZM186 412L306 412Q450 410 450 268L450 143Q450 -1 306 -1L66 -1Q50 -1 50 15L50 684Q50 700 66 700L170 700Q186 700 186 684ZM568 0Q552 0 552 16L552 684Q552 700 568 700L672 700Q688 700 688 684L688 16Q688 0 672 0Z" />
<glyph glyph-name="uni044C" unicode="&#x044c;" horiz-adv-x="500" d="M185 283L185 128L280 128Q320 128 320 168L320 243Q320 283 280 283ZM186 412L306 412Q450 410 450 268L450 143Q450 -1 306 -1L66 -1Q50 -1 50 15L50 684Q50 700 66 700L170 700Q186 700 186 684Z" />
<glyph glyph-name="uni044D" unicode="&#x044d;" horiz-adv-x="501" d="M320 415L320 530Q320 570 280 570L216 570Q176 570 176 530L176 448Q176 432 160 432L66 432Q50 432 50 448L50 556Q50 700 194 700L306 700Q451 700 451 556L451 144Q451 0 306 0L194 0Q50 0 50 144L50 252Q50 268 66 268L160 268Q176 268 176 252L176 167Q176 127 216 127L280 127Q320 127 320 167L320 282L217 282Q201 282 201 299L201 398Q201 415 217 415Z" />
<glyph glyph-name="uni044E" unicode="&#x044e;" horiz-adv-x="759" d="M479 129Q439 129 439 169L439 531Q439 571 479 571L543 571Q583 571 583 531L583 169Q583 129 543 129ZM309 144Q309 0 453 0L565 0Q709 0 709 144L709 556Q709 700 565 700L453 700Q309 700 309 556L309 414L186 414L186 684Q186 700 170 700L67 700Q50 700 50 684L50 16Q50 0 67 0L170 0Q186 0 186 16L186 282L309 282Z" />
<glyph glyph-name="uni044F" unicode="&#x044f;" horiz-adv-x="500" d="M50 556Q50 700 194 700L434 700Q450 700 450 684L450 16Q450 0 434 0L336 0Q320 0 320 16L320 211L231 211L183 14Q180 0 166 0L68 0Q49 0 54 18L106 233Q50 268 50 355ZM320 340L320 571L220 571Q180 571 180 531L180 380Q180 340 220 340Z" />
<glyph glyph-name="uni0451" unicode="&#x0451;" horiz-adv-x="499" d="M449 584Q449 567 433 567L186 567L186 415L374 415Q390 415 390 398L390 299Q390 282 374 282L186 282L186 132L433 132Q449 132 449 116L449 16Q449 0 433 0L65 0Q50 0 50 16L50 684Q50 700 65 700L433 700Q449 700 449 684ZM82 777Q82 757 102 757L193 757Q213 757 213 777L213 869Q213 889 193 889L102 889Q82 889 82 869ZM282 777Q282 757 302 757L393 757Q413 757 413 777L413 869Q413 889 393 889L302 889Q282 889 282 869Z" />
<glyph glyph-name="endash" unicode="&#x2013;" horiz-adv-x="527" d="M50 406Q50 426 70 426L457 426Q477 426 477 406L477 314Q477 294 457 294L70 294Q50 294 50 314Z" />
<glyph glyph-name="emdash" unicode="&#x2014;" horiz-adv-x="743" d="M50 406Q50 426 70 426L673 426Q693 426 693 406L693 314Q693 294 673 294L70 294Q50 294 50 314Z" />
<glyph glyph-name="quoteleft" unicode="&#x2018;" horiz-adv-x="231" d="M181 588Q181 568 161 568L70 568Q50 568 50 588L50 686Q50 700 57 711L111 793Q115 800 123 800L168 800Q181 800 176 788L136 700L161 700Q181 700 181 680Z" />
<glyph glyph-name="quoteright" unicode="&#x2019;" horiz-adv-x="231" d="M50 780Q50 800 70 800L161 800Q181 800 181 780L181 682Q181 668 174 657L120 575Q116 568 108 568L63 568Q50 568 55 580L95 668L70 668Q50 668 50 688Z" />
<glyph glyph-name="quotedblleft" unicode="&#x201c;" horiz-adv-x="401" d="M181 588Q181 568 161 568L70 568Q50 568 50 588L50 686Q50 700 57 711L111 793Q115 800 123 800L168 800Q181 800 176 788L136 700L161 700Q181 700 181 680ZM351 588Q351 568 331 568L240 568Q220 568 220 588L220 686Q220 700 227 711L281 793Q285 800 293 800L338 800Q351 800 346 788L306 700L331 700Q351 700 351 680Z" />
<glyph glyph-name="quotedblright" unicode="&#x201d;" horiz-adv-x="409" d="M50 780Q50 800 70 800L161 800Q181 800 181 780L181 682Q181 668 174 657L120 575Q116 568 108 568L63 568Q50 568 55 580L95 668L70 668Q50 668 50 688ZM228 780Q228 800 248 800L339 800Q359 800 359 780L359 682Q359 668 352 657L298 575Q294 568 286 568L241 568Q228 568 233 580L273 668L248 668Q228 668 228 688Z" />
<glyph glyph-name="ellipsis" unicode="&#x2026;" horiz-adv-x="631" d="M50 112Q50 132 70 132L161 132Q181 132 181 112L181 20Q181 0 161 0L70 0Q50 0 50 20ZM250 112Q250 132 270 132L361 132Q381 132 381 112L381 20Q381 0 361 0L270 0Q250 0 250 20ZM450 112Q450 132 470 132L561 132Q581 132 581 112L581 20Q581 0 561 0L470 0Q450 0 450 20Z" />
<glyph glyph-name="Euro" unicode="&#x20ac;" horiz-adv-x="579" d="M301 668Q261 668 261 627L261 550L432 550Q453 550 450 529L438 456Q435 438 417 438L261 438L261 362L392 362Q413 362 410 341L398 268Q395 250 377 250L261 250L261 172Q261 132 301 132L509 132Q529 132 529 112L529 30Q529 11 509 9L273 0Q203 -3 166 35Q129 73 129 144L129 250L69 250Q47 250 50 271L62 344Q65 362 83 362L129 362L129 438L89 438Q67 438 70 459L82 532Q85 550 104 550L129 550L129 655Q129 726 166 764Q203 803 273 800L509 791Q529 789 529 770L529 688Q529 668 509 668Z" />
<glyph glyph-name="minus" unicode="&#x2212;" horiz-adv-x="696" d="M646 344Q646 324 626 324L70 324Q50 324 50 344L50 438Q50 458 70 458L626 458Q646 458 646 438Z" /></font>
</defs>
</svg>
